 <svg  version="1.0" xmlns="http://www.w3.org/2000/svg"  width="900.000000pt" height="450.000000pt" viewBox="0 0 900.000000 450.000000"  preserveAspectRatio="xMidYMid meet">  <g transform="translate(0.000000,450.000000) scale(0.100000,-0.100000)" fill="#aac7d8" stroke="none"> <path d="M985 3781 c-11 -5 -28 -18 -39 -29 -10 -12 -31 -24 -46 -27 -16 -3 -35 -17 -44 -30 -8 -13 -32 -29 -53 -35 -21 -7 -47 -20 -58 -30 -11 -10 -37 -25 -57 -33 -21 -9 -57 -31 -80 -49 -24 -18 -45 -34 -47 -35 -2 -1 -3 -296 -2 -655 1 -598 3 -654 18 -665 18 -14 210 -18 228 -5 34 24 48 68 49 156 1 89 1 91 29 100 48 17 58 -5 60 -135 l2 -114 50 -7 c28 -3 181 -7 341 -7 255 -1 293 1 305 15 9 11 12 46 11 119 -2 113 0 118 59 129 55 10 61 -5 60 -133 -2 -96 0 -111 16 -119 10 -6 157 -11 339 -11 284 -2 324 0 338 14 13 13 16 38 16 125 0 99 2 110 20 120 21 11 66 4 88 -13 9 -7 12 -38 10 -113 -2 -74 1 -106 10 -116 15 -15 448 -24 470 -10 7 5 18 27 22 48 5 21 10 315 10 652 l0 613 -48 44 c-26 24 -59 47 -74 50 -14 4 -40 19 -57 36 -17 16 -39 29 -50 29 -10 0 -38 16 -61 35 -23 19 -48 35 -55 35 -7 0 -27 11 -43 25 -17 14 -44 28 -60 31 -25 5 -35 1 -57 -24 -14 -16 -39 -32 -55 -35 -16 -4 -42 -20 -60 -37 -17 -16 -39 -30 -50 -30 -11 0 -34 -13 -52 -29 -18 -15 -43 -31 -56 -35 -12 -4 -36 -22 -52 -39 l-29 -31 -28 26 c-15 15 -45 34 -65 42 -21 9 -42 25 -48 36 -6 11 -29 24 -53 31 -23 6 -53 21 -67 35 -14 13 -40 28 -57 34 -17 7 -39 22 -48 36 -22 34 -67 32 -106 -6 -17 -16 -41 -32 -53 -36 -11 -4 -36 -20 -54 -35 -18 -16 -41 -29 -52 -29 -11 0 -35 -14 -54 -30 -19 -17 -48 -35 -65 -41 -17 -6 -36 -20 -42 -30 -13 -25 -55 -25 -69 1 -6 11 -27 27 -46 35 -20 8 -49 26 -66 40 -16 14 -36 25 -43 25 -8 0 -29 13 -47 29 -18 15 -49 33 -69 40 -20 6 -46 23 -57 36 -23 26 -42 30 -77 16z m108 -155 c26 -19 59 -37 72 -40 14 -4 25 -11 25 -17 0 -5 26 -22 58 -35 31 -14 61 -32 65 -40 5 -8 22 -20 38 -27 l30 -12 1 -584 c0 -375 -4 -587 -10 -593 -8 -8 -199 -14 -304 -9 -39 2 -62 104 -38 166 9 23 6 32 -14 56 -14 16 -27 38 -31 49 -6 18 -15 20 -85 20 l-78 0 -32 -41 c-31 -39 -32 -43 -27 -112 4 -58 1 -79 -14 -109 -12 -24 -27 -38 -38 -38 -46 0 -46 -2 -43 599 1 311 2 571 2 578 0 20 73 82 110 94 19 6 44 20 55 30 11 10 37 25 58 34 21 9 41 23 44 31 3 9 15 20 27 24 43 17 81 10 129 -24z m811 5 c15 -15 45 -34 67 -40 22 -7 42 -18 45 -26 3 -8 27 -22 52 -31 26 -10 67 -35 91 -56 l43 -38 0 -502 c-1 -277 2 -523 6 -548 11 -64 -3 -97 -46 -116 -22 -9 -47 -12 -62 -8 -14 3 -73 6 -131 5 l-106 -2 -13 31 c-9 21 -11 55 -7 102 8 90 -14 142 -64 152 -51 10 -107 7 -143 -8 -44 -18 -57 -57 -54 -168 1 -72 -1 -91 -17 -108 -24 -26 -35 -25 -72 8 l-31 27 6 405 c4 223 4 477 1 565 l-5 160 45 42 c26 23 65 47 89 54 24 6 47 20 52 30 6 9 27 23 47 30 21 6 53 25 71 40 45 40 98 40 136 0z m827 -1 c12 -16 35 -32 50 -35 15 -4 34 -13 41 -22 7 -9 36 -27 63 -39 28 -13 65 -36 83 -51 l33 -28 0 -571 c0 -313 -3 -578 -7 -587 -11 -30 -38 -37 -98 -27 -34 5 -78 5 -113 0 -32 -6 -66 -10 -75 -10 -26 0 -42 63 -35 145 7 81 -1 100 -57 134 -43 27 -156 30 -180 5 -17 -16 -18 -21 -20 -157 -1 -80 -3 -91 -25 -108 -28 -23 -74 -25 -91 -4 -10 12 -12 144 -11 592 1 577 3 603 35 603 7 0 22 11 33 24 12 13 38 29 59 36 22 7 50 23 64 35 14 12 39 27 56 33 17 5 43 22 57 36 20 20 36 26 71 26 39 0 49 -4 67 -30z"/> <path d="M804 3328 c-34 -65 3 -201 49 -182 24 10 67 91 67 127 0 28 -7 40 -34 61 -45 34 -62 33 -82 -6z"/> <path d="M1132 3329 c-4 -13 -6 -55 -3 -94 l6 -70 36 -3 c46 -4 71 23 79 89 8 64 -8 88 -67 96 -38 5 -43 3 -51 -18z"/> <path d="M811 2966 c-25 -39 -28 -105 -6 -144 31 -58 30 -58 74 -12 53 56 57 103 11 143 -16 15 -30 32 -30 37 0 22 -30 8 -49 -24z"/> <path d="M1136 2959 c-11 -52 -12 -105 -3 -131 10 -32 41 -37 87 -13 31 16 40 36 35 75 -2 14 -4 33 -4 43 -1 17 -31 33 -83 44 -22 4 -28 1 -32 -18z"/> <path d="M1635 3333 c-31 -35 -33 -88 -4 -144 17 -34 24 -40 46 -37 29 3 40 27 48 107 5 51 -18 101 -47 101 -9 0 -29 -12 -43 -27z"/> <path d="M1972 3348 c-14 -14 -16 -165 -3 -186 27 -43 100 36 101 107 0 59 -65 112 -98 79z"/> <path d="M1633 2961 c-43 -51 -42 -92 6 -148 19 -24 39 -43 43 -43 12 0 48 91 48 122 0 35 -36 108 -53 107 -6 0 -26 -17 -44 -38z"/> <path d="M1970 2974 c-20 -52 -6 -204 19 -204 4 0 24 18 44 41 48 53 50 94 5 150 -37 45 -55 49 -68 13z"/> <path d="M2796 3338 c-18 -25 -20 -73 -6 -132 25 -111 90 -66 90 64 0 51 -22 90 -50 90 -10 0 -26 -10 -34 -22z"/> <path d="M2453 3335 c-31 -13 -33 -17 -33 -66 0 -45 4 -55 35 -86 39 -39 63 -40 82 -3 13 26 18 126 7 154 -8 20 -48 20 -91 1z"/> <path d="M2798 2964 c-10 -19 -18 -53 -18 -75 0 -40 33 -119 49 -119 5 0 19 15 30 34 29 46 29 127 0 167 -27 38 -40 36 -61 -7z"/> <path d="M2460 2962 c-33 -16 -35 -21 -38 -69 -3 -50 -1 -54 30 -73 68 -41 98 -20 98 70 0 88 -21 105 -90 72z"/> <path d="M3630 3783 c-14 -3 -36 -15 -50 -27 -14 -13 -39 -28 -57 -35 -17 -7 -39 -21 -48 -32 -10 -10 -33 -23 -51 -29 -19 -7 -39 -20 -44 -31 -6 -11 -30 -24 -56 -30 -24 -6 -50 -20 -57 -30 -7 -9 -25 -23 -39 -30 -15 -6 -28 -17 -30 -23 -2 -6 -1 -308 2 -671 l5 -660 114 -3 c78 -2 118 1 128 9 12 10 13 32 8 119 -8 118 -6 123 57 133 58 9 69 -14 62 -127 -9 -142 -39 -130 356 -134 233 -3 336 0 344 8 6 6 11 56 11 127 0 117 0 117 26 127 18 6 34 4 55 -5 29 -14 29 -16 30 -100 1 -111 8 -137 40 -149 33 -13 644 -13 664 0 12 8 14 30 12 115 -1 61 2 114 8 125 14 26 52 26 75 0 15 -17 17 -31 11 -97 -7 -76 -6 -79 22 -113 l30 -35 230 -3 c222 -3 232 -2 251 17 21 21 21 29 21 659 0 350 -4 642 -8 648 -4 6 -26 21 -49 34 -24 13 -43 27 -43 31 0 4 -18 14 -39 22 -22 9 -51 28 -65 42 -14 14 -34 25 -45 25 -11 0 -35 12 -53 28 -18 15 -50 35 -70 45 -21 9 -38 21 -38 26 0 5 -16 15 -35 21 -34 11 -39 10 -88 -23 -29 -19 -62 -38 -74 -42 -13 -3 -23 -10 -23 -16 0 -5 -27 -22 -59 -39 -33 -16 -62 -34 -66 -40 -3 -6 -21 -17 -40 -24 -18 -8 -38 -24 -45 -35 -13 -25 -52 -28 -71 -4 -8 9 -33 25 -56 35 -23 10 -49 27 -56 38 -8 11 -29 25 -48 32 -19 6 -49 24 -67 40 -18 15 -39 28 -47 28 -7 0 -27 11 -43 25 -34 28 -92 34 -114 11 -8 -7 -34 -24 -59 -36 -24 -12 -55 -32 -69 -45 -14 -13 -36 -26 -50 -30 -14 -4 -36 -17 -50 -30 -14 -13 -36 -26 -50 -30 -14 -4 -37 -20 -52 -37 -22 -23 -31 -27 -47 -19 -10 6 -21 17 -24 25 -4 9 -22 22 -42 31 -20 8 -50 26 -67 40 -16 14 -36 25 -43 25 -7 0 -32 16 -55 35 -23 19 -48 35 -55 35 -7 0 -29 14 -50 30 -21 17 -41 29 -44 29 -3 -1 -17 -4 -31 -6z m87 -153 c18 -16 40 -30 48 -30 8 0 29 -13 47 -29 18 -15 50 -34 71 -40 21 -7 50 -22 65 -34 15 -12 36 -27 47 -33 20 -11 20 -22 20 -589 0 -388 -3 -583 -11 -592 -6 -9 -26 -15 -50 -15 -295 2 -283 1 -294 22 -6 11 -12 69 -13 129 -3 137 -6 141 -100 141 -60 0 -77 -4 -109 -26 -46 -32 -50 -43 -52 -161 -1 -80 -4 -97 -20 -108 -16 -12 -23 -12 -47 0 -15 8 -31 25 -35 37 -4 13 -7 274 -6 582 l2 558 48 39 c25 21 62 44 82 50 19 7 47 22 62 35 16 12 38 26 50 30 13 4 38 20 56 35 45 40 93 39 139 -1z m830 -4 c13 -14 30 -26 38 -26 7 0 27 -11 43 -25 16 -13 49 -34 73 -45 24 -11 58 -30 75 -43 18 -12 39 -26 48 -32 15 -9 17 -59 17 -579 0 -562 -1 -570 -21 -590 -17 -17 -30 -20 -78 -17 -95 6 -105 6 -174 -2 -62 -7 -68 -6 -78 14 -7 12 -13 70 -13 130 -2 141 -4 143 -131 147 -90 4 -95 3 -107 -20 -7 -13 -16 -73 -19 -137 -5 -96 -8 -115 -25 -127 -23 -17 -81 -18 -92 -1 -11 19 -4 1181 8 1185 5 2 22 14 37 27 15 12 49 32 77 44 27 12 57 31 67 41 11 11 27 20 37 20 11 0 39 16 62 36 39 32 48 36 87 31 31 -3 52 -13 69 -31z m819 1 c13 -14 33 -29 45 -32 13 -4 40 -20 62 -36 22 -16 45 -29 52 -29 7 0 28 -12 48 -27 19 -16 42 -32 52 -38 15 -9 16 -57 16 -580 0 -314 -3 -579 -7 -589 -10 -26 -38 -33 -112 -25 -37 4 -92 3 -122 -3 -53 -10 -55 -9 -79 18 -22 26 -23 34 -18 108 9 132 -22 166 -151 166 l-80 0 -13 -32 c-9 -21 -13 -61 -11 -111 3 -90 -12 -128 -59 -153 -29 -14 -33 -14 -48 0 -14 15 -15 76 -13 604 2 536 4 588 19 597 9 6 26 20 37 31 12 12 40 27 63 34 23 7 52 24 64 36 13 13 30 24 40 24 9 0 37 16 60 36 39 32 48 36 87 31 30 -3 52 -13 68 -30z"/> <path d="M3770 3344 c-11 -28 -12 -126 -1 -164 14 -52 61 -34 92 35 29 63 24 95 -18 128 -45 34 -61 34 -73 1z"/> <path d="M3445 3340 c-15 -16 -17 -32 -13 -90 6 -74 18 -100 50 -100 25 0 48 55 48 117 0 80 -44 118 -85 73z"/> <path d="M3450 2968 c-45 -49 -12 -221 37 -190 22 14 43 73 43 120 0 38 -5 53 -23 70 -29 27 -31 27 -57 0z"/> <path d="M3770 2961 c-5 -11 -10 -44 -10 -73 0 -93 39 -119 98 -65 16 15 22 32 22 63 0 35 -5 47 -31 68 -36 31 -64 33 -79 7z"/> <path d="M4601 3343 c-19 -40 -19 -72 1 -150 9 -36 15 -43 35 -43 28 0 40 26 49 104 6 54 -1 80 -32 110 -23 24 -32 20 -53 -21z"/> <path d="M4273 3340 c-29 -17 -33 -25 -33 -60 0 -47 35 -117 64 -126 30 -10 48 19 53 90 5 51 2 71 -11 91 -20 30 -31 31 -73 5z"/> <path d="M4610 2970 c-37 -52 -31 -142 12 -178 16 -13 28 -6 51 28 31 44 17 133 -26 169 -12 10 -19 6 -37 -19z"/> <path d="M4280 2963 c-35 -24 -40 -33 -40 -76 0 -29 7 -46 29 -68 33 -33 40 -34 66 -15 24 17 33 117 15 152 -16 28 -36 30 -70 7z"/> <path d="M5423 3338 c-45 -32 -45 -80 0 -139 36 -47 45 -53 67 -39 18 11 30 133 17 173 -11 34 -40 36 -84 5z"/> <path d="M5067 3335 c-4 -9 -7 -43 -7 -76 0 -64 21 -99 59 -99 40 0 64 33 69 96 5 71 -6 84 -72 91 -34 4 -44 2 -49 -12z"/> <path d="M5423 2954 c-27 -21 -33 -32 -33 -65 0 -46 35 -89 73 -89 37 0 47 19 47 90 0 94 -26 113 -87 64z"/> <path d="M5078 2959 c-24 -14 -26 -130 -2 -153 8 -9 17 -16 18 -16 13 0 82 35 88 44 11 17 10 95 -2 117 -12 21 -72 26 -102 8z"/> <path d="M7055 2670 c-8 -16 -26 -32 -40 -36 -13 -3 -31 -17 -39 -30 -9 -13 -33 -28 -55 -34 -69 -18 -66 2 -69 -474 -2 -344 0 -435 10 -449 13 -17 55 -18 803 -18 660 0 790 2 796 14 5 7 9 201 10 430 1 475 6 448 -84 491 -30 14 -60 32 -67 41 -7 9 -28 22 -46 30 -18 7 -40 25 -49 39 -26 39 -72 35 -125 -9 -23 -19 -49 -35 -59 -35 -9 0 -33 -14 -54 -31 -20 -16 -47 -31 -59 -31 -60 -4 -87 4 -115 31 -17 16 -45 32 -62 36 -17 4 -40 19 -52 36 -16 23 -28 29 -57 29 -43 0 -55 -7 -70 -37 -7 -12 -25 -24 -41 -28 -17 -3 -47 -20 -67 -36 -30 -24 -46 -29 -89 -29 -43 0 -59 5 -90 30 -21 17 -48 33 -60 36 -12 3 -32 19 -44 35 -18 24 -29 29 -66 29 -39 0 -46 -4 -60 -30z m116 -100 c5 0 26 -15 46 -34 21 -18 49 -37 63 -41 14 -4 37 -16 52 -26 15 -11 34 -16 45 -13 41 14 130 59 158 80 69 51 150 51 213 0 32 -26 110 -72 146 -86 22 -8 30 -6 47 14 12 14 33 27 47 31 14 3 40 19 57 34 17 15 55 33 86 40 51 12 58 12 96 -7 22 -12 43 -28 46 -37 4 -8 24 -22 46 -31 72 -29 71 -22 71 -408 0 -190 -4 -347 -9 -350 -15 -10 -1434 -7 -1443 2 -10 10 -13 716 -3 732 4 6 23 19 43 30 20 11 49 30 63 41 28 22 85 40 107 33 8 -2 18 -4 23 -4z"/> <path d="M7515 2420 c-9 -10 -19 -36 -22 -58 -4 -32 -1 -44 16 -61 41 -41 81 9 67 84 -9 45 -37 62 -61 35z"/> <path d="M8032 2427 c-17 -20 -30 -81 -22 -103 23 -61 80 -42 80 27 0 62 -34 106 -58 76z"/> <path d="M7192 2413 c-28 -55 -18 -123 20 -123 21 0 58 34 58 54 0 17 -42 78 -57 83 -6 2 -16 -4 -21 -14z"/> <path d="M7700 2404 c-33 -85 21 -144 76 -83 14 16 15 23 4 50 -26 62 -63 77 -80 33z"/> <path d="M6994 2384 c-20 -47 -6 -87 28 -82 31 4 45 46 27 83 -21 42 -37 42 -55 -1z"/> <path d="M8225 2376 c-10 -16 -14 -33 -10 -47 6 -19 12 -21 47 -16 23 3 47 12 55 19 11 12 10 17 -9 35 -38 35 -65 38 -83 9z"/> <path d="M7191 2176 c-31 -37 -17 -127 21 -134 43 -8 77 80 46 120 -19 24 -53 31 -67 14z"/> <path d="M7502 2178 c-7 -7 -12 -35 -12 -63 0 -55 12 -75 45 -75 33 0 45 20 45 75 0 55 -12 75 -45 75 -12 0 -26 -5 -33 -12z"/> <path d="M8021 2176 c-18 -22 -10 -117 12 -130 31 -19 52 4 55 63 3 56 -9 81 -38 81 -10 0 -23 -6 -29 -14z"/> <path d="M6990 2161 c-22 -43 -5 -111 28 -111 29 0 42 21 42 65 0 23 -5 46 -12 53 -18 18 -46 14 -58 -7z"/> <path d="M7697 2173 c-12 -11 -8 -108 5 -121 34 -34 88 7 88 66 0 21 -5 43 -12 50 -13 13 -70 17 -81 5z"/> <path d="M8214 2156 c-3 -8 -4 -31 -2 -52 3 -35 6 -39 32 -42 15 -2 39 -1 52 2 20 5 24 13 24 46 0 34 -4 42 -26 50 -36 14 -74 12 -80 -4z"/> <path d="M6258 2309 c-20 -11 -24 -49 -7 -66 6 -6 9 -21 7 -34 -3 -22 -9 -25 -70 -30 -80 -7 -98 -19 -98 -69 0 -34 4 -39 31 -49 18 -6 53 -11 79 -11 61 0 77 -17 56 -59 -21 -40 -20 -58 3 -71 31 -16 117 -12 135 6 19 19 19 17 4 66 -15 51 -4 61 64 60 29 -1 58 2 64 6 16 11 25 69 14 97 -8 22 -15 24 -77 27 l-68 3 1 30 c1 17 5 39 9 51 11 34 -18 54 -78 54 -29 0 -60 -5 -69 -11z"/> <path d="M1005 2091 c-3 -5 -31 -19 -63 -31 -31 -12 -64 -29 -72 -39 -8 -10 -36 -25 -61 -35 -25 -9 -56 -28 -69 -41 -13 -14 -30 -25 -38 -25 -20 0 -142 -80 -143 -94 0 -6 0 -303 0 -660 0 -515 3 -651 13 -658 7 -5 66 -8 130 -6 148 4 150 5 149 117 0 45 -3 87 -7 92 -10 17 25 59 49 59 41 0 47 -17 47 -136 0 -79 4 -115 13 -121 6 -4 162 -8 345 -8 278 0 335 2 345 14 8 9 12 55 12 125 l0 111 42 9 c67 14 73 4 73 -129 0 -84 4 -115 14 -124 16 -13 662 -11 684 2 8 6 12 43 12 127 0 132 1 135 71 124 49 -8 53 -21 44 -140 -10 -131 -20 -126 270 -122 187 2 227 6 235 18 6 9 10 273 10 662 l0 648 -53 38 c-29 22 -63 43 -77 47 -14 4 -38 20 -55 35 -16 15 -45 32 -63 38 -19 6 -47 23 -64 37 -16 14 -37 25 -47 25 -10 0 -26 9 -35 19 -10 11 -32 23 -48 26 -24 6 -35 2 -57 -19 -15 -14 -34 -26 -42 -26 -7 0 -34 -14 -59 -30 -25 -16 -51 -30 -59 -30 -7 0 -31 -16 -52 -35 -21 -19 -50 -37 -63 -41 -14 -3 -32 -17 -41 -30 -21 -32 -53 -30 -101 6 -21 16 -44 30 -50 30 -5 0 -23 13 -39 30 -15 16 -41 32 -57 35 -16 4 -41 17 -56 29 -15 13 -44 29 -65 35 -20 7 -42 21 -47 32 -13 22 -61 16 -99 -13 -13 -10 -32 -18 -42 -18 -10 0 -26 -9 -36 -19 -10 -11 -40 -29 -67 -41 -28 -11 -56 -30 -63 -40 -8 -11 -20 -20 -27 -20 -7 0 -35 -16 -62 -35 -57 -41 -74 -43 -100 -14 -10 12 -38 30 -61 40 -23 10 -46 27 -52 38 -6 11 -28 25 -49 30 -21 6 -53 22 -72 36 -19 14 -39 25 -46 25 -7 0 -26 11 -42 25 -32 27 -47 31 -57 16z m64 -130 c12 -16 38 -35 59 -42 20 -6 50 -22 65 -35 16 -13 35 -24 42 -24 8 0 29 -13 48 -29 18 -16 45 -33 60 -36 15 -4 30 -12 34 -18 3 -6 6 -270 5 -586 -1 -500 -3 -577 -16 -587 -12 -8 -228 -12 -298 -5 -5 1 -17 10 -28 21 -23 23 -26 73 -9 134 10 37 9 40 -27 77 -29 30 -43 37 -59 32 -11 -3 -37 -6 -59 -5 -39 1 -102 -25 -123 -50 -8 -9 -9 -34 -4 -78 10 -82 -9 -133 -51 -138 -20 -2 -28 2 -34 20 -9 24 -6 1131 2 1158 6 19 81 75 114 85 14 4 43 20 64 36 22 16 45 29 51 29 6 0 22 12 36 26 48 52 98 57 128 15z m815 13 c9 -8 16 -20 16 -25 0 -6 15 -16 34 -24 19 -8 51 -26 72 -40 20 -14 45 -25 55 -25 9 0 32 -12 49 -26 17 -15 45 -36 62 -48 l31 -21 -1 -569 c-1 -502 -3 -571 -16 -585 -13 -13 -43 -15 -166 -15 -106 0 -154 4 -163 13 -8 8 -12 46 -12 111 0 132 -8 141 -114 134 -91 -5 -138 -19 -146 -43 -3 -9 -4 -53 -3 -97 2 -91 -5 -120 -32 -129 -22 -7 -75 18 -82 37 -2 7 -2 268 0 579 l4 566 56 40 c32 22 68 44 82 48 14 4 40 18 58 32 17 13 45 29 60 34 16 5 39 23 51 39 16 23 30 30 56 30 18 0 41 -7 49 -16z m838 -19 c10 -13 29 -27 41 -30 12 -4 38 -19 57 -34 19 -16 51 -33 70 -40 19 -6 52 -26 73 -44 l37 -32 1 -555 c0 -305 0 -565 -1 -577 0 -43 -18 -48 -165 -48 -139 0 -139 0 -153 25 -9 18 -11 49 -6 111 8 110 5 112 -130 117 -130 5 -131 4 -131 -128 0 -112 -9 -130 -64 -130 -69 0 -65 -42 -62 601 1 321 5 587 7 591 3 4 14 8 24 8 11 0 29 11 42 24 13 13 45 31 71 41 26 10 52 26 58 36 5 10 25 21 45 25 23 4 43 18 61 41 25 32 30 34 66 29 25 -4 47 -16 59 -31z"/> <path d="M809 1659 c-20 -20 -21 -28 -15 -92 10 -111 43 -129 96 -50 35 51 34 69 -3 124 -28 42 -49 47 -78 18z"/> <path d="M1142 1658 c-7 -7 -12 -43 -12 -90 0 -67 3 -79 20 -88 23 -12 74 9 88 38 17 33 20 110 5 132 -16 23 -81 28 -101 8z"/> <path d="M809 1283 c-22 -26 -18 -157 6 -183 26 -28 43 -25 58 13 8 17 21 38 30 46 29 23 22 79 -14 112 -35 33 -60 37 -80 12z"/> <path d="M1132 1269 c-14 -38 1 -139 23 -155 22 -16 64 -9 83 14 14 18 17 138 3 146 -5 4 -30 9 -55 12 -42 6 -46 5 -54 -17z"/> <path d="M1655 1670 c-52 -20 -60 -73 -25 -155 16 -37 24 -45 45 -45 33 0 47 35 47 114 -1 40 -6 64 -18 77 -19 21 -20 21 -49 9z"/> <path d="M1972 1668 c-13 -13 -17 -153 -6 -182 3 -9 17 -16 30 -16 18 0 29 11 49 50 14 27 25 65 25 85 0 29 -6 39 -32 55 -38 23 -50 24 -66 8z"/> <path d="M1640 1282 c-29 -23 -44 -100 -24 -123 8 -8 14 -21 14 -27 0 -16 29 -42 49 -42 24 0 56 96 46 141 -15 71 -41 87 -85 51z"/> <path d="M1972 1288 c-13 -13 -17 -135 -6 -175 11 -40 48 -29 78 21 34 58 34 102 -1 138 -29 30 -52 35 -71 16z"/> <path d="M2794 1655 c-20 -31 -13 -134 12 -173 14 -21 17 -22 37 -9 26 17 35 45 36 118 1 42 -3 60 -17 72 -26 24 -49 21 -68 -8z"/> <path d="M2448 1663 c-23 -6 -32 -43 -25 -96 4 -31 14 -48 39 -69 42 -35 66 -35 78 -2 14 36 12 148 -2 162 -12 12 -56 14 -90 5z"/> <path d="M2472 1286 c-44 -15 -55 -38 -50 -97 6 -60 21 -79 64 -79 48 0 66 31 62 110 -3 72 -19 85 -76 66z"/> <path d="M2797 1282 c-20 -22 -22 -93 -6 -143 34 -103 89 -55 89 77 0 74 -44 109 -83 66z"/> <path d="M5262 2088 c-13 -13 -67 -42 -169 -92 -28 -14 -54 -30 -58 -36 -3 -6 -27 -21 -53 -34 -26 -14 -53 -34 -60 -45 -16 -28 -54 -27 -89 3 -15 13 -45 31 -65 39 -20 8 -41 25 -48 36 -6 13 -28 25 -56 32 -24 6 -49 20 -54 29 -6 10 -27 24 -47 31 -21 6 -47 18 -58 25 -24 17 -67 18 -83 2 -13 -13 -58 -38 -149 -81 -28 -14 -56 -34 -62 -45 -6 -11 -25 -23 -42 -27 -17 -4 -45 -20 -62 -36 -38 -37 -66 -37 -99 1 -14 17 -36 30 -47 30 -12 0 -37 16 -57 35 -19 19 -43 35 -53 35 -9 0 -35 13 -57 30 -21 16 -46 30 -55 30 -9 0 -28 9 -42 20 -14 11 -31 20 -39 20 -24 0 -128 -47 -151 -67 -12 -11 -38 -26 -58 -32 -20 -6 -46 -22 -58 -35 -13 -14 -35 -27 -49 -31 -15 -4 -36 -15 -47 -25 -11 -11 -37 -26 -58 -35 -22 -9 -37 -22 -38 -33 0 -9 0 -307 1 -662 1 -438 5 -649 12 -657 7 -9 42 -13 113 -13 137 0 139 3 130 137 -8 112 -6 116 62 128 58 9 64 -5 56 -137 -6 -100 -5 -106 15 -117 24 -13 663 -13 684 0 9 6 11 41 9 122 -3 135 3 145 72 131 l42 -9 0 -113 c0 -102 2 -115 20 -128 17 -12 73 -14 352 -11 183 1 336 6 340 11 4 4 7 55 5 112 -3 115 6 144 43 144 48 0 57 -23 50 -129 -10 -143 -24 -135 243 -139 242 -4 298 4 307 41 3 12 4 307 3 656 -3 622 -3 634 -23 645 -11 6 -39 23 -63 39 -24 15 -59 34 -79 42 -19 8 -48 26 -65 40 -16 14 -35 25 -42 25 -7 0 -30 14 -51 30 -21 17 -46 30 -55 30 -9 0 -34 11 -54 25 -42 29 -47 30 -64 13z m-1564 -128 c15 -16 43 -35 62 -41 19 -7 48 -23 63 -36 16 -12 34 -23 41 -23 8 0 25 -9 40 -21 15 -12 46 -31 69 -43 l42 -23 0 -578 c0 -406 -3 -582 -11 -590 -16 -16 -318 -12 -339 5 -12 10 -15 34 -15 109 0 88 -2 100 -22 118 -17 16 -34 21 -68 19 -25 -1 -64 -3 -86 -4 -73 -3 -85 -22 -87 -137 -1 -55 -6 -106 -10 -112 -13 -20 -62 -15 -83 8 -18 20 -18 43 -16 512 1 271 2 527 2 569 l0 78 43 21 c23 12 46 28 50 35 4 8 29 24 55 37 116 60 138 72 150 89 11 15 54 34 85 37 4 1 20 -12 35 -29z m835 -11 c15 -16 36 -29 46 -29 10 0 35 -13 56 -30 21 -16 44 -30 51 -30 7 0 28 -13 47 -29 18 -16 45 -33 60 -36 14 -4 31 -12 36 -19 7 -8 11 -216 11 -580 1 -503 0 -571 -14 -584 -21 -21 -321 -25 -338 -4 -6 7 -10 54 -9 112 1 93 0 100 -21 114 -25 16 -63 21 -150 18 -81 -3 -88 -13 -88 -125 0 -113 -12 -137 -70 -137 -21 0 -42 6 -47 12 -9 16 -5 1172 5 1176 4 1 25 13 47 27 22 14 60 34 85 46 25 12 58 32 73 45 16 13 34 24 42 24 7 0 26 13 41 29 16 15 36 31 44 34 27 9 64 -5 93 -34z m822 0 c17 -16 39 -29 48 -29 10 0 28 -11 40 -24 12 -13 41 -29 65 -35 25 -7 49 -22 58 -36 9 -14 22 -25 28 -25 7 0 20 -6 30 -13 16 -12 17 -50 17 -586 1 -499 -1 -576 -15 -589 -19 -20 -279 -24 -305 -5 -13 9 -16 30 -16 109 l0 97 -45 24 c-34 19 -54 23 -83 19 -21 -4 -47 -1 -58 4 -17 10 -25 6 -55 -27 -24 -25 -33 -44 -30 -58 26 -104 15 -154 -41 -180 -39 -19 -62 -14 -64 12 -1 10 -1 277 0 593 1 511 3 576 17 585 9 6 39 25 67 43 28 17 56 32 63 32 6 0 28 14 49 30 21 17 43 30 50 30 7 0 32 16 56 36 50 41 76 40 124 -7z"/> <path d="M3446 1664 c-12 -11 -16 -36 -16 -90 0 -61 4 -78 20 -94 24 -24 30 -24 55 -6 28 21 35 158 10 186 -22 24 -48 26 -69 4z"/> <path d="M3770 1661 c-11 -21 -14 -132 -4 -168 5 -18 14 -23 41 -23 29 0 36 5 48 33 7 17 16 53 20 78 6 43 5 47 -25 72 -37 32 -65 34 -80 8z"/> <path d="M3451 1294 c-35 -44 -23 -193 16 -208 32 -13 54 25 60 105 5 66 3 77 -17 102 -27 34 -33 34 -59 1z"/> <path d="M3770 1284 c-21 -54 -8 -179 21 -194 20 -11 24 -8 64 53 36 55 33 100 -7 138 -40 36 -65 37 -78 3z"/> <path d="M4267 1656 c-24 -22 -26 -29 -20 -78 8 -76 22 -102 58 -106 42 -5 55 19 55 104 0 102 -36 133 -93 80z"/> <path d="M4607 1662 c-23 -25 -24 -148 -1 -180 34 -49 70 -16 79 72 5 46 3 72 -7 92 -16 35 -48 42 -71 16z"/> <path d="M4605 1290 c-39 -75 2 -247 48 -201 16 16 37 89 37 129 0 51 -33 102 -66 102 -2 0 -10 -13 -19 -30z"/> <path d="M4271 1284 c-25 -20 -31 -34 -31 -64 0 -53 44 -130 75 -130 19 0 26 8 34 38 24 84 6 182 -34 182 -7 0 -27 -12 -44 -26z"/> <path d="M5433 1660 c-30 -18 -33 -24 -33 -67 0 -27 8 -64 18 -83 15 -30 22 -35 52 -35 l35 0 3 88 c4 118 -11 137 -75 97z"/> <path d="M5072 1658 c-7 -7 -12 -41 -12 -84 0 -81 13 -104 59 -104 47 0 61 19 67 91 9 88 -3 109 -59 109 -24 0 -48 -5 -55 -12z"/> <path d="M5440 1294 c-58 -39 -65 -80 -25 -149 38 -63 49 -71 74 -46 18 18 21 33 21 100 0 59 -4 84 -16 95 -19 20 -24 20 -54 0z"/> <path d="M5067 1283 c-11 -11 -8 -120 5 -148 22 -49 89 -45 107 7 15 41 14 121 -1 136 -13 13 -100 17 -111 5z"/> </g> </svg> 