<?xml version="1.0" standalone="no"?>
<!DOCTYPE svg PUBLIC "-//W3C//DTD SVG 20010904//EN"
 "http://www.w3.org/TR/2001/REC-SVG-20010904/DTD/svg10.dtd">
<svg version="1.0" xmlns="http://www.w3.org/2000/svg"
 width="588.000000pt" height="564.000000pt" viewBox="0 0 588.000000 564.000000"
 preserveAspectRatio="xMidYMid meet">
<metadata>
Created by potrace 1.10, written by Peter Selinger 2001-2011
</metadata>
<g transform="translate(0.000000,564.000000) scale(0.100000,-0.100000)"
fill="#000000" stroke="none">
<path d="M2861 4746 c-12 -7 -28 -21 -36 -33 -8 -12 -36 -29 -62 -39 -27 -9
-61 -30 -76 -45 -15 -16 -48 -34 -72 -40 -28 -7 -55 -23 -74 -45 -18 -19 -48
-38 -71 -44 -29 -8 -41 -17 -46 -35 -8 -32 -30 -32 -38 -1 -4 18 -18 28 -53
40 -33 11 -53 25 -65 45 -13 24 -27 31 -72 41 -45 9 -59 17 -70 39 -10 19 -28
32 -58 40 -24 7 -60 29 -81 47 -34 31 -42 34 -102 34 -64 0 -66 -1 -86 -34
-15 -26 -30 -36 -66 -46 -27 -6 -63 -26 -85 -46 -21 -19 -47 -34 -57 -34 -11
0 -41 -18 -66 -40 -28 -24 -56 -40 -72 -40 -15 0 -36 -12 -53 -30 -15 -16 -32
-30 -37 -30 -6 0 -17 -8 -27 -19 -15 -17 -17 -82 -17 -819 0 -585 4 -807 12
-825 13 -28 42 -34 209 -39 l75 -3 27 55 c15 30 24 62 21 70 -12 35 -21 145
-13 166 9 23 76 64 105 64 8 0 24 -9 36 -21 18 -18 20 -30 17 -142 -1 -84 2
-132 11 -154 12 -30 16 -32 89 -39 43 -4 158 -3 257 2 188 9 380 8 452 -1 62
-9 68 9 66 173 -3 159 4 172 87 172 73 0 81 -16 79 -171 -1 -74 3 -136 10
-153 l12 -29 257 9 c141 4 327 7 414 5 192 -4 182 -12 184 164 2 160 1 152 29
171 21 13 29 14 60 3 19 -7 45 -23 57 -36 20 -21 20 -26 9 -111 -9 -77 -9 -94
6 -133 9 -24 21 -50 26 -56 11 -15 114 -17 370 -6 l165 6 42 36 41 36 0 788 0
787 -48 49 c-33 33 -62 53 -91 60 -24 7 -54 25 -69 42 -15 16 -45 34 -67 40
-23 6 -57 26 -77 44 -20 18 -52 35 -73 39 -24 5 -42 16 -53 34 -9 15 -18 29
-20 31 -1 2 -25 8 -53 12 -61 9 -92 0 -129 -40 -15 -16 -46 -34 -70 -41 -23
-6 -53 -24 -67 -40 -17 -18 -45 -33 -76 -41 -37 -10 -53 -20 -63 -40 -8 -15
-31 -33 -55 -43 -25 -10 -44 -25 -50 -41 -12 -31 -24 -32 -38 -1 -8 17 -26 29
-64 40 -37 11 -61 25 -76 45 -15 20 -34 32 -59 37 -25 5 -49 19 -69 41 -21 23
-46 38 -75 44 -30 7 -54 21 -74 44 -25 28 -38 34 -81 38 -29 2 -61 -1 -73 -7z
m-905 -147 c32 -8 53 -22 75 -50 17 -22 39 -39 50 -39 27 0 75 -26 82 -44 3
-8 30 -22 59 -31 30 -10 72 -34 95 -55 l43 -38 1 -722 c0 -587 -2 -725 -13
-731 -7 -5 -101 -9 -209 -9 -186 0 -198 1 -224 21 -26 21 -27 24 -20 93 4 39
12 76 17 83 7 8 5 20 -6 35 -9 12 -16 34 -16 49 0 52 -27 62 -152 57 -62 -2
-123 -10 -135 -16 -29 -16 -42 -86 -36 -189 9 -134 -20 -170 -103 -134 -60 27
-64 39 -53 166 5 61 9 373 8 693 l-2 584 31 25 c18 13 32 31 32 39 0 16 72 53
102 54 10 0 30 14 45 30 14 17 44 35 65 41 22 5 49 21 61 35 30 35 54 47 107
55 25 3 46 7 48 8 2 0 23 -4 48 -10z m1028 -4 c27 -5 51 -18 78 -46 24 -24 48
-39 63 -39 23 0 37 -11 72 -54 7 -8 37 -20 68 -26 42 -9 59 -18 72 -38 9 -15
25 -34 36 -43 18 -14 18 -43 20 -695 1 -373 6 -689 11 -701 6 -17 2 -28 -18
-47 l-25 -26 -205 0 c-192 0 -206 1 -216 19 -5 11 -9 77 -8 150 2 178 5 174
-161 169 -170 -4 -163 3 -162 -171 1 -124 -1 -139 -19 -157 -21 -21 -102 -28
-129 -11 -12 8 -14 117 -13 728 1 395 2 723 2 729 0 6 13 17 30 24 16 7 32 20
35 30 4 12 29 26 70 40 40 13 69 30 79 45 9 14 33 29 56 35 23 6 51 23 63 37
30 35 95 64 132 58 17 -2 48 -7 69 -10z m1053 -6 c12 -4 29 -19 38 -33 16 -24
45 -39 97 -50 15 -3 36 -20 48 -36 12 -17 26 -30 31 -30 6 0 32 -9 58 -20 88
-38 82 17 82 -801 0 -450 -3 -725 -9 -731 -15 -15 -380 -14 -395 1 -8 8 -12
54 -13 144 0 73 -4 140 -8 149 -12 25 -31 30 -159 35 -134 6 -157 -3 -157 -62
0 -17 -4 -35 -9 -40 -6 -6 -6 -42 0 -94 5 -46 7 -92 4 -101 -3 -10 -29 -28
-57 -40 -41 -17 -56 -20 -74 -11 -13 6 -24 16 -25 23 -3 75 3 1452 7 1462 8
21 92 73 130 80 17 4 44 20 60 37 16 17 47 35 72 41 31 8 47 18 57 38 27 52
138 71 222 39z"/>
<path d="M1658 4248 c-44 -69 -52 -185 -15 -238 12 -19 27 -35 34 -37 6 -2 23
16 37 40 31 52 34 110 10 183 -27 78 -41 90 -66 52z"/>
<path d="M2054 4215 c-26 -39 -30 -152 -7 -194 10 -19 23 -36 28 -38 6 -1 29
14 52 35 35 32 42 44 46 87 5 49 4 51 -39 93 -24 23 -49 42 -54 42 -5 0 -17
-11 -26 -25z"/>
<path d="M1652 3777 c-17 -20 -31 -95 -32 -159 0 -45 5 -63 20 -78 45 -45 100
-5 100 73 0 43 -21 145 -35 167 -9 14 -41 12 -53 -3z"/>
<path d="M2062 3777 c-14 -17 -32 -105 -32 -158 0 -85 38 -109 114 -72 34 16
35 18 32 68 -2 41 -11 64 -42 110 -43 64 -55 73 -72 52z"/>
<path d="M2686 4216 c-20 -31 -40 -56 -46 -56 -5 0 -10 -24 -10 -52 1 -51 3
-55 44 -85 51 -39 71 -41 87 -11 16 30 14 190 -3 225 -21 42 -34 38 -72 -21z"/>
<path d="M3092 4208 c-28 -79 -29 -154 -2 -188 11 -14 20 -30 20 -37 0 -28 20
-20 49 19 27 36 31 50 31 102 0 67 -38 166 -63 166 -7 0 -23 -27 -35 -62z"/>
<path d="M2712 3783 c-7 -3 -24 -27 -37 -54 -14 -27 -30 -49 -35 -49 -5 0 -7
-23 -4 -52 7 -58 33 -92 81 -104 20 -6 31 -2 45 16 16 20 18 35 13 109 -8 111
-26 149 -63 134z"/>
<path d="M3094 3753 c-9 -20 -18 -70 -21 -110 -5 -67 -4 -76 17 -98 29 -31 53
-32 81 -4 19 19 21 29 16 98 -6 94 -28 151 -57 151 -15 0 -26 -11 -36 -37z"/>
<path d="M4146 4230 c-9 -22 -30 -49 -46 -60 -27 -19 -29 -25 -25 -68 4 -34
11 -52 27 -64 13 -9 35 -26 50 -38 l26 -20 27 32 c26 31 27 36 22 113 -5 83
-27 145 -50 145 -7 0 -21 -18 -31 -40z"/>
<path d="M3756 4231 c-10 -11 -31 -23 -47 -26 -42 -9 -58 -47 -50 -115 4 -30
10 -61 14 -67 5 -8 30 -13 62 -13 44 0 57 4 69 22 27 39 12 204 -20 215 -6 2
-18 -5 -28 -16z"/>
<path d="M4156 3774 c-9 -8 -16 -20 -16 -25 0 -5 -15 -26 -34 -47 -25 -27 -32
-42 -25 -52 5 -8 9 -29 9 -47 0 -27 8 -37 45 -63 l45 -31 26 26 c26 26 27 30
21 110 -6 80 -27 145 -47 145 -5 0 -16 -7 -24 -16z"/>
<path d="M3683 3748 c-28 -35 -33 -170 -8 -197 21 -22 116 -24 132 -3 17 23
16 125 -1 167 -13 30 -20 35 -50 35 -19 0 -41 2 -49 5 -7 3 -18 0 -24 -7z"/>
<path d="M1329 2611 c-12 -20 -29 -31 -61 -39 -29 -8 -51 -21 -62 -37 -11 -16
-35 -30 -72 -41 -40 -11 -58 -22 -66 -40 -9 -18 -27 -29 -71 -42 -41 -12 -65
-25 -79 -44 -10 -16 -28 -28 -39 -28 -10 0 -28 -9 -39 -20 -20 -20 -20 -33
-20 -839 0 -727 2 -820 15 -831 17 -14 283 -19 305 -5 7 4 10 53 9 153 -2 172
1 178 86 167 79 -10 79 -10 71 -166 -6 -118 -5 -137 9 -149 13 -11 99 -13 437
-11 232 1 425 4 430 7 4 3 8 72 8 153 0 161 3 171 55 171 56 0 69 -27 61 -120
-4 -45 -4 -104 0 -131 11 -84 -7 -81 457 -80 239 0 415 4 430 10 32 13 42 65
35 192 -6 104 4 129 56 129 53 0 56 -10 56 -171 0 -91 4 -150 10 -154 6 -4
200 -7 430 -7 461 0 456 -1 446 56 -3 17 -6 80 -8 140 -2 97 0 110 17 122 29
21 111 18 135 -6 19 -19 21 -69 5 -242 -3 -33 0 -50 11 -59 11 -9 93 -12 318
-12 167 1 309 3 314 7 6 4 10 304 11 830 2 819 2 825 -19 846 -11 11 -30 20
-43 20 -12 0 -34 13 -48 29 -14 16 -44 34 -67 40 -25 7 -50 23 -64 41 -17 21
-40 34 -77 44 -38 10 -61 23 -77 44 -15 19 -37 32 -59 36 -21 4 -41 17 -51 31
-14 21 -24 25 -64 25 -40 0 -50 -4 -64 -25 -9 -13 -33 -29 -54 -34 -21 -6 -50
-24 -66 -40 -15 -16 -48 -34 -72 -41 -28 -8 -52 -23 -64 -40 -11 -15 -37 -32
-61 -39 -24 -7 -59 -30 -81 -52 -52 -52 -72 -51 -99 5 -11 22 -27 33 -68 47
-31 10 -65 30 -82 48 -17 19 -38 31 -53 31 -16 0 -42 14 -65 35 -21 20 -60 43
-86 51 -25 9 -53 27 -62 40 -19 30 -28 30 -67 1 -17 -13 -53 -32 -81 -42 -27
-10 -63 -31 -80 -46 -16 -15 -45 -30 -64 -34 -18 -4 -51 -23 -74 -43 -22 -21
-54 -41 -70 -47 -17 -6 -38 -23 -47 -40 -15 -28 -21 -30 -70 -30 -49 0 -55 3
-70 30 -11 20 -32 35 -65 47 -26 9 -61 30 -77 46 -15 17 -44 33 -63 36 -19 4
-43 18 -54 32 -11 14 -48 36 -82 49 -35 14 -72 34 -84 45 -28 26 -41 25 -61
-5 -9 -14 -33 -29 -53 -35 -42 -12 -101 -46 -101 -59 0 -5 -24 -17 -52 -26
-29 -10 -67 -30 -83 -46 -17 -16 -48 -35 -70 -42 -24 -8 -45 -24 -52 -39 -7
-14 -19 -31 -28 -38 -21 -18 -81 5 -108 41 -14 20 -36 34 -65 41 -30 7 -47 18
-57 38 -10 20 -28 31 -69 43 -38 10 -64 25 -82 46 -14 17 -33 31 -42 31 -10 0
-28 7 -42 15 -34 20 -110 55 -118 55 -4 0 -14 -13 -23 -29z m116 -127 c7 -3
17 -16 23 -30 12 -24 35 -38 83 -48 14 -3 39 -19 57 -35 17 -17 48 -35 70 -40
26 -7 43 -19 50 -36 6 -14 16 -25 22 -25 6 0 33 -9 59 -21 l48 -20 -2 -617
c-1 -339 3 -661 8 -716 8 -90 8 -101 -10 -125 -26 -33 -87 -45 -168 -30 -44 8
-85 8 -158 -1 -134 -17 -132 -20 -132 155 -1 172 3 168 -139 171 -58 1 -114 5
-125 9 -14 4 -24 -3 -40 -29 -19 -30 -21 -46 -19 -148 4 -145 -7 -168 -81
-168 -33 0 -53 5 -62 17 -12 13 -14 138 -11 742 1 399 2 731 2 738 0 6 17 17
38 24 20 6 54 27 75 45 20 19 46 34 57 34 30 0 69 21 75 41 4 11 30 27 66 40
32 12 59 25 59 29 0 4 11 19 26 35 23 25 29 26 71 20 25 -4 51 -9 58 -11z
m1022 -4 c17 -10 36 -27 42 -38 5 -10 28 -24 50 -30 23 -8 48 -24 60 -41 16
-22 32 -30 67 -36 33 -5 55 -15 73 -35 14 -15 43 -35 64 -44 20 -8 37 -19 37
-23 0 -4 1 -336 1 -737 0 -631 -2 -730 -15 -745 -13 -14 -40 -16 -201 -15
-111 1 -190 5 -196 11 -21 21 -27 87 -18 176 8 79 7 93 -7 109 -10 10 -27 18
-39 18 -11 0 -30 6 -41 14 -14 11 -35 13 -75 9 -36 -3 -64 -1 -79 7 -22 12
-26 9 -65 -35 -41 -47 -41 -49 -29 -84 18 -48 17 -134 0 -176 -22 -51 -111
-87 -133 -52 -4 6 -6 349 -5 762 2 577 5 751 15 757 6 4 22 8 35 8 13 0 35 13
50 29 15 15 49 35 75 44 27 9 61 30 77 47 15 16 37 30 49 30 11 0 43 20 71 45
57 51 87 56 137 25z m1043 -19 c25 -25 53 -42 84 -50 33 -8 50 -19 58 -36 11
-24 37 -38 93 -50 17 -3 42 -20 57 -36 15 -16 37 -29 50 -29 52 0 49 36 49
-763 0 -411 -2 -751 -5 -755 -3 -5 -93 -7 -201 -6 -218 3 -235 8 -260 67 -14
34 -4 142 16 162 16 16 10 30 -36 80 -42 44 -47 47 -71 37 -30 -14 -93 -15
-113 -3 -10 7 -24 2 -44 -15 -16 -13 -34 -24 -41 -24 -7 0 -20 -8 -28 -17 -13
-15 -14 -34 -9 -103 11 -131 -12 -200 -65 -200 -33 0 -55 39 -55 97 0 26 3
356 5 733 l4 685 45 22 c25 13 48 32 52 42 6 20 9 22 81 40 25 7 48 21 58 36
9 13 34 30 57 36 22 7 49 24 60 38 20 26 67 49 102 50 10 1 36 -16 57 -38z
m994 29 c15 -5 31 -21 38 -34 7 -17 26 -31 58 -41 26 -9 57 -27 70 -40 13 -13
45 -32 72 -41 26 -8 53 -24 58 -35 6 -10 35 -31 65 -45 30 -15 55 -32 55 -38
1 -6 1 -329 1 -718 1 -487 -3 -712 -10 -726 -18 -33 -66 -43 -155 -32 -43 5
-88 8 -100 5 -44 -11 -157 -11 -165 -1 -24 31 -31 85 -22 171 9 87 9 91 -15
128 -22 34 -29 38 -52 32 -15 -4 -73 -6 -129 -6 -128 2 -126 6 -127 -177 -1
-128 -2 -135 -25 -153 -33 -27 -49 -24 -88 18 -39 41 -39 15 -8 253 13 102 15
227 14 679 l-1 554 39 33 c21 19 63 43 93 54 30 12 64 32 75 45 11 13 43 30
70 38 34 9 54 22 62 38 24 47 70 61 127 39z"/>
<path d="M1137 2078 l-35 -33 9 -75 c11 -86 33 -123 74 -128 45 -6 55 18 55
133 0 86 -3 104 -18 118 -27 24 -44 21 -85 -15z"/>
<path d="M1556 2088 c-12 -16 -16 -47 -16 -114 0 -77 3 -95 21 -118 25 -32 39
-33 66 -3 18 18 22 36 23 107 3 111 3 107 -20 130 -26 26 -55 25 -74 -2z"/>
<path d="M1564 1626 c-31 -53 -32 -56 -24 -128 10 -87 26 -134 47 -142 34 -13
50 23 63 138 9 78 9 81 -21 133 -17 29 -31 53 -32 53 -1 0 -16 -25 -33 -54z"/>
<path d="M1135 1604 c-35 -31 -39 -39 -36 -77 4 -53 65 -167 91 -167 32 0 43
28 48 125 8 155 -22 190 -103 119z"/>
<path d="M2615 2098 c-63 -35 -74 -77 -45 -181 12 -45 50 -87 78 -87 29 0 42
45 42 146 0 85 -3 103 -18 117 -22 20 -30 20 -57 5z"/>
<path d="M2136 2078 c-17 -23 -12 -194 6 -215 14 -17 112 -17 126 0 15 17 20
203 6 217 -6 6 -37 13 -68 15 -47 3 -58 0 -70 -17z"/>
<path d="M2621 1632 c-5 -10 -26 -27 -45 -37 -36 -19 -36 -20 -30 -70 4 -27
14 -59 24 -70 10 -11 25 -34 33 -51 45 -88 79 -51 85 91 3 71 1 99 -12 123
-18 36 -40 41 -55 14z"/>
<path d="M2140 1602 c-27 -33 -27 -121 0 -179 19 -42 33 -53 45 -34 3 5 21 7
39 4 31 -5 34 -3 44 28 6 19 13 62 16 96 7 78 -8 99 -77 106 -42 4 -50 2 -67
-21z"/>
<path d="M3194 2102 c-25 -17 -31 -50 -25 -146 5 -86 9 -100 27 -113 19 -12
24 -11 50 10 31 26 51 83 56 156 3 42 1 46 -37 73 -42 29 -53 32 -71 20z"/>
<path d="M3587 2077 c-18 -18 -19 -28 -13 -115 4 -53 10 -100 12 -104 3 -4 32
-8 64 -8 47 0 61 4 69 18 15 29 18 199 3 214 -21 21 -112 18 -135 -5z"/>
<path d="M3184 1623 c-16 -23 -19 -44 -16 -117 4 -140 38 -182 86 -109 14 21
32 47 40 58 7 11 16 41 19 67 l4 47 -54 41 c-29 22 -55 40 -57 40 -2 0 -12
-12 -22 -27z"/>
<path d="M3648 1622 c-35 -2 -52 -9 -63 -25 -18 -26 -19 -117 -1 -167 11 -31
17 -35 47 -35 19 0 40 -4 48 -9 18 -11 39 16 45 58 16 106 15 132 -7 157 -18
20 -30 24 -69 21z"/>
<path d="M4210 2081 c-31 -25 -34 -33 -32 -72 8 -118 88 -222 117 -151 4 9 9
59 12 110 7 138 -24 174 -97 113z"/>
<path d="M4624 2089 c-15 -17 -18 -34 -16 -106 2 -105 16 -138 57 -138 42 0
55 32 55 138 0 74 -3 90 -20 107 -26 26 -52 25 -76 -1z"/>
<path d="M4217 1609 c-34 -28 -37 -34 -37 -84 0 -42 7 -65 32 -109 55 -95 83
-72 94 78 5 66 3 88 -10 114 -21 40 -32 40 -79 1z"/>
<path d="M4623 1603 c-18 -34 -19 -48 -13 -119 10 -100 22 -126 58 -122 31 4
46 44 54 151 5 63 4 69 -22 97 -37 39 -52 38 -77 -7z"/>
</g>
</svg>
