<?xml version="1.0" standalone="no"?>
<!DOCTYPE svg PUBLIC "-//W3C//DTD SVG 20010904//EN"
 "http://www.w3.org/TR/2001/REC-SVG-20010904/DTD/svg10.dtd">
<svg version="1.0" xmlns="http://www.w3.org/2000/svg"
 width="300.000000pt" height="126.000000pt" viewBox="0 0 300.000000 126.000000"
 preserveAspectRatio="xMidYMid meet">
<metadata>
Created by potrace 1.10, written by Peter Selinger 2001-2011
</metadata>
<g transform="translate(0.000000,126.000000) scale(0.050000,-0.050000)"
fill="#646cff" stroke="none">
<path d="M4549 1991 c-58 -58 -65 -160 -16 -214 30 -34 29 -37 -15 -54 -144
-56 -194 -258 -138 -561 21 -117 -1 -132 -191 -130 l-159 1 7 112 c12 197 -18
225 -182 168 -254 -88 -338 -399 -153 -570 44 -42 19 -99 -45 -102 -39 -2 -28
-109 17 -162 85 -101 215 -60 229 71 4 33 14 58 22 55 8 -3 65 -5 125 -5 103
0 110 -3 110 -49 0 -30 21 -63 58 -90 158 -112 305 90 150 206 -49 37 -49 38
-10 66 55 38 102 140 102 220 0 40 10 67 25 67 19 0 23 -63 18 -265 -7 -299
23 -379 121 -317 34 21 51 21 89 1 39 -22 52 -20 84 8 35 32 103 27 103 -7 0
-23 143 -12 190 15 32 17 47 15 75 -10 30 -27 42 -28 86 -5 38 21 55 22 73 4
93 -93 160 16 154 247 -6 188 -4 196 41 212 41 16 45 26 33 97 -12 75 -10 80
37 80 82 0 119 76 81 166 -16 40 -30 95 -30 122 0 27 -9 55 -20 62 -11 7 -20
38 -20 70 0 66 -102 180 -162 180 -49 0 -48 22 2 80 127 146 -139 330 -271
187 -56 -60 -66 -168 -19 -207 40 -33 38 -60 -5 -61 -44 0 -93 -38 -111 -84
-19 -53 -55 -42 -80 24 -20 55 -55 81 -140 109 -35 11 -35 15 5 65 123 157
-127 341 -270 198z m190 -89 c30 -57 -41 -141 -93 -110 -39 24 -56 74 -38 119
16 42 107 36 131 -9z m615 -40 c33 -52 -9 -108 -75 -99 -55 8 -75 64 -38 108
33 40 85 36 113 -9z m-491 -255 c21 -18 37 -50 37 -71 0 -21 14 -66 32 -99 19
-37 26 -82 19 -112 -19 -75 -53 -29 -81 110 -27 132 -103 175 -97 55 4 -92 10
-434 8 -485 -2 -65 -48 -55 -76 17 -44 117 -65 44 -65 -223 0 -165 -8 -259
-21 -259 -44 0 -54 106 -44 500 11 509 12 483 -18 502 -47 29 -57 -5 -57 -194
0 -122 -7 -186 -20 -178 -36 22 -25 392 13 433 46 51 316 53 370 4z m589 -31
c9 -13 -3 -35 -29 -52 -49 -33 -60 -194 -21 -323 12 -39 29 -97 39 -130 23
-74 24 -73 -112 -78 -159 -4 -208 53 -160 188 42 123 42 311 -2 327 -44 17
-86 -42 -86 -123 -1 -42 -11 -65 -29 -65 -49 0 -56 65 -13 123 23 31 41 62 41
70 0 77 329 133 372 63z m108 -247 c0 -38 -9 -69 -20 -69 -25 0 -48 91 -32
131 19 51 52 12 52 -62z m-524 -124 c6 -37 -3 -45 -45 -45 -36 0 -51 11 -51
37 0 77 85 84 96 8z m-1100 -80 l-6 -95 -96 -4 c-145 -6 -134 113 16 175 81
34 92 24 86 -76z m1134 -105 c6 -10 2 -38 -10 -60 -16 -30 -16 -85 2 -202 17
-119 17 -167 1 -183 -17 -17 -23 4 -23 81 0 98 -3 104 -50 104 -47 0 -50 -7
-50 -101 0 -63 -8 -97 -20 -89 -26 16 -25 123 1 248 16 72 16 111 -1 141 -30
57 -10 81 70 81 37 0 73 -9 80 -20z m-690 -108 c0 -63 -155 -189 -250 -203
-181 -27 -292 11 -381 133 -73 99 -75 98 291 98 280 0 340 -5 340 -28z m1000
-192 c0 -107 -8 -180 -20 -180 -11 0 -20 49 -20 108 0 77 -8 111 -30 119 -61
24 -34 133 33 133 33 0 37 -19 37 -180z m-604 -77 c-3 -57 -15 -106 -26 -108
-31 -8 -56 184 -28 218 39 46 61 1 54 -110z m460 113 c28 -28 32 -208 5 -225
-26 -17 -61 55 -61 126 0 35 -13 64 -31 71 -17 6 -26 21 -19 32 17 27 77 25
106 -4z"/>
<path d="M595 1863 l-195 -113 0 -626 0 -626 125 6 125 6 5 80 c15 213 105
230 105 19 l0 -110 325 6 325 5 6 110 c11 191 91 187 93 -5 l1 -105 330 0 330
0 10 113 c6 63 18 121 27 130 24 25 75 -55 62 -97 -7 -20 -6 -64 1 -96 l13
-60 239 0 238 0 0 620 0 619 -52 34 c-224 147 -372 214 -415 187 -21 -13 -68
-41 -105 -61 -37 -21 -103 -62 -147 -91 l-81 -53 -125 80 c-281 180 -229 180
-510 0 l-126 -80 -109 72 c-60 40 -119 73 -130 73 -11 0 -20 7 -20 16 0 14
-120 67 -141 62 -5 -1 -97 -53 -204 -115z m376 -82 c74 -44 143 -87 152 -96
13 -13 26 -810 18 -1076 -1 -13 -57 -19 -146 -16 l-145 5 -6 109 c-7 123 -17
130 -169 117 l-95 -8 0 -109 c0 -106 -37 -161 -78 -115 -9 10 -10 260 -4 556
l12 538 140 86 c171 106 156 105 321 9z m709 29 c44 -27 88 -50 100 -50 11 0
20 -9 20 -20 0 -11 12 -20 28 -20 67 0 73 -51 73 -579 0 -612 18 -553 -159
-544 l-142 6 0 107 c0 120 -10 127 -174 113 l-84 -7 -6 -113 c-5 -98 -11 -113
-46 -113 -39 0 -40 14 -43 530 -4 540 4 600 76 600 9 0 64 31 122 69 127 83
135 84 235 21z m804 -24 c214 -125 195 -59 188 -653 l-7 -523 -152 -6 -153 -6
0 99 c0 122 -23 141 -155 128 l-105 -10 0 -105 c0 -104 -26 -144 -74 -113 -12
8 -19 208 -18 535 2 521 10 588 74 588 10 0 65 31 123 69 131 86 126 86 279
-3z"/>
<path d="M621 1561 c-46 -84 -12 -174 57 -152 31 10 42 30 42 78 0 101 -61
146 -99 74z"/>
<path d="M929 1553 c-21 -85 -3 -142 47 -150 44 -6 46 0 40 90 -7 111 -64 150
-87 60z"/>
<path d="M617 1211 c-33 -73 -6 -155 49 -147 80 11 69 194 -11 196 -9 0 -26
-22 -38 -49z"/>
<path d="M934 1247 c-17 -16 -19 -175 -3 -191 43 -43 91 14 85 101 -6 89 -43
129 -82 90z"/>
<path d="M1393 1563 c-43 -47 -42 -109 3 -150 64 -57 104 22 71 142 -14 55
-30 56 -74 8z"/>
<path d="M1692 1568 c-39 -102 24 -228 78 -155 34 44 37 96 9 148 -25 47 -70
51 -87 7z"/>
<path d="M1381 1221 c-35 -64 -25 -138 22 -162 48 -26 76 0 76 71 1 118 -56
170 -98 91z"/>
<path d="M1704 1236 c-33 -33 -30 -146 4 -174 62 -52 118 73 71 159 -24 45
-41 49 -75 15z"/>
<path d="M2148 1572 c-6 -16 -8 -58 -4 -95 9 -96 83 -97 92 -1 9 94 -60 169
-88 96z"/>
<path d="M2448 1550 c-16 -65 6 -150 38 -150 42 0 74 44 74 100 0 98 -90 138
-112 50z"/>
<path d="M2153 1247 c-17 -17 -17 -176 0 -193 30 -31 87 30 87 93 0 82 -48
138 -87 100z"/>
<path d="M2449 1190 c-18 -93 0 -134 56 -126 57 8 74 115 25 163 -49 49 -67
41 -81 -37z"/>
<path d="M3156 1425 l-6 -95 -110 0 -110 0 -6 -128 c-7 -153 7 -172 132 -172
l94 0 10 -97 10 -96 168 172 169 173 -89 92 c-281 294 -254 279 -262 151z
m162 -163 l81 -78 -83 -86 -83 -86 -18 54 c-17 49 -28 54 -117 54 -150 0 -153
114 -3 124 76 5 99 15 115 51 24 55 12 59 108 -33z"/>
</g>
</svg>
