<?xml version="1.0" standalone="no"?>
<!DOCTYPE svg PUBLIC "-//W3C//DTD SVG 20010904//EN"
 "http://www.w3.org/TR/2001/REC-SVG-20010904/DTD/svg10.dtd">
<svg version="1.0" xmlns="http://www.w3.org/2000/svg"
 width="900.000000pt" height="432.000000pt" viewBox="0 0 900.000000 432.000000"
 preserveAspectRatio="xMidYMid meet">
<metadata>
Created by potrace 1.10, written by Peter Selinger 2001-2011
</metadata>
<g transform="translate(0.000000,432.000000) scale(0.100000,-0.100000)"
fill="#000000" stroke="none">
<path d="M731 3337 c-6 -8 -16 -38 -22 -68 -6 -30 -18 -67 -26 -82 -8 -16 -13
-40 -10 -55 3 -15 -1 -39 -9 -54 -9 -17 -16 -77 -19 -175 -9 -238 -23 -375
-39 -391 -9 -9 -12 -27 -9 -52 4 -24 0 -45 -11 -61 -12 -19 -17 -67 -22 -219
-3 -107 -13 -231 -21 -275 -8 -44 -15 -95 -14 -113 1 -19 -6 -43 -14 -55 -8
-12 -15 -43 -15 -69 0 -38 6 -54 29 -81 23 -26 31 -47 37 -95 5 -47 14 -72 35
-98 27 -35 32 -48 44 -132 4 -24 17 -54 30 -68 22 -23 35 -66 50 -157 3 -22
16 -47 30 -58 17 -15 25 -36 30 -77 9 -72 18 -88 52 -97 16 -3 35 -13 44 -21
14 -13 84 -15 480 -12 308 2 470 7 482 14 14 8 29 5 65 -12 34 -16 51 -20 65
-13 11 6 207 10 510 9 271 -1 508 -1 527 1 50 3 90 3 544 0 l408 -2 54 28 c57
30 74 58 74 129 0 20 11 45 30 69 17 21 30 48 30 60 0 34 30 126 50 154 11 14
26 58 34 97 8 39 26 87 40 109 14 21 26 41 26 44 1 55 24 127 50 157 16 19 30
45 30 57 0 28 -26 67 -46 67 -19 0 -18 6 8 40 l22 30 -21 28 c-19 25 -22 52
-33 272 -8 163 -16 258 -27 288 -8 25 -13 57 -10 71 3 16 -1 33 -11 44 -13 15
-18 52 -24 185 -11 223 -25 366 -43 426 -8 27 -20 79 -26 115 -6 36 -17 76
-25 89 l-14 22 -1694 0 c-1394 0 -1695 -2 -1705 -13z m1093 -89 c25 -41 27
-87 7 -134 -22 -48 -24 -49 -114 -34 -66 11 -412 14 -475 4 -48 -8 -82 -41
-82 -82 0 -37 -71 -100 -161 -144 -42 -20 -81 -43 -87 -51 -7 -8 -10 -39 -7
-82 3 -52 0 -76 -14 -104 -15 -30 -19 -72 -24 -237 -8 -229 -9 -223 71 -231
29 -3 57 -14 72 -27 14 -12 37 -30 51 -39 23 -13 28 -26 34 -76 4 -35 13 -66
22 -73 13 -10 86 -13 319 -13 166 0 305 -3 309 -7 4 -4 8 -46 8 -94 l2 -88
-30 -8 c-16 -5 -266 -9 -554 -9 -426 -1 -526 2 -537 13 -11 11 -11 28 1 108 8
52 18 161 23 241 7 101 15 155 26 177 9 18 15 36 12 40 -2 4 2 39 10 77 8 39
13 77 11 87 -8 30 22 427 33 449 18 32 34 146 31 216 -2 55 1 65 26 93 27 30
30 31 73 21 67 -15 835 -2 875 15 43 18 53 17 69 -8z m1741 -9 c259 -7 393 -6
422 1 58 14 60 13 80 -17 13 -20 20 -58 25 -138 8 -130 20 -212 35 -240 6 -11
14 -81 17 -155 11 -219 26 -372 40 -399 8 -14 11 -40 9 -57 -3 -18 2 -44 10
-61 11 -21 16 -65 18 -149 1 -65 8 -157 16 -203 8 -51 10 -88 5 -93 -13 -13
-1031 -13 -1044 0 -5 5 -11 51 -11 101 -2 98 7 117 48 106 11 -3 133 -8 270
-12 287 -7 278 -9 288 82 3 33 11 53 23 60 22 13 46 37 59 60 7 11 30 20 65
26 88 14 85 -2 71 316 -15 319 -18 334 -90 370 -24 12 -51 29 -60 36 -9 8 -27
18 -39 22 -36 11 -101 83 -112 125 -18 66 -21 67 -261 69 -179 2 -223 0 -255
-14 -21 -8 -44 -13 -51 -11 -7 3 -24 28 -38 56 -25 48 -25 51 -9 83 27 52 35
59 63 52 14 -4 197 -11 406 -16z m-1160 -7 c297 -3 435 -1 472 8 46 10 56 9
82 -6 42 -25 75 -72 62 -88 -7 -9 -8 -71 -1 -202 5 -104 12 -287 14 -407 3
-120 10 -226 16 -237 5 -10 10 -56 10 -101 0 -64 4 -87 17 -102 15 -16 19 -51
26 -235 9 -239 3 -304 -38 -384 -18 -34 -27 -75 -34 -152 -6 -58 -18 -122 -27
-143 -29 -67 -44 -136 -44 -204 0 -45 -5 -70 -14 -78 -20 -17 -931 -18 -951
-1 -10 8 -15 31 -15 65 0 38 -6 61 -24 87 -18 27 -26 59 -35 149 -16 144 -26
190 -44 201 -16 8 -25 55 -37 193 -12 131 7 665 26 741 8 33 15 85 14 115 -1
30 4 77 10 104 15 71 31 329 25 400 -8 80 9 260 25 280 8 10 19 13 29 9 9 -4
205 -10 436 -12z m990 -248 c110 -1 205 -2 211 -3 7 0 19 -19 28 -40 19 -49
77 -107 146 -146 29 -16 66 -42 83 -56 27 -23 30 -32 29 -75 -1 -27 3 -65 9
-84 9 -30 31 -248 30 -304 0 -27 -12 -36 -61 -47 -60 -13 -145 -99 -159 -158
-5 -24 -12 -46 -16 -49 -11 -12 -495 -9 -505 2 -4 6 -11 85 -14 176 -9 258
-20 372 -38 400 -12 19 -17 65 -22 202 -6 163 -5 178 11 187 10 6 29 8 43 4
14 -4 115 -8 225 -9z m-1569 -20 c11 -17 12 -32 3 -80 -7 -32 -18 -66 -26 -76
-11 -12 -13 -32 -7 -87 5 -56 3 -76 -9 -95 -14 -20 -17 -73 -23 -308 -4 -155
-11 -288 -15 -294 -13 -16 -516 -12 -546 4 -14 8 -24 26 -28 50 -11 64 -16 72
-50 86 -18 8 -36 24 -40 35 -3 12 -18 23 -33 27 -15 3 -38 8 -52 10 -56 12
-63 42 -29 121 15 34 20 62 16 96 -2 26 2 74 10 105 7 31 13 77 12 102 -2 76
0 79 42 101 23 11 51 29 62 40 12 10 26 19 31 19 15 0 96 95 96 112 0 8 6 22
14 33 13 19 26 20 286 20 265 0 273 -1 286 -21z m-106 -1347 c28 -13 31 -29
48 -210 7 -74 14 -105 30 -126 20 -27 25 -54 48 -249 4 -30 12 -47 30 -58 29
-20 33 -68 7 -79 -10 -4 -234 -6 -498 -6 -547 2 -507 -6 -518 92 -4 29 -15 61
-25 73 -28 31 -30 37 -47 117 -9 41 -25 87 -36 102 -11 15 -27 60 -35 100 -10
48 -23 80 -40 98 -37 39 -61 152 -34 161 5 2 243 2 527 0 377 -2 525 -6 543
-15z m2500 8 c9 -10 10 -32 5 -70 -5 -43 -12 -59 -30 -71 -26 -17 -40 -52 -50
-127 -4 -27 -15 -57 -25 -67 -28 -28 -40 -55 -40 -92 0 -50 -17 -99 -45 -128
-19 -20 -26 -41 -31 -87 -4 -34 -10 -67 -15 -75 -7 -10 -99 -14 -471 -18 -407
-5 -465 -4 -476 10 -18 20 -9 61 29 134 24 46 33 78 40 153 10 108 24 167 47
203 10 15 18 60 23 118 4 50 12 99 19 107 10 13 82 15 484 18 259 1 483 3 497
5 15 1 32 -5 39 -13z"/>
<path d="M2147 2762 c-20 -22 -21 -47 -6 -91 17 -47 0 -61 -75 -61 -64 0 -86
-11 -86 -41 0 -40 26 -49 114 -43 124 10 123 11 125 -140 1 -144 9 -173 48
-182 15 -3 34 -7 41 -10 29 -9 49 32 55 110 4 51 12 87 24 104 10 14 27 51 38
82 15 40 26 56 41 58 34 5 50 -21 58 -89 3 -35 15 -78 27 -98 12 -20 25 -65
30 -101 13 -92 17 -102 41 -98 14 2 33 26 59 75 35 65 39 82 45 170 4 54 12
104 18 112 7 10 25 12 63 7 45 -5 56 -3 73 14 36 36 22 62 -40 74 -60 11 -68
20 -47 55 9 16 17 43 17 60 0 41 -36 51 -82 24 -29 -17 -34 -25 -38 -70 -7
-69 -21 -83 -82 -83 -77 0 -88 10 -88 80 0 60 -15 90 -46 90 -21 0 -54 -37
-54 -60 0 -11 -7 -38 -16 -60 -18 -46 -40 -55 -110 -47 -65 7 -75 19 -68 82 6
45 3 56 -15 74 -26 26 -43 27 -64 3z m211 -234 c17 -17 15 -64 -4 -82 -21 -22
-31 -20 -59 9 -41 40 -28 85 25 85 14 0 31 -5 38 -12z m305 -9 c19 -30 -18
-106 -47 -96 -6 2 -20 20 -31 39 -19 36 -19 37 0 58 22 24 63 24 78 -1z"/>
<path d="M4875 3308 l-43 -43 0 -115 c-2 -193 -20 -391 -39 -412 -11 -12 -14
-27 -9 -48 3 -19 0 -42 -8 -58 -10 -19 -18 -102 -26 -272 -10 -210 -14 -251
-31 -284 -13 -25 -18 -48 -14 -67 4 -17 0 -40 -10 -59 -13 -25 -16 -64 -16
-203 0 -171 0 -172 25 -192 25 -20 39 -62 51 -147 4 -29 16 -60 30 -77 16 -18
30 -56 40 -102 9 -41 23 -85 33 -99 19 -27 36 -81 47 -147 4 -22 15 -49 25
-58 11 -10 27 -39 36 -67 29 -87 -5 -83 604 -86 294 -2 551 -3 570 -3 19 -1
476 0 1014 0 1075 1 996 -3 1053 60 38 42 51 74 63 147 8 51 17 75 35 91 13
13 27 40 30 60 11 71 27 118 51 145 13 17 25 48 29 76 12 87 17 103 41 125 17
16 27 41 35 82 12 72 2 521 -13 580 -6 22 -12 60 -13 85 -1 25 -9 57 -17 70
-13 20 -19 80 -28 275 -9 181 -16 256 -26 272 -8 12 -14 44 -14 71 0 26 -6 54
-12 60 -8 8 -17 73 -23 177 -9 134 -14 168 -28 182 -17 17 -113 18 -1709 21
l-1690 2 -43 -42z m1129 -82 c26 -56 21 -81 -26 -119 -61 -48 -62 -48 -100
-33 -26 11 -91 15 -267 17 -127 1 -235 -1 -239 -5 -4 -4 -18 -26 -32 -50 -46
-80 -81 -127 -98 -133 -9 -3 -32 -17 -50 -30 -18 -14 -54 -30 -80 -36 l-47
-12 -7 -125 c-14 -239 -24 -505 -20 -517 4 -13 45 -28 105 -38 20 -3 37 -11
37 -17 0 -5 18 -27 41 -48 32 -29 42 -46 46 -81 10 -82 -1 -79 319 -74 216 3
285 1 293 -8 13 -17 17 -175 4 -188 -7 -7 -199 -11 -553 -11 -625 0 -589 -5
-553 84 42 103 53 159 53 267 0 164 19 383 35 408 10 15 19 95 30 270 8 136
20 276 26 310 6 33 8 70 4 82 -4 15 3 30 27 56 l34 37 441 5 c243 2 454 8 470
13 15 4 42 9 59 9 27 1 34 -5 48 -33z m206 14 c19 -5 211 -9 425 -9 316 0 398
3 430 14 40 15 40 15 67 -15 28 -30 28 -31 21 -134 l-6 -104 28 -28 c27 -27
28 -29 12 -57 -23 -38 -21 -98 2 -139 18 -30 20 -62 25 -353 7 -364 13 -461
33 -491 9 -14 12 -35 7 -61 -4 -28 -2 -48 9 -64 8 -13 17 -49 21 -81 5 -50 3
-63 -25 -115 -23 -44 -33 -79 -40 -148 -11 -106 -25 -166 -51 -218 -13 -27
-22 -77 -29 -165 -12 -150 -11 -146 -43 -167 -22 -15 -73 -17 -472 -16 l-447
1 -31 24 -32 24 -12 158 c-10 135 -16 166 -37 207 -17 34 -28 78 -36 145 -5
54 -15 108 -22 122 -6 14 -12 52 -13 85 0 33 -4 79 -9 102 -5 31 -2 63 13 120
21 79 21 79 37 628 4 125 9 173 20 185 14 15 18 57 32 366 7 140 11 165 28
184 13 14 26 19 40 15 11 -4 36 -10 55 -15z m1144 10 c14 -5 214 -11 453 -13
l427 -4 12 -34 c7 -19 13 -81 13 -139 1 -123 16 -256 35 -320 26 -83 36 -174
45 -390 8 -200 17 -270 52 -386 5 -17 9 -51 9 -77 0 -26 5 -67 12 -92 22 -83
58 -78 -516 -77 -424 1 -511 3 -523 15 -18 18 -21 163 -3 181 8 8 92 11 284
11 209 0 277 3 289 13 8 7 18 36 22 65 8 60 20 87 38 87 8 0 26 13 41 29 21
22 39 30 77 33 81 8 82 10 70 194 -6 88 -17 179 -25 202 -9 23 -13 49 -10 57
4 8 -1 33 -10 55 -9 22 -16 65 -16 94 0 60 -14 82 -58 92 -15 4 -47 19 -72 34
-25 15 -55 31 -67 35 -16 4 -26 19 -34 48 -19 72 -28 87 -56 98 -15 5 -34 15
-41 22 -21 17 -383 10 -436 -8 -45 -16 -49 -14 -105 38 -44 40 -51 66 -25 88
13 11 72 49 91 58 1 1 13 -3 27 -9z m257 -268 c175 3 181 1 201 -64 6 -22 21
-48 32 -58 63 -57 109 -88 139 -94 53 -10 59 -24 63 -148 1 -62 8 -129 13
-148 6 -19 11 -51 11 -70 0 -19 9 -48 20 -65 23 -34 26 -68 8 -82 -7 -6 -37
-16 -66 -23 -30 -7 -56 -20 -62 -30 -5 -10 -25 -27 -43 -38 -29 -17 -35 -27
-41 -70 -3 -27 -13 -56 -22 -63 -21 -17 -491 -22 -526 -5 -25 12 -36 50 -20
69 20 24 25 105 9 144 -10 27 -16 99 -21 248 -4 116 -11 271 -17 345 -10 129
-10 135 9 151 17 13 32 14 89 7 37 -5 138 -7 224 -6z m-1633 -12 c23 -15 30
-40 11 -40 -30 0 -37 -67 -44 -393 -4 -225 -10 -344 -20 -380 -11 -44 -11 -54
1 -68 23 -26 17 -49 -18 -63 -24 -9 -99 -12 -283 -11 -137 1 -253 3 -257 4 -4
0 -13 21 -19 46 -16 63 -103 151 -161 164 -48 11 -72 36 -63 66 3 11 9 106 12
210 3 105 10 198 15 208 5 9 31 28 58 42 27 14 54 34 60 44 5 11 23 22 40 26
21 5 37 18 51 43 23 44 66 104 79 112 4 3 122 5 262 5 203 -1 257 -4 276 -15z
m-121 -1344 c18 -7 70 -117 77 -166 3 -25 11 -89 16 -144 7 -63 17 -111 30
-135 11 -20 27 -76 36 -126 8 -49 18 -104 21 -121 3 -19 0 -34 -6 -39 -7 -3
-226 -6 -488 -6 -498 0 -492 0 -493 42 0 9 -8 27 -19 40 -31 41 -40 64 -51
135 -8 49 -18 76 -35 94 -16 17 -29 50 -40 105 -9 44 -25 89 -35 100 -10 11
-26 49 -35 85 -9 36 -23 75 -31 87 -20 32 -18 41 16 50 30 8 1015 6 1037 -1z
m2543 -17 c9 -17 6 -29 -20 -69 -18 -27 -39 -75 -47 -107 -8 -32 -21 -65 -28
-73 -22 -25 -42 -80 -50 -138 -4 -34 -16 -63 -32 -82 -17 -21 -28 -50 -35
-102 -9 -62 -16 -77 -47 -110 l-36 -38 -438 -1 c-311 -1 -442 2 -449 9 -15 15
17 202 43 251 22 42 39 125 39 187 0 24 14 85 30 136 17 51 30 98 30 106 0 7
5 22 10 33 10 18 27 19 515 19 499 0 504 0 515 -21z"/>
<path d="M6323 2760 c-37 -22 -41 -39 -17 -75 8 -13 14 -34 12 -47 -3 -21 -9
-23 -73 -28 -68 -5 -70 -6 -73 -33 -6 -47 13 -59 78 -51 71 8 98 -5 102 -48 4
-41 28 -50 28 -11 0 53 10 58 122 59 57 0 113 3 124 7 13 5 38 1 63 -9 38 -15
44 -15 81 0 61 24 101 -4 80 -58 -12 -34 -45 -34 -90 -1 -18 13 -36 22 -40 20
-15 -9 -19 -71 -11 -135 10 -75 72 -190 101 -190 24 0 31 20 40 129 6 71 14
101 30 123 11 16 23 45 26 64 7 55 10 57 80 51 67 -7 94 5 94 42 0 29 -22 41
-75 41 -76 0 -100 38 -50 82 14 12 25 27 25 34 0 21 -37 35 -83 32 l-42 -3 -3
-55 c-4 -101 -4 -100 -76 -100 -40 0 -68 5 -74 13 -6 7 -12 40 -14 72 l-3 60
-46 3 c-58 4 -79 -14 -79 -69 0 -68 -11 -79 -84 -79 -79 0 -89 10 -80 80 5 35
3 59 -6 76 -16 29 -25 30 -67 4z"/>
<path d="M6460 2451 c-57 -23 -70 -48 -70 -141 0 -136 34 -191 77 -122 9 15
27 38 39 52 16 18 25 47 33 103 14 98 14 93 -5 111 -19 19 -18 19 -74 -3z"/>
</g>
</svg>
