<?xml version="1.0" standalone="no"?>
<!DOCTYPE svg PUBLIC "-//W3C//DTD SVG 20010904//EN"
 "http://www.w3.org/TR/2001/REC-SVG-20010904/DTD/svg10.dtd">
<svg version="1.0" xmlns="http://www.w3.org/2000/svg"
 width="200.000000pt" height="176.000000pt" viewBox="0 0 200.000000 176.000000"
 preserveAspectRatio="xMidYMid meet">
<metadata>
Created by potrace 1.10, written by Peter Selinger 2001-2011
</metadata>
<g transform="translate(0.000000,176.000000) scale(0.050000,-0.050000)"
fill="#000000" stroke="none">
<path d="M1073 2787 c-7 -8 -13 -35 -13 -60 0 -35 -11 -47 -45 -47 -60 0 -175
-72 -175 -110 0 -16 -9 -30 -20 -30 -50 0 -15 -769 35 -776 27 -4 45 4 46 20
0 14 0 171 -1 349 -2 409 17 467 152 467 3 0 8 -25 12 -55 8 -69 60 -73 76 -5
18 76 78 77 93 1 14 -71 46 -71 81 1 30 60 74 62 82 5 10 -70 78 -73 91 -5 18
86 113 64 113 -26 0 -58 57 -42 64 19 9 78 66 82 93 6 26 -76 58 -79 67 -6 9
80 90 90 100 13 9 -77 48 -82 63 -9 9 44 23 61 53 61 30 0 44 -17 53 -61 14
-70 51 -69 67 2 15 64 87 67 96 4 9 -59 32 -57 80 9 41 57 104 41 104 -26 0
-49 55 -30 69 23 16 66 71 58 107 -16 33 -70 60 -70 68 0 8 72 79 77 96 6 17
-71 54 -72 70 -1 11 52 20 59 57 48 91 -28 93 -35 93 -421 0 -310 5 -370 30
-380 76 -29 90 25 90 353 0 402 -36 500 -194 532 -48 9 -64 25 -74 72 -13 68
-58 67 -68 -1 -12 -78 -80 -94 -98 -23 -19 72 -52 80 -67 16 -16 -67 -94 -74
-110 -9 -15 61 -64 50 -90 -21 -21 -55 -53 -45 -80 26 -23 60 -74 62 -83 3
-10 -71 -73 -69 -98 3 -27 78 -51 79 -68 4 -19 -88 -83 -95 -99 -10 -16 85
-48 88 -64 6 -22 -109 -106 -95 -107 19 0 58 -47 47 -56 -14 -9 -61 -81 -97
-96 -49 -36 114 -43 120 -68 51 -30 -81 -93 -89 -112 -14 -15 59 -49 56 -78
-7 -26 -58 -67 -56 -90 6 -10 28 -32 50 -47 50 -16 0 -34 -22 -41 -50 -17 -68
-70 -63 -95 10 -21 60 -38 72 -64 47z"/>
<path d="M2286 2382 c-45 -37 -47 -182 -3 -182 9 0 17 -9 17 -20 0 -11 -16
-20 -37 -20 -48 0 -123 -82 -123 -135 0 -24 -9 -48 -20 -55 -11 -7 -20 -39
-20 -72 0 -34 -13 -64 -30 -71 -36 -14 -39 -89 -5 -125 20 -22 17 -24 -21 -13
-30 10 -69 0 -116 -27 -45 -27 -105 -42 -168 -42 l-98 0 -6 125 c-6 129 -74
185 -142 117 -30 -30 -71 -27 -106 7 -16 16 -42 24 -59 18 -37 -15 -37 -76 0
-114 26 -26 26 -32 0 -53 -52 -44 -38 -226 22 -298 53 -62 46 -124 -16 -149
-16 -7 -2 -31 42 -73 72 -68 123 -53 154 43 17 54 209 55 209 0 0 -74 83 -126
135 -83 51 42 60 116 15 133 -41 16 -38 86 5 99 19 6 50 19 68 28 49 26 57 6
57 -143 l0 -137 70 0 c39 0 88 11 110 25 32 20 48 19 82 -2 30 -18 49 -20 64
-5 14 14 29 15 46 0 59 -48 108 40 108 196 0 132 5 149 55 195 30 28 43 51 30
51 -14 0 -25 14 -25 30 0 18 19 30 48 30 26 0 53 13 59 28 15 40 -9 251 -30
264 -9 6 -17 35 -17 64 -1 59 -76 144 -128 144 -36 0 -43 31 -12 50 34 21 22
128 -20 170 -50 50 -136 50 -194 2z m134 -102 c0 -22 -13 -40 -29 -40 -35 0
-58 33 -41 60 22 35 70 21 70 -20z m91 -201 c7 -12 -3 -33 -22 -47 -41 -30
-33 -289 11 -341 77 -94 -137 -130 -223 -38 -43 46 -44 51 -12 69 49 28 52
307 4 326 -17 6 -26 21 -19 32 17 27 244 26 261 -1z m-935 -387 c-6 -58 -12
-62 -91 -68 -100 -7 -105 10 -27 94 73 78 127 66 118 -26z m621 -122 c22 -199
-56 -418 -84 -235 -33 209 -36 248 -25 276 22 57 101 27 109 -41z m-309 -26
c18 -29 -37 -110 -98 -146 -113 -66 -311 -29 -340 63 -7 21 -21 39 -31 39 -11
0 -19 14 -19 30 0 33 467 46 488 14z m572 -156 c0 -112 -6 -149 -25 -142 -14
4 -23 29 -20 54 3 25 -3 77 -14 116 -14 49 -13 79 2 98 44 52 57 23 57 -126z
m-132 26 c25 -18 33 -47 28 -100 -8 -103 -45 -103 -52 1 -4 47 -15 85 -25 85
-11 0 -19 9 -19 20 0 27 25 25 68 -6z"/>
<path d="M1024 2365 c13 -67 1156 -61 1156 6 0 25 -86 29 -581 29 -543 0 -581
-2 -575 -35z"/>
<path d="M2592 2372 c17 -45 256 -77 293 -40 42 42 -18 68 -157 68 -118 0
-145 -6 -136 -28z"/>
<path d="M1028 2242 c-73 -74 -20 -82 530 -82 522 0 636 13 580 69 -11 10
-1099 23 -1110 13z"/>
<path d="M2711 2242 c-94 -11 -97 -14 -63 -47 38 -38 220 -50 241 -17 12 20
-42 84 -65 79 -8 -2 -58 -9 -113 -15z"/>
<path d="M1031 2041 c-18 -29 35 -103 69 -96 57 10 50 115 -7 115 -28 0 -56
-9 -62 -19z"/>
<path d="M1320 2009 c0 -67 53 -85 104 -34 51 51 32 85 -45 85 -50 0 -59 -8
-59 -51z"/>
<path d="M1604 2005 c10 -87 116 -93 116 -6 0 55 -6 61 -61 61 -55 0 -61 -6
-55 -55z"/>
<path d="M1891 2041 c-16 -25 31 -101 62 -101 24 0 47 44 47 92 0 32 -91 39
-109 9z"/>
<path d="M2790 2040 c-25 -40 12 -103 57 -96 68 10 73 116 6 116 -28 0 -56 -9
-63 -20z"/>
<path d="M1045 1887 c-60 -25 -11 -127 60 -127 30 0 36 13 31 65 -6 63 -37 84
-91 62z"/>
<path d="M1925 1885 c-36 -12 -31 -84 7 -99 32 -12 67 23 68 67 0 27 -40 45
-75 32z"/>
<path d="M2787 1850 c-19 -51 9 -93 58 -86 71 10 76 116 6 116 -29 0 -57 -13
-64 -30z"/>
<path d="M731 1696 c-35 -50 -41 -191 -13 -285 168 -555 303 -788 479 -823 77
-16 209 -111 239 -174 29 -60 124 -78 124 -23 0 60 -119 207 -170 208 -46 2
-235 113 -297 174 -81 82 -233 384 -233 465 0 21 -13 68 -29 105 -38 94 -48
260 -16 272 15 5 30 -16 38 -54 7 -34 20 -67 30 -73 9 -6 17 -35 17 -66 0 -61
64 -134 99 -113 27 17 27 85 1 101 -11 7 -20 26 -20 42 0 17 -18 71 -41 120
-77 169 -147 210 -208 124z"/>
<path d="M3042 1726 c-45 -18 -102 -73 -102 -98 0 -13 -13 -49 -30 -81 -16
-31 -30 -77 -30 -101 0 -24 -9 -49 -20 -56 -11 -7 -20 -30 -20 -51 0 -30 -14
-39 -60 -39 -42 0 -97 -29 -175 -91 -63 -49 -124 -97 -135 -105 -11 -8 -60
-27 -110 -43 -276 -84 -355 -195 -389 -544 -11 -111 32 -211 58 -134 26 78 71
286 71 328 0 97 139 249 228 249 37 0 207 93 291 159 101 79 161 95 161 43 0
-55 -45 -106 -190 -218 -169 -131 -196 -158 -181 -182 75 -122 497 316 461
478 -10 47 -6 60 19 60 34 0 46 24 103 205 20 64 46 112 57 108 28 -10 15
-185 -20 -270 -16 -37 -29 -89 -29 -114 0 -26 -8 -52 -18 -58 -11 -6 -25 -39
-33 -73 -42 -195 -184 -361 -396 -464 -152 -75 -253 -168 -253 -234 0 -59 95
-55 118 5 27 70 178 175 251 175 77 0 351 349 351 447 0 15 13 54 30 86 16 31
30 72 30 91 0 18 9 39 20 46 11 7 20 38 20 69 0 31 13 88 29 126 34 80 22 206
-25 260 -32 37 -38 38 -82 21z"/>
<path d="M990 1240 c-21 -96 54 -224 207 -353 73 -62 136 -120 140 -130 10
-28 123 -20 123 9 0 28 -17 44 -192 178 -126 97 -188 171 -188 227 0 43 68 21
165 -55 88 -70 246 -156 285 -156 100 0 217 -138 237 -280 39 -268 62 -334
104 -299 21 17 25 54 16 146 -29 313 -123 457 -339 524 -131 40 -223 93 -328
186 -99 88 -211 90 -230 3z"/>
</g>
</svg>
