<?xml version="1.0" standalone="no"?>
<!DOCTYPE svg PUBLIC "-//W3C//DTD SVG 20010904//EN"
 "http://www.w3.org/TR/2001/REC-SVG-20010904/DTD/svg10.dtd">
<svg version="1.0" xmlns="http://www.w3.org/2000/svg"
 width="200.000000pt" height="204.000000pt" viewBox="0 0 200.000000 204.000000"
 preserveAspectRatio="xMidYMid meet">
<metadata>
Created by potrace 1.10, written by Peter Selinger 2001-2011
</metadata>
<g transform="translate(0.000000,204.000000) scale(0.050000,-0.050000)"
fill="#aac7d8" stroke="none">
<path d="M1710 3709 c-44 -15 -100 -29 -123 -29 -24 0 -69 -13 -100 -29 -32
-16 -93 -44 -136 -63 -208 -89 -534 -366 -623 -528 -21 -38 -43 -74 -49 -80
-29 -24 -139 -278 -139 -317 0 -25 -13 -64 -28 -89 -30 -48 -54 -358 -31 -396
36 -58 76 1 85 126 14 190 51 331 126 483 15 31 28 65 28 76 0 11 23 49 50 85
28 36 50 72 50 79 0 65 484 472 563 474 15 0 44 13 66 30 21 16 59 29 84 29
24 0 49 7 55 17 42 67 782 67 824 0 6 -10 31 -17 55 -17 25 0 63 -13 84 -29
22 -17 51 -30 66 -30 126 -3 661 -523 664 -645 0 -14 13 -43 30 -65 16 -21 29
-55 29 -75 0 -20 9 -52 19 -71 27 -48 63 -212 78 -355 10 -88 21 -120 43 -120
45 0 53 309 11 394 -17 34 -31 78 -31 97 0 20 -13 61 -29 92 -16 32 -45 95
-64 142 -19 47 -42 85 -51 85 -9 0 -16 10 -16 22 0 109 -419 486 -651 586 -43
19 -104 47 -136 63 -31 16 -76 29 -100 29 -23 0 -79 14 -123 29 -50 19 -157
29 -290 29 -133 0 -240 -10 -290 -29z"/>
<path d="M1943 3577 c-28 -45 -13 -117 25 -117 40 0 108 84 77 95 -14 5 -37
20 -52 35 -21 21 -30 19 -50 -13z"/>
<path d="M1340 3369 c-26 -66 -4 -95 63 -86 47 7 85 117 40 117 -11 0 -34 5
-51 12 -22 8 -38 -5 -52 -43z"/>
<path d="M1952 3405 c-7 -6 -12 -244 -12 -528 0 -284 -8 -517 -17 -517 -10 0
-39 16 -66 35 -71 52 -116 79 -227 134 -55 27 -149 77 -208 111 -109 63 -153
60 -139 -10 6 -31 183 -137 457 -275 50 -25 102 -57 118 -71 61 -58 131 -21
145 76 10 71 25 855 18 1003 -1 34 -48 63 -69 42z"/>
<path d="M2580 3340 c0 -53 7 -60 60 -60 53 0 60 7 60 60 0 53 -7 60 -60 60
-53 0 -60 -7 -60 -60z"/>
<path d="M873 2907 c-16 -16 -17 -116 -2 -132 23 -22 132 49 120 79 -6 16 -11
38 -11 48 0 21 -87 25 -107 5z"/>
<path d="M3068 2891 c-6 -16 -8 -45 -4 -65 9 -49 103 -49 112 0 14 71 -83 130
-108 65z"/>
<path d="M2284 2784 c-76 -37 -96 -95 -69 -201 18 -72 16 -78 -35 -97 -64 -24
-120 -126 -120 -217 0 -48 -14 -76 -54 -105 -40 -29 -54 -56 -52 -97 5 -80
-158 -160 -309 -151 l-103 6 -6 124 -6 124 -70 7 c-228 22 -372 -293 -228
-500 l52 -75 -57 -51 -57 -52 77 -68 c87 -78 156 -62 181 40 18 70 178 73 214
4 49 -94 96 -123 152 -93 89 48 104 114 40 170 -63 54 -45 116 41 137 77 20
91 -4 80 -137 -9 -111 -5 -126 38 -158 29 -22 47 -27 47 -13 0 14 20 20 50 14
28 -5 56 -2 62 8 14 23 206 7 232 -19 57 -57 116 57 116 226 0 147 5 167 49
205 32 29 45 55 37 84 -6 22 -2 41 9 41 84 0 134 150 74 229 -16 21 -29 67
-29 102 0 89 -56 191 -118 214 -48 19 -52 29 -52 138 0 154 -72 216 -186 161z
m102 -123 c11 -44 -32 -92 -65 -72 -23 15 -28 77 -8 98 26 26 62 13 73 -26z
m82 -239 c6 -9 -3 -46 -20 -81 -34 -66 -24 -321 11 -321 24 0 39 -99 17 -113
-49 -30 -189 -21 -234 15 -47 38 -48 138 -2 138 11 0 20 65 20 150 0 120 -6
150 -30 150 -30 0 -41 42 -17 67 20 20 243 16 255 -5z m-308 -193 c0 -54 -29
-66 -47 -19 -15 38 6 93 29 79 10 -6 18 -33 18 -60z m420 -40 c0 -43 -8 -66
-20 -59 -33 20 -22 130 13 130 4 0 7 -32 7 -71z m-469 -91 c21 -33 -26 -71
-53 -44 -23 23 -9 66 22 66 10 0 24 -10 31 -22z m-655 -110 c-6 -72 -11 -78
-73 -84 -140 -14 -144 79 -6 159 68 40 87 21 79 -75z m672 -86 c23 -25 27 -43
13 -51 -11 -7 -21 -48 -21 -90 0 -59 -9 -79 -39 -86 -26 -7 -40 -32 -45 -78
-5 -44 -14 -9 -28 103 -19 157 -18 173 18 205 48 44 60 44 102 -3z m-303 -74
c15 -15 -11 -50 -104 -141 -116 -113 -421 -66 -421 65 0 16 -9 28 -20 28 -11
0 -20 14 -20 30 0 31 536 48 565 18z m607 -59 c15 -59 1 -262 -19 -282 -23
-24 -38 9 -43 99 -3 48 -16 108 -29 133 -20 37 -18 49 12 72 52 39 65 36 79
-22z m-112 -178 c0 -148 -57 -132 -87 24 -11 59 -8 65 38 65 45 0 49 -8 49
-89z"/>
<path d="M3273 2284 c-53 -59 27 -148 85 -95 53 48 53 59 -6 98 -44 28 -50 28
-79 -3z"/>
<path d="M637 2279 c-28 -16 -29 -27 -10 -69 29 -63 73 -63 118 0 50 68 -27
117 -108 69z"/>
<path d="M500 2040 c0 -11 -13 -20 -28 -20 -54 0 -62 -379 -9 -412 9 -6 17
-35 18 -64 0 -30 13 -76 29 -104 16 -27 29 -74 29 -104 1 -29 9 -59 19 -65 11
-6 25 -39 32 -73 8 -33 26 -85 42 -114 15 -30 28 -65 28 -79 0 -14 7 -25 15
-25 8 0 27 -26 41 -58 25 -57 61 -105 152 -202 45 -47 108 -84 257 -148 167
-72 210 -101 251 -174 49 -84 75 -94 135 -49 36 26 37 29 4 42 -19 7 -35 25
-35 40 0 35 -159 189 -194 189 -15 0 -42 9 -61 19 -19 11 -78 38 -131 61 -113
49 -229 159 -289 274 -23 46 -51 99 -62 120 -80 153 -250 746 -229 800 28 73
146 -83 146 -193 0 -18 8 -42 18 -52 11 -10 22 -46 25 -79 5 -45 19 -62 52
-66 53 -8 82 45 51 94 -12 18 -28 65 -36 103 -8 38 -21 78 -30 89 -8 11 -20
43 -27 70 -26 109 -213 267 -213 180z"/>
<path d="M3379 2034 c-17 -13 -38 -37 -45 -54 -8 -16 -32 -57 -53 -90 -21 -33
-39 -73 -40 -90 -1 -16 -15 -56 -31 -87 -33 -63 -41 -204 -13 -221 28 -17 77
52 92 128 7 39 21 88 30 110 73 179 91 210 117 210 32 0 22 -209 -14 -305 -9
-25 -32 -99 -52 -165 -65 -224 -152 -423 -261 -592 -62 -97 -67 -101 -222
-174 -53 -25 -113 -54 -132 -65 -19 -10 -47 -19 -63 -19 -49 0 -235 -201 -228
-248 9 -61 97 -57 129 7 33 66 138 161 178 161 18 0 57 12 86 28 29 15 88 44
130 65 141 68 292 275 392 537 41 109 66 185 75 230 5 28 17 68 28 90 29 63
62 229 72 365 12 165 -77 256 -175 179z"/>
<path d="M2963 1453 c-44 -24 -104 -64 -133 -89 -93 -81 -237 -158 -369 -196
-200 -59 -339 -212 -368 -408 -6 -38 -23 -143 -38 -232 -29 -173 -27 -208 15
-208 40 0 90 115 90 208 1 45 10 118 22 162 12 44 26 103 31 132 14 71 126
192 193 209 30 7 59 21 65 31 6 10 28 18 49 18 51 0 254 107 318 167 59 56
198 133 239 133 80 0 -23 -159 -194 -301 -222 -184 -263 -225 -263 -262 0 -63
55 -65 116 -4 31 31 86 80 122 107 109 83 260 241 292 306 24 49 44 234 25
234 -3 0 -34 8 -69 18 -50 15 -79 10 -143 -25z"/>
<path d="M801 1433 c-49 -130 66 -316 318 -513 48 -38 110 -90 135 -116 26
-26 58 -43 72 -39 27 9 46 115 20 115 -9 0 -39 20 -66 45 -28 25 -90 77 -140
115 -168 129 -260 243 -260 319 0 49 66 27 183 -63 40 -31 79 -56 86 -56 7 0
37 -22 67 -50 29 -27 68 -50 85 -50 17 0 49 -13 70 -29 22 -17 59 -30 83 -30
24 -1 49 -10 56 -21 7 -11 28 -20 46 -21 86 -1 224 -190 224 -306 0 -39 9 -76
20 -83 11 -7 20 -75 20 -152 0 -129 4 -140 51 -162 84 -38 98 -1 61 161 -18
77 -32 177 -32 221 0 44 -8 85 -18 91 -11 6 -24 37 -31 68 -19 86 -124 199
-228 244 -51 22 -109 49 -128 60 -19 10 -49 19 -66 19 -49 0 -146 56 -303 173
-168 126 -291 149 -325 60z"/>
<path d="M1601 371 c-23 -27 -16 -31 48 -31 51 0 72 8 66 25 -12 37 -85 41
-114 6z"/>
<path d="M2265 387 c-42 -18 -6 -47 58 -47 39 0 57 9 52 25 -9 27 -69 39 -110
22z"/>
</g>
</svg>
