<?xml version="1.0" standalone="no"?>
<!DOCTYPE svg PUBLIC "-//W3C//DTD SVG 20010904//EN"
 "http://www.w3.org/TR/2001/REC-SVG-20010904/DTD/svg10.dtd">
<svg version="1.0" xmlns="http://www.w3.org/2000/svg"
 width="284.000000pt" height="162.000000pt" viewBox="0 0 284.000000 162.000000"
 preserveAspectRatio="xMidYMid meet">
<metadata>
Created by potrace 1.10, written by Peter Selinger 2001-2011
</metadata>
<g transform="translate(0.000000,162.000000) scale(0.050000,-0.050000)"
fill="#646cff" stroke="none">
<path d="M3060 2701 c0 -12 -50 -73 -111 -134 l-110 -112 5 -242 6 -243 60 4
c57 4 201 26 383 57 65 11 80 21 73 49 -6 23 5 38 32 45 32 9 42 27 42 80 0
148 -175 191 -210 52 -15 -62 18 -137 61 -137 16 0 29 -9 29 -20 0 -27 -154
-26 -171 1 -7 12 -37 19 -66 16 -84 -9 -103 16 -103 129 1 147 4 150 230 161
201 9 334 26 390 48 17 6 77 14 135 17 l105 6 0 -178 c0 -98 -9 -183 -20 -190
-13 -8 -20 50 -20 159 0 129 -7 171 -27 171 -17 0 -23 -19 -18 -58 5 -31 -1
-63 -13 -71 -12 -7 -22 0 -22 18 0 17 -9 31 -20 31 -11 0 -20 15 -20 33 0 26
-14 30 -75 20 -41 -7 -100 -13 -131 -13 -32 0 -51 -8 -44 -20 7 -11 61 -20
120 -20 132 0 142 -15 133 -187 l-6 -130 -154 -10 c-186 -11 -286 -32 -272
-55 15 -25 146 -23 269 4 57 12 108 17 114 11 6 -7 -26 -18 -71 -25 -46 -7
-83 -21 -83 -31 0 -9 -88 -17 -195 -18 -196 0 -275 -25 -275 -85 0 -13 -20
-27 -45 -30 -44 -7 -65 -44 -24 -44 12 0 16 -9 9 -20 -7 -11 -29 -20 -49 -20
-53 0 -61 -37 -61 -289 0 -251 18 -295 101 -250 49 26 269 16 469 -22 252 -47
385 -47 400 -1 7 23 26 42 41 42 16 0 29 16 29 36 0 20 27 58 59 85 l59 49 1
277 c1 257 -2 276 -34 261 -19 -9 -116 -20 -215 -24 -226 -9 -278 -44 -65 -44
203 0 218 -34 20 -47 -193 -13 -329 -33 -355 -53 -33 -25 -356 -26 -341 -1 7
11 70 21 139 21 69 0 132 7 140 15 18 17 27 19 122 23 39 1 70 11 70 22 0 25
-225 27 -251 2 -10 -11 -44 -14 -75 -8 -110 22 2 65 171 65 90 1 155 9 155 21
0 12 66 20 158 20 141 0 158 4 168 40 6 22 25 40 42 40 19 0 32 17 32 40 0 22
12 40 28 40 68 0 92 91 92 354 l0 256 -255 3 c-140 1 -352 9 -470 17 -158 11
-215 8 -215 -9z m290 -41 c8 -13 -38 -19 -124 -18 -98 1 -122 6 -86 18 73 23
196 23 210 0z m339 -38 c6 -11 -53 -23 -134 -29 -178 -12 -298 -32 -326 -55
-26 -20 -172 1 -159 23 6 8 87 22 180 30 94 7 170 22 170 31 0 24 254 23 269
0z m199 -73 c54 -14 84 -327 34 -358 -29 -18 -42 43 -42 192 l0 140 -175 -10
c-96 -5 -224 -19 -285 -32 -176 -36 -380 -49 -380 -23 0 14 45 22 119 22 65 0
124 9 131 20 7 11 46 20 86 20 41 0 86 8 101 18 33 21 339 29 411 11z m-508
-299 c20 -24 20 -36 0 -60 -50 -60 -121 -14 -93 60 7 17 24 30 40 30 15 0 39
-13 53 -30z m380 -251 c0 -42 -67 -56 -90 -19 -7 11 2 20 19 20 17 0 31 14 31
31 0 17 9 26 20 19 11 -7 20 -30 20 -51z m43 -272 c30 -27 37 -63 37 -188 0
-233 -28 -261 -40 -39 l-10 189 -153 -4 c-84 -3 -177 -14 -206 -25 -71 -27
-233 -27 -191 0 17 11 54 20 84 20 29 0 59 9 66 20 7 11 56 20 110 20 54 0
103 9 110 20 20 32 153 23 193 -13z m137 -140 c0 -268 -51 -240 -65 36 -6 119
-3 134 29 131 31 -2 36 -23 36 -167z m-610 15 c77 -3 149 -14 159 -24 10 -10
57 -18 104 -18 98 0 102 -8 87 -188 -12 -141 2 -137 -290 -92 -88 13 -214 30
-280 37 l-120 13 -6 125 c-6 134 60 201 166 166 22 -7 103 -16 180 -19z m430
-12 c0 -55 -29 -67 -47 -20 -8 20 -40 30 -97 30 -63 1 -78 6 -56 20 68 44 200
24 200 -30z"/>
<path d="M3251 1516 c-58 -83 -11 -196 82 -196 68 0 107 44 107 121 0 112
-128 162 -189 75z m125 -36 c43 -69 -18 -150 -72 -96 -40 40 -15 136 35 136 6
0 23 -18 37 -40z"/>
<path d="M4251 2702 c-7 -12 -8 -22 -2 -22 6 0 -34 -47 -89 -105 l-99 -105 -4
-195 c-3 -107 -5 -220 -6 -250 -1 -62 7 -63 249 -26 273 41 283 44 271 76 -7
18 5 42 29 59 51 36 53 128 3 173 -113 102 -251 -59 -143 -167 22 -22 40 -44
40 -50 0 -20 -138 -9 -151 11 -7 12 -37 20 -66 18 -106 -7 -105 -7 -99 136 l6
135 210 13 c229 15 359 34 390 56 11 9 72 16 135 17 l115 3 0 -220 c0 -133 -8
-219 -20 -219 -12 0 -20 80 -20 200 0 147 -7 200 -25 200 -19 0 -24 -58 -19
-240 6 -229 4 -240 -34 -240 -50 0 -72 32 -32 47 23 9 30 48 30 173 0 218 -24
245 -197 227 -151 -16 -142 -34 24 -47 l123 -10 6 -155 6 -155 -150 0 c-82 0
-155 -9 -162 -20 -7 -11 -39 -20 -72 -20 -40 0 -56 -8 -46 -23 13 -22 174 -14
318 16 33 7 54 6 47 -1 -6 -8 -38 -18 -70 -24 -31 -6 -60 -19 -64 -29 -3 -11
-91 -19 -195 -19 -195 0 -288 -30 -288 -92 0 -16 -14 -28 -32 -28 -21 0 -28
-11 -21 -31 8 -20 -4 -37 -37 -49 -48 -18 -50 -26 -54 -220 -2 -110 -4 -225
-5 -255 l-1 -54 210 -3 c116 -1 264 -13 330 -26 266 -52 410 -52 412 1 5 107
-6 508 -15 516 -17 18 -308 2 -346 -19 -47 -25 -228 -27 -212 -2 6 10 45 23
86 29 41 6 125 21 185 33 201 40 263 45 286 22 33 -33 54 -27 54 18 0 44 -264
62 -290 20 -7 -11 -52 -20 -100 -20 -48 0 -93 -9 -100 -20 -7 -11 -89 -20
-182 -20 -109 0 -166 7 -158 20 7 11 70 20 141 20 73 0 129 9 129 20 0 11 45
20 100 20 55 0 100 9 100 20 0 25 -225 27 -251 2 -30 -30 -135 -3 -109 28 13
16 81 26 185 28 91 2 168 12 172 23 3 10 78 19 165 19 156 0 158 1 158 51 0
43 7 49 40 39 31 -10 40 -4 40 27 0 22 11 43 24 48 18 6 23 78 18 271 -4 180
1 264 16 264 15 0 20 -76 17 -233 -4 -173 2 -236 20 -242 19 -6 25 56 25 268
l0 277 -255 2 c-140 2 -351 10 -467 18 -149 10 -217 8 -227 -8z m299 -42 c8
-13 -38 -19 -124 -19 -94 1 -124 7 -96 19 56 24 205 24 220 0z m339 -38 c6
-11 -53 -23 -134 -29 -188 -14 -320 -34 -345 -53 -25 -20 -153 -1 -140 20 6 9
87 23 180 31 94 7 175 22 181 31 15 24 243 23 258 0z m191 -82 c0 -12 -72 -20
-176 -20 -97 0 -185 -8 -195 -18 -23 -22 -142 -39 -369 -55 -93 -6 -176 -21
-184 -34 -8 -12 -20 -16 -28 -8 -37 38 43 73 188 82 189 12 378 40 397 59 22
22 367 17 367 -6z m-510 -320 c0 -31 -13 -52 -35 -56 -40 -8 -65 40 -47 87 19
50 82 26 82 -31z m-242 -597 c5 -9 85 -18 176 -20 91 -2 174 -13 185 -24 10
-10 58 -19 106 -19 l87 0 -6 -155 -6 -155 -70 3 c-38 2 -137 14 -220 26 -82
13 -204 29 -270 37 l-120 14 -6 135 c-4 83 2 136 15 138 12 1 29 3 39 5 10 1
25 9 34 17 19 20 43 19 56 -2z m628 -208 c-5 -199 -10 -225 -43 -232 -31 -6
-33 0 -15 34 30 55 28 329 -2 359 -13 13 -54 24 -91 24 -40 0 -62 8 -55 20 7
11 57 20 112 20 l99 0 -5 -225z"/>
<path d="M4453 1523 c-39 -43 -42 -82 -10 -152 28 -62 127 -71 169 -16 90 118
-61 277 -159 168z m127 -83 c0 -43 -51 -88 -79 -71 -28 18 -27 97 3 127 29 29
76 -5 76 -56z"/>
<path d="M1600 2598 c-240 -139 -195 -598 59 -598 48 0 51 -16 15 -71 -14 -21
-37 -88 -51 -149 -50 -223 -70 -284 -91 -289 -321 -86 -392 -125 -392 -214 0
-50 -33 -47 -61 5 -20 37 -35 41 -111 31 l-88 -12 0 97 c0 135 -66 202 -202
202 -182 0 -283 -182 -179 -323 43 -57 43 -62 9 -99 -58 -64 -65 -334 -10
-439 32 -61 40 -101 30 -153 -28 -148 52 -268 157 -235 66 21 74 44 75 201 0
115 7 148 39 177 31 28 41 67 45 178 l6 143 89 21 c49 12 114 45 145 73 l55
50 31 -46 c37 -57 117 -81 177 -53 23 11 84 32 133 45 50 14 123 37 163 52
191 69 170 -113 -39 -350 -197 -223 -210 -282 -96 -414 l67 -78 434 0 c493 0
511 6 511 169 0 131 -61 166 -288 165 -228 -2 -244 11 -106 85 131 70 188 122
236 215 57 112 55 134 -62 596 -10 39 -28 115 -41 170 -45 194 -113 290 -206
290 -52 0 -57 38 -14 98 189 266 -154 626 -439 460z m275 -80 c215 -80 121
-458 -114 -458 -250 0 -323 345 -97 457 82 41 103 41 211 1z m159 -557 c96
-59 101 -71 205 -531 25 -110 53 -220 63 -245 17 -44 3 -104 -46 -200 -20 -39
-213 -180 -325 -236 -100 -50 -45 -137 89 -139 399 -8 448 -22 405 -118 l-24
-52 -387 0 c-535 0 -600 62 -349 331 236 253 238 258 150 443 -17 35 -12 63
20 130 65 136 130 435 102 470 -36 43 -72 -6 -99 -134 -76 -374 -65 -359 -318
-437 -222 -68 -273 -73 -298 -27 -25 48 14 88 118 121 39 12 119 38 179 58
l110 36 48 200 c84 346 181 437 357 330z m-1277 -473 c35 -25 44 -47 39 -104
-13 -157 -217 -162 -232 -7 -12 121 92 181 193 111z m263 -266 c0 -30 -46 -55
-185 -101 -153 -50 -174 -69 -116 -105 54 -34 54 -151 1 -246 -29 -51 -40
-108 -40 -202 0 -192 -47 -162 -61 39 -6 84 -22 164 -35 177 -32 32 -32 320 0
352 13 13 54 24 90 24 37 0 82 8 101 18 103 52 245 78 245 44z"/>
<path d="M2393 2507 c-7 -8 -13 -44 -13 -82 0 -64 -3 -67 -65 -61 -62 6 -65 3
-65 -64 0 -67 3 -70 64 -64 60 6 64 3 70 -70 10 -123 136 -129 136 -6 0 81 1
82 65 76 62 -6 65 -3 65 64 0 67 -3 70 -65 64 -64 -6 -65 -5 -65 75 0 79 -75
119 -127 68z"/>
<path d="M5140 1900 c-16 -11 -113 -20 -214 -20 -101 0 -189 -9 -196 -20 -8
-13 47 -20 149 -20 165 0 239 -45 179 -109 -25 -27 -23 -531 2 -531 11 0 20
18 20 40 0 22 8 40 19 40 10 0 24 18 31 40 7 22 26 40 41 40 24 0 29 50 29
280 0 280 -4 296 -60 260z m18 -280 c-3 -256 -34 -274 -36 -20 -1 155 5 220
18 200 11 -16 19 -97 18 -180z"/>
</g>
</svg>
