<?xml version="1.0" standalone="no"?>
<!DOCTYPE svg PUBLIC "-//W3C//DTD SVG 20010904//EN"
 "http://www.w3.org/TR/2001/REC-SVG-20010904/DTD/svg10.dtd">
<svg version="1.0" xmlns="http://www.w3.org/2000/svg"
 width="750.000000pt" height="354.000000pt" viewBox="0 0 750.000000 354.000000"
 preserveAspectRatio="xMidYMid meet">
<metadata>
Created by potrace 1.10, written by Peter Selinger 2001-2011
</metadata>
<g transform="translate(0.000000,354.000000) scale(0.100000,-0.100000)"
fill="#000000" stroke="none">
<path d="M2898 3023 c-16 -3 -37 -17 -48 -34 -15 -20 -30 -29 -49 -29 -47 0
-95 -21 -122 -53 -14 -16 -41 -35 -59 -41 -24 -8 -36 -20 -44 -43 -6 -18 -26
-45 -44 -60 -27 -23 -34 -37 -39 -82 -4 -38 -13 -61 -28 -75 -38 -36 -45 -62
-45 -160 0 -86 2 -98 24 -123 20 -23 26 -25 39 -15 12 10 15 36 15 119 0 106
0 107 30 132 37 32 52 61 52 100 0 22 8 35 31 51 17 13 35 33 40 47 5 13 24
30 43 38 22 9 36 23 38 37 2 17 14 24 53 33 61 14 91 30 105 54 13 25 87 35
180 26 49 -5 70 -11 70 -21 0 -19 41 -44 97 -58 35 -9 51 -19 61 -38 6 -14 24
-29 38 -32 16 -4 30 -19 40 -41 9 -22 23 -37 39 -41 17 -4 27 -15 31 -33 17
-84 29 -114 45 -118 10 -3 20 -12 24 -21 12 -31 17 -131 11 -185 -6 -47 -11
-56 -29 -59 -22 -3 -37 -37 -52 -110 -3 -17 -16 -33 -33 -42 -16 -8 -33 -26
-40 -40 -6 -15 -22 -31 -34 -37 -13 -5 -30 -22 -39 -38 -12 -21 -28 -30 -70
-39 -67 -15 -84 -25 -76 -46 8 -21 48 -36 93 -36 45 0 104 25 104 44 0 9 21
26 47 38 37 18 49 30 55 55 6 21 19 38 36 47 30 15 52 68 52 121 0 20 10 37
32 55 32 27 32 28 36 131 5 125 -8 181 -43 197 -21 10 -25 19 -25 52 0 49 -32
116 -60 125 -11 4 -23 20 -28 38 -6 24 -18 37 -51 53 -24 12 -49 32 -56 45
-15 27 -64 47 -117 48 -27 1 -40 7 -48 22 -19 34 -71 49 -167 48 -48 -1 -100
-4 -115 -6z"/>
<path d="M6132 3019 c-19 -6 -38 -20 -44 -34 -8 -17 -19 -25 -37 -25 -14 0
-48 -6 -76 -13 -38 -10 -51 -18 -55 -36 -3 -14 -20 -30 -39 -40 -19 -9 -42
-29 -50 -44 -9 -15 -27 -33 -40 -40 -23 -11 -32 -28 -45 -89 -4 -15 -20 -41
-36 -58 -26 -27 -30 -38 -30 -89 0 -39 -5 -63 -14 -70 -11 -9 -93 -12 -311
-10 -168 1 -300 -2 -305 -7 -9 -10 -13 -29 -11 -56 1 -17 23 -18 315 -18 354
0 326 7 326 -84 0 -45 5 -59 35 -97 19 -25 41 -63 48 -84 10 -28 21 -41 38
-45 16 -4 27 -16 33 -39 7 -24 19 -37 41 -47 17 -7 36 -24 43 -38 9 -20 24
-27 89 -41 60 -13 86 -25 111 -48 l32 -31 0 -321 0 -321 -32 -15 c-37 -16 -45
-38 -47 -134 -1 -88 13 -131 49 -144 17 -5 35 -21 42 -35 9 -22 8 -29 -7 -46
-16 -18 -31 -20 -120 -20 -60 0 -105 4 -112 11 -8 8 -9 76 -6 228 5 180 4 218
-8 228 -21 17 -366 20 -382 4 -9 -9 -11 -72 -9 -227 3 -158 1 -218 -8 -229
-15 -18 -135 -21 -145 -4 -4 5 -6 255 -6 555 l2 544 -27 12 c-24 11 -28 10
-46 -12 -18 -22 -20 -34 -14 -100 3 -41 6 -279 6 -528 1 -335 -2 -457 -11
-468 -8 -9 -32 -14 -75 -14 -77 0 -97 18 -83 78 5 20 6 66 3 102 -3 36 -1 110
4 165 10 108 9 120 -16 130 -9 4 -129 6 -267 6 -280 -2 -281 -2 -270 -71 3
-19 6 -116 8 -215 l2 -179 -25 -13 c-28 -14 -126 -8 -147 9 -28 23 -9 78 28
78 31 0 39 25 41 146 2 134 -3 161 -38 174 -34 13 -30 33 11 56 42 23 45 46
45 342 0 272 -1 283 -21 303 -18 18 -23 19 -42 6 -22 -14 -22 -20 -27 -315 -3
-165 -8 -303 -12 -307 -3 -4 -31 -10 -62 -14 -31 -4 -61 -12 -67 -18 -6 -6
-17 -38 -25 -73 -8 -35 -21 -68 -30 -74 -16 -12 -33 -73 -34 -120 0 -36 69
-102 123 -117 30 -8 37 -14 37 -34 0 -19 -7 -26 -36 -34 -20 -6 -49 -7 -65 -4
-35 7 -79 -19 -79 -46 0 -10 9 -26 19 -35 17 -15 28 -16 93 -8 78 11 1963 7
2055 -3 44 -5 55 -3 72 14 15 15 18 26 12 43 -9 26 -36 36 -102 37 -29 1 -51
7 -60 17 -22 27 2 48 72 62 35 7 67 18 71 25 15 23 12 221 -4 250 -5 10 -20
22 -34 27 -16 6 -24 17 -24 33 0 24 -27 57 -48 57 -34 0 -37 23 -36 285 2 288
2 289 69 278 45 -7 77 2 112 31 16 13 47 28 68 31 51 10 91 30 99 50 3 9 25
25 50 35 51 23 58 31 80 91 11 29 27 51 42 57 26 12 30 25 39 126 6 56 10 69
26 73 45 12 47 146 2 187 -19 18 -25 36 -30 96 -5 62 -10 78 -32 98 -14 13
-37 45 -51 70 -16 30 -42 58 -72 78 -26 17 -58 42 -71 56 -16 17 -38 27 -72
31 -36 5 -58 16 -82 39 -32 31 -35 32 -140 34 -60 2 -123 -1 -141 -7z m199
-75 c27 -5 38 -13 46 -34 11 -29 18 -31 111 -46 37 -5 46 -11 58 -39 9 -23 21
-34 43 -38 24 -5 32 -14 39 -39 5 -20 19 -38 37 -48 26 -14 31 -24 38 -76 13
-97 36 -166 58 -171 23 -6 25 -31 4 -40 -26 -9 -45 -60 -57 -149 -10 -83 -12
-85 -43 -99 -23 -9 -35 -22 -39 -42 -5 -21 -17 -34 -39 -44 -18 -8 -38 -26
-45 -41 -14 -29 -20 -32 -106 -47 -33 -6 -71 -19 -84 -28 -51 -37 -69 -43
-129 -43 -49 0 -63 3 -63 15 0 21 -37 43 -97 55 -56 12 -83 33 -198 150 -13
14 -30 43 -37 65 -9 28 -20 41 -38 45 -24 6 -25 10 -32 101 -4 53 -4 129 0
170 6 64 10 75 31 85 29 15 41 32 41 61 0 15 29 53 84 108 73 74 91 86 131 94
47 9 85 34 85 57 0 18 131 29 201 18z m-1297 -1750 c9 -8 16 -26 16 -39 0 -51
-17 -55 -207 -55 -150 0 -179 2 -195 17 -25 22 -23 59 4 77 33 23 359 23 382
0z m779 4 c13 -11 17 -42 21 -192 4 -125 3 -183 -5 -193 -15 -17 -209 -19
-227 -1 -17 17 -17 348 1 371 9 12 32 17 97 20 47 1 88 4 91 5 3 1 13 -4 22
-10z m-1401 -68 c9 -76 -6 -110 -47 -110 -17 0 -29 -8 -36 -24 -14 -29 -55
-42 -76 -24 -20 16 -9 65 22 98 13 14 31 43 41 65 23 56 33 66 63 63 24 -3 27
-8 33 -68z m1890 17 c13 -20 9 -172 -4 -185 -27 -27 -78 -7 -78 29 0 10 -16
30 -35 45 -28 21 -35 33 -35 60 0 47 47 78 105 69 22 -3 43 -11 47 -18z
m-1271 -177 c22 -12 27 -84 7 -97 -7 -4 -94 -8 -193 -9 -198 -3 -215 2 -215
57 0 55 14 59 206 59 102 0 183 -4 195 -10z"/>
<path d="M6202 2441 c-11 -7 -10 -10 3 -15 37 -14 111 -3 99 15 -7 11 -85 12
-102 0z"/>
<path d="M6063 2358 c-16 -18 -49 -48 -71 -67 -34 -28 -42 -41 -41 -65 1 -29
1 -30 8 -6 5 20 14 26 41 28 47 5 63 20 56 53 -5 27 -3 28 36 31 46 3 57 17
33 42 -22 22 -27 21 -62 -16z"/>
<path d="M6344 2375 c-9 -23 3 -45 26 -45 22 0 25 12 10 41 -13 23 -28 25 -36
4z"/>
<path d="M6408 2312 c-9 -33 7 -57 43 -62 30 -4 34 -9 37 -38 3 -29 6 -33 30
-30 36 4 40 32 8 60 -107 98 -110 100 -118 70z"/>
<path d="M5686 1028 c-30 -43 -14 -148 22 -148 33 0 52 32 52 87 0 36 -5 55
-18 66 -25 23 -38 21 -56 -5z"/>
<path d="M4817 2543 c-2 -5 -7 -19 -10 -33 -4 -17 -19 -32 -41 -42 -22 -11
-36 -25 -38 -40 -2 -12 -17 -32 -35 -43 -17 -11 -34 -30 -38 -43 -3 -14 -19
-29 -40 -38 -18 -7 -40 -26 -47 -41 -8 -16 -23 -29 -36 -31 -14 -2 -32 -17
-43 -36 -10 -18 -30 -38 -44 -44 -13 -6 -31 -25 -39 -41 -18 -34 -44 -45 -86
-36 -17 4 -46 1 -66 -5 -29 -10 -35 -16 -32 -37 2 -15 14 -35 28 -45 23 -17
33 -18 100 -8 96 14 118 23 126 55 3 14 19 32 36 41 16 9 36 31 44 50 9 22 25
39 42 45 15 5 35 23 44 39 9 17 24 30 32 30 9 0 22 16 31 35 9 23 24 39 43 46
17 6 35 23 45 44 19 39 41 44 109 23 29 -9 43 -20 53 -43 8 -21 22 -35 39 -39
17 -4 31 -18 40 -40 9 -22 23 -36 40 -40 17 -4 31 -18 40 -41 9 -20 26 -39 40
-44 13 -6 27 -19 31 -30 7 -24 84 -105 111 -118 10 -5 108 -9 217 -9 186 1
200 2 213 21 20 27 14 48 -16 56 -14 4 -97 8 -185 9 -201 3 -216 6 -234 47 -8
18 -27 37 -43 44 -17 7 -34 23 -39 36 -5 13 -23 30 -40 37 -16 7 -39 27 -49
43 -12 20 -30 34 -49 38 -27 6 -31 11 -31 41 0 32 -2 34 -35 34 -36 0 -39 3
-49 51 -4 16 -16 31 -33 38 -16 6 -36 25 -45 41 -16 28 -51 41 -61 23z"/>
<path d="M4166 2468 c-21 -12 -20 -46 0 -69 14 -16 34 -17 222 -13 114 3 217
7 228 10 29 5 38 32 21 58 -14 20 -23 21 -235 22 -121 0 -227 -3 -236 -8z"/>
<path d="M1962 2458 c-5 -7 -13 -23 -16 -35 -4 -12 -22 -31 -41 -42 -19 -11
-35 -27 -35 -36 0 -8 -18 -26 -40 -40 -22 -14 -40 -31 -40 -39 0 -8 -8 -24
-18 -36 l-19 -23 -94 16 c-63 11 -145 17 -248 16 -136 -1 -155 -3 -172 -20
-11 -11 -19 -26 -19 -35 0 -8 -16 -22 -35 -30 -22 -9 -37 -23 -41 -39 -4 -16
-18 -31 -39 -39 -21 -9 -36 -25 -43 -44 -6 -19 -19 -32 -37 -36 -17 -4 -31
-18 -40 -40 -9 -21 -23 -36 -39 -40 -16 -4 -28 -17 -36 -40 -7 -24 -20 -38
-40 -44 -15 -6 -34 -23 -42 -39 -7 -15 -30 -36 -51 -46 -73 -34 -31 -77 68
-70 33 3 112 6 175 7 77 1 123 6 139 15 l25 14 -25 19 c-20 17 -33 19 -86 14
-74 -8 -110 0 -118 24 -9 27 3 45 45 69 22 12 45 31 50 42 6 11 28 30 50 44
21 13 41 32 44 42 3 10 19 26 36 35 16 9 35 28 41 41 6 14 22 30 35 36 14 6
29 22 34 36 5 13 20 27 32 29 45 10 283 13 306 5 35 -13 30 -56 -10 -77 -17
-9 -49 -34 -69 -54 -21 -21 -43 -38 -48 -38 -6 0 -17 -13 -26 -30 -8 -16 -29
-37 -45 -45 -16 -8 -33 -27 -36 -41 -4 -13 -19 -31 -34 -39 -15 -8 -37 -30
-48 -50 -13 -21 -29 -35 -41 -35 -11 0 -32 -5 -47 -10 l-27 -11 34 -23 c24
-17 39 -21 51 -15 31 17 86 11 98 -10 13 -25 13 -421 0 -479 -6 -24 -19 -55
-30 -70 -11 -15 -22 -52 -26 -84 -6 -55 -5 -59 24 -86 24 -22 33 -41 38 -79 3
-28 9 -55 13 -62 5 -8 171 -11 581 -11 529 -1 576 1 587 16 10 13 12 112 10
419 -3 422 3 507 36 513 12 3 21 -6 28 -27 19 -54 68 -67 95 -26 16 24 15 27
0 44 -10 11 -28 22 -41 25 -13 3 -27 18 -33 34 -6 17 -22 34 -40 41 -17 7 -36
25 -42 41 -6 16 -24 34 -40 40 -16 6 -34 24 -40 40 -6 16 -24 33 -38 39 -15 6
-34 24 -43 40 -11 18 -29 32 -49 36 -39 9 -47 28 -26 60 15 22 23 25 81 25 61
0 68 -2 105 -36 24 -22 44 -51 50 -74 8 -31 17 -41 46 -50 19 -7 42 -23 51
-36 20 -31 55 -50 113 -59 25 -4 58 -18 73 -31 24 -21 39 -24 102 -24 54 0 78
-4 89 -16 20 -19 21 -54 2 -79 -12 -16 -23 -17 -110 -11 -99 7 -136 -1 -136
-29 0 -30 40 -38 150 -31 79 4 120 2 163 -9 63 -16 88 -10 107 25 13 24 -12
52 -65 74 -33 14 -35 18 -35 60 0 53 -24 76 -80 76 -57 1 -107 16 -139 42 -16
14 -56 31 -91 39 -50 11 -67 20 -87 45 -13 18 -34 35 -46 38 -13 3 -30 20 -39
40 -11 21 -25 36 -39 38 -18 2 -25 14 -35 52 -7 27 -20 56 -28 64 -14 14 -17
14 -33 0 -29 -26 -91 -38 -194 -38 -100 0 -124 8 -131 45 -2 10 -19 30 -38 43
-19 12 -40 36 -46 51 -8 20 -22 31 -43 36 -21 4 -37 17 -46 36 -16 31 -36 37
-53 17z m78 -158 c21 -11 41 -28 44 -38 4 -10 37 -45 74 -76 37 -32 87 -81
112 -109 103 -117 239 -246 264 -253 36 -9 34 -39 -4 -59 -17 -9 -33 -27 -37
-42 -3 -15 -1 -200 5 -412 6 -230 7 -393 1 -408 -11 -30 -34 -39 -65 -25 l-24
12 0 224 c0 155 -3 227 -11 232 -14 8 -757 7 -771 -2 -6 -4 -9 -83 -7 -225 2
-135 0 -222 -6 -227 -6 -5 -33 -12 -62 -15 -64 -7 -96 13 -95 59 0 16 3 222 5
459 l4 429 32 9 c23 6 35 16 43 38 6 19 22 35 43 43 20 9 35 23 39 39 3 14 21
34 41 46 19 11 35 27 35 36 0 8 17 26 39 39 21 14 41 36 45 50 4 17 15 26 37
31 22 5 34 15 41 35 5 16 22 33 39 40 18 8 32 22 36 39 13 56 39 64 103 31z
m-186 -1030 c12 -12 11 -369 -2 -382 -5 -5 -34 -12 -63 -14 -86 -6 -86 -5 -85
207 1 210 1 209 88 201 29 -2 57 -8 62 -12z m240 -1 c13 -12 10 -369 -4 -383
-13 -13 -126 -14 -139 -1 -8 8 -15 237 -11 366 0 9 10 21 23 26 24 12 116 6
131 -8z m234 -4 c17 -15 20 -361 4 -377 -15 -15 -118 -18 -137 -5 -13 11 -16
38 -16 187 0 96 0 181 0 188 1 7 11 16 23 21 29 11 109 2 126 -14z"/>
<path d="M1800 1983 c-19 -14 -21 -23 -18 -111 1 -54 -2 -103 -6 -111 -7 -10
-23 -12 -69 -7 -39 4 -65 2 -73 -5 -17 -14 -20 -279 -5 -295 13 -12 689 -10
701 2 5 5 10 68 11 141 3 164 1 167 -87 158 -87 -10 -90 0 -69 173 3 23 -2 39
-15 52 -16 16 -35 18 -184 18 -128 -1 -170 -4 -186 -15z m290 -78 c18 -22 25
-108 11 -134 -11 -19 -19 -21 -122 -21 -104 0 -110 1 -118 23 -9 23 -1 113 12
135 13 19 201 17 217 -3z m-311 -229 c7 -9 11 -40 9 -81 -2 -56 -7 -70 -24
-82 -19 -12 -24 -11 -45 6 -20 16 -24 28 -24 79 0 35 5 66 14 75 17 21 54 22
70 3z m322 -7 c15 -23 11 -126 -6 -142 -11 -11 -39 -14 -117 -13 -99 1 -103 2
-115 26 -16 32 -10 120 9 134 23 17 218 12 229 -5z m156 -9 c21 -42 16 -105
-11 -136 -23 -27 -24 -28 -50 -11 -24 16 -26 23 -26 85 0 41 5 73 12 80 20 20
61 10 75 -18z"/>
<path d="M2835 2370 c-10 -11 -24 -20 -32 -20 -7 0 -13 -4 -13 -9 0 -4 17 -8
37 -7 28 1 39 6 41 20 6 29 -12 39 -33 16z"/>
<path d="M2728 2294 c-16 -8 -28 -20 -29 -27 -4 -49 -3 -62 6 -65 6 -1 11 5
13 15 2 10 21 25 42 35 28 12 40 23 40 37 0 25 -31 28 -72 5z"/>
<path d="M4775 2222 c-31 -6 -41 -12 -43 -29 -3 -17 2 -23 15 -23 58 0 86 -75
39 -105 -31 -21 -63 -6 -72 33 -10 47 -13 52 -29 52 -15 0 -22 -12 -45 -83
-10 -32 -9 -42 5 -63 14 -22 21 -25 48 -19 18 4 113 7 211 6 119 -1 184 3 192
10 26 21 16 58 -20 80 -19 11 -39 32 -45 47 -7 15 -24 42 -40 61 -26 32 -31
34 -102 37 -41 1 -92 -1 -114 -4z m203 -94 c3 -41 -23 -78 -56 -78 -31 0 -64
43 -56 74 8 34 30 47 74 43 33 -2 35 -5 38 -39z"/>
<path d="M3087 2083 c-11 -10 -8 -43 3 -43 6 0 10 11 10 25 0 26 -2 29 -13 18z"/>
<path d="M4654 1827 c-11 -6 -14 -42 -14 -192 0 -120 4 -186 11 -190 18 -12
450 -8 461 3 14 14 12 362 -2 376 -13 13 -433 15 -456 3z m144 -79 c8 -8 12
-48 12 -113 0 -107 -7 -125 -46 -125 -39 0 -54 36 -54 128 0 46 5 92 10 103
12 22 59 26 78 7z m226 -1 c16 -12 19 -28 18 -112 0 -83 -3 -101 -18 -112 -25
-18 -118 -17 -134 2 -18 22 -18 198 -1 219 17 20 109 22 135 3z"/>
<path d="M5528 1822 c-15 -17 -15 -359 0 -374 15 -15 438 -14 457 2 21 18 22
337 1 366 -13 18 -28 19 -231 19 -164 0 -219 -3 -227 -13z m148 -84 c5 -13 7
-68 4 -123 l-5 -100 -31 -3 c-19 -2 -36 3 -43 12 -18 21 -18 200 -1 221 20 23
65 19 76 -7z m225 5 c11 -13 15 -43 14 -112 -1 -109 -10 -121 -85 -121 -69 0
-78 15 -78 133 1 112 3 116 84 117 37 0 55 -5 65 -17z"/>
<path d="M1245 1607 c-12 -7 -61 -12 -125 -12 -101 0 -105 -1 -117 -25 -20
-39 -18 -264 3 -284 20 -20 29 -20 50 1 14 15 15 30 10 111 -5 66 -4 98 5 108
14 18 130 19 147 2 7 -7 12 -40 12 -79 0 -49 4 -70 16 -80 14 -11 19 -10 35
10 25 31 27 186 4 231 -9 17 -17 30 -18 30 -1 0 -11 -6 -22 -13z"/>
<path d="M842 1594 l-22 -15 0 -379 c0 -358 1 -380 19 -392 15 -11 138 -16
204 -9 4 1 12 12 19 26 18 40 -3 55 -78 55 -34 0 -65 4 -68 9 -3 5 -8 162 -10
350 -4 381 -7 396 -64 355z"/>
<path d="M3071 1596 c-9 -11 -13 -108 -14 -350 -1 -367 1 -356 -59 -370 -21
-5 -28 -12 -28 -30 0 -39 25 -56 84 -56 90 0 86 -19 86 406 0 318 -2 373 -16
392 -17 25 -36 28 -53 8z"/>
<path d="M2670 1585 c-15 -18 -16 -200 -1 -219 36 -43 74 -1 64 71 -3 22 0 50
6 62 10 18 21 21 76 21 40 0 67 -5 72 -12 4 -7 8 -60 8 -118 l0 -105 26 -3
c45 -5 52 16 50 155 -1 70 -7 135 -12 145 -8 15 -24 17 -145 16 -82 -1 -138
-6 -144 -13z"/>
<path d="M2746 1306 c-3 -13 -18 -29 -36 -36 -50 -21 -65 -111 -30 -177 25
-48 25 -73 -1 -118 -27 -45 -20 -79 21 -93 33 -12 33 -14 30 -90 -2 -58 11
-82 44 -82 36 0 46 20 46 87 0 63 0 64 35 80 36 17 53 49 41 78 -6 16 -12 19
-58 29 -26 6 -26 8 -21 61 l6 55 -42 0 c-35 0 -43 4 -51 24 -17 45 7 96 45 96
30 0 55 -30 55 -67 0 -44 21 -58 50 -35 23 18 23 21 10 82 -12 56 -17 64 -46
76 -18 8 -38 23 -44 34 -15 28 -46 26 -54 -4z"/>
<path d="M1156 1281 c-9 -16 -22 -31 -31 -34 -8 -4 -24 -21 -35 -39 -16 -27
-20 -51 -20 -133 0 -118 13 -175 39 -175 34 0 44 -25 37 -90 -8 -69 4 -100 38
-100 33 0 42 16 50 84 6 53 11 64 46 96 50 46 50 60 4 60 -63 0 -74 12 -74 84
0 63 -1 64 -36 85 -29 17 -35 26 -32 49 3 24 8 27 45 30 23 2 51 -1 61 -7 15
-8 23 -6 38 10 30 33 9 69 -51 91 -64 23 -62 23 -79 -11z"/>
</g>
</svg>
