<?xml version="1.0" standalone="no"?>
<!DOCTYPE svg PUBLIC "-//W3C//DTD SVG 20010904//EN"
 "http://www.w3.org/TR/2001/REC-SVG-20010904/DTD/svg10.dtd">
<svg version="1.0" xmlns="http://www.w3.org/2000/svg"
 width="282.000000pt" height="204.000000pt" viewBox="0 0 282.000000 204.000000"
 preserveAspectRatio="xMidYMid meet">
<metadata>
Created by potrace 1.10, written by Peter Selinger 2001-2011
</metadata>
<g transform="translate(0.000000,204.000000) scale(0.050000,-0.050000)"
fill="#000000" stroke="none">
<path d="M2048 3500 c-131 -133 -240 -253 -244 -266 -6 -29 677 -714 712 -714
70 0 -6 101 -286 380 -170 170 -310 324 -310 341 0 17 95 124 211 239 197 194
227 237 175 255 -11 3 -128 -102 -258 -235z"/>
<path d="M2250 3510 c-121 -126 -223 -247 -226 -268 -5 -28 84 -128 309 -351
l316 -312 -55 -47 -54 -47 0 -943 c0 -843 4 -949 33 -994 130 -198 748 -198
878 1 87 133 37 2011 -53 2011 -39 0 -15 55 43 98 34 25 59 58 55 73 -8 37
-976 1009 -1004 1009 -12 0 -121 -104 -242 -230z m699 -320 c452 -452 453
-453 391 -527 -64 -76 -110 -49 -112 64 l-2 97 -325 325 -325 326 -93 -10
c-137 -14 -223 -101 -223 -224 0 -89 3 -94 254 -345 203 -204 250 -260 230
-280 -34 -34 -648 590 -629 639 17 45 348 365 378 365 13 0 219 -194 456 -430z
m-240 55 c145 -136 168 -185 68 -148 -26 10 -67 10 -92 1 -46 -17 -54 -42 -46
-153 6 -86 7 -87 -156 80 -166 169 -189 256 -91 333 86 67 148 45 317 -113z
m305 -307 c107 -112 136 -155 139 -210 l5 -68 -157 0 -156 0 -92 93 c-106 105
-114 125 -43 112 113 -22 150 7 150 115 0 125 -6 127 154 -42z m-218 49 c4
-29 -7 -45 -36 -53 -47 -12 -72 26 -52 77 17 45 81 27 88 -24z m500 -477 c127
-65 99 -138 -71 -183 -251 -66 -621 11 -578 121 39 104 485 146 649 62z m-563
-260 c31 -16 81 -30 111 -30 29 0 59 -8 65 -18 12 -20 184 -16 205 5 7 7 41
13 76 13 34 0 80 13 101 29 72 55 89 39 89 -87 0 -188 -258 -278 -560 -196
-167 46 -180 61 -180 195 0 129 6 134 93 89z m1 -365 c77 -50 475 -50 552 0
83 55 94 44 94 -83 0 -175 -61 -210 -371 -208 -310 1 -369 34 -369 208 0 127
11 138 94 83z m24 -373 c48 -38 461 -27 532 13 88 51 92 47 86 -90 -8 -169
-54 -193 -366 -193 -297 0 -357 27 -366 166 -10 151 19 178 114 104z m268
-392 c93 0 178 11 210 27 138 71 144 68 144 -63 0 -134 -8 -144 -149 -191
-180 -60 -496 -25 -566 63 -25 31 -35 207 -14 229 6 6 58 -6 115 -27 68 -25
156 -38 260 -38z m-216 -335 c135 -41 316 -36 450 14 60 23 112 41 115 41 30
0 -1 -234 -35 -255 -182 -114 -606 -102 -683 20 -35 55 -20 241 18 225 19 -8
80 -28 135 -45z"/>
<path d="M2480 3251 c-31 -38 5 -91 62 -91 48 0 49 44 1 87 -33 30 -40 31 -63
4z"/>
<path d="M2912 2803 c-15 -24 45 -103 79 -103 35 0 38 63 5 96 -28 28 -69 31
-84 7z"/>
<path d="M4265 3050 c-80 -82 -105 -130 -69 -130 22 0 184 -153 184 -173 -1
-10 -45 -48 -100 -87 -121 -86 -122 -90 -10 -200 l91 -89 69 80 c38 43 69 85
70 92 0 7 18 17 39 23 38 10 67 -17 169 -156 29 -39 32 -38 121 49 111 109
111 115 0 197 -122 89 -119 108 28 223 l87 67 -104 99 c-101 97 -104 99 -132
58 -16 -22 -41 -53 -55 -67 -15 -15 -37 -47 -51 -71 -30 -57 -74 -57 -104 -1
-13 24 -45 67 -71 95 -26 28 -47 57 -47 66 0 31 -33 10 -115 -75z"/>
<path d="M391 2321 c-8 -12 -30 -21 -51 -21 -41 0 -58 -32 -44 -87 8 -30 22
-34 78 -23 l69 12 -14 -201 c-15 -219 -18 -214 104 -204 24 2 50 -5 57 -16 23
-38 229 -25 290 19 125 89 84 309 -62 333 -43 7 -79 20 -81 30 -10 61 -1 68
103 77 96 9 111 16 117 56 6 45 3 46 -160 40 l-167 -6 0 -145 c0 -142 5 -153
72 -147 60 6 138 -36 138 -74 0 -67 -63 -103 -171 -98 l-99 4 -3 230 -3 230
-80 6 c-44 3 -86 -3 -93 -15z"/>
<path d="M1098 2314 c-111 -85 -118 -417 -10 -525 50 -50 197 -37 254 23 72
77 72 400 -1 477 -53 57 -184 70 -243 25z m135 -89 c60 -40 54 -330 -8 -354
-61 -24 -95 41 -93 179 3 153 38 215 101 175z"/>
<path d="M1515 2178 c-69 -40 -43 -173 41 -209 l47 -20 -52 -56 c-56 -60 -52
-93 12 -93 27 0 48 21 63 60 26 68 61 69 70 3 7 -45 81 -76 134 -56 46 18 41
191 -5 206 -19 6 -48 15 -65 20 -22 7 -13 25 38 71 53 47 62 64 40 78 -45 29
-84 12 -130 -56 -44 -66 -68 -67 -68 -3 0 57 -69 88 -125 55z"/>
<path d="M2085 1927 c-39 -16 -30 -63 17 -88 50 -27 85 -2 75 54 -8 37 -47 52
-92 34z"/>
<path d="M2232 1914 c-34 -25 -33 -29 19 -63 54 -35 57 -35 82 0 49 67 -29
116 -101 63z"/>
<path d="M3687 1908 c-16 -41 37 -93 78 -77 44 17 62 72 31 92 -42 27 -96 19
-109 -15z"/>
<path d="M3864 1914 c-37 -43 21 -111 70 -82 50 31 46 97 -6 104 -23 3 -52 -6
-64 -22z"/>
<path d="M4027 1910 c-16 -41 6 -90 40 -90 40 0 80 54 66 90 -15 39 -91 39
-106 0z"/>
<path d="M4187 1909 c-9 -22 0 -45 24 -62 50 -37 79 -24 79 35 0 59 -83 81
-103 27z"/>
<path d="M4353 1915 c-34 -25 -34 -28 5 -63 51 -47 107 -28 98 33 -7 53 -53
66 -103 30z"/>
<path d="M4525 1919 c-57 -22 -56 -27 5 -67 41 -27 57 -28 90 -8 41 26 55 76
22 76 -10 0 -31 4 -45 9 -15 5 -47 0 -72 -10z"/>
<path d="M4705 1917 c-16 -16 -17 -35 -3 -60 23 -44 51 -47 89 -8 33 32 38 71
11 71 -10 0 -31 5 -46 10 -15 6 -38 0 -51 -13z"/>
<path d="M4863 1913 c-38 -46 19 -104 74 -75 50 27 56 73 11 90 -46 18 -61 15
-85 -15z"/>
<path d="M5027 1910 c-18 -46 7 -90 52 -90 51 0 88 65 56 97 -33 33 -94 29
-108 -7z"/>
<path d="M1912 1903 c-6 -10 7 -34 30 -55 42 -38 77 -17 78 47 0 28 -92 35
-108 8z"/>
<path d="M3581 1841 c-33 -60 -25 -84 24 -77 32 4 47 22 51 61 8 66 -43 77
-75 16z"/>
<path d="M2374 1821 c-12 -48 29 -86 73 -69 43 16 42 47 -2 80 -48 36 -59 35
-71 -11z"/>
<path d="M4462 1445 c-124 -15 -242 -116 -307 -263 -139 -313 199 -671 527
-556 511 178 322 883 -220 819z m171 -243 c181 -111 122 -352 -87 -352 -190 0
-241 259 -69 350 90 47 81 47 156 2z"/>
</g>
</svg>
