 <svg  version="1.0" xmlns="http://www.w3.org/2000/svg"  width="282.000000pt" height="228.000000pt" viewBox="0 0 282.000000 228.000000"  preserveAspectRatio="xMidYMid meet">  <g transform="translate(0.000000,228.000000) scale(0.050000,-0.050000)" fill="#aac7d8" stroke="none"> <path d="M2090 4127 c-132 -136 -243 -257 -247 -269 -11 -32 679 -718 722 -718 70 0 29 53 -287 372 -178 178 -319 334 -315 346 4 12 99 115 211 227 169 169 203 213 193 250 -16 63 -11 67 -277 -208z"/> <path d="M2285 4119 c-124 -129 -225 -250 -225 -271 0 -22 131 -169 314 -352 l314 -314 -54 -43 -54 -42 0 -1318 0 -1317 69 -56 c139 -110 394 -152 592 -95 246 70 281 113 281 347 0 84 1 175 2 202 1 28 2 100 1 160 -1 61 0 546 2 1078 l3 968 -55 59 c-69 74 -68 80 5 138 33 26 60 60 60 75 0 34 -975 1016 -1008 1015 -12 -1 -123 -106 -247 -234z m701 -315 c239 -240 434 -443 434 -451 0 -8 -15 -37 -32 -64 -64 -96 -146 -39 -116 80 22 89 -629 724 -742 722 -122 -2 -230 -114 -230 -240 0 -91 2 -94 250 -340 244 -242 270 -276 231 -301 -19 -11 -590 557 -629 625 -17 31 336 405 382 405 9 0 213 -196 452 -436z m-86 -103 c272 -274 295 -304 290 -365 l-5 -66 -141 -6 -142 -6 -261 266 c-285 291 -316 353 -218 439 105 91 156 63 477 -262z m465 -589 c228 -150 -351 -277 -630 -138 -97 48 -49 144 86 173 119 25 488 1 544 -35z m55 -342 l0 -129 -75 -35 c-101 -46 -492 -50 -577 -6 -80 41 -87 56 -88 175 0 116 22 131 109 74 76 -50 430 -44 527 8 104 57 104 57 104 -87z m-22 -483 c-108 -130 -670 -114 -706 20 -19 71 -13 213 9 213 11 0 54 -14 95 -31 108 -46 411 -41 526 8 l88 37 6 -109 c4 -65 -4 -120 -18 -138z m-399 -201 c131 -11 317 28 370 76 39 37 51 15 51 -95 0 -126 -36 -187 -111 -187 -24 0 -75 -13 -114 -29 -79 -33 -285 -29 -320 6 -13 13 -45 23 -72 23 -79 0 -123 54 -123 151 0 141 10 150 103 105 44 -21 141 -44 216 -50z m421 -384 c0 -112 -3 -121 -65 -159 -132 -82 -534 -75 -634 11 -39 33 -61 199 -30 230 13 13 159 -27 181 -49 46 -46 508 17 508 69 0 9 9 16 20 16 11 0 20 -53 20 -118z m-580 -312 c169 -35 479 -10 522 43 43 51 58 27 58 -91 0 -172 -61 -205 -370 -205 -294 0 -357 30 -366 172 -9 132 5 166 51 126 19 -16 67 -37 105 -45z m-71 -341 c55 -42 507 -42 562 0 74 56 91 39 85 -83 -9 -165 -66 -196 -366 -196 -321 0 -369 29 -370 225 0 92 22 105 89 54z m27 -361 c101 -44 407 -44 508 0 113 49 119 45 112 -83 -8 -154 -92 -202 -359 -204 -279 -2 -377 55 -377 217 0 111 9 116 116 70z"/> <path d="M2523 3882 c-42 -26 -19 -91 35 -99 71 -10 89 24 37 72 -29 28 -55 37 -72 27z"/> <path d="M2706 3688 c-40 -40 -46 -61 -35 -113 38 -171 229 -144 229 32 0 52 -9 73 -30 73 -16 0 -30 8 -30 18 0 44 -86 37 -134 -10z m125 -69 c16 -26 -27 -79 -63 -79 -17 0 -28 21 -28 50 0 52 64 73 91 29z"/> <path d="M2949 3398 c-18 -29 74 -103 98 -79 9 9 14 33 10 54 -8 43 -86 61 -108 25z"/> <path d="M4299 3649 l-89 -92 52 -43 c28 -24 76 -62 106 -84 68 -50 58 -80 -58 -170 -110 -87 -110 -85 4 -191 l94 -87 80 109 c98 134 110 134 202 9 89 -121 87 -121 200 -14 l90 87 -74 58 c-176 139 -177 143 -47 232 122 82 123 98 16 198 -101 93 -101 93 -144 28 -63 -96 -100 -129 -145 -129 -26 0 -46 7 -46 15 -1 18 -127 165 -142 165 -5 0 -50 -41 -99 -91z"/> <path d="M346 2958 c-69 -44 -69 -84 -2 -120 31 -16 45 -14 64 12 30 41 110 33 139 -13 26 -42 -56 -156 -169 -234 -147 -102 -92 -167 135 -159 146 6 157 9 163 51 6 40 -2 45 -75 45 -105 0 -105 32 1 140 184 186 -33 421 -256 278z"/> <path d="M779 2949 c-90 -96 -94 -402 -6 -497 59 -63 183 -72 232 -17 208 236 -13 741 -226 514z m168 -114 c40 -147 9 -315 -57 -315 -62 0 -101 217 -58 328 19 50 101 40 115 -13z"/> <path d="M1206 2952 c-75 -65 -86 -402 -16 -496 54 -74 182 -79 247 -9 47 50 108 288 83 323 -8 11 -21 47 -29 80 -34 146 -175 196 -285 102z m162 -104 c44 -115 7 -328 -58 -328 -65 0 -96 188 -50 309 21 57 89 69 108 19z"/> <path d="M1581 2811 c-39 -46 -18 -158 34 -181 57 -25 56 -35 -3 -92 -56 -54 -50 -78 17 -78 33 0 50 15 59 50 7 28 26 50 42 50 16 0 35 -22 42 -50 17 -69 110 -70 147 -2 35 65 9 130 -62 160 l-59 25 50 49 c65 61 66 98 2 98 -35 0 -57 -15 -69 -48 -27 -70 -67 -74 -95 -9 -26 62 -68 73 -105 28z"/> <path d="M2290 2521 c-22 -8 -75 -11 -117 -5 -68 9 -76 5 -70 -28 8 -42 94 -64 116 -30 9 15 32 14 78 -3 73 -28 121 9 79 59 -24 29 -30 30 -86 7z"/> <path d="M3738 2519 c-13 -8 -18 -30 -11 -48 17 -44 120 -34 129 11 7 37 -77 62 -118 37z"/> <path d="M3901 2512 c-29 -35 8 -76 61 -69 67 10 74 69 9 82 -28 5 -59 -1 -70 -13z"/> <path d="M5071 2521 c-7 -11 -39 -14 -71 -8 -76 15 -123 -3 -108 -42 15 -37 90 -41 127 -6 21 20 28 20 35 0 11 -31 119 -33 137 -3 7 12 6 29 -4 37 -31 29 -103 43 -116 22z"/> <path d="M1944 2485 c4 -22 25 -35 56 -35 31 0 52 13 56 35 5 27 -7 35 -56 35 -49 0 -61 -8 -56 -35z"/> <path d="M4053 2504 c-20 -31 22 -67 69 -61 75 11 75 77 1 77 -34 0 -65 -7 -70 -16z"/> <path d="M4224 2485 c10 -54 116 -60 116 -6 0 32 -13 41 -61 41 -48 0 -60 -8 -55 -35z"/> <path d="M4374 2507 c-23 -23 29 -67 78 -67 35 0 48 11 48 40 0 40 -94 60 -126 27z"/> <path d="M4542 2502 c-48 -31 37 -57 172 -54 129 3 159 15 137 51 -16 25 -269 28 -309 3z"/> <path d="M3635 2457 c-53 -29 -43 -77 15 -77 36 0 50 11 50 39 0 50 -22 63 -65 38z"/> <path d="M2420 2413 c0 -62 17 -76 63 -51 30 16 33 28 17 59 -30 54 -80 50 -80 -8z"/> <path d="M4456 2044 c-96 -25 -223 -149 -261 -256 -146 -407 326 -743 662 -473 367 294 62 847 -401 729z m263 -258 c23 -19 41 -49 41 -66 0 -18 9 -41 20 -52 14 -14 11 -40 -10 -81 -85 -172 -240 -185 -338 -30 -111 176 127 366 287 229z"/> </g> </svg> 