<?xml version="1.0" standalone="no"?>
<!DOCTYPE svg PUBLIC "-//W3C//DTD SVG 20010904//EN"
 "http://www.w3.org/TR/2001/REC-SVG-20010904/DTD/svg10.dtd">
<svg version="1.0" xmlns="http://www.w3.org/2000/svg"
 width="828.000000pt" height="552.000000pt" viewBox="0 0 828.000000 552.000000"
 preserveAspectRatio="xMidYMid meet">
<metadata>
Created by potrace 1.10, written by Peter Selinger 2001-2011
</metadata>
<g transform="translate(0.000000,552.000000) scale(0.100000,-0.100000)"
fill="#000000" stroke="none">
<path d="M1425 3481 c-11 -5 -28 -18 -38 -29 -11 -11 -35 -23 -56 -27 -45 -7
-125 -84 -135 -130 -4 -16 -21 -42 -39 -57 -31 -26 -32 -27 -32 -120 0 -82 3
-97 23 -122 24 -32 29 -83 10 -109 -7 -9 -37 -21 -67 -27 -38 -7 -64 -20 -92
-44 -21 -19 -51 -42 -68 -51 -17 -8 -38 -30 -47 -48 -9 -17 -29 -46 -46 -63
-23 -25 -31 -45 -39 -100 -12 -89 -17 -104 -40 -130 -20 -21 -31 -76 -44 -207
-5 -51 -12 -74 -28 -90 -19 -19 -21 -31 -18 -102 1 -50 8 -89 18 -104 8 -13
21 -62 29 -110 11 -70 18 -90 39 -108 14 -12 34 -43 45 -68 11 -25 30 -50 43
-56 13 -6 28 -24 34 -40 8 -21 20 -31 43 -35 20 -4 36 -16 45 -34 10 -20 29
-33 65 -45 30 -10 57 -27 66 -41 10 -14 33 -28 58 -35 24 -6 54 -25 71 -44 26
-27 42 -34 102 -45 56 -9 81 -9 109 0 23 8 60 10 107 5 171 -17 267 -3 289 42
9 19 26 31 57 40 25 7 57 26 73 43 15 17 41 33 58 37 19 3 41 19 56 38 14 18
36 36 49 39 16 4 30 19 39 41 8 19 21 35 29 35 19 0 47 32 47 54 0 9 14 25 30
34 35 20 36 24 49 115 5 38 14 74 19 80 5 7 18 47 27 89 l18 76 -27 94 c-16
51 -34 141 -41 200 -10 91 -16 113 -43 154 -19 27 -32 60 -32 78 0 53 -19 103
-46 121 -14 9 -32 32 -40 51 -10 24 -27 40 -59 55 -25 12 -51 29 -58 39 -16
23 -44 36 -94 45 -44 7 -61 24 -83 85 -12 35 -11 37 20 68 31 31 32 36 28 96
-3 50 -10 71 -32 100 -15 20 -30 53 -33 72 -4 26 -15 41 -35 54 -17 10 -38 32
-48 48 -15 24 -28 32 -65 37 -27 5 -51 15 -58 26 -7 10 -26 23 -41 29 -32 12
-142 12 -171 1z m120 -116 c33 -13 73 -25 88 -25 46 0 110 -75 137 -160 23
-73 23 -97 -3 -188 -19 -71 -82 -137 -138 -146 -28 -5 -39 -11 -39 -24 0 -29
-21 -42 -68 -42 -49 0 -82 14 -82 35 0 7 -17 19 -37 25 -21 7 -52 21 -69 31
-31 18 -74 91 -74 125 -1 10 -7 30 -15 44 -20 34 -18 59 6 134 17 51 32 74 75
115 36 34 62 51 79 51 14 0 36 11 48 24 12 13 24 24 27 25 3 0 32 -10 65 -24z
m291 -537 c3 -12 31 -31 69 -48 35 -16 68 -38 74 -49 6 -11 27 -25 46 -32 25
-10 38 -22 46 -46 6 -18 23 -42 38 -53 29 -20 45 -62 56 -152 3 -26 15 -58 27
-73 14 -19 23 -51 30 -108 10 -91 23 -163 40 -220 9 -30 8 -48 -4 -90 -9 -29
-22 -84 -28 -124 -9 -58 -16 -75 -36 -88 -13 -8 -24 -22 -24 -31 0 -8 -28 -42
-62 -75 -35 -32 -80 -75 -100 -94 -20 -19 -46 -35 -57 -35 -10 0 -38 -16 -61
-35 -23 -19 -61 -43 -85 -54 -24 -10 -46 -28 -49 -39 -7 -21 -21 -26 -96 -37
-36 -5 -51 -3 -68 12 -22 17 -23 21 -13 83 9 58 15 69 52 102 23 21 56 40 77
44 21 4 49 21 69 40 18 18 51 38 74 44 28 8 46 20 57 41 10 16 31 34 49 40 22
7 35 20 42 42 7 18 24 39 42 50 l31 17 -4 99 c-3 94 -5 101 -32 130 -27 28
-29 37 -38 153 -11 135 -27 188 -57 188 -10 0 -24 7 -31 15 -17 20 -56 19 -64
-2 -11 -27 5 -103 25 -121 26 -25 37 -61 49 -159 17 -145 30 -191 54 -197 20
-6 20 -6 -6 -28 -14 -13 -36 -42 -47 -64 -29 -59 -81 -76 -81 -28 0 17 -12 38
-35 60 -39 36 -45 69 -15 79 13 4 21 18 25 43 3 20 8 47 10 58 3 13 -6 38 -22
60 -14 22 -36 63 -47 93 -19 47 -27 56 -61 68 -22 7 -52 26 -68 41 -24 23 -38
27 -100 30 -71 4 -74 3 -115 -31 -23 -20 -55 -38 -71 -42 -36 -8 -44 -17 -65
-79 -9 -28 -26 -61 -39 -74 -18 -20 -22 -33 -20 -80 4 -74 10 -92 34 -92 31 0
23 -40 -16 -76 -19 -17 -35 -41 -35 -52 0 -26 -15 -35 -45 -28 -36 9 -67 110
-55 179 6 29 14 96 19 150 9 93 12 100 45 138 31 34 36 46 36 88 0 66 -7 81
-39 81 -18 0 -36 -12 -58 -39 -41 -50 -50 -73 -58 -153 -14 -151 -28 -223 -49
-246 -14 -16 -21 -40 -24 -86 -4 -62 -3 -65 27 -87 17 -12 35 -37 41 -55 8
-24 20 -36 44 -44 19 -6 38 -21 44 -35 12 -26 29 -36 97 -54 25 -6 44 -19 50
-32 11 -25 20 -30 86 -54 69 -24 101 -74 97 -151 -3 -52 -6 -60 -30 -72 -39
-19 -126 2 -140 34 -7 14 -29 30 -56 41 -25 9 -60 32 -78 50 -18 18 -44 33
-56 33 -28 0 -39 8 -60 42 -10 14 -28 30 -40 33 -32 10 -118 101 -118 126 0
11 -13 32 -29 47 -39 36 -50 84 -51 232 -2 175 17 314 47 351 19 22 26 47 33
111 10 101 16 117 49 144 14 12 30 36 36 55 9 26 20 36 53 47 23 7 42 17 42
21 0 20 45 51 95 66 31 9 58 22 62 30 7 21 26 19 40 -5 7 -10 32 -24 55 -31
24 -7 54 -25 68 -41 24 -28 29 -29 120 -31 113 -2 143 5 157 36 7 15 26 28 52
35 28 9 46 22 56 41 22 45 58 49 71 9z m-266 -568 c6 -12 29 -25 55 -31 41
-10 45 -15 60 -59 10 -31 24 -51 40 -58 14 -7 25 -17 25 -24 0 -7 3 -30 6 -50
6 -37 6 -38 -24 -38 -28 0 -32 -5 -47 -49 -15 -45 -19 -49 -54 -55 -39 -6 -55
-24 -45 -50 4 -10 -11 -15 -58 -19 -72 -6 -78 -4 -78 28 0 27 -10 36 -54 44
-23 5 -33 14 -40 36 -14 49 -22 59 -47 65 -14 4 -24 13 -23 23 4 80 4 82 34
99 20 11 30 25 30 40 0 38 27 68 61 68 19 0 37 9 51 25 28 32 92 35 108 5z
m-193 -427 c40 -13 58 -25 69 -45 13 -26 19 -28 74 -28 53 0 62 3 71 23 6 14
31 31 68 46 55 22 58 22 99 6 64 -26 64 -48 0 -106 -32 -30 -70 -54 -98 -62
-34 -10 -49 -21 -60 -45 -14 -30 -17 -32 -78 -32 -61 0 -63 1 -74 30 -8 25
-19 33 -56 43 -30 8 -64 29 -99 61 -63 57 -66 82 -13 108 42 22 32 22 97 1z"/>
<path d="M1378 3179 c-21 -12 -24 -59 -6 -77 17 -17 46 -15 82 7 33 20 87 17
153 -10 40 -16 63 0 63 43 0 39 -31 50 -90 31 -96 -31 -95 -31 -124 -6 -29 25
-51 28 -78 12z"/>
<path d="M1466 3001 c-67 -7 -81 -23 -38 -45 19 -10 31 -26 35 -46 6 -28 9
-30 52 -30 42 0 46 2 59 34 8 19 24 41 35 48 27 17 26 22 -4 36 -27 12 -39 13
-139 3z"/>
<path d="M1455 2119 c-4 -5 -4 -21 -1 -35 6 -23 10 -25 63 -22 59 3 82 20 70
52 -5 12 -20 16 -66 16 -33 0 -63 -5 -66 -11z"/>
<path d="M1467 1973 c-14 -13 -6 -43 13 -53 11 -6 36 -8 55 -4 30 5 35 10 35
35 0 28 -2 29 -48 29 -27 0 -52 -3 -55 -7z"/>
<path d="M3218 3481 c-15 -5 -41 -19 -57 -31 -17 -12 -47 -24 -66 -27 -35 -6
-51 -18 -70 -56 -5 -11 -23 -28 -39 -37 -38 -20 -56 -91 -55 -205 1 -44 2
-118 3 -164 l1 -85 -30 -7 c-16 -4 -47 -10 -68 -14 -27 -4 -41 -13 -49 -31 -7
-14 -27 -31 -45 -39 -20 -9 -35 -23 -39 -38 -3 -15 -18 -30 -34 -37 -26 -11
-50 -46 -50 -75 0 -7 -13 -23 -29 -34 -25 -18 -29 -29 -35 -88 -12 -121 -27
-188 -47 -209 -28 -30 -39 -109 -39 -293 0 -183 8 -231 45 -255 15 -10 27 -30
31 -53 9 -53 30 -90 54 -98 11 -4 27 -20 35 -36 9 -16 32 -40 53 -53 20 -13
50 -38 66 -55 16 -17 44 -34 63 -37 19 -4 43 -18 56 -34 12 -15 42 -35 67 -44
25 -9 56 -30 70 -47 20 -23 37 -31 84 -39 33 -5 69 -8 80 -6 12 3 47 10 78 17
48 10 62 10 97 -5 49 -19 82 -20 168 -5 55 10 66 15 78 40 12 22 28 32 70 44
38 11 61 25 75 45 11 16 33 31 49 35 16 3 47 22 67 42 21 19 50 40 66 45 15 5
37 26 49 46 12 21 37 53 55 72 20 21 37 53 43 79 5 25 19 52 30 61 33 24 41
73 41 245 -1 170 -9 230 -39 273 -18 25 -33 92 -47 204 -3 29 -15 59 -29 76
-13 16 -27 42 -30 58 -13 58 -17 64 -46 80 -16 8 -34 26 -39 39 -5 14 -24 31
-43 38 -18 8 -41 26 -50 40 -13 20 -31 29 -77 38 -33 6 -64 17 -68 23 -4 6 -7
89 -7 184 l0 174 -28 22 c-15 12 -39 44 -54 72 -31 59 -43 68 -108 90 -27 9
-57 25 -66 37 -13 16 -30 20 -90 23 -41 2 -86 0 -101 -5z m109 -110 c7 -10 29
-21 53 -25 58 -9 97 -31 115 -65 8 -16 29 -40 46 -54 l32 -25 3 -110 2 -110
-28 -20 c-16 -12 -33 -37 -40 -57 -10 -30 -18 -37 -55 -46 -24 -6 -59 -26 -80
-46 -36 -34 -39 -35 -94 -28 -31 4 -56 8 -57 8 -9 29 -39 57 -60 57 -37 0 -61
16 -68 45 -3 13 -19 31 -35 39 -26 14 -29 21 -36 91 -4 42 -4 104 0 137 6 52
13 67 44 99 20 20 41 44 48 52 6 8 43 22 82 32 38 9 75 23 82 31 16 19 32 18
46 -5z m-312 -551 c9 -10 34 -24 54 -31 20 -6 53 -24 73 -40 61 -48 78 -52
173 -44 74 6 88 10 101 29 8 13 31 28 53 34 21 7 46 21 56 32 22 24 96 28 115
6 6 -8 28 -20 48 -27 20 -6 51 -25 67 -40 17 -16 56 -53 88 -82 47 -43 59 -60
65 -97 5 -25 20 -62 34 -82 18 -26 28 -58 33 -100 11 -101 25 -151 48 -176 20
-22 22 -35 25 -174 3 -150 3 -150 -22 -177 -14 -15 -33 -51 -42 -80 -9 -32
-27 -64 -44 -80 -16 -14 -33 -39 -39 -54 -7 -18 -24 -34 -47 -43 -19 -8 -50
-30 -68 -47 -18 -18 -50 -38 -73 -45 -25 -7 -44 -21 -51 -36 -7 -16 -22 -26
-46 -30 -20 -4 -45 -18 -59 -35 -32 -39 -52 -47 -124 -55 -54 -6 -65 -4 -82
13 -17 17 -19 29 -14 73 7 61 13 71 53 88 16 7 32 21 35 31 4 11 22 23 45 29
22 6 60 28 85 50 26 23 57 40 70 40 14 0 48 21 87 55 34 30 66 55 71 55 19 0
47 87 47 150 0 114 -19 242 -45 292 -15 30 -26 74 -30 125 -10 112 -40 149
-87 106 -20 -18 -24 -73 -9 -150 6 -26 13 -69 16 -96 4 -29 15 -57 30 -73 40
-43 54 -217 21 -266 -20 -30 -43 -36 -52 -14 -3 8 -17 17 -32 21 -15 3 -37 13
-49 20 -21 14 -21 19 -16 149 5 116 4 139 -11 161 -9 14 -23 25 -30 25 -8 0
-20 16 -26 35 -9 27 -19 36 -48 44 -20 6 -45 22 -56 36 -18 22 -31 27 -91 31
-75 6 -125 -6 -125 -30 0 -8 -15 -19 -34 -26 -20 -6 -51 -32 -77 -63 -42 -49
-44 -55 -50 -132 -3 -44 -2 -102 4 -128 12 -66 3 -95 -36 -112 -18 -7 -41 -23
-51 -34 -49 -54 -76 -7 -76 133 0 102 10 149 39 180 19 21 37 95 48 203 6 59
-14 103 -46 103 -30 0 -40 -22 -55 -120 -7 -51 -18 -95 -23 -99 -25 -16 -36
-65 -46 -215 -10 -148 -9 -165 8 -209 13 -34 27 -53 49 -64 17 -8 41 -28 54
-44 15 -19 42 -34 78 -45 41 -12 58 -22 64 -39 11 -29 34 -42 89 -51 32 -5 45
-13 56 -35 8 -15 28 -37 45 -49 26 -19 30 -27 30 -69 0 -54 -8 -64 -64 -79
-54 -15 -92 -5 -129 35 -18 18 -49 39 -70 45 -21 6 -47 24 -58 40 -12 17 -36
32 -61 38 -23 7 -54 26 -72 45 -17 18 -41 36 -54 40 -12 3 -29 19 -37 35 -8
16 -27 38 -43 49 -22 15 -32 34 -41 77 -8 36 -22 65 -38 80 -21 20 -27 37 -34
104 -11 110 4 246 30 274 25 28 40 83 48 185 5 73 10 87 34 112 15 16 31 44
34 63 5 24 24 49 68 90 34 32 73 68 87 81 14 13 42 30 62 38 20 9 41 25 48 36
13 26 22 26 45 1z m306 -546 c8 -9 33 -25 57 -35 41 -18 103 -74 123 -111 5
-9 9 -44 9 -78 0 -66 5 -58 -93 -147 -26 -23 -47 -48 -47 -56 0 -18 -70 -30
-103 -18 -14 5 -27 21 -31 35 -5 20 -16 28 -49 36 -79 20 -84 29 -86 158 -2
109 12 133 98 172 39 18 76 39 82 46 15 18 24 18 40 -2z m-113 -462 c6 -8 12
-22 12 -29 0 -7 12 -15 28 -19 15 -3 35 -8 44 -10 27 -8 87 23 100 51 14 31
34 37 122 33 76 -3 94 -16 82 -61 -4 -18 -17 -29 -42 -37 -19 -7 -40 -22 -46
-34 -7 -16 -29 -29 -71 -42 -47 -15 -65 -27 -75 -47 -25 -51 -86 -47 -138 8
-17 19 -48 38 -72 44 -23 7 -46 21 -52 31 -6 11 -26 26 -45 34 -39 17 -53 52
-35 86 11 21 16 22 93 16 58 -5 86 -12 95 -24z"/>
<path d="M3364 3190 c-23 -9 -38 -48 -28 -73 3 -8 17 -20 31 -26 56 -26 98 44
53 89 -22 22 -25 23 -56 10z"/>
<path d="M3172 3170 c-44 -27 -39 -51 16 -70 40 -14 43 -13 64 8 18 18 20 26
12 49 -12 36 -47 41 -92 13z"/>
<path d="M3196 3004 c-24 -24 -19 -43 16 -62 35 -19 58 -40 74 -68 9 -16 14
-17 27 -6 9 8 17 25 19 40 2 21 10 28 36 33 43 9 56 22 48 47 -10 29 -31 34
-75 16 -36 -14 -42 -14 -70 0 -38 20 -55 20 -75 0z"/>
<path d="M3194 2116 c-7 -29 21 -99 38 -94 7 3 23 22 35 44 20 36 21 40 6 56
-24 27 -71 24 -79 -6z"/>
<path d="M3363 2119 c-29 -11 -29 -17 1 -54 l24 -30 11 28 c21 53 8 73 -36 56z"/>
<path d="M3250 1962 c0 -30 24 -54 54 -54 33 0 36 3 39 38 2 28 0 29 -45 32
-41 3 -48 0 -48 -16z"/>
<path d="M4962 3462 c-15 -16 -42 -32 -61 -35 -32 -7 -141 -100 -141 -122 0
-5 -15 -24 -32 -43 -31 -31 -33 -39 -37 -113 -2 -51 3 -114 14 -171 17 -88 17
-91 0 -105 -11 -7 -31 -13 -46 -13 -39 0 -80 -18 -97 -42 -8 -11 -30 -26 -48
-34 -19 -8 -45 -31 -58 -52 -13 -21 -33 -45 -45 -53 -15 -10 -26 -35 -37 -88
-9 -47 -24 -85 -39 -103 -14 -16 -25 -33 -25 -36 -4 -85 -33 -246 -51 -281
-19 -37 -22 -61 -23 -156 -1 -104 1 -116 22 -145 15 -19 27 -57 34 -98 12 -78
21 -98 47 -107 11 -3 25 -21 31 -39 11 -35 101 -126 124 -126 7 0 25 -15 40
-34 15 -21 38 -37 57 -41 17 -4 48 -22 68 -40 20 -18 51 -36 69 -40 19 -4 40
-18 50 -33 23 -38 26 -39 116 -52 69 -10 86 -9 119 5 32 13 48 14 99 5 34 -7
71 -18 81 -25 16 -11 23 -11 41 -1 11 8 41 17 66 20 32 5 55 17 80 41 19 18
53 38 76 44 27 7 44 19 52 36 8 18 26 29 66 40 42 12 59 23 68 43 8 16 26 30
46 36 24 7 39 20 50 43 8 18 24 36 35 39 10 3 27 27 38 52 11 26 31 59 45 73
43 45 54 205 36 490 -10 152 -16 180 -52 226 -11 14 -20 51 -25 99 -6 65 -11
81 -33 101 -15 13 -38 48 -52 76 -19 41 -35 58 -73 78 -26 14 -56 35 -67 47
-11 12 -33 24 -48 27 -88 17 -106 28 -119 73 -16 56 -7 101 23 114 29 14 30
32 3 83 -11 22 -26 74 -32 115 -11 65 -15 76 -39 87 -14 7 -35 28 -46 47 -14
24 -32 37 -70 50 -28 9 -62 27 -76 41 -23 23 -33 25 -112 25 -82 0 -87 -1
-112 -28z m206 -117 c62 -15 75 -22 88 -47 8 -16 26 -34 39 -40 29 -13 32 -21
44 -118 13 -103 -1 -176 -42 -215 -18 -17 -37 -39 -42 -49 -6 -11 -27 -21 -50
-25 -28 -4 -43 -13 -52 -31 -13 -27 -38 -37 -90 -39 -23 -1 -41 8 -67 33 -20
18 -56 39 -80 46 -36 10 -47 18 -56 43 -6 18 -25 47 -43 65 -31 32 -32 36 -32
116 0 80 1 84 34 121 18 21 40 53 47 72 15 34 58 59 121 70 18 3 40 14 49 24
15 17 20 18 38 5 12 -7 54 -22 94 -31z m228 -502 c11 -37 22 -47 62 -61 23 -7
54 -26 69 -42 15 -16 44 -36 64 -46 25 -11 41 -27 48 -46 6 -15 26 -43 44 -61
30 -28 35 -40 41 -97 12 -119 18 -140 42 -170 22 -25 27 -48 41 -182 15 -143
16 -161 0 -253 -14 -86 -20 -102 -47 -126 -16 -15 -30 -36 -30 -45 0 -9 -28
-43 -62 -75 -35 -32 -76 -72 -93 -88 -16 -16 -42 -33 -56 -36 -15 -4 -39 -20
-55 -36 -15 -15 -49 -36 -76 -45 -33 -11 -53 -24 -63 -43 -19 -38 -101 -57
-170 -40 -26 6 -49 18 -52 25 -19 50 98 193 175 214 29 7 46 19 54 35 7 17 27
29 62 41 28 8 62 28 76 44 14 15 36 31 50 35 35 10 50 24 50 45 0 10 10 31 23
47 18 22 22 39 21 85 -1 32 -6 70 -12 85 -6 16 -18 93 -27 173 -11 98 -22 153
-33 168 -9 13 -29 45 -43 70 -44 82 -89 67 -89 -30 0 -64 9 -88 46 -128 20
-22 25 -43 37 -167 20 -200 5 -278 -52 -271 -19 2 -27 11 -33 35 -6 25 -18 37
-45 48 l-36 15 7 50 c4 27 13 66 20 88 12 32 12 41 0 57 -8 10 -14 33 -14 50
0 55 -40 116 -94 144 -27 14 -57 34 -67 43 -26 25 -62 31 -131 25 -48 -4 -66
-11 -89 -33 -16 -16 -44 -33 -61 -39 -25 -8 -35 -18 -43 -47 -5 -20 -23 -50
-38 -66 -36 -37 -47 -124 -27 -209 12 -50 12 -59 -3 -85 -9 -16 -17 -41 -17
-54 0 -27 20 -31 67 -13 60 23 155 0 168 -41 8 -25 52 -38 105 -31 36 5 45 10
50 30 4 19 18 28 73 44 l68 20 27 -20 c33 -25 39 -57 15 -77 -76 -66 -103 -85
-136 -96 -23 -7 -43 -22 -49 -36 -11 -23 -29 -32 -73 -36 -49 -3 -63 3 -73 30
-7 21 -20 31 -51 41 -23 7 -59 27 -79 45 -20 17 -49 40 -64 49 -15 9 -33 29
-40 44 -8 17 -24 30 -40 33 -38 7 -94 92 -103 158 -6 42 -4 52 8 52 21 0 34
40 52 155 9 57 23 111 33 125 10 14 19 46 20 71 l1 46 -54 0 c-55 0 -55 0 -64
-36 -5 -20 -12 -80 -15 -133 -7 -103 -13 -127 -46 -168 -24 -31 -40 -137 -30
-203 5 -34 15 -55 33 -70 14 -12 30 -32 36 -45 7 -12 26 -28 44 -36 18 -7 41
-25 50 -39 10 -16 33 -30 55 -37 22 -5 55 -26 75 -45 20 -19 45 -35 55 -35 11
0 45 -21 76 -47 l57 -46 -3 -71 c-3 -80 -8 -84 -99 -77 -44 3 -53 7 -68 32
-10 18 -33 35 -60 46 -24 9 -59 32 -77 50 -18 18 -43 33 -54 33 -11 0 -38 17
-59 38 -21 20 -54 46 -72 57 -19 11 -43 36 -54 54 -11 19 -35 49 -52 67 -27
27 -35 45 -44 106 -7 40 -19 83 -27 96 -16 25 -25 182 -10 182 17 0 31 49 43
150 9 79 17 114 33 136 12 16 28 63 37 109 12 63 20 84 40 101 14 11 33 36 43
54 12 24 27 37 50 42 20 6 36 17 42 32 8 23 50 44 137 71 38 12 44 11 75 -10
18 -12 44 -26 58 -30 14 -4 34 -18 45 -31 18 -21 31 -25 110 -30 86 -6 92 -5
125 20 19 14 59 37 87 52 29 14 62 38 73 55 24 33 48 38 56 12z m-275 -583
c23 -16 56 -32 75 -36 18 -3 37 -11 42 -18 21 -26 34 -117 27 -189 -11 -103
-18 -117 -58 -117 -38 0 -57 -15 -57 -46 0 -19 -7 -22 -60 -28 -67 -8 -83 -3
-75 23 7 21 -10 37 -49 47 -19 4 -33 17 -42 41 -8 19 -26 38 -39 43 -24 9 -25
14 -25 85 0 70 1 75 23 81 14 3 31 20 40 39 12 26 26 37 56 45 22 6 46 21 55
35 21 32 37 31 87 -5z"/>
<path d="M4959 3193 c-15 -4 -39 -43 -39 -63 0 -15 38 -50 55 -50 22 0 55 37
55 60 0 11 -9 29 -20 40 -20 20 -23 21 -51 13z"/>
<path d="M5111 3171 c-42 -42 -19 -71 55 -71 57 0 80 16 69 49 -3 12 -18 22
-38 26 -18 4 -40 9 -49 11 -9 3 -26 -4 -37 -15z"/>
<path d="M5086 3004 c-31 -11 -47 -12 -74 -3 -28 9 -37 8 -50 -4 -13 -13 -13
-19 -2 -31 7 -9 20 -16 29 -16 24 0 41 -20 41 -47 0 -35 27 -40 58 -11 15 14
35 28 44 31 9 3 24 18 34 32 16 24 16 27 -1 45 -21 23 -27 23 -79 4z"/>
<path d="M5092 2130 c-37 -23 -35 -35 17 -84 l31 -29 15 36 c19 47 19 60 -3
80 -23 21 -20 21 -60 -3z"/>
<path d="M5025 1969 c-4 -5 -4 -21 -1 -35 5 -19 13 -24 39 -24 40 0 77 24 77
51 0 16 -7 19 -54 19 -30 0 -58 -5 -61 -11z"/>
<path d="M6754 3475 c-17 -8 -36 -21 -43 -29 -8 -9 -31 -19 -53 -22 -32 -6
-44 -14 -63 -45 -14 -20 -33 -40 -45 -44 -11 -3 -23 -18 -26 -33 -4 -15 -20
-60 -35 -99 -33 -83 -32 -155 2 -176 15 -10 19 -24 19 -75 0 -62 0 -63 -35
-78 -19 -7 -46 -14 -61 -14 -15 0 -37 -11 -52 -28 -15 -15 -39 -33 -53 -40
-14 -8 -33 -26 -43 -42 -9 -16 -25 -31 -35 -35 -11 -3 -26 -23 -35 -45 -8 -21
-24 -44 -35 -49 -25 -14 -29 -29 -41 -131 -7 -62 -16 -92 -35 -119 -35 -51
-45 -144 -42 -400 l2 -213 31 -27 c19 -16 38 -46 48 -79 14 -40 23 -53 43 -58
16 -4 30 -19 39 -40 9 -23 26 -39 49 -48 20 -9 38 -22 41 -31 7 -17 63 -48
105 -58 14 -4 31 -18 37 -31 7 -17 24 -29 52 -36 22 -6 56 -26 74 -45 19 -19
45 -36 58 -39 13 -3 37 -8 53 -11 43 -9 53 -8 126 11 75 20 110 14 144 -21 18
-20 25 -23 33 -12 6 7 42 19 79 26 81 16 91 21 106 51 8 14 28 28 56 36 24 7
58 26 75 42 17 16 45 33 61 36 17 4 44 20 60 37 17 16 58 55 93 88 34 32 62
62 62 67 0 5 13 21 29 35 17 15 33 39 36 55 10 46 26 83 53 122 23 34 24 43
24 194 l0 158 -31 46 c-16 25 -32 65 -35 88 -20 161 -26 190 -44 210 -18 19
-27 44 -46 128 -4 17 -18 34 -36 43 -16 8 -37 29 -45 45 -9 17 -30 36 -48 44
-18 7 -40 25 -50 39 -12 18 -32 29 -72 38 -61 14 -68 19 -84 69 -8 27 -8 46 4
84 8 27 15 85 15 128 0 77 -1 79 -30 96 -19 11 -34 30 -40 50 -13 49 -96 129
-143 137 -21 4 -43 16 -50 26 -7 10 -26 23 -41 29 -38 14 -144 11 -182 -5z
m141 -105 c10 -11 34 -23 54 -26 71 -13 130 -69 147 -139 4 -16 18 -40 31 -52
32 -30 33 -104 2 -125 -13 -8 -30 -41 -43 -82 -21 -67 -22 -68 -71 -87 -27
-10 -58 -19 -68 -19 -11 0 -21 -9 -24 -21 -7 -27 -37 -37 -95 -31 -39 3 -48 8
-48 23 0 20 -28 39 -59 39 -12 0 -42 21 -68 46 -38 38 -48 55 -55 98 -14 79
-16 125 -7 165 4 20 10 48 13 63 7 33 82 106 116 114 43 10 125 38 135 46 14
12 20 10 40 -12z m272 -550 c19 -17 54 -36 79 -42 30 -8 53 -23 69 -45 14 -17
35 -33 47 -35 13 -2 29 -15 36 -30 7 -15 25 -36 40 -47 23 -16 31 -33 41 -88
8 -40 23 -79 37 -95 26 -32 29 -45 45 -193 11 -110 24 -150 53 -174 24 -20 20
-79 -8 -120 -14 -22 -30 -70 -40 -121 -13 -70 -21 -89 -45 -110 -16 -14 -38
-44 -50 -67 -11 -23 -30 -44 -41 -48 -11 -3 -42 -24 -69 -45 -27 -21 -64 -45
-83 -53 -19 -8 -41 -26 -50 -39 -11 -16 -33 -29 -62 -37 -30 -7 -53 -21 -69
-42 -20 -25 -35 -33 -78 -40 -98 -16 -123 3 -113 82 5 39 14 59 33 76 14 13
37 34 51 47 14 13 44 29 68 36 25 6 48 21 58 35 9 13 36 32 60 41 25 9 53 27
62 39 10 12 29 28 42 35 14 7 46 35 73 63 l47 51 0 90 c-1 108 -13 170 -42
211 -17 23 -23 51 -29 135 -4 58 -12 118 -18 132 -13 34 -43 43 -81 23 -28
-15 -30 -19 -25 -53 4 -20 10 -48 15 -62 5 -14 14 -65 20 -114 6 -49 19 -103
28 -119 9 -16 23 -39 29 -51 16 -27 17 -128 1 -148 -20 -23 -70 -54 -100 -62
-19 -4 -28 -13 -28 -27 0 -32 -17 -56 -46 -63 -14 -4 -37 -19 -51 -34 -13 -15
-48 -36 -76 -47 -35 -14 -56 -30 -65 -48 -7 -15 -24 -30 -37 -33 -34 -8 -91
13 -109 41 -9 13 -34 30 -56 36 -21 7 -51 25 -65 40 -14 16 -32 29 -40 29 -23
0 -48 46 -41 75 10 38 43 46 115 28 48 -12 65 -21 71 -38 12 -31 20 -35 78
-37 45 -2 53 1 96 39 51 45 88 57 138 43 80 -23 116 -1 78 47 -18 24 -20 35
-14 133 7 116 -4 173 -37 190 -10 6 -22 25 -27 43 -6 24 -18 37 -50 52 -23 11
-50 30 -61 42 -37 40 -171 44 -213 6 -11 -10 -40 -29 -66 -43 -59 -33 -83 -67
-89 -126 -2 -27 -9 -59 -15 -71 -7 -15 -7 -31 1 -54 6 -17 11 -58 11 -89 0
-55 -1 -58 -31 -71 -20 -8 -37 -25 -45 -46 -16 -37 -47 -44 -63 -14 -25 45
-29 103 -16 238 11 116 16 139 33 152 39 30 66 176 42 222 -12 21 -52 26 -67
7 -6 -7 -16 -38 -23 -68 -7 -30 -21 -67 -31 -81 -24 -34 -27 -53 -39 -198 -7
-90 -14 -128 -25 -142 -18 -19 -19 -14 28 -151 16 -46 25 -59 49 -67 16 -6 42
-24 57 -40 15 -16 47 -35 72 -42 24 -6 55 -24 69 -39 14 -15 45 -34 70 -43 30
-11 59 -33 88 -66 40 -47 42 -53 36 -93 -4 -24 -12 -49 -17 -57 -34 -41 -132
-30 -168 20 -11 16 -37 33 -59 40 -21 6 -47 24 -58 39 -13 17 -38 32 -68 40
-33 10 -52 22 -63 42 -9 15 -30 33 -47 38 -19 7 -36 22 -43 38 -6 15 -24 34
-40 43 -18 11 -30 28 -35 50 -3 18 -21 48 -38 66 -29 30 -32 38 -39 135 -13
159 10 358 41 358 15 0 30 57 41 150 7 65 16 101 29 115 10 11 32 45 49 76 17
31 42 61 54 66 13 6 45 29 71 52 26 23 55 41 64 41 10 0 35 12 56 26 39 27 39
27 55 6 9 -11 42 -27 73 -36 33 -10 62 -24 67 -35 18 -32 65 -44 149 -38 70 5
79 8 103 36 14 18 35 31 48 31 25 0 71 42 71 65 0 24 29 18 67 -15z m-270
-549 c3 -11 19 -25 36 -31 52 -19 61 -25 77 -56 9 -16 28 -35 43 -42 25 -12
27 -17 27 -82 0 -67 -1 -70 -29 -85 -17 -8 -36 -27 -43 -42 -8 -18 -26 -32
-48 -39 -26 -9 -36 -18 -38 -37 -4 -30 -36 -40 -97 -29 -33 6 -41 12 -44 32
-3 28 -17 40 -46 40 -34 1 -45 14 -60 74 -23 86 -20 128 15 222 6 14 23 25 52
32 24 6 59 22 78 36 43 30 70 32 77 7z"/>
<path d="M6913 3164 c-19 -30 -11 -51 27 -71 47 -24 86 27 56 72 -22 33 -60
33 -83 -1z"/>
<path d="M6702 3168 c-18 -18 -15 -56 6 -67 17 -9 101 1 123 14 19 12 9 46
-17 55 -35 14 -98 12 -112 -2z"/>
<path d="M6761 2997 c-6 -6 -11 -16 -11 -22 0 -11 53 -55 67 -55 4 0 19 -12
34 -26 l27 -25 18 37 c14 28 28 40 52 47 27 6 33 12 30 30 -3 20 -9 22 -104
24 -65 1 -105 -2 -113 -10z"/>
<path d="M6770 2121 c-11 -22 -1 -60 22 -79 12 -9 22 -5 54 24 l39 35 -24 19
c-30 26 -77 26 -91 1z"/>
<path d="M6797 1983 c-4 -3 -7 -17 -7 -29 0 -30 30 -46 78 -42 31 2 38 7 40
27 3 15 -3 30 -14 38 -19 14 -86 18 -97 6z"/>
</g>
</svg>
