 <svg  version="1.0" xmlns="http://www.w3.org/2000/svg"  width="300.000000pt" height="147.000000pt" viewBox="0 0 300.000000 147.000000"  preserveAspectRatio="xMidYMid meet">  <g transform="translate(0.000000,147.000000) scale(0.050000,-0.050000)" fill="#646cff" stroke="none"> <path d="M474 2632 c-57 -53 -77 -111 -69 -199 3 -40 -7 -64 -35 -80 -67 -39 -145 -133 -157 -189 -6 -30 -20 -99 -32 -154 -105 -481 580 -730 839 -305 108 178 25 563 -139 641 -43 21 -52 40 -57 124 -12 194 -215 287 -350 162z m194 -35 c131 -59 96 -257 -46 -257 -148 0 -201 165 -77 240 77 47 62 45 123 17z m-106 -318 c61 -20 84 -18 146 11 l74 35 71 -57 c43 -35 81 -90 96 -138 80 -255 78 -235 31 -336 -45 -95 -86 -133 -224 -210 -56 -32 -78 -36 -93 -17 -28 33 -11 53 114 132 59 37 113 86 122 108 27 75 -40 347 -80 322 -23 -14 -8 -153 23 -213 22 -42 3 -96 -34 -96 -19 0 -28 25 -28 77 0 233 -300 261 -307 29 -2 -76 -11 -97 -40 -103 -40 -7 -40 -23 -1 237 26 168 -43 96 -81 -85 -32 -157 -10 -209 117 -276 140 -75 149 -178 9 -110 -215 104 -274 246 -204 488 33 116 148 255 194 235 13 -5 55 -20 95 -33z m157 -358 c1 -38 -4 -44 -23 -25 -13 13 -40 24 -60 24 -20 0 -37 15 -37 35 -2 30 -4 29 -19 -5 -30 -70 -22 -87 45 -94 l65 -6 -56 -13 c-113 -24 -162 117 -60 170 69 36 144 -9 145 -86z m36 -155 c16 -50 -129 -90 -200 -54 -81 41 -81 42 -69 62 15 24 260 17 269 -8z"/> <path d="M560 2401 c0 -30 37 -45 80 -31 60 19 48 50 -20 50 -33 0 -60 -8 -60 -19z"/> <path d="M1414 2624 c-42 -44 -54 -76 -54 -146 0 -81 -8 -96 -87 -162 -224 -188 -175 -756 65 -756 12 0 22 -7 22 -15 1 -83 293 -86 413 -5 49 33 96 60 104 60 8 0 29 17 47 38 146 171 95 592 -85 703 -73 45 -79 55 -79 140 0 185 -219 275 -346 143z m261 -76 c66 -66 -3 -208 -101 -208 -116 0 -191 120 -127 204 59 77 153 79 228 4z m-194 -261 c62 -31 74 -31 156 -2 213 77 413 -319 270 -536 -42 -64 -261 -215 -287 -199 -51 31 97 190 176 190 69 0 65 308 -5 377 -41 42 -63 -17 -35 -92 38 -97 48 -180 23 -195 -36 -23 -61 17 -67 106 -16 216 -292 198 -292 -19 0 -79 -29 -116 -65 -80 -14 14 -11 58 11 146 24 93 26 130 9 140 -47 29 -74 -50 -81 -242 -4 -88 -2 -91 111 -169 108 -75 153 -152 88 -152 -51 0 -243 152 -279 220 -66 128 9 409 131 495 76 53 56 52 136 12z m140 -288 c50 -27 53 -131 4 -154 -49 -22 -110 -19 -119 7 -4 13 16 18 53 12 62 -9 72 5 49 65 -11 28 -16 28 -35 4 -38 -48 -113 -62 -113 -21 0 82 86 128 161 87z m79 -232 c0 -55 -136 -92 -200 -54 -101 60 -84 77 78 77 78 0 122 -8 122 -23z"/> <path d="M1500 2402 c0 -25 54 -43 90 -29 51 19 33 47 -30 47 -33 0 -60 -8 -60 -18z"/> <path d="M2360 2620 c-58 -54 -64 -70 -56 -145 9 -80 5 -88 -72 -146 -157 -116 -214 -476 -103 -645 31 -46 65 -84 75 -84 10 0 58 -27 106 -60 246 -169 648 42 650 342 1 214 -67 388 -179 457 -68 43 -77 56 -67 105 39 195 -204 316 -354 176z m227 -49 c96 -89 51 -231 -74 -231 -132 0 -185 157 -80 239 67 53 90 52 154 -8z m-171 -282 c63 -32 193 -24 215 13 32 51 193 -73 215 -167 6 -25 21 -85 34 -134 46 -185 -17 -301 -224 -411 -160 -85 -148 15 14 111 103 61 129 95 128 169 0 75 -45 252 -65 252 -51 2 -60 -16 -38 -73 40 -100 51 -203 25 -219 -32 -20 -63 29 -51 81 20 84 -59 169 -156 169 -106 0 -131 -26 -150 -152 -17 -121 -63 -144 -63 -31 0 45 10 103 23 131 12 27 16 65 9 84 -23 60 -64 -7 -90 -147 -29 -152 -17 -178 117 -265 63 -40 101 -78 101 -102 0 -53 -31 -48 -143 24 -204 131 -229 256 -110 559 11 29 47 71 81 95 73 52 53 50 128 13z m176 -320 c42 -63 23 -84 -52 -55 -60 23 -80 16 -80 -26 0 -14 29 -29 65 -34 l65 -8 -70 -3 c-56 -2 -74 7 -93 46 -51 110 98 182 165 80z m43 -203 c3 -9 -23 -34 -58 -54 -66 -40 -197 -2 -197 56 0 26 246 24 255 -2z"/> <path d="M2451 2401 c-14 -22 61 -49 89 -31 11 7 20 21 20 31 0 25 -94 25 -109 0z"/> <path d="M3311 2621 c-47 -49 -57 -77 -56 -151 1 -85 -4 -96 -75 -142 -106 -70 -161 -223 -158 -438 4 -424 612 -556 839 -183 95 155 -3 633 -130 633 -47 0 -79 62 -74 141 13 179 -219 272 -346 140z m197 -24 c139 -63 96 -256 -56 -257 -154 -1 -183 174 -42 256 49 28 39 28 98 1z m-106 -318 c61 -20 84 -18 144 11 124 58 208 -25 283 -283 36 -123 36 -124 -9 -218 -55 -113 -266 -266 -313 -226 -37 30 -10 61 127 149 l106 68 -2 105 c-1 116 -41 251 -70 235 -19 -11 -18 -74 3 -215 9 -54 6 -85 -8 -85 -31 0 -51 43 -47 102 12 149 -208 225 -283 97 -25 -41 -32 -79 -23 -120 10 -44 5 -62 -19 -71 -54 -21 -60 6 -32 144 29 149 3 225 -41 116 -82 -203 -45 -322 127 -410 130 -67 98 -150 -34 -87 -206 98 -274 297 -182 535 37 94 142 202 181 185 11 -5 52 -19 92 -32z m123 -287 c19 -14 35 -49 35 -77 0 -72 -121 -116 -174 -63 -57 57 -8 167 74 167 17 0 46 -12 65 -27z m75 -222 c0 -85 -158 -93 -279 -14 -27 17 50 34 158 35 77 1 121 -7 121 -21z"/> <path d="M3405 2395 c5 -14 29 -25 55 -25 26 0 50 11 55 25 5 16 -13 25 -55 25 -42 0 -60 -9 -55 -25z"/> <path d="M3400 1887 c0 -17 23 -27 60 -27 39 0 60 10 60 29 0 19 -20 28 -60 27 -36 -1 -60 -13 -60 -29z"/> <path d="M4252 2618 c-39 -45 -52 -84 -52 -148 0 -76 -9 -93 -65 -133 -194 -135 -233 -550 -66 -707 177 -165 409 -200 560 -84 12 9 50 33 85 54 130 77 170 272 107 526 -27 111 -143 254 -206 254 -10 0 -12 28 -4 62 42 194 -231 328 -359 176z m247 -62 c80 -86 28 -216 -85 -215 -113 1 -179 93 -132 183 47 89 150 104 217 32z m-178 -269 c62 -31 74 -31 156 -2 120 43 244 -31 270 -163 5 -29 20 -91 32 -138 39 -155 -7 -247 -185 -368 -94 -64 -122 -75 -136 -53 -29 45 -23 52 103 138 67 45 126 95 132 111 15 38 -36 294 -62 313 -59 41 -61 9 -14 -172 11 -43 15 -91 9 -106 -18 -48 -56 -18 -58 46 -8 250 -318 259 -318 9 0 -69 -36 -106 -56 -56 -9 24 0 82 38 242 10 44 7 55 -14 48 -46 -15 -80 -109 -84 -230 l-4 -114 115 -80 c181 -125 155 -207 -28 -90 -171 110 -236 290 -159 435 12 22 22 57 22 77 0 50 106 165 172 185 1 1 32 -14 69 -32z m166 -309 c30 -42 15 -105 -33 -140 -30 -22 -106 5 -131 45 -61 97 99 188 164 95z m47 -211 c4 -10 -22 -35 -57 -55 -76 -45 -242 16 -189 70 16 16 241 2 246 -15z"/> <path d="M4340 2401 c0 -24 74 -47 100 -31 39 24 19 50 -40 50 -33 0 -60 -8 -60 -19z"/> <path d="M4374 1907 c-28 -28 -13 -47 38 -47 32 0 48 9 43 25 -10 29 -60 43 -81 22z"/> <path d="M5210 2632 c-53 -42 -60 -61 -61 -155 -1 -94 -8 -110 -52 -131 -111 -54 -180 -225 -183 -448 -4 -424 620 -564 847 -191 109 178 30 539 -138 634 -74 41 -77 47 -68 127 20 177 -199 281 -345 164z m198 -35 c125 -57 83 -257 -55 -257 -133 0 -185 158 -78 238 65 48 68 49 133 19z m-179 -295 c23 -38 150 -44 221 -11 208 99 387 -398 210 -582 -73 -76 -246 -176 -268 -155 -30 31 -5 67 93 128 155 99 160 106 149 213 -14 138 -43 236 -65 225 -18 -10 -19 -44 -6 -210 5 -61 0 -80 -23 -80 -21 0 -31 25 -34 87 -10 218 -302 231 -302 14 0 -75 -15 -111 -47 -111 -21 0 -15 97 14 233 8 38 4 68 -9 76 -35 22 -82 -114 -82 -238 l0 -111 109 -72 c116 -77 148 -123 101 -141 -49 -18 -226 110 -281 202 -66 114 -64 139 28 383 38 100 162 198 192 150z m194 -315 c38 -34 51 -107 19 -107 -10 0 -22 8 -25 17 -17 42 -117 45 -117 3 0 -31 13 -40 61 -40 34 0 57 -8 51 -17 -12 -19 -97 -15 -131 6 -29 18 -27 117 3 147 34 34 96 30 139 -9z m62 -206 c35 -3 9 -34 -57 -66 -66 -33 -75 -33 -139 -3 -137 65 -67 89 196 69z"/> <path d="M5300 2401 c0 -30 37 -45 80 -31 60 19 48 50 -20 50 -33 0 -60 -8 -60 -19z"/> <path d="M472 1307 c-58 -59 -75 -107 -67 -196 4 -47 -6 -65 -49 -86 -65 -32 -125 -113 -144 -195 -45 -197 -51 -245 -39 -309 21 -111 71 -183 178 -255 54 -36 109 -74 121 -84 96 -79 439 40 534 185 120 183 59 541 -111 651 -69 45 -75 56 -75 142 0 184 -218 276 -348 147z m196 -30 c64 -29 103 -119 75 -172 -28 -52 -81 -94 -98 -77 -8 8 -1 22 15 32 33 21 27 30 -33 48 -45 14 -94 -29 -51 -43 27 -9 33 -45 7 -45 -9 0 -36 17 -60 37 -114 99 7 283 145 220z m-106 -318 c59 -19 82 -18 134 9 92 48 244 -32 244 -129 0 -20 9 -42 20 -49 11 -7 20 -34 20 -60 0 -27 10 -71 23 -98 51 -112 -175 -392 -317 -392 -70 0 -20 82 89 145 106 62 116 74 122 146 7 90 -34 289 -61 289 -35 0 -40 -63 -10 -153 33 -99 27 -147 -18 -147 -19 0 -28 24 -28 74 0 142 -146 231 -256 155 -35 -25 -44 -51 -44 -130 0 -55 -4 -99 -8 -99 -5 0 -23 -5 -40 -12 -37 -14 -48 140 -12 162 25 16 26 150 1 150 -30 0 -48 -41 -73 -175 -27 -146 -6 -190 132 -267 83 -47 113 -93 82 -124 -20 -20 -135 39 -219 114 -94 84 -129 223 -85 336 10 25 28 82 42 126 23 80 128 180 170 161 11 -4 52 -19 92 -32z m114 -270 c26 -19 44 -52 44 -84 0 -41 -5 -48 -24 -29 -13 13 -40 24 -60 24 -20 0 -36 11 -37 25 0 14 -10 9 -21 -11 -17 -29 -14 -43 15 -65 30 -23 31 -28 6 -28 -83 -2 -107 115 -34 166 57 39 57 39 111 2z m79 -233 c-21 -64 -127 -95 -195 -59 -106 57 -93 75 60 76 78 1 139 -7 135 -17z"/> <path d="M1413 1307 c-42 -41 -53 -72 -53 -142 0 -81 -9 -97 -88 -168 -168 -148 -204 -505 -66 -654 376 -406 941 -57 771 476 -40 126 -59 154 -138 203 -72 44 -78 55 -78 140 -1 131 -70 198 -201 198 -75 0 -105 -11 -147 -53z m236 -54 c62 -57 65 -130 10 -189 -44 -48 -70 -55 -89 -24 -7 11 2 20 20 20 19 0 29 11 25 25 -5 14 -30 22 -57 18 -58 -8 -77 -25 -43 -37 29 -11 34 -46 6 -46 -71 0 -123 140 -75 201 65 85 134 96 203 32z m-168 -286 c62 -32 73 -32 164 1 104 37 118 33 199 -54 35 -39 116 -274 116 -338 0 -134 -296 -404 -349 -318 -16 26 9 82 36 82 13 1 67 33 120 72 l98 72 -13 103 c-19 145 -50 233 -84 233 -36 0 -35 -48 3 -157 32 -91 23 -171 -18 -158 -13 5 -28 51 -34 104 -27 230 -299 229 -299 -1 0 -91 -16 -115 -58 -89 -21 13 -21 37 0 133 34 150 34 158 0 158 -30 0 -80 -159 -81 -262 -1 -66 38 -111 164 -186 71 -43 105 -122 52 -122 -124 0 -306 209 -304 349 5 272 141 451 288 378z m144 -279 c70 -25 32 -169 -44 -167 -25 0 -24 6 7 29 24 18 32 40 23 64 -13 34 -15 34 -33 2 -11 -19 -32 -29 -49 -23 -16 6 -29 2 -29 -9 0 -11 11 -25 25 -30 14 -5 19 -15 11 -24 -21 -22 -76 41 -76 87 0 44 77 109 110 93 11 -5 36 -16 55 -22z m75 -238 c0 -61 -140 -93 -212 -49 -37 23 -64 49 -59 57 15 25 271 17 271 -8z"/> <path d="M2357 1297 c-45 -49 -59 -81 -56 -135 5 -109 4 -110 -69 -149 -37 -20 -76 -56 -87 -80 -126 -278 -88 -572 87 -663 22 -11 66 -40 99 -63 164 -118 520 14 600 222 78 204 -6 514 -164 610 -49 29 -55 44 -50 114 13 187 -230 283 -360 144z m230 -38 c66 -52 72 -155 13 -209 -46 -42 -78 -26 -40 20 21 26 15 30 -49 30 -44 0 -68 -8 -61 -20 7 -11 25 -20 41 -20 16 0 29 -9 29 -20 0 -31 -63 -23 -103 13 -126 114 37 310 170 206z m-159 -292 c65 -31 76 -31 162 2 76 29 97 30 126 9 71 -54 118 -111 129 -159 7 -27 22 -89 35 -139 43 -172 -23 -300 -208 -399 -74 -41 -96 -45 -117 -24 -28 29 -17 40 152 158 79 55 93 74 92 130 -1 80 -46 257 -65 256 -8 -1 -24 -1 -36 -1 -14 0 -17 -17 -9 -45 49 -160 53 -202 22 -233 -32 -32 -41 -11 -33 79 7 68 -86 169 -160 175 -91 8 -143 -48 -157 -171 -6 -51 -23 -96 -38 -101 -28 -9 -25 97 8 251 14 67 -9 87 -45 40 -30 -39 -70 -250 -56 -295 13 -40 169 -160 209 -160 11 0 21 -22 21 -50 0 -125 -276 69 -318 224 -20 72 -8 200 21 218 9 6 17 30 18 54 1 64 43 131 110 175 71 46 54 46 137 6z m151 -300 c67 -86 36 -125 -44 -53 -32 30 -40 30 -56 5 -28 -45 -10 -69 48 -65 29 2 53 -5 53 -15 0 -46 -134 -19 -157 32 -47 103 86 185 156 96z m59 -217 c-4 -58 -108 -90 -178 -54 -110 56 -96 78 49 76 74 -1 130 -11 129 -22z"/> <path d="M3314 1315 c-47 -38 -56 -61 -60 -155 -4 -98 -10 -112 -59 -136 -147 -70 -228 -443 -136 -623 199 -389 841 -251 841 181 0 231 -65 388 -185 451 -48 25 -55 40 -55 124 0 182 -201 274 -346 158z m192 -38 c99 -53 121 -141 53 -213 -44 -48 -70 -55 -89 -24 -7 11 2 20 20 20 19 0 30 11 25 24 -4 14 -29 25 -55 25 -26 0 -51 -11 -55 -25 -5 -13 1 -24 13 -24 12 0 22 -9 22 -20 0 -33 -36 -23 -79 24 -82 87 -35 202 95 234 4 1 26 -8 50 -21z m-100 -321 c44 -16 74 -13 133 14 220 99 413 -361 236 -562 -75 -86 -225 -176 -266 -160 -45 17 1 79 100 134 137 77 160 151 107 348 -33 122 -87 126 -67 5 38 -228 38 -219 -2 -211 -23 5 -35 22 -32 47 20 171 -152 274 -267 158 -40 -39 -50 -66 -45 -124 6 -60 -1 -76 -31 -82 -39 -7 -39 -15 -1 212 20 121 -34 117 -67 -5 -53 -200 -38 -253 96 -338 191 -122 166 -206 -27 -90 -184 110 -227 230 -164 449 40 136 149 262 206 239 19 -8 60 -23 91 -34z m105 -268 c85 -56 54 -168 -46 -168 -101 0 -141 113 -61 169 55 38 47 38 107 -1z m89 -231 c0 -7 -31 -33 -70 -57 l-70 -43 -70 43 c-100 62 -88 74 70 73 77 -1 140 -8 140 -16z"/> <path d="M3400 589 c0 -31 51 -51 90 -36 53 20 33 60 -30 60 -34 0 -60 -10 -60 -24z"/> <path d="M4253 1307 c-43 -42 -53 -71 -53 -148 0 -86 -7 -101 -65 -142 -176 -122 -235 -531 -98 -669 250 -251 554 -241 757 25 133 175 4 687 -175 687 -13 0 -16 26 -8 68 36 190 -220 318 -358 179z m238 -56 c94 -94 38 -230 -92 -223 -140 7 -178 188 -53 248 67 32 92 28 145 -25z m-163 -284 c65 -31 76 -31 162 2 77 29 97 31 126 8 68 -53 121 -124 131 -175 5 -29 19 -88 31 -132 31 -117 8 -205 -76 -288 -95 -94 -214 -158 -242 -130 -25 25 -6 88 27 88 13 1 67 33 120 72 108 79 103 52 61 312 -11 65 -57 114 -84 87 -5 -5 5 -63 24 -128 33 -118 27 -191 -15 -177 -13 4 -24 29 -25 56 -7 140 -67 218 -171 218 -79 0 -162 -112 -145 -195 13 -66 -24 -110 -54 -63 -19 31 -3 158 24 187 22 23 24 111 3 111 -48 -1 -105 -158 -105 -290 0 -51 81 -130 179 -173 61 -27 90 -117 38 -117 -41 0 -216 122 -254 177 -89 127 -51 393 72 516 77 77 81 78 173 34z m141 -286 c57 -63 25 -161 -53 -161 -106 0 -147 90 -72 159 54 51 80 51 125 2z m71 -231 c0 -52 -125 -87 -195 -54 -104 50 -81 77 65 77 83 0 130 -9 130 -23z"/> <path d="M4340 1080 c0 -11 27 -20 60 -20 33 0 60 9 60 20 0 11 -27 20 -60 20 -33 0 -60 -9 -60 -20z"/> <path d="M4369 599 c-15 -25 28 -62 61 -52 11 3 20 19 20 34 0 36 -61 49 -81 18z"/> <path d="M5206 1308 c-47 -43 -56 -68 -56 -151 0 -93 -4 -102 -74 -141 -72 -41 -82 -59 -136 -224 -174 -540 496 -870 814 -401 71 104 79 212 29 375 -56 180 -72 207 -160 262 -70 44 -74 52 -67 131 18 180 -212 277 -350 149z m199 -29 c75 -34 98 -123 53 -197 -39 -64 -66 -77 -88 -42 -7 11 2 20 19 20 50 0 35 34 -19 45 -57 11 -90 -21 -48 -46 15 -9 21 -23 13 -31 -8 -7 -37 2 -64 20 -130 85 -7 295 134 231z m-137 -312 c65 -31 76 -31 161 2 l92 35 68 -52 c127 -97 186 -408 99 -525 -50 -68 -223 -187 -273 -187 -63 0 -37 58 50 114 140 89 175 128 175 194 0 106 -47 272 -77 272 -28 0 -26 -48 9 -237 11 -58 8 -66 -24 -60 -29 6 -38 25 -39 81 0 50 -16 91 -48 125 -99 105 -257 32 -257 -119 0 -41 -12 -83 -27 -92 -39 -25 -46 31 -18 156 36 159 -15 212 -58 61 -50 -181 -25 -276 93 -344 109 -63 141 -104 108 -137 -24 -24 -180 64 -252 142 -129 137 -88 433 78 560 69 53 55 51 140 11z m146 -290 c25 -24 46 -57 46 -72 0 -37 -58 -94 -76 -75 -8 9 -3 19 11 24 39 15 29 46 -15 46 -22 0 -40 9 -40 20 0 11 -9 20 -20 20 -29 0 -25 -75 5 -86 14 -5 18 -16 10 -24 -24 -26 -75 32 -75 85 0 95 83 128 154 62z m75 -220 c7 -7 -19 -32 -58 -56 l-71 -44 -70 43 c-38 24 -70 50 -70 58 0 19 251 18 269 -1z"/> </g> </svg> 