 <svg  version="1.0" xmlns="http://www.w3.org/2000/svg"  width="216.000000pt" height="244.000000pt" viewBox="0 0 216.000000 244.000000"  preserveAspectRatio="xMidYMid meet">  <g transform="translate(0.000000,244.000000) scale(0.050000,-0.050000)" fill="#646cff" stroke="none"> <path d="M760 2590 l0 -1630 725 5 c629 4 725 9 725 35 0 26 -92 31 -685 35 l-685 6 0 1549 0 1550 1180 0 1180 0 0 -980 c0 -858 4 -980 30 -980 17 0 30 11 31 25 0 14 1 470 1 1015 l0 990 -1251 5 -1251 5 0 -1630z"/> <path d="M1028 3972 c-6 -15 -8 -62 -4 -105 l6 -77 1010 0 1010 0 0 100 0 100 -1006 5 c-848 5 -1007 1 -1016 -23z"/> <path d="M2277 3570 c-54 -57 -77 -63 -77 -20 0 31 -935 48 -965 18 -60 -59 14 -70 479 -67 258 2 472 -1 477 -5 4 -5 -44 -56 -108 -114 l-117 -105 -248 0 -248 -1 -86 82 c-47 45 -99 82 -115 82 -55 0 -29 -73 51 -145 l80 -72 0 -242 c0 -237 -1 -241 -45 -241 -107 0 -159 -250 -65 -312 72 -47 62 -68 -31 -68 -67 0 -81 -6 -75 -35 9 -50 1642 -45 1652 5 5 21 -9 30 -45 30 -57 0 -68 41 -21 80 61 51 33 241 -42 281 -74 40 -67 468 8 471 91 5 84 75 -9 94 -31 7 -105 57 -164 112 l-108 100 167 6 c141 5 169 12 174 41 6 31 -12 35 -165 35 -139 0 -171 -6 -171 -30 0 -42 -15 -38 -68 20 -57 61 -57 61 -115 0z m233 -223 l120 -123 -13 -297 c-7 -163 -19 -329 -27 -368 -11 -61 -6 -79 38 -120 70 -67 65 -79 -28 -79 l-80 0 0 180 0 180 -190 0 -190 0 0 -180 c0 -179 0 -180 -50 -180 l-51 0 2 436 1 435 141 145 c161 166 135 169 327 -29z m-530 -567 l0 -420 -70 0 -70 0 0 179 c0 202 3 199 -170 192 l-100 -3 -6 -184 -6 -184 -79 0 c-84 0 -105 34 -49 80 37 30 40 164 5 223 -20 34 -20 44 0 51 18 7 25 72 25 234 0 274 -24 252 273 252 l247 0 0 -420z m470 -139 c0 -22 -26 -28 -120 -23 -132 6 -140 9 -120 42 21 34 240 17 240 -19z m-676 -14 c7 -19 -1 -43 -21 -57 -18 -13 -33 -40 -33 -60 0 -20 15 -47 33 -60 54 -39 19 -90 -62 -90 l-71 0 0 150 0 150 71 0 c47 0 74 -11 83 -33z m952 -6 c7 -27 -6 -50 -40 -72 -68 -44 -79 -24 -27 50 52 72 53 73 67 22z m-1326 -3 c0 -48 -79 -125 -92 -90 -7 19 2 50 23 73 39 43 69 51 69 17z m1060 -128 c0 -24 -28 -30 -130 -30 -120 0 -151 12 -117 47 30 29 247 14 247 -17z m0 -110 c0 -11 -57 -20 -130 -20 -73 0 -130 9 -130 20 0 11 57 20 130 20 73 0 130 -9 130 -20z"/> <path d="M2267 3387 c-70 -33 -118 -109 -100 -156 14 -37 301 -46 324 -10 32 53 -41 145 -152 192 -6 2 -38 -9 -72 -26z m33 -88 c0 -23 -14 -39 -32 -39 -21 0 -28 11 -20 32 7 17 12 40 12 51 0 11 9 14 20 7 11 -7 20 -30 20 -51z m119 -24 c0 -8 -12 -15 -29 -15 -31 0 -42 62 -16 88 13 12 41 -33 45 -73z"/> <path d="M2148 3073 c-6 -15 -8 -76 -4 -135 l6 -108 180 0 180 0 6 135 6 135 -182 0 c-135 0 -184 -7 -192 -27z m152 -114 c0 -73 -5 -81 -45 -75 -78 11 -74 156 4 156 35 0 41 -13 41 -81z m150 1 c0 -57 -8 -70 -40 -70 -42 0 -64 65 -42 123 23 59 82 21 82 -53z"/> <path d="M1568 3073 c-6 -15 -8 -76 -4 -135 l6 -108 155 -6 155 -6 0 141 0 141 -151 0 c-109 0 -153 -8 -161 -27z m95 -68 c8 -91 5 -112 -18 -120 -17 -6 -25 17 -25 73 0 79 37 119 43 47z m157 -46 c0 -73 -5 -81 -45 -75 -78 11 -74 156 4 156 35 0 41 -13 41 -81z"/> <path d="M2780 2198 c-727 -69 -896 -1047 -237 -1376 143 -72 456 -90 557 -32 81 46 129 35 200 -45 414 -464 503 -523 640 -422 165 122 107 241 -335 695 -90 92 -102 140 -55 222 57 100 40 414 -31 556 -62 124 -223 304 -272 304 -15 0 -27 7 -27 16 0 53 -252 100 -440 82z m236 -101 c449 -111 622 -693 310 -1039 -278 -307 -806 -250 -1015 109 -278 479 165 1063 705 930z m691 -1342 c189 -204 223 -259 194 -313 -52 -98 -99 -73 -356 191 -285 293 -263 250 -170 336 l75 70 47 -54 c26 -30 121 -134 210 -230z"/> <path d="M2742 1996 c-598 -133 -492 -1038 122 -1036 515 2 713 672 285 963 -64 44 -259 104 -307 95 -7 -1 -52 -11 -100 -22z m266 -107 c218 -90 341 -347 260 -542 -164 -398 -652 -398 -816 0 -130 315 239 675 556 542z"/> <path d="M2910 1540 c-95 -123 -144 -137 -177 -51 -6 17 -35 31 -62 31 -82 0 -62 -77 42 -169 l89 -78 149 155 c156 162 186 232 100 232 -36 0 -73 -31 -141 -120z"/> <path d="M1129 1918 c-32 -51 44 -58 542 -53 475 5 519 8 525 40 8 42 -1041 55 -1067 13z"/> <path d="M1134 1667 c-60 -59 -11 -67 427 -67 410 0 441 3 435 35 -7 36 -828 67 -862 32z"/> <path d="M1130 1340 c-31 -50 27 -60 361 -60 336 0 349 2 349 40 0 45 -683 64 -710 20z"/> </g> </svg> 