 <svg  version="1.0" xmlns="http://www.w3.org/2000/svg"  width="300.000000pt" height="111.000000pt" viewBox="0 0 300.000000 111.000000"  preserveAspectRatio="xMidYMid meet">  <g transform="translate(0.000000,111.000000) scale(0.050000,-0.050000)" fill="#aac7d8" stroke="none"> <path d="M1675 1880 c-57 -59 -71 -136 -33 -174 12 -12 24 -74 27 -139 8 -150 33 -211 115 -276 l66 -53 -10 -370 c-12 -460 -19 -465 -357 -275 -51 29 -147 79 -213 112 -178 87 -177 86 -184 108 -4 10 28 38 69 62 85 48 203 169 238 245 38 81 65 219 45 231 -10 6 -18 42 -18 80 0 149 -221 281 -381 229 -67 -22 -94 -23 -152 -2 -135 49 -301 -32 -377 -184 -94 -189 61 -516 295 -619 78 -35 78 -36 -164 -161 -193 -100 -226 -111 -275 -93 -130 50 -242 -74 -178 -197 63 -123 272 -98 272 32 0 48 16 63 124 114 68 33 176 93 241 135 120 78 154 88 186 57 10 -10 51 -36 89 -57 39 -21 124 -69 190 -105 378 -211 486 -240 590 -161 l50 39 5 395 6 396 49 30 c67 41 110 138 110 248 0 50 9 96 20 103 11 7 20 55 20 107 0 122 -93 232 -149 176 -39 -38 -4 -113 54 -113 38 0 51 -88 15 -110 -11 -7 -20 -38 -20 -70 0 -32 -9 -63 -20 -70 -11 -7 -20 -30 -20 -52 0 -63 -60 -138 -110 -138 -59 0 -76 25 -118 170 -78 268 -79 252 14 316 43 30 27 94 -23 93 -18 0 -58 -27 -88 -59z m-758 -352 c42 -29 48 -29 81 0 53 48 204 42 259 -10 163 -151 46 -472 -224 -616 -179 -96 -530 331 -431 524 68 132 207 177 315 102z m-564 -1039 c17 -44 -25 -85 -56 -54 -25 25 -9 85 23 85 12 0 27 -14 33 -31z"/> <path d="M3514 1884 c-58 -61 -71 -154 -31 -229 12 -23 24 -88 27 -145 5 -113 44 -190 120 -230 l50 -27 0 -363 c0 -491 -6 -497 -370 -296 -66 36 -185 98 -265 136 -164 80 -170 89 -81 129 243 107 373 448 254 661 -55 98 -203 172 -301 151 -64 -14 -111 -15 -289 -6 -186 9 -321 -157 -303 -374 14 -170 153 -372 297 -432 82 -34 74 -49 -57 -115 -63 -31 -158 -81 -211 -112 -87 -49 -103 -52 -167 -31 -132 43 -244 -117 -159 -227 72 -93 272 -37 272 76 0 38 26 61 135 116 74 38 183 97 241 132 130 77 120 77 255 -9 271 -174 571 -311 665 -305 161 11 174 48 174 497 0 209 5 379 10 379 65 0 160 166 160 278 0 43 13 115 30 162 35 98 -33 216 -126 219 -62 1 -53 -80 11 -109 55 -24 56 -57 7 -205 -21 -63 -43 -138 -50 -167 -14 -64 -94 -106 -140 -72 -17 13 -58 112 -90 221 l-59 196 69 41 c74 44 80 56 44 92 -36 36 -63 29 -122 -32z m-771 -357 c33 -30 40 -30 86 0 177 116 390 -53 333 -265 -39 -148 -267 -382 -373 -382 -129 0 -369 289 -369 446 0 186 201 311 323 201z m-570 -1038 c18 -47 -21 -77 -52 -41 -25 31 -14 72 21 72 11 0 25 -14 31 -31z"/> <path d="M5335 1877 c-57 -64 -71 -133 -34 -170 12 -12 22 -70 23 -129 3 -135 37 -219 115 -284 l61 -51 0 -355 c0 -501 19 -491 -470 -239 -273 142 -316 170 -276 185 60 22 211 156 267 237 178 259 2 655 -267 600 -155 -31 -190 -34 -203 -13 -45 73 -277 -19 -357 -142 -131 -203 2 -532 268 -661 75 -36 66 -44 -190 -176 -162 -84 -199 -95 -243 -79 -150 58 -262 -127 -147 -242 78 -78 236 -17 237 93 1 30 36 58 134 106 73 36 181 96 240 134 125 80 133 81 204 32 29 -20 67 -43 83 -50 17 -7 98 -51 180 -96 316 -174 368 -196 464 -196 164 -1 176 31 176 482 l0 377 80 80 c74 74 80 89 80 189 0 60 8 114 18 120 10 6 21 47 25 90 10 105 -96 248 -151 203 -48 -40 -39 -76 28 -105 60 -27 83 -100 40 -127 -11 -7 -20 -38 -20 -70 0 -32 -9 -63 -20 -70 -11 -7 -20 -33 -20 -58 0 -181 -167 -171 -219 13 -17 62 -38 119 -46 127 -35 35 -16 185 25 198 26 8 40 30 40 61 0 69 -57 62 -125 -14z m-764 -350 c46 -30 53 -30 86 0 150 136 380 -52 332 -270 -30 -142 -257 -377 -364 -377 -94 0 -313 207 -360 339 -80 231 119 431 306 308z m-561 -1057 c0 -56 -59 -50 -67 7 -5 36 2 45 30 40 21 -5 37 -25 37 -47z"/> </g> </svg> 