<?xml version="1.0" standalone="no"?>
<!DOCTYPE svg PUBLIC "-//W3C//DTD SVG 20010904//EN"
 "http://www.w3.org/TR/2001/REC-SVG-20010904/DTD/svg10.dtd">
<svg version="1.0" xmlns="http://www.w3.org/2000/svg"
 width="156.000000pt" height="140.000000pt" viewBox="0 0 156.000000 140.000000"
 preserveAspectRatio="xMidYMid meet">
<metadata>
Created by potrace 1.10, written by Peter Selinger 2001-2011
</metadata>
<g transform="translate(0.000000,140.000000) scale(0.050000,-0.050000)"
fill="#000000" stroke="none">
<path d="M2185 2349 c-74 -77 -83 -148 -36 -279 16 -44 30 -136 30 -205 1 -69
8 -125 17 -125 8 0 25 -25 36 -56 12 -31 51 -70 88 -88 l67 -32 -5 -467 c-6
-519 -13 -552 -127 -529 -65 13 -282 115 -292 137 -3 8 -23 15 -43 15 -21 0
-43 8 -49 19 -13 20 -28 29 -285 159 -204 104 -207 109 -95 164 137 69 329
270 329 345 0 17 9 36 20 43 36 22 24 364 -14 426 -105 166 -352 271 -455 193
-49 -37 -104 -37 -210 1 -104 36 -232 3 -345 -91 -265 -218 -132 -725 241
-920 105 -54 94 -74 -92 -165 -85 -41 -204 -103 -263 -136 -108 -61 -109 -61
-184 -27 -169 76 -312 -96 -216 -259 88 -150 338 -102 338 65 0 54 14 66 155
137 215 109 389 206 427 239 17 15 43 27 58 27 15 0 41 -12 58 -27 18 -16 86
-58 152 -94 66 -36 147 -82 180 -102 33 -19 101 -56 150 -82 50 -26 122 -64
160 -85 197 -108 374 -122 464 -36 l56 53 0 496 c0 494 0 496 45 519 106 55
175 192 175 346 0 59 13 133 30 165 42 81 37 138 -17 193 -27 26 -58 66 -70
89 -20 36 -29 38 -73 18 -45 -21 -72 -93 -35 -93 116 -1 141 -166 55 -370 -14
-33 -32 -88 -39 -123 -40 -190 -262 -146 -270 53 -1 28 -15 73 -31 100 -16 28
-29 79 -29 114 -1 35 -10 69 -21 76 -44 27 -17 84 60 128 90 50 95 62 43 109
-49 45 -63 41 -138 -38z m-1040 -410 c41 -12 75 -29 75 -40 0 -31 100 -22 113
10 32 86 264 51 358 -53 156 -176 53 -475 -237 -689 -153 -112 -196 -112 -355
5 -319 235 -406 568 -190 728 78 58 134 67 236 39z m-636 -1326 c44 -32 10
-120 -43 -109 -52 10 -78 68 -47 104 32 39 43 40 90 5z"/>
</g>
</svg>
