<?xml version="1.0" standalone="no"?>
<!DOCTYPE svg PUBLIC "-//W3C//DTD SVG 20010904//EN"
 "http://www.w3.org/TR/2001/REC-SVG-20010904/DTD/svg10.dtd">
<svg version="1.0" xmlns="http://www.w3.org/2000/svg"
 width="300.000000pt" height="166.000000pt" viewBox="0 0 300.000000 166.000000"
 preserveAspectRatio="xMidYMid meet">
<metadata>
Created by potrace 1.10, written by Peter Selinger 2001-2011
</metadata>
<g transform="translate(0.000000,166.000000) scale(0.050000,-0.050000)"
fill="#aac7d8" stroke="none">
<path d="M3546 2336 c-21 -24 -33 -96 -41 -250 -6 -119 -18 -231 -27 -248 -24
-47 -26 -444 -3 -490 27 -51 67 -167 80 -228 26 -125 -11 -120 907 -120 l835
0 30 60 c16 33 36 87 43 120 7 33 21 65 32 71 10 6 18 34 18 61 0 27 13 70 29
94 24 37 26 72 10 194 -11 83 -24 209 -30 280 -11 152 -47 394 -66 446 -20 54
-1768 64 -1817 10z m574 -77 c0 -11 -67 -19 -149 -19 -144 0 -211 -26 -211
-81 0 -11 -13 -19 -30 -19 -51 0 -86 -85 -100 -243 l-14 -153 56 -27 c31 -15
68 -49 82 -77 22 -45 40 -51 170 -60 246 -17 160 -50 -129 -50 -253 0 -265 2
-260 40 3 22 15 139 25 260 11 121 31 271 44 334 l24 115 231 5 c244 6 261 5
261 -25z m628 -154 c30 -385 37 -740 14 -754 -12 -7 -22 -48 -22 -91 0 -169
-17 -180 -271 -180 -216 0 -225 2 -235 45 -50 202 -83 415 -72 465 7 33 14
160 16 282 1 122 8 264 15 315 l12 93 265 0 264 0 14 -175z m552 116 c0 -32
13 -120 28 -195 16 -75 31 -217 35 -316 l6 -180 -255 -6 c-217 -4 -254 -1
-254 25 0 25 28 31 138 31 137 0 139 1 182 70 24 39 56 70 72 70 74 0 38 362
-39 404 -23 12 -59 43 -79 69 -33 42 -54 47 -185 47 -86 0 -149 8 -149 20 0
12 97 20 250 20 l250 0 0 -59z m-1185 -103 c3 -26 -6 -138 -20 -248 l-26 -200
-116 7 c-328 20 -315 445 15 485 133 16 141 14 147 -44z m866 42 c39 0 83 -24
137 -75 173 -162 93 -386 -147 -411 l-111 -11 0 103 c-1 57 -10 166 -21 243
-21 143 -6 184 58 161 14 -6 52 -10 84 -10z m-909 -740 c5 -27 18 -78 29 -111
10 -34 19 -82 19 -107 0 -24 9 -62 21 -83 20 -38 11 -39 -220 -39 l-240 0 -30
59 c-17 32 -31 77 -31 100 0 23 -9 41 -20 41 -11 0 -20 19 -20 41 0 23 -9 59
-21 81 -34 63 -15 68 250 68 l253 0 10 -50z m1284 11 c4 -17 -7 -59 -25 -94
-17 -35 -31 -72 -31 -84 0 -11 -16 -54 -35 -96 l-35 -76 -215 0 c-243 -1 -252
7 -185 166 17 39 30 103 30 141 0 85 -7 83 265 78 184 -4 226 -10 231 -35z"/>
<path d="M4300 2065 c0 -14 -18 -43 -41 -66 -45 -45 -36 -79 22 -79 22 0 40
-7 41 -15 1 -8 5 -45 8 -81 10 -124 95 -105 106 23 9 100 33 91 76 -27 42
-117 70 -119 93 -9 9 44 36 95 61 114 41 33 42 37 9 56 -19 12 -35 39 -35 60
0 56 -37 48 -52 -11 -15 -61 -31 -62 -79 -9 l-37 41 -36 -46 -37 -46 -49 60
c-28 33 -50 49 -50 35z"/>
<path d="M1351 2335 c-13 -38 -31 -186 -49 -385 -9 -99 -27 -253 -42 -343 -23
-145 -22 -167 7 -209 18 -26 33 -63 33 -83 0 -19 9 -51 19 -70 21 -39 71 -156
88 -210 11 -33 69 -35 849 -35 920 0 882 -5 910 120 6 28 33 113 60 190 44
127 47 157 32 330 -48 575 -59 685 -69 702 -19 30 -1828 24 -1838 -7z m578
-77 c-6 -10 -78 -18 -160 -18 -133 0 -151 -5 -179 -47 -17 -26 -52 -56 -77
-68 -42 -19 -48 -38 -59 -193 l-12 -172 87 -90 c86 -89 89 -90 221 -90 98 0
131 -7 125 -25 -8 -24 -450 -49 -504 -28 -25 9 -10 291 31 567 l27 185 230 5
c246 6 287 2 270 -26z m611 -43 c0 -36 9 -96 20 -134 27 -94 29 -702 2 -785
-11 -36 -26 -100 -32 -141 l-12 -75 -235 0 -234 0 -26 115 c-55 249 -60 613
-13 970 l16 115 257 0 257 0 0 -65z m576 -40 c12 -58 28 -177 35 -265 8 -88
17 -187 22 -220 4 -33 10 -82 12 -110 l5 -50 -245 0 c-242 0 -360 35 -155 45
159 9 191 21 213 86 13 37 35 59 59 59 59 0 56 292 -3 367 -23 29 -53 53 -67
53 -14 0 -36 23 -48 50 -21 46 -33 50 -162 50 -77 0 -145 9 -152 20 -8 13 72
20 226 20 l238 0 22 -105z m-1208 -244 c-1 -143 -10 -240 -23 -248 -32 -20
-265 -2 -265 20 0 26 -52 77 -79 77 -12 0 -21 47 -21 117 0 167 187 306 370
273 12 -2 19 -96 18 -239z m986 179 c24 -25 54 -49 66 -53 29 -10 83 -245 58
-254 -11 -4 -44 -32 -74 -64 -51 -53 -113 -69 -247 -61 -33 2 -78 433 -49 478
22 36 199 2 246 -46z m-1011 -688 c9 -25 25 -92 35 -149 10 -57 25 -123 33
-148 14 -45 13 -45 -226 -45 l-240 0 -34 95 c-19 52 -47 123 -63 158 -28 63
-36 113 -20 129 39 38 499 2 515 -40z m1297 14 c0 -18 -9 -39 -20 -46 -11 -7
-20 -30 -20 -51 0 -22 -9 -55 -19 -74 -11 -19 -33 -69 -49 -110 l-30 -75 -223
0 c-223 0 -224 0 -210 45 8 25 23 90 33 145 41 210 26 200 298 200 212 0 240
-4 240 -34z"/>
<path d="M2108 2031 c-7 -16 -29 -35 -51 -42 -51 -16 -37 -55 24 -69 33 -8 51
-28 55 -61 16 -138 104 -169 104 -37 0 45 9 58 40 58 26 0 40 -13 40 -38 0
-130 69 -134 106 -7 20 68 38 95 64 95 20 0 40 11 45 25 5 14 -1 25 -13 25
-11 0 -39 20 -62 45 -42 45 -54 41 -88 -35 -5 -11 -22 -4 -38 15 -35 43 -86
45 -101 5 -16 -42 -46 -37 -59 10 -12 47 -50 53 -66 11z"/>
<path d="M548 1982 c-4 -5 -8 -44 -8 -87 l0 -78 -105 7 -105 6 0 -130 0 -130
107 7 107 7 -7 -107 -7 -107 137 -6 136 -6 -6 106 -7 106 80 0 80 0 0 130 0
130 -80 0 c-80 0 -80 0 -80 79 l0 78 -117 2 c-64 0 -120 -3 -125 -7z"/>
</g>
</svg>
