<?xml version="1.0" standalone="no"?>
<!DOCTYPE svg PUBLIC "-//W3C//DTD SVG 20010904//EN"
 "http://www.w3.org/TR/2001/REC-SVG-20010904/DTD/svg10.dtd">
<svg version="1.0" xmlns="http://www.w3.org/2000/svg"
 width="480.000000pt" height="468.000000pt" viewBox="0 0 480.000000 468.000000"
 preserveAspectRatio="xMidYMid meet">
<metadata>
Created by potrace 1.10, written by Peter Selinger 2001-2011
</metadata>
<g transform="translate(0.000000,468.000000) scale(0.100000,-0.100000)"
fill="#000000" stroke="none">
<path d="M2187 4011 c-26 -4 -55 -15 -64 -24 -16 -16 -16 -20 10 -73 24 -49
30 -54 50 -48 12 5 33 8 46 7 19 -1 77 38 140 93 6 5 -107 54 -122 53 -7 -1
-33 -5 -60 -8z"/>
<path d="M2536 3991 c-15 -17 -16 -25 -7 -53 12 -35 69 -85 108 -95 32 -7 99
20 94 38 -2 8 -4 33 -3 57 0 40 -2 45 -33 58 -52 21 -138 18 -159 -5z"/>
<path d="M1786 3929 c-58 -14 -66 -24 -66 -89 0 -73 13 -85 77 -75 40 6 55 15
101 62 29 31 51 57 50 58 -2 2 -21 14 -42 29 -41 28 -57 30 -120 15z"/>
<path d="M2946 3867 c-31 -81 -21 -99 65 -122 52 -13 56 -13 97 11 50 29 55
57 14 78 -16 8 -34 22 -41 30 -8 9 -23 16 -35 16 -12 0 -31 7 -42 15 -30 23
-40 18 -58 -28z"/>
<path d="M1432 3763 c-7 -3 -21 -22 -32 -44 -11 -21 -34 -46 -51 -54 -48 -25
-34 -47 38 -64 53 -12 67 -12 99 0 38 14 40 17 68 81 20 49 13 66 -32 73 -21
4 -46 8 -57 10 -11 1 -26 1 -33 -2z"/>
<path d="M3325 3683 c-32 -5 -65 -29 -65 -47 0 -6 14 -19 30 -28 17 -9 30 -25
30 -35 0 -10 7 -29 16 -42 15 -21 23 -23 80 -19 71 4 100 23 90 55 -4 11 -17
25 -30 31 -13 6 -32 28 -42 49 -20 40 -39 46 -109 36z"/>
<path d="M1174 3485 c-10 -8 -31 -15 -46 -15 -19 0 -32 -9 -48 -35 -21 -34
-21 -35 -3 -91 9 -31 24 -59 32 -62 8 -3 26 9 44 31 16 21 35 37 42 37 7 0 23
8 35 18 22 17 22 18 5 75 -17 59 -28 67 -61 42z"/>
<path d="M3593 3378 c-31 -39 -21 -111 18 -123 11 -4 27 -18 36 -31 25 -39 50
-48 79 -29 21 14 24 23 24 78 0 76 -7 87 -56 98 -22 4 -51 11 -65 14 -16 4
-29 2 -36 -7z"/>
<path d="M951 3162 c-6 -12 -29 -27 -51 -33 -53 -16 -59 -25 -66 -96 -5 -49
-3 -62 11 -77 37 -36 126 13 156 86 13 32 2 86 -24 122 -14 19 -15 19 -26 -2z"/>
<path d="M3833 3040 c-25 -10 -27 -18 -24 -95 3 -70 8 -81 39 -94 24 -10 34
-8 74 14 69 38 76 51 39 69 -22 12 -32 26 -37 51 -6 33 -36 66 -59 64 -5 0
-20 -4 -32 -9z"/>
<path d="M2228 3027 c-18 -7 -20 -13 -14 -70 4 -34 9 -174 11 -312 6 -270 12
-319 44 -342 20 -14 22 -23 20 -131 -1 -67 3 -129 9 -144 11 -27 15 -28 77
-28 62 0 65 1 71 28 3 15 9 37 14 49 6 14 5 44 -1 79 -12 64 -7 84 20 84 12 0
21 9 26 28 3 15 10 173 15 352 5 179 11 339 14 355 11 54 2 57 -148 59 -76 0
-146 -2 -158 -7z m172 -366 c0 -120 -5 -211 -12 -236 l-12 -40 -7 30 c-8 38
-11 428 -3 449 5 13 9 14 20 5 11 -9 14 -53 14 -208z"/>
<path d="M782 2793 c-7 -3 -19 -21 -28 -41 -8 -21 -27 -46 -41 -58 -24 -19
-25 -24 -15 -53 6 -17 9 -37 6 -44 -3 -8 14 -22 44 -36 77 -36 92 -21 105 104
4 38 -17 117 -33 125 -10 6 -20 10 -22 9 -2 0 -9 -3 -16 -6z"/>
<path d="M3916 2634 c-21 -21 -22 -122 -1 -151 12 -18 25 -21 70 -21 72 1 90
19 81 81 -7 47 -21 65 -73 91 -40 20 -57 20 -77 0z"/>
<path d="M3978 2382 c-54 -3 -62 -13 -72 -82 -4 -29 -2 -60 7 -85 13 -37 17
-40 53 -40 21 0 44 -4 51 -8 8 -5 19 6 33 34 18 34 21 51 15 100 -8 71 -24 85
-87 81z"/>
<path d="M695 2346 c-10 -14 -18 -55 -21 -99 -6 -94 5 -110 74 -103 83 7 91
15 94 98 3 54 -12 75 -58 84 -20 4 -36 13 -39 25 -9 26 -31 24 -50 -5z"/>
<path d="M3891 1947 c-10 -24 -30 -51 -45 -60 l-26 -17 26 -51 c18 -33 31 -48
41 -45 7 3 22 0 33 -6 38 -24 80 44 80 132 0 70 -12 90 -56 90 -31 0 -36 -4
-53 -43z"/>
<path d="M763 1933 c-18 -44 -14 -152 6 -177 17 -20 109 -22 135 -3 15 11 17
22 11 70 -6 50 -11 60 -35 72 -16 8 -38 28 -50 45 -28 40 -48 38 -67 -7z"/>
<path d="M2227 1818 c-8 -5 -12 -48 -12 -130 0 -68 -4 -130 -8 -139 -5 -10 -2
-22 7 -32 13 -13 42 -15 156 -15 176 1 177 2 160 91 -11 54 -11 79 -1 133 17
96 15 97 -155 98 -75 1 -141 -2 -147 -6z"/>
<path d="M3743 1581 c-17 -11 -34 -28 -37 -39 -4 -11 -15 -27 -26 -37 -22 -20
-26 -55 -10 -85 8 -15 20 -18 70 -16 34 2 66 8 72 14 6 6 14 30 18 54 4 24 10
50 14 59 7 16 -37 69 -58 69 -6 0 -25 -9 -43 -19z"/>
<path d="M926 1574 c-11 -10 -16 -34 -16 -75 0 -50 4 -64 25 -84 13 -14 35
-25 49 -25 14 0 28 -4 31 -10 14 -23 46 -10 61 25 23 56 18 83 -19 105 -18 11
-43 33 -55 50 -25 33 -52 38 -76 14z"/>
<path d="M3462 1215 c-56 -61 -64 -88 -34 -125 18 -22 21 -22 73 -10 72 18 89
38 89 109 0 63 -11 81 -50 81 -18 0 -41 -16 -78 -55z"/>
<path d="M1170 1241 c-5 -11 -10 -43 -10 -71 0 -47 3 -52 31 -68 18 -9 47 -29
64 -44 18 -16 35 -28 39 -28 12 0 46 80 46 108 0 29 -23 55 -87 100 -40 27
-69 28 -83 3z"/>
<path d="M1505 1006 c-15 -11 -19 -27 -20 -72 0 -63 -4 -59 88 -98 35 -15 41
-15 71 -1 57 27 97 75 64 75 -7 0 -49 25 -92 55 -44 30 -82 55 -86 55 -3 0
-15 -6 -25 -14z"/>
<path d="M3160 999 c-78 -47 -105 -122 -56 -154 19 -13 31 -14 77 -4 69 15 89
37 89 99 0 79 -41 101 -110 59z"/>
<path d="M2784 844 c-53 -26 -104 -79 -104 -108 0 -40 34 -56 107 -49 75 7 90
21 94 87 3 46 1 51 -26 68 -36 21 -32 21 -71 2z"/>
<path d="M1897 813 c-18 -36 -28 -86 -19 -99 25 -39 135 -46 189 -13 19 12 33
25 31 29 -2 4 -22 28 -44 52 -36 39 -49 46 -92 52 -49 6 -52 5 -65 -21z"/>
<path d="M2346 779 c-27 -4 -53 -14 -58 -21 -10 -15 -1 -94 13 -120 10 -19 23
-22 84 -18 48 2 78 27 93 77 13 43 2 70 -34 83 -28 11 -29 11 -98 -1z"/>
</g>
</svg>
