<?xml version="1.0" standalone="no"?>
<!DOCTYPE svg PUBLIC "-//W3C//DTD SVG 20010904//EN"
 "http://www.w3.org/TR/2001/REC-SVG-20010904/DTD/svg10.dtd">
<svg version="1.0" xmlns="http://www.w3.org/2000/svg"
 width="486.000000pt" height="462.000000pt" viewBox="0 0 486.000000 462.000000"
 preserveAspectRatio="xMidYMid meet">
<metadata>
Created by potrace 1.10, written by Peter Selinger 2001-2011
</metadata>
<g transform="translate(0.000000,462.000000) scale(0.100000,-0.100000)"
fill="#000000" stroke="none">
<path d="M2256 4025 c-11 -8 -28 -15 -37 -15 -21 0 -59 -45 -59 -70 0 -9 9
-25 20 -35 36 -33 240 -7 240 31 0 15 -114 104 -133 104 -6 0 -21 -7 -31 -15z"/>
<path d="M2650 4002 c-48 -4 -75 -21 -83 -53 -7 -26 25 -59 57 -59 14 0 36 -4
49 -9 25 -10 119 11 145 31 28 24 2 66 -48 77 -19 4 -44 10 -55 13 -11 2 -40
3 -65 0z"/>
<path d="M1866 3945 c-9 -14 -33 -29 -55 -35 -53 -14 -69 -60 -33 -93 43 -40
232 -2 232 46 0 12 -102 107 -116 107 -7 0 -19 -11 -28 -25z"/>
<path d="M2986 3895 c-21 -22 -20 -61 3 -81 10 -9 35 -32 56 -52 34 -32 40
-34 83 -28 71 10 103 48 62 74 -11 7 -20 21 -20 31 0 10 -8 29 -18 41 -25 31
-140 41 -166 15z"/>
<path d="M1545 3760 c-11 -5 -32 -9 -47 -9 -47 -1 -67 -32 -64 -95 3 -64 18
-86 56 -86 21 0 30 7 39 28 7 16 27 36 46 45 51 24 59 48 32 88 -25 37 -34 41
-62 29z"/>
<path d="M3395 3688 c-51 -60 -52 -72 -13 -120 34 -41 38 -43 89 -43 52 0 53
1 67 37 21 55 10 82 -37 97 -22 6 -49 23 -59 36 l-20 25 -27 -32z"/>
<path d="M1205 3498 c-69 -24 -110 -99 -86 -157 17 -40 39 -43 105 -13 61 28
61 29 71 95 6 38 4 48 -14 66 -23 23 -32 24 -76 9z"/>
<path d="M3646 3405 c-17 -17 -23 -100 -8 -121 4 -5 25 -21 47 -34 22 -13 47
-32 56 -43 16 -19 17 -19 43 19 32 48 33 67 1 132 -23 48 -28 52 -59 52 -19 0
-41 3 -49 6 -8 3 -22 -2 -31 -11z"/>
<path d="M964 3161 c-9 -10 -31 -36 -50 -56 -36 -39 -41 -63 -23 -113 13 -37
36 -48 59 -27 9 8 28 15 43 15 16 0 33 10 47 27 18 23 20 35 14 87 -4 34 -11
67 -17 74 -14 18 -55 15 -73 -7z"/>
<path d="M2261 3076 c-9 -11 -10 -39 -2 -113 5 -54 10 -193 10 -309 0 -216 5
-251 42 -290 17 -18 20 -38 23 -145 4 -157 8 -166 80 -164 31 0 59 5 64 10 17
19 30 100 25 152 -5 45 -3 55 16 70 36 31 51 160 51 448 0 154 4 264 11 283 7
22 7 36 -1 51 -10 20 -19 21 -159 21 -116 0 -151 -3 -160 -14z m169 -158 c15
-19 19 -44 20 -138 1 -63 2 -122 1 -130 -6 -99 -10 -130 -23 -154 -11 -21 -17
-25 -23 -16 -18 29 -16 460 2 460 3 0 13 -10 23 -22z"/>
<path d="M3893 3078 c-6 -7 -17 -33 -25 -58 -12 -37 -12 -55 -2 -104 6 -32 17
-62 23 -66 18 -11 114 0 130 15 10 10 12 27 7 68 -6 49 -10 56 -37 68 -17 7
-42 29 -55 51 -27 43 -28 43 -41 26z"/>
<path d="M811 2773 c-14 -12 -25 -36 -30 -73 -9 -51 -7 -59 22 -112 17 -32 36
-58 42 -58 5 0 21 24 34 53 31 66 30 150 -2 185 -25 27 -38 28 -66 5z"/>
<path d="M3964 2619 c-13 -15 -16 -30 -11 -70 7 -61 15 -72 72 -100 49 -24 71
-21 84 14 14 36 5 136 -14 157 -23 25 -108 25 -131 -1z"/>
<path d="M4001 2350 c-36 -27 -40 -33 -30 -51 6 -11 8 -27 5 -34 -7 -19 28
-60 64 -75 25 -10 34 -10 55 4 22 15 25 23 25 82 0 36 -5 74 -10 85 -16 28
-60 24 -109 -11z"/>
<path d="M775 2363 c-41 -6 -55 -28 -55 -86 0 -62 12 -84 52 -92 18 -4 43 -18
55 -33 l22 -26 17 39 c21 49 24 166 5 189 -13 16 -34 17 -96 9z"/>
<path d="M3956 1965 c-14 -13 -26 -35 -26 -49 0 -13 -12 -38 -26 -55 l-25 -30
32 -20 c78 -48 122 -34 132 42 3 24 9 50 12 59 7 17 -39 78 -59 78 -7 0 -25
-11 -40 -25z"/>
<path d="M811 1951 c-28 -28 -22 -128 9 -153 12 -10 28 -18 35 -18 8 0 23 -12
34 -26 26 -33 51 -28 67 16 28 78 3 148 -66 182 -45 22 -56 22 -79 -1z"/>
<path d="M2267 1870 c-14 -17 -16 -277 -3 -298 5 -8 50 -12 155 -12 177 0 179
1 160 83 -11 51 -9 135 5 182 3 11 -1 29 -9 39 -13 17 -29 19 -155 20 -115 1
-144 -2 -153 -14z"/>
<path d="M3799 1592 c-9 -15 -33 -53 -53 -86 -20 -32 -36 -64 -36 -72 0 -23
36 -39 91 -39 l53 0 19 50 c10 28 21 57 24 67 7 22 -45 108 -65 108 -10 0 -24
-12 -33 -28z"/>
<path d="M969 1559 c-14 -26 -6 -91 14 -122 8 -13 36 -34 61 -47 l46 -25 22
23 c18 18 22 32 20 74 -3 68 -18 88 -78 104 -66 18 -72 17 -85 -7z"/>
<path d="M3519 1234 c-44 -22 -46 -25 -53 -76 -8 -67 13 -90 79 -84 55 4 61 8
85 63 26 59 25 88 -2 107 -29 21 -53 18 -109 -10z"/>
<path d="M1212 1228 c-23 -23 -14 -58 22 -79 19 -11 39 -33 46 -49 16 -39 44
-45 110 -23 62 20 75 43 35 61 -15 7 -33 28 -42 50 -8 20 -20 40 -27 44 -18
12 -131 9 -144 -4z"/>
<path d="M3202 999 c-23 -4 -47 -11 -52 -14 -6 -3 -10 -34 -10 -69 0 -50 4
-67 20 -81 18 -17 21 -17 62 0 50 20 75 40 94 77 19 37 18 54 -8 78 -23 21
-38 23 -106 9z"/>
<path d="M1575 993 c-49 -12 -60 -53 -21 -78 13 -9 30 -30 37 -46 6 -17 23
-35 36 -40 31 -11 113 0 136 19 26 23 21 40 -18 63 -19 12 -35 27 -35 35 0 8
-9 23 -20 34 -20 20 -66 25 -115 13z"/>
<path d="M2809 835 c-71 -19 -72 -20 -67 -87 5 -69 14 -78 75 -74 34 2 51 10
81 38 20 20 47 39 59 42 47 15 38 62 -16 75 -71 18 -87 19 -132 6z"/>
<path d="M1930 821 c-24 -47 0 -92 74 -135 46 -27 78 -25 103 5 18 24 14 108
-8 130 -28 28 -154 28 -169 0z"/>
<path d="M2344 745 c-30 -30 -30 -48 -1 -76 20 -19 30 -21 102 -16 101 6 137
21 133 56 -4 36 -48 54 -137 57 -66 2 -76 0 -97 -21z"/>
</g>
</svg>
