<?xml version="1.0" standalone="no"?>
<!DOCTYPE svg PUBLIC "-//W3C//DTD SVG 20010904//EN"
 "http://www.w3.org/TR/2001/REC-SVG-20010904/DTD/svg10.dtd">
<svg version="1.0" xmlns="http://www.w3.org/2000/svg"
 width="300.000000pt" height="144.000000pt" viewBox="0 0 300.000000 144.000000"
 preserveAspectRatio="xMidYMid meet">
<metadata>
Created by potrace 1.10, written by Peter Selinger 2001-2011
</metadata>
<g transform="translate(0.000000,144.000000) scale(0.050000,-0.050000)"
fill="#646cff" stroke="none">
<path d="M488 2445 c-13 -8 -28 -87 -34 -175 -6 -88 -21 -236 -33 -330 -13
-93 -33 -242 -44 -330 -29 -221 -14 -381 74 -790 17 -82 39 -195 47 -250 9
-55 21 -113 27 -130 7 -16 17 -55 24 -85 l12 -55 1067 0 c1180 0 1099 -10
1119 140 7 50 27 153 44 230 18 77 40 185 49 240 55 313 66 362 84 384 11 13
13 35 4 49 -14 23 -47 296 -88 727 -10 110 -26 241 -34 290 l-16 90 -1140 5
c-627 2 -1150 -2 -1162 -10z m752 -105 c0 -37 -13 -40 -209 -40 l-210 0 -32
-62 c-18 -34 -61 -74 -99 -89 -82 -34 -87 -51 -93 -284 -5 -189 4 -216 71
-228 21 -4 45 -23 55 -42 9 -19 25 -51 34 -70 15 -29 48 -35 195 -37 238 -2
227 1 210 -63 l-15 -55 -343 -5 -344 -6 0 116 c0 63 10 172 21 241 11 70 29
209 41 310 11 101 25 222 31 269 l11 85 338 0 c325 0 338 -2 338 -40z m776
-215 c13 -140 24 -338 24 -439 0 -101 9 -189 20 -196 11 -7 20 -61 20 -120 0
-59 -9 -113 -20 -120 -11 -7 -20 -65 -20 -129 0 -65 -13 -188 -30 -274 -16
-86 -30 -211 -30 -278 0 -169 -1 -169 -333 -169 -330 0 -294 -32 -327 290 -12
121 -32 270 -44 330 -22 113 -25 593 -4 770 6 55 16 210 22 345 l11 245 343 0
343 0 25 -255z m704 203 c0 -29 13 -144 29 -255 16 -112 33 -261 38 -333 6
-71 16 -186 24 -255 l15 -126 -338 6 -338 5 0 60 0 60 190 0 c179 0 190 2 196
43 7 51 58 100 114 111 37 7 40 21 35 207 -6 224 -23 272 -104 302 -31 12 -69
48 -84 79 -27 57 -30 58 -222 64 -179 5 -195 9 -195 45 0 37 15 39 320 39
l320 0 0 -52z m-1516 -133 c10 -30 -19 -573 -33 -609 -24 -64 -332 -29 -357
40 -7 19 -41 51 -75 70 l-62 34 12 149 c15 169 18 177 81 201 25 9 58 45 73
79 30 67 340 99 361 36z m1273 -72 c135 -131 190 -423 79 -423 -22 0 -57 -36
-88 -91 -19 -33 -44 -39 -170 -39 l-148 0 -12 140 c-7 77 -19 223 -28 325
l-16 185 142 0 141 0 100 -97z m-1303 -985 c13 -81 24 -196 25 -254 0 -59 9
-122 18 -140 10 -19 23 -104 29 -190 l11 -155 -314 5 -313 6 -5 50 c-3 28 -15
85 -27 128 -20 74 -40 168 -76 372 -9 50 -28 131 -43 182 -42 151 -48 148 333
146 l338 -1 24 -149z m1646 108 c0 -24 -9 -49 -20 -56 -11 -7 -20 -41 -20 -76
0 -35 -14 -108 -30 -162 -17 -54 -30 -128 -30 -164 0 -36 -9 -71 -20 -78 -11
-7 -20 -48 -20 -92 0 -44 -13 -110 -29 -149 l-29 -69 -280 0 c-315 0 -304 -5
-280 130 21 118 55 406 70 590 6 72 13 139 17 150 14 48 671 24 671 -24z"/>
<path d="M1436 2027 c-4 -53 -16 -75 -43 -79 -83 -12 -61 -68 27 -68 55 0 59
-6 72 -101 18 -138 91 -140 110 -2 16 121 98 165 98 53 0 -169 97 -199 131
-40 17 82 29 99 65 100 56 0 61 34 9 61 -29 15 -36 30 -24 51 9 16 9 42 0 57
-26 42 -77 10 -85 -53 -9 -78 -83 -79 -92 -1 -10 84 -104 58 -104 -29 0 -22
-15 -36 -38 -36 -41 0 -62 37 -62 112 0 81 -57 58 -64 -25z"/>
<path d="M3217 2415 c-14 -25 -31 -130 -38 -235 -12 -176 -28 -313 -82 -702
-14 -102 -14 -177 -1 -230 21 -80 73 -327 103 -488 18 -95 81 -392 93 -435 5
-20 231 -24 1080 -20 l1074 5 27 100 c16 55 37 150 47 210 46 273 81 445 122
602 23 92 23 164 -1 333 -70 489 -81 588 -81 696 0 77 -11 136 -31 165 l-31
44 -1128 0 -1129 0 -24 -45z m753 -75 c0 -24 -41 -32 -208 -40 -181 -9 -211
-15 -230 -50 -30 -55 -93 -110 -124 -110 -44 0 -63 -61 -78 -242 -17 -209 -6
-253 66 -262 41 -5 58 -21 73 -71 23 -78 90 -97 278 -78 152 15 190 -3 157
-76 l-23 -51 -339 0 c-390 0 -368 -12 -340 193 22 165 50 428 70 647 6 72 15
141 19 155 13 41 679 26 679 -15z m757 25 c14 -24 32 -277 35 -495 2 -110 11
-210 21 -222 22 -29 28 -454 6 -489 -9 -15 -23 -99 -31 -188 -7 -88 -26 -253
-40 -366 l-25 -205 -305 0 -305 0 -8 125 c-5 69 -26 247 -47 395 -44 316 -46
527 -8 1065 l28 395 335 0 c184 0 339 -7 344 -15z m737 -105 c13 -107 31 -266
75 -669 27 -248 48 -233 -331 -227 l-318 6 -7 48 c-9 66 22 79 167 67 155 -12
230 4 231 50 1 48 47 105 85 105 52 0 62 39 56 226 -6 219 -15 246 -103 289
-38 19 -81 60 -95 90 -26 54 -29 55 -215 55 -176 0 -189 3 -189 41 0 39 10 40
315 35 l315 -6 14 -110z m-1514 -115 c-7 -41 -20 -187 -27 -325 l-13 -250
-153 -6 -154 -6 -54 71 c-29 39 -66 71 -80 71 -82 0 -53 335 33 385 32 18 68
56 81 84 23 49 30 51 202 51 l179 0 -14 -75z m1205 40 c16 -44 60 -89 113
-115 87 -44 107 -370 23 -370 -15 0 -47 -31 -71 -70 -43 -70 -44 -70 -192 -70
l-148 0 -3 75 c-2 41 -2 89 -1 105 1 17 -11 129 -27 250 -16 121 -29 222 -29
225 -1 29 323 0 335 -30z m-1260 -913 c5 -6 18 -103 29 -216 31 -345 51 -523
66 -591 l15 -65 -312 0 c-347 0 -353 3 -353 142 0 36 -8 93 -18 127 -33 110
-82 340 -82 381 -1 22 -14 79 -31 126 -16 48 -26 93 -21 100 9 16 691 12 707
-4z m1658 2 c7 -7 -3 -57 -20 -112 -18 -55 -33 -120 -33 -144 0 -25 -8 -73
-18 -107 -39 -131 -82 -344 -82 -402 0 -102 -22 -109 -336 -109 l-289 0 14 65
c7 36 21 137 30 225 9 88 27 219 39 290 12 72 22 168 22 213 0 46 9 87 20 90
36 12 640 3 653 -9z"/>
<path d="M4169 2074 c-6 -14 -8 -47 -5 -74 5 -39 -4 -50 -40 -52 -100 -6 -76
-68 26 -68 67 0 68 -2 74 -95 9 -145 82 -149 116 -6 38 161 67 162 105 3 34
-141 96 -140 122 3 13 72 26 95 54 95 51 0 72 41 32 64 -19 10 -33 43 -33 76
0 107 -62 89 -91 -26 -17 -69 -72 -65 -89 6 -16 66 -63 64 -96 -5 -37 -77 -74
-68 -102 25 -24 80 -55 103 -73 54z"/>
</g>
</svg>
