<?xml version="1.0" standalone="no"?>
<!DOCTYPE svg PUBLIC "-//W3C//DTD SVG 20010904//EN"
 "http://www.w3.org/TR/2001/REC-SVG-20010904/DTD/svg10.dtd">
<svg version="1.0" xmlns="http://www.w3.org/2000/svg"
 width="300.000000pt" height="170.000000pt" viewBox="0 0 300.000000 170.000000"
 preserveAspectRatio="xMidYMid meet">
<metadata>
Created by potrace 1.10, written by Peter Selinger 2001-2011
</metadata>
<g transform="translate(0.000000,170.000000) scale(0.050000,-0.050000)"
fill="#aac7d8" stroke="none">
<path d="M1436 3050 c-30 -28 -84 -71 -120 -96 -97 -66 -544 -400 -556 -414
-5 -6 -66 -55 -135 -107 l-125 -95 0 -628 c0 -721 -16 -667 196 -654 162 10
187 93 29 96 -47 1 -91 7 -97 14 -9 9 -16 921 -8 1116 0 7 142 117 315 243
173 127 342 254 375 283 152 132 224 173 250 142 14 -16 217 -174 452 -351
l427 -321 5 -534 c7 -640 19 -584 -122 -584 -63 0 -125 -11 -138 -24 -19 -19
-24 -15 -24 18 0 24 -23 70 -51 104 -41 49 -47 68 -30 100 56 106 -6 202 -130
202 -95 0 -137 -59 -122 -169 10 -77 6 -93 -27 -111 -22 -12 -40 -39 -40 -60
0 -20 -9 -43 -20 -50 -11 -7 -21 -77 -21 -156 -2 -127 -33 -289 -38 -190 0 19
-24 59 -52 89 -32 34 -48 70 -41 94 13 50 -28 113 -75 113 -47 0 -116 -83 -92
-111 23 -28 1 -109 -31 -109 -54 0 -67 -167 -18 -237 20 -29 28 -67 21 -102
-16 -82 27 -133 85 -102 34 18 51 18 72 1 45 -37 70 -5 70 90 0 83 44 147 120
174 17 6 30 63 85 371 l22 125 104 0 c114 0 128 -14 130 -127 2 -160 71 -403
116 -409 60 -9 71 36 36 139 -16 48 -32 119 -36 157 l-7 70 160 1 c229 1 210
-58 210 647 l0 616 -47 48 c-25 26 -157 129 -292 228 -135 99 -274 205 -309
235 -34 30 -68 55 -74 55 -7 0 -75 49 -150 110 -157 125 -177 130 -252 60z
m553 -1603 c16 -43 -17 -76 -59 -60 -25 10 -27 21 -10 53 26 49 51 51 69 7z
m-429 -682 c-1 -199 -82 -209 -106 -12 -13 115 -7 127 59 127 44 0 47 -8 47
-115z"/>
<path d="M4339 3013 c-61 -46 -132 -104 -158 -128 -27 -25 -54 -45 -62 -45 -7
0 -33 -17 -57 -38 -25 -22 -170 -132 -323 -245 l-279 -206 0 -646 0 -645 1015
5 1015 5 5 634 6 635 -156 115 c-85 63 -186 140 -225 171 -84 68 -71 58 -270
204 -192 142 -182 135 -273 210 -92 77 -104 76 -238 -26z m224 -108 c97 -80
97 -80 467 -360 l340 -257 5 -565 6 -564 -466 6 -465 5 -5 344 -6 343 -61 52
c-56 47 -76 51 -249 51 -329 0 -349 -27 -349 -475 0 -366 9 -340 -114 -326
l-96 11 -5 555 -6 554 196 144 c107 79 200 149 205 155 6 7 46 37 90 67 44 29
152 112 240 183 185 149 186 149 273 77z m-244 -1103 c37 -52 41 -87 41 -351
l0 -292 -235 5 -235 6 0 303 c0 382 3 387 232 387 149 0 157 -2 197 -58z"/>
<path d="M4649 2154 c-6 -15 -8 -129 -5 -255 l6 -229 124 -6 124 -6 6 229 c8
310 15 293 -126 293 -80 0 -123 -9 -129 -26z m187 -229 c-5 -140 -10 -155 -46
-155 -35 0 -41 15 -46 128 -7 153 2 182 56 182 39 0 41 -10 36 -155z"/>
<path d="M5009 2154 c-6 -15 -8 -129 -5 -255 l6 -229 97 -6 c144 -9 153 6 153
254 0 140 -8 222 -24 238 -33 33 -214 31 -227 -2z m154 -204 c2 -71 4 -141 5
-155 1 -14 -20 -25 -48 -25 -50 0 -86 195 -52 283 34 88 92 26 95 -103z"/>
<path d="M1713 2167 c-16 -17 -17 -432 -1 -475 14 -37 148 -44 209 -11 47 25
60 430 15 475 -25 25 -200 34 -223 11z m163 -242 c-5 -140 -10 -155 -46 -155
-35 0 -41 15 -46 128 -7 153 2 182 56 182 39 0 41 -10 36 -155z"/>
<path d="M2049 2155 c-6 -15 -8 -130 -5 -256 l6 -229 120 0 120 0 0 250 0 250
-115 6 c-83 4 -118 -2 -126 -21z m161 -235 c0 -137 -4 -150 -40 -150 -41 0
-71 207 -41 284 34 90 81 13 81 -134z"/>
<path d="M2940 1892 l0 -88 -105 3 -105 3 -6 -107 -6 -106 100 5 c125 7 131 1
124 -122 l-5 -100 114 0 115 0 -13 110 -13 110 91 0 91 0 -6 105 -6 105 -80 0
-80 0 6 85 7 85 -112 0 -111 0 0 -88z"/>
<path d="M945 1939 c-111 -44 -182 -387 -94 -460 47 -39 64 -3 73 155 10 194
45 226 246 226 197 0 226 -31 234 -250 6 -148 9 -160 50 -166 131 -19 71 431
-65 493 -59 27 -378 29 -444 2z"/>
<path d="M1014 1620 c-37 -44 -46 -150 -14 -170 35 -22 21 -39 -61 -77 l-79
-36 0 -186 c0 -162 5 -189 42 -223 38 -34 41 -55 35 -230 -5 -142 1 -201 21
-225 59 -71 72 -4 72 360 l0 357 -45 -2 c-50 -1 -64 65 -21 108 38 38 290 32
312 -8 35 -62 5 -135 -38 -96 -46 41 -42 78 -42 -378 -1 -370 3 -396 54 -354
26 21 29 56 18 204 -13 167 -11 182 33 242 114 154 69 491 -66 493 -40 1 -48
33 -11 46 32 10 31 143 -2 183 -39 47 -165 42 -208 -8z m124 -131 c-45 -45
-98 13 -57 62 23 28 29 28 57 0 28 -28 28 -34 0 -62z"/>
<path d="M1089 874 c-22 -56 1 -421 26 -429 19 -6 25 47 25 223 0 212 -19 289
-51 206z"/>
<path d="M1834 745 c-18 -31 -35 -238 -23 -271 17 -44 62 -44 72 1 25 108 -16
328 -49 270z"/>
<path d="M1934 747 c-21 -21 -16 -253 6 -287 36 -54 61 19 55 158 -5 118 -26
164 -61 129z"/>
<path d="M2033 726 c-21 -75 -11 -241 16 -278 41 -55 54 -7 47 162 -6 132 -40
196 -63 116z"/>
</g>
</svg>
