<?xml version="1.0" standalone="no"?>
<!DOCTYPE svg PUBLIC "-//W3C//DTD SVG 20010904//EN"
 "http://www.w3.org/TR/2001/REC-SVG-20010904/DTD/svg10.dtd">
<svg version="1.0" xmlns="http://www.w3.org/2000/svg"
 width="184.000000pt" height="184.000000pt" viewBox="0 0 184.000000 184.000000"
 preserveAspectRatio="xMidYMid meet">
<metadata>
Created by potrace 1.10, written by Peter Selinger 2001-2011
</metadata>
<g transform="translate(0.000000,184.000000) scale(0.050000,-0.050000)"
fill="#000000" stroke="none">
<path d="M1648 3272 c-23 -61 1 -102 65 -108 69 -7 133 41 123 93 -9 45 -171
58 -188 15z"/>
<path d="M2009 3271 c-59 -44 -15 -100 83 -106 122 -8 151 23 80 85 -66 57
-108 62 -163 21z"/>
<path d="M1315 3203 c-19 -20 -35 -51 -35 -69 0 -39 79 -87 98 -60 6 11 28 25
48 32 26 10 35 30 30 69 -7 67 -87 83 -141 28z"/>
<path d="M2350 3160 c-39 -62 101 -152 170 -110 27 17 25 77 -4 106 -29 29
-149 32 -166 4z"/>
<path d="M1004 3040 c-59 -49 -53 -127 10 -136 61 -9 131 60 123 119 -9 61
-72 69 -133 17z"/>
<path d="M2666 2987 c-24 -62 38 -137 113 -137 91 0 98 38 21 110 -72 67 -115
76 -134 27z"/>
<path d="M713 2768 c-41 -56 -18 -108 48 -108 46 0 120 93 106 131 -18 47
-113 33 -154 -23z"/>
<path d="M2932 2728 c-21 -54 11 -130 62 -150 64 -24 86 -9 86 60 0 93 -119
166 -148 90z"/>
<path d="M542 2512 c-30 -36 -21 -156 12 -167 41 -13 109 73 102 131 -7 62
-75 84 -114 36z"/>
<path d="M1710 2500 c-27 -43 17 -764 52 -856 38 -99 165 -53 183 66 18 116
51 750 40 781 -7 23 -262 31 -275 9z"/>
<path d="M3113 2427 c-48 -49 32 -205 94 -181 45 17 46 165 1 182 -41 16 -78
15 -95 -1z"/>
<path d="M428 2185 c-6 -19 -19 -54 -28 -76 -11 -29 -5 -56 20 -90 l37 -48 41
50 c53 63 54 151 3 178 -52 28 -60 27 -73 -14z"/>
<path d="M3229 2094 c-30 -78 -1 -184 51 -184 45 0 50 8 50 78 0 87 -77 169
-101 106z"/>
<path d="M374 1828 c-37 -38 -14 -149 37 -172 65 -30 92 3 84 104 -5 69 -78
110 -121 68z"/>
<path d="M3224 1755 c10 -136 116 -142 116 -6 0 88 -2 91 -61 91 -60 0 -61 -2
-55 -85z"/>
<path d="M3191 1489 c-33 -34 -43 -159 -13 -178 59 -36 132 71 110 160 -14 56
-51 63 -97 18z"/>
<path d="M455 1466 c-44 -11 -45 -72 -3 -137 67 -102 155 -31 102 82 -19 38
-40 68 -49 67 -8 -2 -31 -7 -50 -12z"/>
<path d="M1709 1434 c-6 -16 -8 -86 -5 -156 l6 -128 135 -2 c153 -2 150 -6
147 182 l-2 120 -135 6 c-102 4 -138 -1 -146 -22z"/>
<path d="M3045 1141 c-87 -72 -49 -214 41 -155 78 51 108 129 63 164 -49 36
-50 36 -104 -9z"/>
<path d="M580 1079 c0 -72 39 -119 99 -119 56 0 71 46 38 119 -39 89 -137 89
-137 0z"/>
<path d="M2813 843 c-52 -57 -44 -143 14 -143 52 0 133 76 133 124 0 61 -97
74 -147 19z"/>
<path d="M794 821 c-16 -64 70 -149 134 -133 66 16 69 81 7 133 -60 50 -128
50 -141 0z"/>
<path d="M1097 621 l-47 -37 40 -44 c77 -86 199 -88 177 -3 -21 79 -117 127
-170 84z"/>
<path d="M2503 620 c-59 -49 -47 -140 18 -140 56 0 145 86 136 132 -10 53 -96
57 -154 8z"/>
<path d="M1422 481 c-25 -15 -24 -25 5 -69 40 -61 165 -75 186 -21 28 73 -113
140 -191 90z"/>
<path d="M2153 487 c-51 -52 -11 -127 68 -127 82 0 129 51 104 115 -10 26
-148 35 -172 12z"/>
<path d="M1770 420 c-32 -51 12 -100 91 -100 78 0 137 54 109 100 -16 26 -184
26 -200 0z"/>
</g>
</svg>
