<?xml version="1.0" standalone="no"?>
<!DOCTYPE svg PUBLIC "-//W3C//DTD SVG 20010904//EN"
 "http://www.w3.org/TR/2001/REC-SVG-20010904/DTD/svg10.dtd">
<svg version="1.0" xmlns="http://www.w3.org/2000/svg"
 width="200.000000pt" height="176.000000pt" viewBox="0 0 200.000000 176.000000"
 preserveAspectRatio="xMidYMid meet">
<metadata>
Created by potrace 1.10, written by Peter Selinger 2001-2011
</metadata>
<g transform="translate(0.000000,176.000000) scale(0.050000,-0.050000)"
fill="#646cff" stroke="none">
<path d="M1169 3119 c-7 -12 -10 -86 -6 -165 l7 -144 -334 -5 -334 -6 -41 -58
c-40 -56 -41 -79 -41 -1236 l0 -1180 53 -52 52 -53 1473 1 c1556 0 1508 -3
1559 93 33 62 33 2330 0 2392 -49 92 -60 94 -397 94 l-323 0 3 145 c4 207 7
198 -55 191 -55 -6 -55 -6 -55 -166 l0 -160 -726 -5 -727 -6 3 146 c2 80 2
156 1 170 -1 30 -93 33 -112 4z m-7 -424 c1 -14 3 -56 5 -95 6 -128 113 -115
113 14 l0 96 720 0 c465 0 721 -7 723 -20 1 -11 3 -51 5 -90 4 -126 108 -114
116 13 l6 95 280 -5 c337 -7 353 -17 345 -209 l-5 -115 -1470 0 -1470 0 -6
112 c-11 195 6 207 321 214 146 3 276 8 290 11 14 2 26 -7 27 -21z m2318
-1155 c0 -826 2 -819 -215 -614 -80 76 -80 85 -4 111 57 20 61 28 55 107 -11
149 -216 125 -216 -25 0 -58 -412 -455 -611 -589 -281 -189 -290 -191 -1149
-192 -651 -1 -749 2 -776 30 -28 27 -32 145 -34 962 l-3 930 1477 0 1476 0 0
-720z m-321 -627 c10 -26 55 -76 99 -112 45 -35 78 -71 73 -79 -20 -33 -590
-302 -638 -302 -17 0 -36 -8 -42 -18 -6 -9 -44 -24 -86 -31 -41 -8 -97 -19
-125 -24 l-50 -11 54 47 c30 26 118 87 195 135 81 51 210 163 306 265 182 194
188 198 214 130z m321 -361 c0 -211 -10 -217 -355 -227 -370 -10 -419 4 -235
67 220 74 353 145 480 255 101 89 110 81 110 -95z"/>
<path d="M1540 2065 c-77 -29 -85 -156 -12 -184 85 -33 161 2 168 77 10 93
-63 143 -156 107z"/>
<path d="M1909 2031 c-61 -93 16 -182 130 -152 38 10 53 29 57 75 12 118 -124
174 -187 77z"/>
<path d="M2334 2051 c-59 -44 -39 -153 32 -176 120 -40 210 103 110 174 -55
38 -94 38 -142 2z"/>
<path d="M2758 2055 c-72 -61 -82 -90 -45 -133 53 -62 173 -58 203 7 38 84
-88 184 -158 126z"/>
<path d="M3145 2047 c-99 -69 -24 -194 101 -169 55 12 65 23 71 82 10 108 -77
152 -172 87z"/>
<path d="M701 1636 c-76 -81 -37 -196 65 -196 123 0 179 126 89 201 -60 50
-105 48 -154 -5z"/>
<path d="M1103 1634 c-51 -56 -53 -80 -11 -145 58 -88 179 -61 200 45 24 121
-105 189 -189 100z"/>
<path d="M1524 1649 c-49 -35 -61 -144 -20 -185 37 -37 132 -28 176 16 100
100 -38 251 -156 169z"/>
<path d="M1912 1631 c-76 -116 23 -230 156 -179 37 14 44 129 11 189 -30 57
-126 51 -167 -10z"/>
<path d="M2333 1643 c-46 -51 -43 -156 6 -182 93 -50 181 -2 181 99 0 101
-122 155 -187 83z"/>
<path d="M2745 1655 c-58 -74 -66 -114 -33 -165 63 -96 228 -42 228 76 0 76
-151 145 -195 89z"/>
<path d="M3143 1643 c-81 -71 -37 -203 67 -203 91 0 110 19 110 111 0 124 -88
169 -177 92z"/>
<path d="M677 1191 c-37 -81 11 -171 91 -171 68 0 132 56 131 115 -2 108 -178
152 -222 56z"/>
<path d="M1085 1200 c-59 -94 3 -188 117 -176 78 7 117 88 81 168 -29 64 -160
69 -198 8z"/>
<path d="M1488 1187 c-25 -99 13 -157 102 -157 107 0 157 76 103 158 -50 77
-186 76 -205 -1z"/>
<path d="M1901 1202 c-52 -97 -2 -182 106 -182 79 0 103 39 90 153 -9 75 -159
98 -196 29z"/>
<path d="M2324 1216 c-31 -31 -31 -141 0 -172 66 -66 196 0 196 99 0 66 -35
97 -110 97 -34 0 -73 -11 -86 -24z"/>
<path d="M2712 1191 c-40 -62 -39 -70 7 -126 90 -108 254 -11 197 116 -35 80
-154 86 -204 10z"/>
<path d="M688 793 c-53 -140 68 -246 167 -147 52 52 53 57 24 109 -35 64 -170
91 -191 38z"/>
<path d="M1093 783 c-45 -50 -41 -88 15 -141 94 -89 220 3 173 126 -25 64
-135 73 -188 15z"/>
<path d="M1504 796 c-36 -36 -29 -125 13 -163 74 -68 183 -15 183 90 0 66 -35
97 -110 97 -34 0 -73 -11 -86 -24z"/>
<path d="M1911 776 c-39 -57 -38 -76 8 -131 89 -107 222 6 169 143 -19 50
-139 42 -177 -12z"/>
<path d="M2324 796 c-61 -61 -9 -176 81 -176 37 0 115 74 115 109 0 75 -140
123 -196 67z"/>
</g>
</svg>
