<?xml version="1.0" standalone="no"?>
<!DOCTYPE svg PUBLIC "-//W3C//DTD SVG 20010904//EN"
 "http://www.w3.org/TR/2001/REC-SVG-20010904/DTD/svg10.dtd">
<svg version="1.0" xmlns="http://www.w3.org/2000/svg"
 width="290.000000pt" height="204.000000pt" viewBox="0 0 290.000000 204.000000"
 preserveAspectRatio="xMidYMid meet">
<metadata>
Created by potrace 1.10, written by Peter Selinger 2001-2011
</metadata>
<g transform="translate(0.000000,204.000000) scale(0.050000,-0.050000)"
fill="#000000" stroke="none">
<path d="M732 2683 c-7 -11 -7 -33 -1 -49 8 -19 -6 -33 -40 -42 -52 -13 -70
-50 -26 -54 79 -7 328 8 345 21 33 24 370 27 370 4 0 -13 -64 -24 -155 -27
-209 -8 -191 -44 25 -52 125 -4 173 1 180 20 12 29 251 27 320 -3 22 -10 57
-23 78 -30 36 -11 37 -30 27 -332 -12 -339 3 -391 68 -243 41 92 66 742 29
746 -46 5 -103 -7 -126 -26 -29 -24 -239 -10 -536 34 -286 43 -542 58 -558 33z"/>
<path d="M2440 2650 c0 -40 -10 -50 -50 -50 -31 0 -50 -11 -50 -30 0 -36 368
-45 390 -10 7 11 93 20 191 20 106 0 179 -8 179 -20 0 -12 -70 -20 -169 -20
-159 0 -229 -21 -159 -48 52 -20 345 -13 358 8 19 31 292 23 350 -10 77 -44
100 -37 100 33 0 35 6 58 13 51 23 -23 6 -621 -18 -650 -38 -46 -52 24 -54
269 l-1 224 -63 14 c-76 16 -659 -9 -687 -31 -11 -8 -81 -21 -155 -29 -74 -8
-140 -22 -146 -33 -18 -29 -122 -21 -149 12 -36 43 -135 39 -149 -7 -6 -20
-34 -47 -61 -60 l-50 -22 0 -353 0 -352 80 12 c44 7 118 18 164 25 90 13 338
-16 556 -65 207 -47 462 -31 493 30 13 27 38 57 56 67 17 9 27 26 20 36 -6 10
-15 160 -19 334 l-8 315 -226 -2 c-140 -1 -283 -15 -376 -38 -82 -19 -239 -39
-349 -44 -273 -12 -290 -29 -291 -279 0 -167 4 -185 45 -213 58 -39 18 -98
-41 -61 -39 24 -64 527 -26 527 11 0 33 14 50 31 21 21 78 33 176 36 140 6
273 30 446 80 44 13 209 23 369 23 l289 0 -6 -270 c-4 -148 -8 -292 -9 -319
-4 -74 62 -81 71 -7 4 40 19 58 51 62 25 4 45 19 45 33 0 15 14 32 30 38 26
10 30 65 25 378 l-5 365 -70 -7 c-38 -4 -73 -15 -77 -25 -8 -23 -297 -24 -312
0 -6 10 -106 25 -221 32 -116 8 -216 23 -221 32 -31 49 -329 20 -329 -32z
m911 -670 c-4 -153 -14 -288 -22 -301 -31 -51 -55 27 -64 209 -9 164 -16 193
-48 203 -20 6 -37 29 -37 50 0 44 24 49 83 17 35 -18 39 -16 33 15 -5 21 -20
34 -34 31 -14 -3 -121 -15 -239 -28 -282 -30 -310 -75 -47 -76 200 0 223 -25
216 -232 -4 -93 -12 -175 -19 -181 -23 -24 -342 -5 -384 22 -23 15 -104 32
-181 39 -76 6 -190 16 -253 23 l-115 13 0 176 c0 209 -15 199 305 200 118 0
215 8 215 17 0 10 46 23 102 30 56 6 113 21 126 31 22 18 322 40 357 26 8 -3
11 -131 6 -284z m-650 -342 c-56 -11 -97 -10 -109 2 -13 13 17 19 89 18 l109
-2 -89 -18z m575 -13 c-4 -25 -29 -37 -86 -40 l-80 -6 50 40 c63 51 125 54
116 6z m-186 -25 c8 -12 -24 -19 -84 -17 -99 2 -94 6 58 34 7 2 19 -6 26 -17z"/>
<path d="M2650 2072 c-107 -61 -139 -166 -74 -244 125 -149 367 -5 266 159
-48 77 -136 116 -192 85z m116 -112 c27 -104 -50 -174 -110 -100 -28 34 -30
52 -12 91 28 61 107 67 122 9z"/>
<path d="M4131 2682 c-6 -10 -6 -33 1 -50 9 -23 1 -32 -29 -32 -43 0 -76 -34
-54 -55 19 -20 340 -5 348 16 9 26 383 25 383 -1 0 -12 -67 -20 -160 -20 -129
0 -160 -6 -160 -30 0 -24 33 -30 180 -30 107 0 180 8 180 20 0 12 66 20 159
20 87 0 164 -9 171 -20 7 -11 29 -20 49 -20 44 0 37 -615 -7 -645 -47 -31 -52
-8 -52 223 0 198 -5 240 -32 250 -62 24 -399 11 -496 -18 -54 -17 -128 -30
-164 -30 -36 0 -71 -9 -78 -20 -7 -11 -102 -20 -216 -20 -204 0 -204 0 -243
-59 -27 -40 -45 -51 -55 -35 -56 87 21 131 252 143 87 5 163 17 170 27 7 10
56 19 109 21 53 2 116 14 140 27 27 15 160 26 353 30 235 4 310 11 310 31 0
29 -682 26 -719 -4 -12 -9 -82 -22 -156 -30 -74 -8 -140 -22 -146 -33 -20 -32
-149 -22 -149 12 0 21 -21 30 -70 30 -38 0 -70 -9 -70 -21 0 -11 -21 -41 -47
-65 -46 -42 -48 -57 -55 -384 l-8 -340 80 6 c242 19 640 -5 686 -41 14 -12
132 -25 263 -31 l238 -9 -8 357 c-8 307 -14 359 -41 365 -26 5 -29 -5 -19 -55
15 -67 -1 -142 -30 -142 -11 0 -19 17 -19 38 0 21 -13 43 -30 49 -43 17 -37
43 15 70 41 21 38 23 -25 14 -38 -5 -144 -15 -235 -23 -259 -21 -204 -67 79
-68 93 0 119 -7 135 -39 30 -56 27 -355 -4 -374 -39 -25 -297 -6 -375 26 l-70
30 54 29 c127 67 123 288 -5 288 -22 0 -39 9 -39 20 0 12 -36 2 -80 -20 -130
-66 -113 -229 30 -292 31 -13 15 -19 -67 -24 -60 -3 -118 4 -134 17 -15 12
-70 19 -123 16 l-96 -7 -6 150 c-10 252 -23 240 256 240 132 0 240 8 240 17 0
10 51 24 114 31 62 7 123 21 135 31 12 10 103 20 201 22 l180 5 -2 -318 c-1
-300 9 -364 56 -336 9 6 16 38 16 72 0 51 6 59 41 50 27 -7 46 0 54 23 6 18
24 40 38 49 15 9 27 42 27 74 0 65 34 99 52 51 33 -85 48 24 48 348 0 402 -5
413 -156 350 -75 -32 -315 -40 -333 -11 -6 10 -101 24 -211 32 -110 8 -205 22
-211 32 -15 24 -343 23 -358 0z m1204 -536 c-4 -75 -7 -19 -7 124 0 143 3 204
7 136 4 -68 4 -185 0 -260z m-855 -230 c0 -65 -54 -102 -106 -73 -44 25 -45
129 0 154 49 28 106 -16 106 -81z m-561 -196 c33 0 25 -40 -10 -53 -48 -19
-76 22 -59 87 14 55 15 55 32 11 9 -25 26 -45 37 -45z m1057 -84 c7 -58 -23
-75 -96 -56 l-50 12 45 25 c25 13 45 38 45 55 0 51 49 19 56 -36z m-527 26
c15 -24 -77 -45 -122 -28 -35 14 -10 25 97 44 7 1 19 -6 25 -16z"/>
<path d="M4029 2484 c-87 -14 -98 -23 -67 -55 29 -28 402 -12 433 20 26 25
-258 52 -366 35z"/>
<path d="M564 2445 c6 -30 27 -34 137 -30 353 14 414 65 78 65 -201 0 -221 -3
-215 -35z"/>
<path d="M2251 2462 c-29 -48 47 -61 241 -42 109 10 205 19 213 19 8 1 15 10
15 21 0 25 -453 27 -469 2z"/>
<path d="M1260 2426 c-71 -4 -148 -15 -170 -25 -22 -10 -101 -24 -175 -31 -74
-7 -140 -21 -146 -32 -18 -29 -122 -21 -149 12 -38 45 -141 39 -154 -9 -6 -22
-27 -45 -48 -52 -35 -11 -38 -36 -38 -373 l0 -361 75 16 c145 32 649 5 702
-37 14 -12 128 -25 253 -30 l227 -9 7 68 c5 57 13 66 51 61 36 -5 45 3 45 43
0 31 13 53 34 57 32 6 44 650 13 701 -9 14 -245 15 -527 1z m485 -61 c20 -39
-19 -579 -45 -625 l-28 -50 -14 60 c-7 33 -14 153 -16 266 -2 177 -7 206 -34
200 -26 -5 -32 -52 -35 -326 -3 -291 -6 -320 -38 -317 -19 1 -99 3 -178 5
-168 2 -175 21 -11 25 176 4 185 16 181 268 -2 175 -9 218 -35 233 -44 25 -40
51 10 66 83 27 19 30 -184 9 -317 -34 -335 -73 -34 -77 180 -3 192 -17 192
-236 0 -210 12 -200 -217 -184 -191 14 -295 59 -208 90 144 52 147 224 5 297
-61 32 -172 -18 -189 -83 -23 -92 9 -180 77 -208 l63 -26 -53 -14 c-29 -8 -87
-5 -128 7 -42 11 -118 23 -170 26 -131 7 -136 14 -136 174 0 207 11 215 292
215 124 0 230 8 236 17 6 10 58 24 116 32 58 7 115 22 127 31 11 10 106 21
210 24 257 8 231 46 -31 45 -124 -1 -257 -15 -350 -38 -82 -21 -250 -41 -373
-45 -200 -8 -224 -12 -233 -47 -12 -45 -45 -51 -61 -11 -20 53 59 97 168 95
57 -1 140 7 186 18 46 12 114 25 153 29 38 4 106 17 150 28 44 12 103 25 130
29 94 14 498 13 505 -2z m-689 -389 c53 -53 -5 -160 -77 -141 -39 10 -57 120
-26 152 22 21 77 15 103 -11z m-526 -247 c34 -26 36 -33 10 -49 -60 -39 -108
-8 -85 55 12 32 26 31 75 -6z m550 -67 c0 -24 -99 -37 -160 -21 -46 12 -45 14
20 23 121 17 140 16 140 -2z"/>
</g>
</svg>
