 <svg  version="1.0" xmlns="http://www.w3.org/2000/svg"  width="300.000000pt" height="107.000000pt" viewBox="0 0 300.000000 107.000000"  preserveAspectRatio="xMidYMid meet">  <g transform="translate(0.000000,107.000000) scale(0.050000,-0.050000)" fill="#646cff" stroke="none"> <path d="M2810 1888 c-385 -58 -710 -557 -608 -936 130 -482 563 -731 1010 -581 169 57 177 62 306 189 549 538 67 1442 -708 1328z m332 -98 c808 -279 626 -1417 -218 -1366 -761 47 -892 1106 -166 1349 157 53 266 58 384 17z"/> <path d="M2955 1688 c-36 -36 -12 -68 51 -68 244 0 463 -245 463 -520 3 -625 -842 -721 -1008 -114 -43 156 72 518 145 457 17 -14 51 5 117 67 150 142 145 195 -13 141 -50 -17 -97 -30 -105 -29 -53 9 -69 -3 -45 -32 21 -25 14 -41 -37 -93 -133 -136 -212 -496 -128 -580 14 -14 25 -38 25 -54 0 -184 403 -405 643 -353 578 125 690 842 176 1126 -77 42 -260 76 -284 52z"/> <path d="M4931 1737 c-41 -49 -53 -54 -63 -29 -20 51 -1034 48 -1024 -3 6 -32 47 -35 496 -38 270 -1 496 -4 504 -5 7 -1 -39 -51 -102 -112 l-116 -110 -273 0 -273 0 -72 80 c-71 79 -133 101 -159 58 -17 -27 123 -174 191 -202 72 -30 537 -33 610 -5 33 13 119 88 190 166 72 78 144 142 160 143 54 0 353 -316 314 -331 -47 -18 -51 -450 -4 -489 26 -21 26 -29 0 -67 -38 -54 -39 -194 -1 -244 44 -58 38 -69 -39 -69 l-70 0 0 171 0 170 -194 -5 -194 -6 -1 -160 c-1 -146 -4 -160 -41 -160 -38 0 -40 17 -50 430 -13 578 -48 574 -55 -6 l-6 -436 -84 6 -85 6 0 160 0 160 -155 6 -155 6 0 -171 0 -171 -77 0 c-100 0 -109 12 -51 70 52 52 62 128 24 196 -15 29 -21 140 -18 329 5 281 -4 320 -58 255 -19 -23 -23 -88 -15 -242 9 -184 7 -212 -22 -222 -102 -36 -150 -280 -63 -326 61 -33 48 -60 -30 -60 -49 0 -70 -9 -70 -30 0 -26 110 -30 870 -30 760 0 870 4 870 30 0 21 -21 30 -70 30 -38 0 -70 9 -70 20 0 11 13 20 30 20 16 0 44 22 61 49 61 92 -12 301 -104 301 -20 0 -36 11 -35 25 1 14 3 119 5 234 l3 208 65 7 c90 8 109 96 21 96 -57 0 -320 213 -276 223 11 3 87 5 169 6 126 1 151 7 157 36 9 43 -310 53 -352 11 -18 -18 -31 -14 -59 17 -61 69 -99 70 -154 4z m-926 -1016 c7 -27 -5 -49 -37 -71 -45 -29 -48 -29 -48 11 0 100 63 145 85 60z m415 9 c0 -17 -11 -48 -25 -70 -20 -32 -20 -48 0 -80 49 -77 33 -103 -60 -96 l-85 6 -6 108 c-4 59 -2 120 4 135 16 40 172 37 172 -3z m720 10 c0 -11 -60 -20 -140 -20 -80 0 -140 9 -140 20 0 11 60 20 140 20 80 0 140 -9 140 -20z m288 -12 c18 -46 15 -104 -6 -117 -25 -15 -87 86 -74 121 14 38 65 36 80 -4z m-288 -128 c0 -11 -60 -20 -140 -20 -80 0 -140 9 -140 20 0 11 60 20 140 20 80 0 140 -9 140 -20z m0 -100 c0 -11 -56 -20 -129 -20 -71 0 -134 9 -141 20 -8 13 40 20 129 20 81 0 141 -9 141 -20z"/> <path d="M1195 1599 c-51 -55 -98 -91 -105 -80 -7 12 -84 21 -171 21 l-159 0 -180 -184 c-235 -240 -235 -246 -20 -246 115 0 177 -8 190 -26 17 -20 30 -17 65 15 24 23 48 41 54 41 5 0 13 -160 16 -355 l5 -355 430 0 430 0 5 355 c6 367 8 375 58 325 37 -37 65 -38 78 -3 6 15 -60 95 -155 188 -185 182 -187 194 -23 174 106 -13 125 -24 222 -122 59 -59 120 -107 136 -107 60 0 25 75 -87 186 l-115 114 -153 0 c-103 0 -156 -8 -163 -25 -7 -16 -47 14 -109 80 -121 129 -134 130 -249 4z m326 -201 l180 -182 -6 -363 c-4 -327 -8 -363 -40 -369 -31 -6 -35 13 -35 183 0 223 29 205 -315 193 l-275 -10 -6 -186 c-5 -164 -10 -186 -40 -180 -30 6 -35 45 -39 369 l-6 363 176 182 c213 221 187 221 406 0z m-481 58 c0 -42 -302 -320 -334 -307 -16 6 -60 11 -98 11 -37 0 -68 8 -68 18 0 42 265 272 326 284 110 22 174 19 174 -6z m316 -813 c5 -153 3 -163 -35 -163 -42 0 -65 289 -27 327 37 37 56 -14 62 -164z m-136 -4 l0 -162 -65 7 -65 6 -3 155 -4 155 69 0 68 0 0 -161z m336 6 l-6 -155 -60 0 -60 0 -6 155 -6 155 72 0 72 0 -6 -155z"/> <path d="M1178 1345 c-11 -30 -15 -83 -9 -119 12 -62 10 -64 -63 -70 -76 -6 -76 -6 -76 -96 l0 -90 290 0 290 0 0 90 c0 88 -2 90 -70 100 -67 10 -70 13 -63 85 12 139 -4 155 -149 155 -122 0 -130 -3 -150 -55z m232 -100 l7 -85 -87 0 c-102 0 -107 6 -95 106 16 124 166 106 175 -21z m-230 -186 c0 -47 -53 -74 -84 -43 -31 31 -4 84 43 84 28 0 41 -13 41 -41z m230 -9 c0 -32 -15 -41 -78 -46 -86 -7 -124 16 -105 66 20 52 183 34 183 -20z m146 5 c8 -42 -50 -69 -80 -39 -30 30 -3 88 39 80 19 -3 38 -22 41 -41z"/> <path d="M4907 1545 c-143 -116 -109 -185 90 -185 194 0 230 26 163 119 -74 105 -172 131 -253 66z m174 -57 c22 -26 22 -34 0 -48 -52 -32 -109 25 -68 67 21 21 40 16 68 -19z"/> <path d="M4194 1247 c-19 -19 -18 -287 1 -288 8 0 87 -2 175 -5 l160 -4 0 150 0 150 -161 6 c-88 3 -167 -1 -175 -9z m143 -104 c12 -85 -13 -140 -57 -129 -40 11 -60 140 -26 173 28 28 76 2 83 -44z m139 -38 c6 -79 3 -85 -45 -85 -46 0 -51 8 -51 77 0 139 86 146 96 8z"/> <path d="M4814 1247 c-19 -19 -18 -262 2 -274 9 -6 96 -12 195 -15 l179 -4 0 148 0 148 -181 6 c-100 3 -187 -1 -195 -9z m142 -142 c6 -79 3 -85 -45 -85 -46 0 -51 8 -51 77 0 139 86 146 96 8z m180 0 c6 -83 5 -85 -55 -85 -59 0 -61 3 -61 91 0 136 106 130 116 -6z"/> <path d="M449 1036 c-5 -16 -8 -149 -5 -297 l6 -269 70 0 c50 0 71 10 76 35 5 24 -6 35 -34 35 -39 0 -41 13 -46 253 -6 239 -32 334 -67 243z"/> <path d="M613 1007 c-27 -27 -14 -188 17 -200 26 -10 26 -18 0 -68 -42 -80 -37 -151 14 -221 25 -33 45 -80 45 -104 1 -61 59 -56 68 5 4 28 24 65 45 83 72 62 35 312 -51 345 -16 6 -35 3 -42 -8 -25 -41 -49 -16 -49 51 0 77 26 89 83 37 41 -37 73 3 50 63 -12 31 -153 44 -180 17z m161 -317 c25 -53 28 -76 10 -94 -17 -17 -26 -13 -37 16 -8 21 -25 45 -39 53 -26 16 -15 95 15 95 10 0 33 -32 51 -70z"/> <path d="M1807 990 c-22 -57 11 -106 43 -63 44 60 119 36 126 -42 7 -67 -11 -82 -51 -42 -16 16 -35 8 -74 -33 -67 -73 -75 -271 -13 -314 21 -15 41 -49 45 -76 9 -67 64 -64 77 5 5 30 26 73 45 95 43 49 45 136 6 211 -25 48 -25 59 -1 78 24 18 39 105 32 186 -3 38 -220 34 -235 -5z m133 -280 c0 -27 -9 -50 -20 -50 -11 0 -20 -19 -20 -42 0 -49 -47 -41 -57 10 -7 38 47 132 77 132 11 0 20 -22 20 -50z"/> </g> </svg> 