 <svg  version="1.0" xmlns="http://www.w3.org/2000/svg"  width="300.000000pt" height="152.000000pt" viewBox="0 0 300.000000 152.000000"  preserveAspectRatio="xMidYMid meet">  <g transform="translate(0.000000,152.000000) scale(0.050000,-0.050000)" fill="#aac7d8" stroke="none"> <path d="M1434 2313 l-176 -183 5 -339 c6 -395 11 -389 -174 -241 -269 215 -451 143 -316 -125 75 -148 471 -504 517 -465 43 36 14 73 -179 230 -207 168 -373 410 -282 410 25 0 168 -86 226 -135 35 -30 93 -70 130 -88 111 -56 210 -97 232 -97 29 0 196 -90 229 -123 69 -71 127 -231 146 -407 15 -142 55 -276 85 -286 41 -13 48 101 16 249 -18 81 -33 174 -33 207 0 149 -199 380 -328 380 -18 0 -32 9 -32 20 0 13 186 20 519 20 324 0 523 -7 531 -20 7 -11 -3 -20 -21 -20 -46 0 -151 -61 -205 -120 -93 -100 -121 -185 -163 -490 -9 -66 -23 -135 -30 -153 -13 -32 57 -76 82 -51 17 18 67 282 67 356 0 202 177 399 401 448 32 7 64 21 70 32 6 10 27 18 45 18 19 0 88 42 154 92 66 50 138 99 160 109 22 11 56 30 74 44 68 48 81 -10 25 -116 -56 -106 -124 -178 -280 -293 -136 -100 -196 -168 -182 -205 17 -44 43 -39 107 22 31 28 116 100 189 159 192 154 277 279 277 410 0 179 -181 150 -413 -67 -109 -102 -117 -81 -110 283 l7 325 -207 199 -207 198 -390 -2 -390 -2 -176 -183z m998 -12 c149 -136 154 -142 139 -157 -8 -8 -119 -11 -247 -7 l-232 8 -124 111 c-165 148 -158 156 130 144 l237 -10 97 -89z m-589 -78 l162 -157 0 -308 0 -308 -78 0 -77 0 6 196 c7 237 -17 272 -188 273 -154 1 -173 -29 -166 -272 l6 -197 -69 0 -69 0 7 318 7 318 143 147 c171 176 123 177 316 -10z m829 -188 c8 -9 14 -144 13 -300 l-2 -285 -280 -4 -280 -3 -7 283 c-3 156 0 293 7 304 16 23 526 28 549 5z m-927 -297 c6 -45 -1 -68 -28 -85 -49 -30 -47 -66 4 -94 73 -39 43 -109 -46 -109 -41 0 -75 7 -75 15 0 8 0 87 0 175 l0 160 68 0 c60 0 68 -7 77 -62z"/> <path d="M2160 1842 c0 -130 11 -142 134 -142 53 0 72 10 80 40 14 52 38 51 52 -1 9 -36 24 -40 107 -35 l97 6 0 120 0 120 -105 6 c-84 5 -105 0 -105 -25 0 -17 -9 -31 -20 -31 -11 0 -20 14 -20 30 0 23 -26 30 -110 30 l-110 0 0 -118z m138 40 c38 -25 12 -82 -37 -82 -26 0 -41 13 -41 37 0 60 28 76 78 45z m278 -37 c-4 -19 -24 -35 -46 -35 -22 0 -42 16 -46 35 -5 26 6 35 46 35 40 0 51 -9 46 -35z"/> <path d="M368 2209 c-33 -71 -33 -92 12 -329 20 -104 58 -252 81 -310 9 -22 20 -58 26 -80 38 -152 144 -378 236 -500 78 -104 89 -114 237 -230 165 -128 190 -150 275 -235 47 -47 85 -97 85 -112 0 -56 91 -118 121 -82 49 60 -107 264 -331 429 -158 117 -324 285 -370 375 -24 47 -52 90 -62 96 -10 6 -18 32 -18 56 0 25 -8 54 -17 64 -10 10 -33 69 -53 129 -20 61 -48 144 -63 185 -15 42 -27 96 -27 121 0 25 -9 55 -20 66 -26 26 -35 305 -10 312 35 10 154 -272 175 -414 6 -42 68 -65 96 -37 17 17 -76 320 -131 427 -79 152 -188 183 -242 69z"/> <path d="M3528 2245 c-23 -19 -56 -62 -72 -95 -16 -33 -44 -90 -63 -127 -18 -36 -33 -82 -33 -102 0 -20 -14 -70 -31 -111 -23 -55 -26 -81 -10 -97 36 -36 89 12 108 99 34 153 132 363 163 348 26 -13 22 -186 -8 -300 -78 -300 -130 -452 -225 -650 -70 -145 -326 -430 -387 -430 -6 0 -39 -25 -75 -55 -215 -184 -310 -319 -273 -388 27 -52 30 -50 106 68 77 118 145 185 332 327 162 122 287 252 339 350 108 208 106 202 178 438 36 116 73 237 84 270 100 324 24 583 -133 455z"/> <path d="M4012 1063 c-6 -10 -36 -23 -67 -30 -99 -22 -154 -79 -126 -132 24 -44 42 -45 129 -10 36 15 41 -296 8 -454 -4 -19 17 -27 70 -27 l75 0 2 310 c1 171 1 321 -1 335 -2 28 -74 34 -90 8z"/> <path d="M4395 1047 c-59 -31 -68 -66 -34 -128 20 -39 22 -39 100 2 167 85 213 -34 74 -193 -138 -158 -149 -165 -238 -172 -90 -6 -158 -143 -101 -200 35 -35 105 4 117 66 14 66 24 70 78 29 77 -59 362 -42 378 22 17 67 -12 86 -124 87 -104 0 -104 2 -5 114 214 244 34 520 -245 373z"/> <path d="M4872 1042 c-61 -68 -96 -340 -60 -464 72 -241 309 -245 373 -7 29 110 51 113 67 8 53 -331 408 -196 408 156 0 368 -352 511 -408 166 -16 -105 -38 -102 -67 8 -43 160 -221 235 -313 133z m177 -126 c85 -122 9 -461 -83 -370 -48 48 -53 364 -6 394 44 28 54 25 89 -24z m447 -18 c37 -69 23 -308 -21 -352 -67 -66 -115 13 -115 191 0 204 69 287 136 161z"/> <path d="M3409 859 c-7 -12 11 -55 39 -96 29 -41 52 -88 52 -103 0 -15 -23 -62 -52 -103 -28 -41 -46 -84 -39 -96 20 -32 111 -25 124 9 15 38 55 38 87 0 38 -46 120 -39 120 10 0 22 -7 40 -15 40 -66 0 -88 137 -35 219 77 123 6 212 -78 96 l-32 -45 -32 45 c-34 47 -116 61 -139 24z"/> <path d="M2360 415 c-71 -9 -141 -17 -154 -19 -47 -5 -4 -33 72 -46 85 -14 278 7 247 28 -10 6 -23 21 -27 32 -5 13 -55 14 -138 5z"/> <path d="M1540 391 c0 -34 152 -58 251 -40 113 22 51 56 -111 62 -107 4 -140 -1 -140 -22z"/> <path d="M1900 382 c0 -29 108 -46 188 -31 116 22 83 49 -58 49 -71 0 -130 -8 -130 -18z"/> </g> </svg> 