<?xml version="1.0" standalone="no"?>
<!DOCTYPE svg PUBLIC "-//W3C//DTD SVG 20010904//EN"
 "http://www.w3.org/TR/2001/REC-SVG-20010904/DTD/svg10.dtd">
<svg version="1.0" xmlns="http://www.w3.org/2000/svg"
 width="236.000000pt" height="162.000000pt" viewBox="0 0 236.000000 162.000000"
 preserveAspectRatio="xMidYMid meet">
<metadata>
Created by potrace 1.10, written by Peter Selinger 2001-2011
</metadata>
<g transform="translate(0.000000,162.000000) scale(0.050000,-0.050000)"
fill="#000000" stroke="none">
<path d="M1193 2014 l-137 -143 7 -225 c8 -257 -2 -273 -103 -172 -81 81 -139
108 -197 93 -107 -29 -64 -209 82 -343 56 -52 129 -119 160 -149 71 -68 115
-71 115 -8 0 32 -27 66 -90 111 -139 100 -226 189 -241 248 -18 74 5 69 154
-33 70 -48 157 -94 192 -102 36 -8 70 -22 76 -33 6 -10 25 -18 41 -18 42 0
147 -119 160 -180 5 -27 18 -83 29 -122 10 -40 19 -110 19 -155 0 -80 3 -83
62 -83 56 0 61 5 48 45 -8 25 -21 99 -30 165 -21 157 -66 258 -140 313 -95 70
-77 77 219 77 299 0 331 -10 242 -76 -70 -52 -113 -134 -130 -248 -7 -47 -22
-125 -35 -172 -25 -98 -8 -128 59 -103 39 15 45 32 45 123 0 164 117 416 192
416 13 0 49 13 81 30 31 16 73 30 93 30 20 0 54 17 75 37 77 71 214 162 226
149 52 -52 -23 -141 -298 -355 -40 -32 -44 -98 -6 -106 20 -5 100 58 205 162
171 167 186 194 176 317 -2 19 17 57 41 84 25 27 62 104 83 171 41 136 85 153
77 29 -6 -76 -55 -267 -85 -329 -8 -17 -21 -59 -29 -94 -8 -36 -22 -70 -33
-76 -10 -6 -18 -29 -18 -50 0 -22 -8 -39 -19 -39 -10 0 -23 -16 -30 -36 -12
-40 -142 -184 -166 -184 -8 0 -43 -25 -78 -55 -35 -30 -91 -77 -125 -105 -34
-27 -62 -60 -62 -73 0 -12 -14 -28 -31 -35 -44 -16 -30 -119 16 -128 19 -4 35
3 35 16 0 42 102 157 216 243 197 148 364 366 364 474 0 19 12 52 27 74 15 21
33 66 39 99 39 196 60 284 77 316 29 57 -38 194 -95 194 -49 0 -111 -67 -142
-154 -46 -126 -66 -201 -66 -240 0 -35 -12 -42 -67 -40 -51 1 -91 -19 -170
-85 -129 -109 -128 -110 -124 169 l3 232 -63 54 c-35 30 -100 92 -145 139
l-81 85 -281 -2 -282 -1 -137 -143z m713 -17 c124 -109 120 -117 -52 -117
-134 0 -153 5 -215 59 -38 33 -80 69 -94 81 -52 45 -21 60 121 60 143 0 148
-2 240 -83z m-398 -76 l113 -120 -5 -195 -6 -196 -60 0 -60 0 0 150 0 150
-115 6 -115 6 0 -159 c0 -127 -6 -161 -32 -171 -58 -22 -68 9 -68 220 l0 210
103 109 c125 133 107 134 245 -10z m587 -136 c6 -19 -41 -25 -193 -25 -168 0
-202 5 -202 31 0 40 382 35 395 -6z m-675 -206 c0 -22 -9 -39 -20 -39 -30 0
-24 -43 13 -83 37 -41 -3 -73 -63 -50 -45 17 -41 185 5 210 43 25 65 12 65
-38z m468 -12 c77 -2 155 4 175 15 32 17 35 9 30 -77 l-6 -95 -193 -6 -194 -5
0 101 c0 76 6 98 25 87 13 -8 87 -17 163 -20z"/>
<path d="M442 1948 c-43 -54 -42 -191 1 -237 9 -10 17 -40 17 -66 0 -47 44
-207 84 -305 91 -225 158 -325 281 -421 208 -164 275 -224 275 -248 0 -30 64
-91 97 -91 31 0 30 94 -2 132 -75 91 -105 116 -314 278 -98 76 -223 267 -266
410 -19 61 -47 151 -63 200 -36 116 -48 264 -21 273 18 7 58 -94 100 -249 8
-29 25 -44 46 -39 41 8 36 141 -8 209 -16 25 -29 54 -29 66 0 108 -136 167
-198 88z"/>
<path d="M3598 1248 c-58 -61 -83 -419 -37 -530 51 -123 192 -157 293 -70 82
71 87 515 8 600 -69 73 -195 73 -264 0z m202 -298 c0 -134 -7 -170 -37 -197
-100 -91 -177 254 -83 373 76 96 120 31 120 -176z"/>
<path d="M4075 1245 c-54 -57 -61 -104 -57 -408 5 -293 308 -334 392 -52 101
340 -137 668 -335 460z m205 -295 c0 -205 -44 -272 -118 -178 -97 123 -23 469
80 376 31 -28 38 -63 38 -198z"/>
<path d="M3310 1254 c-109 -44 -150 -75 -150 -115 0 -51 54 -72 105 -41 59 38
64 20 57 -250 l-5 -251 76 7 c65 5 76 12 69 46 -4 22 -9 171 -11 330 -4 322
-7 327 -141 274z"/>
<path d="M2793 1087 c-25 -25 -13 -81 27 -127 63 -73 32 -194 -67 -263 -29
-20 56 -56 103 -44 24 6 48 29 55 50 12 37 15 36 61 -13 36 -39 60 -49 93 -39
66 20 66 20 -5 109 l-65 82 56 111 c46 92 51 114 27 128 -48 31 -78 15 -118
-61 l-26 -49 -22 49 c-30 72 -84 102 -119 67z"/>
</g>
</svg>
