 <svg  version="1.0" xmlns="http://www.w3.org/2000/svg"  width="216.000000pt" height="244.000000pt" viewBox="0 0 216.000000 244.000000"  preserveAspectRatio="xMidYMid meet">  <g transform="translate(0.000000,244.000000) scale(0.050000,-0.050000)" fill="#aac7d8" stroke="none"> <path d="M1570 4285 c-132 -54 -176 -143 -199 -409 -8 -91 -22 -179 -31 -196 -9 -17 -19 -88 -22 -158 -3 -70 -17 -173 -32 -230 -116 -444 -19 -639 333 -664 83 -6 174 -20 201 -30 50 -18 205 -39 634 -85 345 -37 428 23 454 328 7 90 22 180 33 200 10 20 19 84 19 143 0 58 9 139 20 179 12 40 30 148 41 240 12 92 25 203 31 247 21 162 -137 310 -333 310 -54 0 -137 8 -184 19 -138 30 -499 81 -575 81 -38 0 -114 14 -168 30 -119 36 -122 36 -222 -5z m460 -223 c88 -11 214 -29 280 -40 66 -12 209 -35 319 -51 216 -33 236 -47 224 -151 -18 -155 -56 -416 -76 -519 -12 -60 -29 -177 -39 -260 -42 -364 -46 -372 -183 -353 -47 6 -166 20 -265 30 -99 11 -205 29 -236 41 -31 11 -94 21 -139 21 -45 0 -133 9 -194 20 -61 11 -143 24 -183 30 -99 15 -132 78 -100 194 13 47 32 154 42 236 10 83 33 249 51 370 18 121 37 261 43 310 20 172 32 175 456 122z"/> <path d="M1776 3865 c-17 -19 -36 -80 -42 -135 -10 -85 -51 -356 -88 -584 -16 -97 54 -160 194 -174 61 -6 207 -21 325 -34 245 -26 318 -1 383 137 34 72 43 185 14 185 -26 0 -41 78 -18 93 55 34 99 187 75 263 -45 139 -128 196 -312 215 -64 7 -182 25 -261 41 -188 37 -233 35 -270 -7z m484 -217 c130 -19 190 -77 144 -140 -40 -56 -81 -58 -291 -18 -86 17 -164 25 -173 20 -38 -23 -61 119 -29 171 6 11 150 -3 349 -33z m-161 -339 c197 -20 281 -49 281 -97 0 -71 -73 -118 -157 -103 -40 8 -140 20 -223 27 -163 15 -182 35 -151 158 11 45 21 49 76 38 35 -7 113 -17 174 -23z"/> <path d="M1533 2446 c-14 -13 -211 -42 -593 -86 -93 -10 -201 -28 -240 -40 -38 -11 -100 -20 -137 -20 -187 0 -268 -162 -224 -448 10 -67 33 -225 50 -352 17 -126 35 -261 41 -300 6 -38 18 -133 28 -210 38 -311 209 -401 590 -309 45 11 154 28 242 39 628 75 682 87 767 167 l67 63 -12 217 c-7 120 -19 228 -27 240 -8 13 -20 82 -27 153 -13 145 -50 422 -82 621 -32 202 -119 279 -312 279 -65 0 -124 -6 -131 -14z m233 -232 c16 -26 35 -100 41 -165 16 -181 47 -413 70 -532 12 -59 23 -147 26 -197 2 -49 12 -107 22 -127 43 -87 -48 -213 -154 -213 -33 0 -132 -14 -218 -30 -86 -17 -189 -30 -228 -30 -40 0 -100 -8 -134 -19 -121 -37 -410 -61 -460 -38 -64 29 -83 118 -152 707 -10 88 -27 201 -38 250 -57 265 -37 290 266 322 97 10 185 23 194 29 9 5 101 20 203 31 102 12 236 28 296 37 200 28 233 25 266 -25z"/> <path d="M1121 1995 c-202 -53 -277 -195 -297 -565 -15 -281 -9 -313 64 -372 59 -48 120 32 115 152 -4 111 14 122 224 136 97 7 188 22 202 34 46 37 91 1 91 -72 0 -129 125 -194 188 -98 30 46 31 59 3 141 -17 50 -31 108 -31 129 0 20 -9 43 -20 50 -11 7 -20 30 -20 52 0 47 -110 254 -159 298 -94 86 -121 101 -203 116 -49 9 -119 9 -157 -1z m188 -223 c60 -46 149 -181 130 -199 -5 -5 -54 -14 -109 -20 -55 -5 -131 -20 -170 -32 -117 -35 -160 -28 -160 28 0 27 9 54 20 61 11 7 20 28 20 47 0 119 169 191 269 115z"/> <path d="M3230 2426 c-99 -15 -225 -36 -280 -46 -181 -32 -418 -66 -526 -75 -222 -18 -313 -196 -243 -475 11 -44 28 -147 38 -230 11 -82 28 -213 39 -290 11 -77 31 -223 45 -324 36 -271 88 -326 309 -326 149 0 473 39 663 81 47 11 117 19 155 19 441 0 598 173 511 565 -18 82 -48 281 -82 555 -74 591 -115 626 -629 546z m378 -215 c17 -27 32 -89 32 -138 0 -48 10 -136 21 -195 12 -60 30 -180 40 -268 10 -88 30 -239 45 -336 35 -234 3 -293 -160 -294 -57 0 -129 -10 -160 -22 -31 -12 -132 -30 -226 -40 -237 -25 -459 -54 -531 -69 -114 -23 -184 61 -196 236 -5 80 -23 240 -40 355 -49 333 -77 601 -66 629 12 31 162 71 267 71 42 0 148 13 236 29 543 101 694 109 738 42z"/> <path d="M2922 1987 c-26 -6 -66 -28 -88 -49 -23 -21 -48 -38 -56 -38 -57 0 -138 -207 -138 -351 0 -447 573 -623 827 -253 99 144 1 300 -112 177 -166 -182 -152 -173 -259 -173 -299 0 -386 357 -121 494 59 31 205 35 205 6 0 -11 12 -20 27 -20 15 0 43 -18 63 -40 20 -22 51 -40 69 -40 18 0 43 -10 55 -22 27 -27 69 98 53 157 -30 113 -316 196 -525 152z"/> </g> </svg> 