<?xml version="1.0" standalone="no"?>
<!DOCTYPE svg PUBLIC "-//W3C//DTD SVG 20010904//EN"
 "http://www.w3.org/TR/2001/REC-SVG-20010904/DTD/svg10.dtd">
<svg version="1.0" xmlns="http://www.w3.org/2000/svg"
 width="756.000000pt" height="420.000000pt" viewBox="0 0 756.000000 420.000000"
 preserveAspectRatio="xMidYMid meet">
<metadata>
Created by potrace 1.10, written by Peter Selinger 2001-2011
</metadata>
<g transform="translate(0.000000,420.000000) scale(0.100000,-0.100000)"
fill="#aac7d8" stroke="none">
<path d="M775 3460 c-3 -5 -8 -38 -9 -72 -7 -117 -19 -203 -32 -224 -9 -13
-17 -84 -24 -213 -13 -250 -19 -302 -39 -325 -14 -15 -16 -56 -19 -275 -2
-151 1 -272 7 -296 5 -22 16 -65 25 -95 8 -30 19 -139 25 -241 8 -149 14 -194
31 -232 17 -38 22 -74 25 -194 8 -234 15 -316 31 -340 10 -16 17 -78 25 -200
13 -223 16 -240 40 -264 19 -19 43 -19 1098 -19 706 0 1082 3 1086 10 3 5 17
47 31 92 20 65 27 118 34 248 11 219 19 290 37 318 11 18 17 83 25 260 5 131
11 247 14 260 6 31 31 28 64 -8 39 -42 77 -41 88 3 5 17 6 40 4 50 -5 19 -13
19 -83 2 -35 -9 -50 25 -39 86 5 24 13 123 19 219 7 122 15 187 27 215 13 31
15 56 10 114 -4 41 -12 83 -17 94 -14 25 -19 75 -29 320 -6 157 -12 213 -23
225 -17 20 -26 94 -33 267 -2 72 -7 144 -10 162 -10 67 73 63 -1216 63 -754 0
-1169 -3 -1173 -10z m771 -85 c3 -12 4 -36 2 -51 l-3 -29 -211 -5 c-235 -6
-234 -5 -265 -77 -12 -29 -25 -43 -37 -43 -10 0 -29 -11 -41 -24 -13 -14 -36
-30 -52 -36 -16 -7 -30 -20 -30 -29 -1 -9 -3 -29 -5 -46 -1 -16 -6 -107 -10
-201 l-6 -171 23 -17 c13 -9 36 -16 51 -16 26 0 58 -22 58 -40 0 -17 51 -85
68 -91 9 -3 98 -2 197 1 102 4 184 3 190 -2 6 -5 10 -36 10 -69 0 -94 19 -90
-388 -87 -217 2 -352 7 -357 13 -20 26 -21 74 -1 113 23 45 28 87 36 272 6
136 15 216 39 325 8 39 16 106 16 150 1 91 13 164 28 174 6 3 161 7 346 7
l336 2 6 -23z m773 11 c5 -3 12 -72 16 -153 6 -114 11 -155 25 -178 15 -25 18
-56 19 -175 1 -80 6 -215 11 -300 12 -193 12 -309 0 -525 -5 -93 -10 -226 -9
-295 0 -69 0 -130 0 -136 -1 -16 -143 -24 -205 -11 -81 16 -118 -16 -80 -71
19 -27 43 -28 92 -3 30 15 51 18 115 13 74 -4 77 -6 77 -29 0 -14 -9 -32 -20
-41 -18 -16 -20 -41 -33 -372 -8 -195 -12 -374 -10 -397 4 -30 -2 -57 -22
-102 -15 -34 -32 -61 -36 -61 -5 -1 -136 -1 -291 -1 -226 -1 -283 2 -289 13
-4 7 -10 85 -14 172 -3 98 -11 171 -20 192 -8 20 -16 96 -20 206 -4 95 -10
209 -15 253 -6 55 -5 84 3 93 8 10 39 13 121 11 62 -2 117 0 124 5 18 11 14
37 -10 63 -25 26 -45 29 -72 8 -22 -16 -141 -21 -164 -6 -10 6 -13 35 -11 109
2 81 -1 105 -15 127 -20 31 -26 124 -29 525 -2 282 8 457 29 480 10 12 15 86
21 298 6 195 12 285 20 290 13 8 678 6 692 -2z m741 -25 c26 -25 28 -34 39
-181 19 -248 30 -335 47 -375 8 -20 13 -42 11 -49 -2 -6 1 -94 8 -196 7 -102
9 -192 5 -201 -8 -13 -49 -15 -337 -15 l-328 1 -19 59 c-30 91 -31 91 175 93
96 1 182 2 191 2 9 1 31 26 49 59 38 67 40 68 91 76 29 5 41 12 48 32 20 52 5
262 -27 380 -14 53 -61 102 -111 118 -12 4 -27 17 -34 29 -6 12 -25 39 -41 60
l-30 37 -192 0 c-135 0 -195 4 -203 12 -18 18 -14 56 7 77 19 19 33 19 322 15
l302 -5 27 -28z m-1525 -148 c10 -10 14 -26 11 -46 -3 -18 -8 -57 -11 -86 -3
-30 -13 -66 -21 -80 -10 -19 -16 -82 -22 -226 l-7 -200 -169 -3 -169 -2 -36
41 c-20 23 -39 49 -42 58 -3 8 -26 20 -50 26 -33 8 -45 17 -50 35 -9 34 1 190
14 215 6 11 10 32 9 47 -3 35 48 94 98 114 29 12 38 22 46 52 14 59 44 68 228
69 127 1 159 -2 171 -14z m1230 -21 c19 -20 38 -47 41 -59 3 -12 18 -26 32
-31 15 -6 44 -26 65 -45 36 -34 37 -36 37 -107 0 -54 4 -76 15 -84 9 -6 18
-33 21 -61 7 -60 -16 -97 -71 -115 -19 -6 -35 -15 -35 -19 0 -5 -17 -29 -37
-55 l-38 -46 -152 0 c-83 0 -158 3 -167 6 -13 5 -16 26 -16 123 -1 211 -17
446 -31 470 -13 20 -12 24 9 41 19 16 41 18 157 19 l135 0 35 -37z m-1294
-943 c18 -18 21 -30 16 -88 -2 -36 0 -172 5 -301 7 -182 12 -238 23 -250 29
-32 14 -49 -58 -65 -24 -5 -28 -10 -25 -33 3 -25 8 -27 53 -32 l50 -5 2 -75
c14 -501 25 -674 44 -709 22 -42 25 -99 6 -126 -13 -17 -34 -18 -317 -17
l-303 2 -28 31 c-30 33 -30 39 -49 349 -4 80 -13 159 -20 175 -18 44 -41 232
-34 275 4 27 13 41 30 49 34 15 30 43 -9 61 -29 14 -33 20 -38 70 -4 30 -12
71 -18 90 -6 19 -16 107 -21 195 -6 88 -12 188 -14 223 -3 40 -12 74 -25 96
-23 37 -28 92 -8 99 6 3 171 6 365 6 345 1 352 1 373 -20z m1709 6 c9 -11 10
-22 2 -42 -6 -16 -16 -99 -21 -185 -5 -86 -15 -166 -20 -177 -6 -11 -16 -54
-22 -96 -14 -94 -29 -105 -113 -85 -38 9 -62 10 -83 3 -19 -7 -50 -7 -86 -2
-90 14 -123 -17 -78 -72 l19 -24 49 19 c26 10 59 18 73 16 43 -4 93 -3 140 5
69 11 72 3 59 -151 -7 -77 -17 -138 -25 -152 -10 -16 -18 -76 -24 -195 -15
-263 -21 -320 -37 -339 -10 -11 -16 -45 -19 -98 -2 -45 -9 -92 -16 -106 l-13
-26 -284 0 c-229 0 -285 2 -292 13 -5 8 -7 43 -4 79 3 36 10 184 16 330 7 198
14 275 26 305 11 28 15 68 14 132 -1 97 9 143 33 143 21 0 46 28 40 45 -3 8
-14 17 -25 20 -38 12 -40 35 -28 277 8 171 15 241 26 264 12 23 13 35 5 51 -8
15 -7 25 4 41 15 22 19 22 343 22 280 0 330 -2 341 -15z"/>
<path d="M2162 3078 c-7 -7 -12 -20 -12 -31 0 -32 -18 -54 -50 -60 -40 -8 -58
0 -76 34 -20 39 -56 39 -84 -1 -16 -23 -29 -30 -55 -30 -26 0 -39 7 -55 30
-25 35 -59 39 -78 9 -7 -11 -29 -27 -48 -35 -27 -12 -35 -20 -32 -37 3 -19 11
-23 58 -27 l55 -5 8 -80 c5 -44 10 -90 13 -102 6 -33 45 -64 74 -61 23 3 25 8
31 75 6 64 11 77 45 117 21 25 43 47 50 50 6 2 45 0 85 -5 96 -11 172 5 177
38 2 16 -5 26 -27 38 -19 9 -31 23 -31 36 0 23 -17 59 -28 59 -5 0 -13 -5 -20
-12z m-244 -186 c3 -32 2 -33 -30 -30 -29 3 -33 7 -36 36 -3 32 -2 33 30 30
29 -3 33 -7 36 -36z"/>
<path d="M2063 2870 c-21 -9 -23 -16 -23 -89 l0 -80 39 -12 c67 -20 72 -13 69
93 l-3 93 -30 2 c-16 1 -40 -2 -52 -7z"/>
<path d="M1938 1600 c-9 -6 -22 -27 -29 -47 -10 -32 -9 -38 7 -50 10 -7 37
-13 61 -13 36 0 43 3 49 24 3 13 4 38 2 57 -3 31 -6 34 -38 36 -19 2 -43 -2
-52 -7z"/>
<path d="M1266 1515 c-38 -41 -51 -43 -83 -13 -23 22 -24 22 -54 4 -26 -15
-43 -17 -95 -12 -71 7 -104 -3 -104 -34 0 -11 11 -27 25 -36 21 -13 30 -14 53
-5 27 11 82 13 266 11 88 -2 96 3 96 62 0 27 -5 40 -19 48 -33 17 -52 12 -85
-25z"/>
<path d="M2586 1655 c-9 -9 -16 -32 -16 -50 0 -39 20 -55 69 -55 37 0 53 26
49 78 -3 36 -5 37 -44 40 -28 2 -47 -2 -58 -13z"/>
<path d="M3506 3413 c-27 -55 -29 -68 -37 -253 -9 -221 -15 -270 -36 -320 -9
-24 -18 -110 -26 -270 -13 -269 -13 -254 2 -540 10 -196 12 -216 31 -232 27
-22 25 -42 -5 -62 -32 -21 -32 -49 1 -74 27 -19 27 -20 35 -201 6 -137 11
-188 23 -206 20 -31 25 -65 35 -285 7 -133 14 -194 25 -216 9 -17 20 -80 25
-143 6 -62 16 -119 22 -127 16 -20 2166 -21 2191 -2 12 10 18 50 28 168 7 95
17 163 25 176 10 15 18 84 25 210 12 228 19 281 36 316 9 17 15 74 18 160 3
115 6 134 21 143 11 5 46 38 80 73 34 34 66 62 71 62 11 0 73 59 136 128 l47
52 63 0 c80 0 106 -7 113 -31 4 -11 19 -26 34 -34 21 -10 31 -26 40 -59 7 -29
18 -47 30 -51 11 -3 24 -19 30 -35 5 -17 17 -30 25 -30 8 0 29 -14 46 -30 30
-29 33 -30 127 -30 81 0 100 3 117 19 12 11 36 28 55 38 19 10 39 28 45 38 6
11 23 35 39 53 25 31 27 39 27 126 0 89 -2 95 -30 131 -16 21 -30 44 -30 52 0
7 -12 18 -26 24 -15 5 -41 21 -58 35 -30 26 -31 26 -186 23 -154 -4 -155 -4
-158 18 -2 16 5 28 28 42 17 10 38 28 46 40 8 11 21 21 27 21 16 0 97 76 97
91 0 6 11 20 25 31 24 18 25 24 25 122 l0 103 -42 54 c-52 66 -65 76 -103 85
-16 4 -41 15 -54 25 -32 25 -110 26 -142 1 -13 -11 -36 -22 -50 -25 -14 -4
-53 -36 -87 -72 l-62 -65 0 -105 c0 -86 4 -114 20 -147 11 -23 20 -49 20 -58
0 -8 -9 -23 -20 -33 -11 -9 -20 -24 -20 -33 0 -10 -31 -48 -70 -86 l-69 -68
-75 0 c-73 0 -76 1 -82 26 -4 14 -4 50 0 79 10 85 -12 483 -28 508 -19 30 -24
73 -36 305 -7 138 -15 210 -24 225 -8 12 -16 49 -19 83 -4 33 -9 68 -13 77 -6
16 -93 17 -1173 17 l-1167 0 -28 -57z m790 -49 c11 -26 11 -35 -1 -50 -12 -17
-32 -19 -226 -22 -117 -2 -218 -7 -225 -12 -6 -6 -16 -28 -23 -50 -8 -28 -20
-45 -39 -53 -15 -6 -50 -26 -78 -44 l-51 -32 -6 -143 c-9 -190 -8 -290 1 -306
5 -7 30 -18 57 -25 46 -11 49 -14 62 -59 8 -29 22 -52 35 -59 13 -7 89 -12
206 -13 l185 -1 16 -42 c14 -39 14 -46 -2 -78 l-17 -35 -355 2 c-338 2 -355 3
-361 21 -9 29 16 300 31 322 7 12 15 71 19 140 12 215 28 380 39 393 6 8 14
40 18 73 4 33 13 69 22 82 l14 22 333 0 333 0 13 -31z m771 14 c19 -16 22 -54
27 -344 3 -220 7 -276 19 -295 25 -40 40 -272 32 -492 -4 -105 -6 -221 -5
-257 1 -70 -3 -75 -100 -149 l-25 -19 37 -15 c50 -21 59 -42 48 -113 -5 -33
-14 -196 -20 -364 -8 -224 -14 -310 -24 -325 -10 -15 -16 -81 -21 -225 -4
-113 -11 -211 -15 -219 -6 -11 -62 -13 -295 -13 l-288 1 -29 28 c-26 25 -29
33 -26 78 3 28 1 138 -3 245 -4 107 -10 269 -13 359 -4 108 -11 170 -19 179
-14 17 -32 224 -28 312 1 14 -3 126 -8 250 -16 359 -16 414 -3 615 6 105 13
257 16 338 3 102 8 152 17 163 9 11 16 59 19 134 4 65 11 125 17 132 9 10 78
12 345 10 206 -2 338 -8 345 -14z m727 2 c4 -4 12 -50 18 -102 5 -51 17 -119
28 -150 15 -45 22 -106 30 -270 8 -160 16 -232 31 -288 20 -71 30 -212 16
-227 -4 -3 -33 -4 -64 -2 -32 2 -185 2 -340 0 l-283 -3 -11 28 c-11 29 -8 119
5 131 6 6 213 5 321 -2 54 -3 81 16 90 62 9 51 20 62 67 69 28 5 46 16 64 39
28 36 30 59 10 106 -8 20 -17 95 -21 182 l-7 148 -37 23 c-20 13 -56 34 -81
48 -34 19 -47 33 -55 61 -6 20 -15 41 -20 46 -6 6 -90 12 -205 13 l-195 3 -3
29 c-2 15 -1 39 2 51 l6 23 312 -5 c172 -2 317 -8 322 -13z m-1529 -171 c14
-13 14 -18 1 -45 -12 -23 -17 -92 -22 -304 -5 -182 -11 -277 -18 -282 -14 -10
-335 -9 -360 1 -10 4 -26 27 -35 52 -14 39 -22 46 -61 58 -25 8 -48 19 -52 25
-4 6 -7 80 -6 165 2 151 9 181 38 181 16 0 99 60 120 87 11 14 20 33 20 42 0
10 4 21 10 27 5 5 81 9 179 9 140 0 173 -3 186 -16z m1207 14 c20 -3 30 -13
38 -38 13 -40 56 -80 123 -115 58 -31 59 -36 55 -224 l-3 -139 -34 -12 c-38
-12 -81 -57 -81 -84 0 -37 -19 -41 -186 -41 -90 0 -165 3 -167 8 -3 4 -8 81
-11 172 -4 131 -10 177 -26 224 -12 32 -19 64 -16 71 2 7 0 45 -5 85 -6 40 -8
78 -5 85 3 10 39 13 148 13 79 0 155 -2 170 -5z m1204 -483 c13 -5 24 -15 24
-22 0 -7 14 -27 32 -45 25 -26 32 -43 36 -86 5 -61 -9 -97 -37 -97 -23 0 -31
19 -31 76 0 38 -6 51 -36 82 -35 36 -38 37 -107 37 -40 0 -87 -3 -104 -7 -31
-7 -33 -6 -33 22 0 37 10 43 95 51 74 7 121 4 161 -11z m-266 -174 c0 -101 1
-104 24 -110 13 -3 31 -17 40 -31 14 -22 24 -25 74 -25 53 0 59 2 85 35 41 51
78 45 57 -9 -6 -16 -17 -26 -30 -26 -13 0 -28 -12 -38 -29 -9 -16 -28 -36 -42
-45 -15 -8 -63 -51 -108 -96 -45 -44 -86 -80 -92 -80 -5 0 -16 -13 -25 -30 -9
-16 -20 -30 -25 -30 -10 0 -26 -14 -135 -115 -35 -33 -83 -76 -107 -95 -40
-33 -156 -143 -292 -277 -35 -35 -68 -63 -74 -63 -5 0 -17 -12 -26 -26 -21
-32 -59 -30 -64 4 -3 18 2 23 27 28 20 4 31 13 31 23 0 21 19 41 40 41 9 0 21
14 27 30 6 17 19 30 27 30 9 0 21 12 26 26 6 14 20 28 31 31 11 3 25 16 30 30
5 13 19 27 33 32 13 5 26 20 29 33 4 13 16 28 29 33 13 6 24 20 26 32 2 14 12
25 26 29 13 3 28 16 34 29 6 13 20 26 30 29 11 4 23 18 26 31 4 14 11 25 16
25 8 0 36 24 93 79 7 7 18 17 25 24 59 53 112 110 112 119 0 6 14 26 31 46 29
33 31 40 25 86 -4 36 -12 55 -26 65 -18 12 -20 24 -20 105 0 91 8 116 37 116
10 0 13 -25 13 -104z m203 42 c25 -30 21 -70 -12 -107 l-29 -33 -51 23 c-59
28 -65 38 -51 90 9 31 17 40 43 48 42 13 78 5 100 -21z m-2409 -357 c14 -15
16 -23 7 -39 -16 -30 -14 -103 4 -122 18 -19 21 -84 40 -674 4 -129 9 -186 19
-201 19 -28 45 -640 28 -657 -16 -16 -623 -12 -633 4 -11 17 -18 90 -22 216
-3 75 -8 107 -20 120 -12 13 -18 58 -26 202 -14 244 -21 312 -34 328 -16 20
-28 119 -32 267 -4 149 -10 202 -30 265 -8 25 -19 101 -25 170 -10 105 -9 126
3 135 9 6 131 9 358 7 319 -2 345 -4 363 -21z m1711 15 c20 -7 18 -231 -2
-247 -22 -19 -16 -50 10 -48 47 4 57 -1 57 -26 0 -22 -4 -25 -35 -25 -32 0
-37 -4 -65 -60 -17 -33 -36 -60 -42 -60 -18 0 -317 -306 -328 -336 -5 -13 -21
-29 -34 -34 -13 -5 -28 -15 -33 -23 -4 -8 -18 -19 -30 -26 -28 -14 -32 -65 -7
-75 34 -13 116 6 149 35 18 16 40 29 48 29 9 0 31 13 49 29 18 15 43 31 56 35
12 4 29 20 37 36 8 16 24 31 34 35 11 3 23 15 26 26 4 12 15 19 30 19 33 0 41
-33 17 -73 -28 -46 -40 -110 -52 -285 -6 -84 -15 -165 -21 -179 -20 -53 -28
-113 -34 -263 -6 -134 -9 -158 -26 -175 -18 -19 -37 -20 -302 -26 -341 -6
-322 -13 -314 109 3 54 10 89 20 100 12 14 18 92 32 432 13 340 19 418 32 432
11 13 14 37 11 110 l-3 93 58 6 c67 7 93 26 82 59 -6 20 -12 22 -54 17 -26 -3
-52 -2 -59 2 -8 5 -11 58 -11 180 0 159 2 173 19 179 22 8 664 6 685 -2z m911
-126 c43 0 54 -3 59 -19 3 -10 17 -22 31 -25 14 -4 29 -18 35 -34 5 -15 19
-34 29 -42 18 -15 26 -53 22 -113 -1 -20 -9 -31 -22 -34 -11 -3 -23 -17 -26
-32 -9 -35 -23 -51 -44 -51 -10 0 -25 -11 -33 -24 -31 -46 -150 -46 -167 0 -6
15 -18 24 -30 24 -13 0 -24 9 -30 24 -5 14 -18 29 -28 35 -11 6 -23 26 -26 45
-4 22 -14 37 -26 41 -10 3 -28 21 -40 40 -21 34 -38 45 -70 45 -37 0 -71 23
-68 44 4 29 81 65 140 66 26 0 50 5 54 11 5 8 34 10 97 5 50 -3 114 -6 143 -6z
m-750 -64 c18 -14 18 -16 3 -31 -22 -23 -78 -25 -92 -3 -25 38 46 65 89 34z"/>
<path d="M4503 3068 c-6 -7 -13 -25 -16 -39 -4 -14 -18 -31 -32 -37 -19 -9
-25 -18 -23 -34 5 -34 64 -47 179 -41 l96 6 32 -49 c24 -35 36 -66 42 -114 9
-59 26 -90 50 -90 4 0 18 13 32 29 19 23 27 50 37 118 6 48 13 93 15 100 2 7
27 13 57 15 46 3 53 6 56 25 3 17 -5 25 -32 37 -19 8 -41 24 -48 35 -19 31
-47 26 -84 -14 -27 -30 -37 -35 -61 -29 -15 4 -38 20 -51 35 -31 39 -56 37
-81 -7 -21 -35 -23 -36 -64 -30 -44 7 -57 19 -57 52 0 19 -17 44 -31 44 -4 0
-11 -6 -16 -12z m345 -172 c-3 -27 -7 -31 -35 -34 -31 -3 -33 -1 -33 28 0 23
6 33 23 39 34 13 48 2 45 -33z"/>
<path d="M4572 2870 c-22 -9 -23 -14 -20 -97 3 -86 4 -88 29 -91 14 -2 36 5
49 16 21 17 25 31 28 92 3 54 1 75 -9 81 -18 11 -47 10 -77 -1z"/>
<path d="M4911 1864 c-18 -13 -36 -15 -90 -10 -37 4 -75 4 -84 0 -21 -8 -22
-43 -2 -71 15 -21 17 -21 58 -7 29 11 60 14 102 10 46 -5 66 -2 83 10 28 19
28 35 -1 62 -28 26 -36 27 -66 6z"/>
<path d="M4590 1853 c-32 -6 -40 -19 -40 -70 0 -33 4 -43 21 -48 25 -8 98 37
100 63 4 57 -11 68 -81 55z"/>
<path d="M4428 1822 c-7 -10 -23 -24 -35 -31 -48 -25 -16 -61 55 -61 46 0 52
10 43 65 -5 31 -11 41 -28 43 -12 2 -27 -5 -35 -16z"/>
<path d="M3935 1793 c-29 -7 -45 -32 -45 -69 0 -42 21 -58 65 -50 26 5 39 14
46 34 11 27 15 69 8 77 -8 7 -55 13 -74 8z"/>
<path d="M4077 1785 c-22 -21 -21 -37 2 -66 16 -21 22 -22 42 -11 13 6 36 16
52 22 51 18 29 55 -39 66 -31 4 -45 2 -57 -11z"/>
<path d="M3761 1754 c-22 -25 -27 -26 -91 -21 -60 5 -70 3 -86 -15 -18 -19
-18 -20 2 -36 16 -14 41 -17 125 -16 58 0 111 4 117 8 15 9 15 34 1 75 -14 38
-37 40 -68 5z"/>
<path d="M5733 1960 c-12 -5 -24 -18 -28 -28 -12 -41 -32 -46 -66 -18 -35 30
-51 32 -70 10 -11 -13 -26 -15 -89 -10 -86 8 -118 -5 -106 -42 10 -29 46 -37
111 -24 39 8 63 8 85 0 25 -8 39 -7 68 6 24 11 57 16 92 14 51 -3 55 -1 68 26
11 21 12 34 3 52 -11 25 -31 29 -68 14z"/>
<path d="M6683 2083 c-7 -2 -22 -25 -33 -50 -16 -36 -18 -49 -8 -66 6 -12 12
-42 12 -67 1 -39 4 -45 26 -50 18 -4 26 -13 28 -34 l4 -29 60 7 c72 7 69 6
118 68 49 62 54 111 15 148 -14 13 -25 33 -25 46 0 12 -7 25 -16 28 -18 7
-163 7 -181 -1z m131 -66 c21 -16 31 -80 19 -127 -10 -35 -10 -35 -59 -32 -27
1 -51 8 -53 14 -2 7 -15 23 -29 37 -20 20 -22 28 -13 40 6 9 18 31 26 49 13
28 20 32 53 32 21 0 46 -6 56 -13z"/>
<path d="M646 1452 c-3 -5 -23 -14 -44 -21 -35 -12 -43 -11 -70 4 -26 16 -35
17 -75 5 -47 -13 -61 -28 -51 -55 8 -21 45 -28 96 -20 24 3 68 6 99 5 94 -1
124 20 103 74 -6 17 -49 22 -58 8z"/>
</g>
</svg>
