<?xml version="1.0" standalone="no"?>
<!DOCTYPE svg PUBLIC "-//W3C//DTD SVG 20010904//EN"
 "http://www.w3.org/TR/2001/REC-SVG-20010904/DTD/svg10.dtd">
<svg version="1.0" xmlns="http://www.w3.org/2000/svg"
 width="468.000000pt" height="420.000000pt" viewBox="0 0 468.000000 420.000000"
 preserveAspectRatio="xMidYMid meet">
<metadata>
Created by potrace 1.10, written by Peter Selinger 2001-2011
</metadata>
<g transform="translate(0.000000,420.000000) scale(0.100000,-0.100000)"
fill="#000000" stroke="none">
<path d="M758 3369 c-43 -40 -38 -11 -58 -348 -7 -124 -14 -181 -25 -198 -10
-14 -17 -58 -20 -120 -3 -54 -7 -116 -10 -138 -3 -22 -6 -90 -6 -152 -2 -104
-4 -114 -25 -134 -30 -28 -30 -51 -3 -88 16 -22 22 -47 25 -112 11 -238 27
-403 40 -435 10 -23 20 -117 30 -267 8 -128 19 -236 25 -241 15 -17 10 -41
-14 -64 -25 -23 -52 -29 -62 -12 -3 6 -19 10 -35 10 -32 0 -48 -20 -52 -67 -3
-39 8 -53 43 -53 24 0 32 7 47 38 16 33 21 37 52 34 44 -3 62 -27 57 -72 -7
-62 12 -329 25 -353 7 -12 18 -57 24 -101 7 -44 18 -82 25 -87 21 -12 2186 -6
2198 6 6 6 13 76 17 155 5 99 13 164 26 205 13 40 22 113 28 215 14 225 19
273 37 306 15 28 20 144 7 165 -8 14 -34 11 -34 -4 0 -8 -8 -21 -19 -31 -28
-26 -49 -125 -61 -296 -7 -96 -17 -163 -25 -176 -15 -23 -35 -241 -35 -375 0
-51 -4 -80 -13 -87 -19 -16 -613 -20 -628 -5 -8 8 -8 29 0 75 6 36 11 90 11
122 0 31 7 70 15 85 10 20 16 78 20 187 3 88 10 245 14 349 5 105 6 215 4 246
-3 34 -1 65 7 79 l12 22 23 -22 c32 -30 79 -21 115 22 27 32 28 32 70 19 37
-11 45 -10 58 3 19 19 21 78 3 100 -21 25 -50 19 -63 -11 -17 -39 -15 -38 -61
-39 -23 -1 -58 -5 -79 -9 -48 -10 -59 10 -47 90 5 33 9 133 9 222 1 94 5 165
11 169 6 3 166 6 357 6 l347 1 -3 -84 c-3 -68 -8 -88 -24 -106 -33 -35 -9
-103 36 -103 22 0 46 -17 46 -32 0 -5 -11 -13 -25 -18 -14 -5 -30 -21 -37 -35
-6 -14 -15 -25 -20 -25 -13 0 -86 -79 -93 -101 -4 -10 -10 -19 -15 -19 -5 0
-44 -36 -87 -80 -43 -43 -83 -84 -90 -91 -21 -21 -51 -51 -62 -62 -22 -22 -87
-82 -130 -119 -34 -31 -41 -42 -35 -60 3 -13 7 -24 8 -25 5 -6 40 -6 88 1 42
5 64 14 87 37 17 16 40 29 51 29 19 0 43 19 120 94 14 13 35 27 47 30 12 4 25
15 28 25 3 10 16 23 29 29 14 6 26 21 28 34 2 15 11 24 26 26 13 2 27 14 32
27 5 12 21 27 37 33 15 6 72 53 126 106 54 53 124 117 154 143 54 46 58 48
114 46 53 -1 63 -5 108 -44 28 -24 53 -55 56 -70 3 -15 19 -38 36 -53 16 -14
29 -33 29 -41 0 -8 14 -22 32 -31 17 -9 39 -26 49 -38 15 -18 27 -21 117 -21
90 0 104 2 129 23 15 12 43 29 61 37 17 9 32 22 32 29 0 8 12 29 27 46 51 61
53 217 3 274 -15 17 -30 39 -33 49 -4 9 -19 22 -34 28 -16 6 -39 20 -51 32
-22 21 -33 22 -175 22 l-152 0 -3 27 c-3 23 2 30 32 42 19 8 72 52 119 99 l84
85 6 68 c7 86 -3 153 -29 183 -64 74 -100 101 -150 111 -29 6 -58 18 -64 26
-16 18 -29 18 -52 -2 -10 -10 -40 -20 -67 -25 -54 -8 -101 -46 -155 -126 -27
-40 -28 -46 -24 -145 3 -89 6 -107 26 -134 19 -25 21 -35 13 -57 -6 -15 -15
-27 -20 -27 -5 0 -14 -14 -20 -30 -5 -17 -17 -33 -25 -36 -8 -3 -27 -26 -41
-50 -31 -52 -69 -67 -165 -62 l-65 3 -1 150 c-2 214 -13 353 -28 378 -15 24
-21 80 -36 341 -8 127 -15 185 -25 199 -8 12 -15 40 -15 62 0 48 -24 153 -37
166 -6 6 -448 11 -1153 12 l-1144 2 -38 -36z m738 -70 c41 -25 43 -44 6 -63
-22 -11 -60 -13 -188 -9 -205 7 -229 3 -244 -42 -17 -51 -82 -114 -132 -128
-42 -13 -43 -14 -51 -67 -4 -30 -7 -102 -8 -160 0 -84 -5 -113 -21 -144 -13
-28 -18 -50 -13 -72 6 -34 12 -38 78 -50 44 -7 87 -60 87 -106 0 -16 9 -37 20
-48 20 -20 32 -21 206 -19 210 2 220 -1 209 -60 -4 -20 -11 -41 -15 -46 -6 -7
-132 -10 -361 -8 -314 1 -353 3 -362 18 -5 9 -6 23 -3 31 3 8 11 87 16 176 7
99 17 172 25 188 9 18 18 95 25 224 6 108 18 218 26 244 7 26 14 59 14 73 0
14 6 34 14 45 13 18 36 20 313 30 164 6 304 11 312 12 7 1 29 -7 47 -19z
m1268 6 c146 -3 265 -10 271 -15 7 -6 14 -54 18 -118 3 -65 12 -124 22 -152
21 -54 22 -60 35 -330 8 -157 14 -220 25 -237 8 -12 15 -36 15 -52 0 -16 5
-42 11 -57 5 -16 8 -37 5 -49 -5 -20 -11 -20 -348 -19 -189 0 -349 4 -356 8
-15 9 -16 92 0 102 6 4 91 6 189 5 168 -2 179 -1 198 18 12 12 21 33 21 47 0
48 37 93 87 107 49 13 69 37 54 65 -5 9 -12 98 -16 197 -4 99 -11 189 -15 201
-6 15 -21 23 -47 28 -48 8 -123 74 -123 109 0 13 -9 32 -21 43 -19 17 -38 19
-203 19 -99 0 -187 4 -193 8 -18 12 -16 47 4 69 14 16 26 18 63 14 25 -3 162
-8 304 -11z m-755 -9 c165 0 303 -4 306 -8 4 -4 7 -19 6 -33 -3 -37 -3 -45 3
-220 13 -419 16 -455 32 -480 14 -22 18 -57 14 -120 -1 -11 4 -54 11 -95 10
-59 10 -101 1 -195 -7 -66 -12 -141 -12 -166 0 -26 -7 -63 -16 -84 -11 -26
-15 -62 -13 -119 3 -69 0 -86 -19 -116 -26 -41 -27 -62 -7 -94 14 -21 14 -53
4 -277 -9 -202 -15 -258 -27 -272 -13 -15 -16 -61 -20 -270 -2 -139 -7 -256
-12 -261 -9 -9 -614 -11 -629 -2 -5 3 -9 57 -10 118 0 62 -5 228 -11 368 -10
234 -12 256 -30 272 -26 21 -25 34 4 53 35 23 38 51 9 86 -27 32 -29 58 -47
582 -5 137 -8 161 -25 183 -17 22 -19 35 -14 97 3 40 12 82 20 94 10 15 16 64
19 165 2 79 9 234 15 345 6 111 8 211 4 222 -3 12 3 37 15 60 22 45 25 82 9
112 -20 37 30 72 89 62 18 -3 167 -6 331 -7z m-522 -164 c3 -13 1 -112 -5
-220 -6 -109 -12 -237 -14 -287 -3 -73 -7 -97 -26 -127 l-23 -36 -142 5 c-78
3 -153 10 -167 17 -16 7 -27 23 -33 49 -9 38 -39 66 -101 97 l-31 15 4 155 c1
85 7 163 12 173 6 10 21 17 39 17 22 0 42 13 80 50 27 28 50 56 50 63 0 7 6
21 14 32 13 18 26 20 175 21 l162 0 6 -24z m1221 14 c19 -7 42 -45 42 -72 0
-8 11 -20 25 -26 14 -6 31 -21 40 -34 8 -13 29 -26 50 -30 19 -3 39 -11 44
-18 5 -6 11 -81 13 -166 3 -152 3 -154 -20 -166 -40 -20 -102 -82 -102 -102 0
-10 -10 -28 -22 -39 -20 -18 -40 -21 -170 -26 l-146 -6 -6 25 c-4 13 -9 81
-11 149 -3 79 -10 135 -19 153 -19 38 -38 318 -24 354 6 14 24 16 147 13 77
-2 149 -6 159 -9z m1183 -458 c22 -6 39 -15 39 -21 0 -5 17 -25 37 -43 36 -33
38 -38 41 -108 5 -85 -8 -119 -41 -114 -20 3 -22 10 -25 80 -2 67 -5 78 -23
83 -11 4 -24 17 -29 30 -11 28 -58 40 -126 32 -35 -3 -52 -13 -79 -42 -33 -35
-35 -40 -35 -110 0 -67 2 -75 23 -86 12 -6 30 -21 39 -32 14 -18 26 -21 74
-19 50 2 63 7 90 33 35 34 70 36 67 4 -1 -11 -9 -24 -19 -30 -10 -5 -32 -24
-48 -41 -17 -17 -38 -35 -47 -40 -19 -10 -120 -97 -155 -132 -41 -43 -71 -73
-94 -95 -6 -7 -38 -38 -71 -69 -32 -32 -63 -58 -68 -58 -5 0 -61 -52 -125
-115 -64 -63 -121 -115 -127 -115 -12 0 -146 -134 -164 -163 -12 -19 -75 -35
-75 -19 0 6 47 58 105 116 58 58 111 122 119 141 8 19 22 35 31 35 9 0 21 13
26 30 6 17 15 30 21 30 13 0 98 86 98 100 0 6 8 13 18 17 9 3 31 20 47 37 17
17 50 50 75 73 73 67 100 97 100 109 0 6 14 29 31 50 26 33 30 45 26 77 -3 23
-15 47 -31 62 -24 22 -26 31 -26 105 0 79 1 81 35 116 19 19 35 40 35 47 0 27
21 40 76 47 89 11 113 11 155 -2z m-42 -144 c29 -37 26 -70 -10 -109 l-32 -33
-48 26 c-40 22 -49 32 -49 55 0 55 32 85 92 86 17 1 34 -8 47 -25z m-2421
-348 c3 -4 7 -64 8 -135 1 -95 5 -136 17 -157 12 -22 18 -90 27 -290 6 -143 8
-277 5 -297 -5 -26 -2 -48 9 -71 13 -27 14 -44 7 -83 -10 -49 -4 -90 18 -147
7 -16 11 -57 11 -90 -1 -34 4 -135 10 -226 14 -210 14 -210 6 -217 -7 -7 -633
-6 -645 1 -4 3 -11 64 -14 135 -4 86 -11 138 -21 153 -13 23 -29 159 -42 378
-4 58 -13 123 -20 146 -12 37 -26 187 -38 404 -3 47 -11 99 -20 115 -9 18 -19
87 -26 170 -6 77 -13 153 -16 168 -3 15 -1 33 4 40 8 9 98 12 362 10 193 0
354 -4 358 -7z m2690 -136 c15 -16 35 -30 44 -30 11 0 23 -11 29 -27 5 -14 21
-37 36 -50 23 -22 25 -30 21 -78 -5 -62 -26 -93 -116 -175 -29 -27 -40 -30
-97 -30 -64 0 -65 0 -110 48 -25 26 -55 56 -65 67 -11 12 -20 29 -20 38 0 25
-65 83 -132 118 -68 35 -86 59 -59 83 9 9 22 16 27 16 5 0 26 8 46 18 24 13
60 19 109 20 39 1 74 4 77 7 3 3 45 5 95 5 86 0 90 -1 115 -30z m-780 -42 c28
-28 14 -45 -44 -53 -49 -6 -59 -4 -76 13 -18 18 -18 20 -3 36 20 19 105 22
123 4z"/>
<path d="M1731 2986 c-7 -9 -9 -29 -5 -55 6 -40 5 -42 -24 -53 -34 -13 -45
-29 -36 -53 6 -15 41 -24 106 -28 50 -3 56 -12 28 -42 -22 -23 -22 -29 -14
-97 8 -63 12 -73 30 -76 33 -5 76 76 83 157 6 70 26 95 57 76 21 -13 51 -90
67 -168 12 -62 36 -92 57 -71 6 6 22 57 37 115 14 57 31 108 37 112 6 4 27 6
47 4 43 -6 69 7 69 33 0 25 -29 40 -74 40 -31 0 -36 3 -36 24 0 13 7 29 15 36
32 27 12 50 -45 50 -32 0 -45 -23 -35 -63 9 -34 -10 -67 -39 -67 -29 0 -48 22
-70 83 -16 43 -21 48 -45 45 -23 -3 -27 -8 -31 -48 -8 -62 -15 -70 -65 -70
-39 0 -45 3 -51 24 -3 14 -3 34 1 45 14 44 -36 81 -64 47z m346 -212 c-9 -9
-28 6 -21 18 4 6 10 6 17 -1 6 -6 8 -13 4 -17z"/>
<path d="M2158 1609 c-20 -11 -23 -44 -9 -82 12 -31 37 -41 53 -21 7 9 25 28
41 42 36 35 34 48 -9 56 -19 4 -41 9 -47 11 -7 3 -20 0 -29 -6z"/>
<path d="M1994 1550 c-13 -5 -24 -21 -28 -40 -5 -28 -9 -31 -28 -25 -76 24
-128 12 -128 -28 0 -15 11 -28 35 -41 l35 -19 40 27 c22 15 45 24 51 20 6 -3
35 4 65 16 58 24 78 56 54 85 -13 16 -62 19 -96 5z"/>
<path d="M1684 1432 c-17 -12 -22 -35 -13 -61 8 -21 13 -23 50 -17 23 4 50 11
60 17 23 12 25 55 3 63 -22 8 -87 7 -100 -2z"/>
<path d="M1357 1310 c-20 -11 -49 -20 -64 -20 -39 -1 -117 -41 -121 -63 -6
-30 17 -47 63 -47 58 0 75 8 75 34 0 42 14 51 59 36 35 -11 43 -11 66 4 33 22
32 38 -4 59 -35 21 -29 21 -74 -3z"/>
<path d="M1064 1214 c-16 -22 -30 -28 -84 -33 -58 -5 -66 -9 -82 -36 -26 -46
-15 -75 31 -75 42 0 54 7 71 39 11 22 16 23 65 17 48 -5 56 -4 69 16 10 13 13
32 9 47 -13 57 -47 67 -79 25z"/>
<path d="M3899 1988 c-16 -32 -21 -59 -20 -103 2 -78 8 -95 32 -95 13 0 24
-10 30 -30 10 -27 15 -30 52 -30 77 0 116 11 123 34 4 11 17 37 30 56 31 45
30 66 -6 120 -16 25 -30 50 -30 57 0 22 -38 33 -114 33 l-76 0 -21 -42z m123
-28 c21 -6 42 -19 48 -30 13 -24 13 -81 0 -114 -9 -24 -15 -26 -64 -26 l-55 0
-7 45 c-7 50 0 101 17 122 14 16 14 16 61 3z"/>
<path d="M2930 1860 c-27 -27 -25 -46 5 -66 48 -32 111 17 85 66 -14 26 -63
27 -90 0z"/>
<path d="M2784 1820 c-44 -31 -57 -51 -48 -74 7 -19 55 -29 94 -21 35 8 35 8
44 57 5 26 2 40 -9 52 -22 22 -33 20 -81 -14z"/>
</g>
</svg>
