<?xml version="1.0" standalone="no"?>
<!DOCTYPE svg PUBLIC "-//W3C//DTD SVG 20010904//EN"
 "http://www.w3.org/TR/2001/REC-SVG-20010904/DTD/svg10.dtd">
<svg version="1.0" xmlns="http://www.w3.org/2000/svg"
 width="156.000000pt" height="140.000000pt" viewBox="0 0 156.000000 140.000000"
 preserveAspectRatio="xMidYMid meet">
<metadata>
Created by potrace 1.10, written by Peter Selinger 2001-2011
</metadata>
<g transform="translate(0.000000,140.000000) scale(0.050000,-0.050000)"
fill="#aac7d8" stroke="none">
<path d="M1255 2505 c-7 -12 -40 -122 -66 -219 -5 -16 -41 -20 -118 -12 -104
11 -111 9 -111 -31 0 -30 12 -43 40 -43 67 0 45 -28 -54 -69 -196 -80 -411
-345 -479 -591 -123 -443 209 -933 733 -1082 112 -31 600 -34 664 -4 25 12
100 42 166 67 772 290 795 1310 37 1644 -102 45 -103 46 -102 133 3 205 -241
245 -306 50 -18 -57 -32 -68 -81 -68 -57 0 -77 26 -38 50 33 20 23 90 -15 102
-35 12 -70 25 -171 66 -65 26 -89 28 -99 7z m120 -84 c19 -10 51 -23 70 -29
31 -9 56 -152 27 -152 -5 0 -23 -5 -40 -12 -21 -8 -32 -1 -32 20 0 18 9 32 20
32 11 0 20 9 20 20 0 11 -15 20 -33 20 -42 0 -107 57 -107 93 0 32 27 34 75 8z
m465 -132 c0 -19 -14 -29 -33 -25 -51 9 -57 56 -9 56 25 0 42 -13 42 -31z
m-41 -114 c1 -8 -12 -15 -28 -15 -17 0 -63 -18 -103 -41 -40 -23 -92 -38 -116
-34 -41 8 -41 9 -3 25 67 30 131 96 131 135 0 39 116 -29 119 -70z m-424 49
c5 -14 -12 -24 -43 -24 -54 0 -71 29 -27 47 35 13 61 5 70 -23z m205 -34 c0
-19 -19 -30 -50 -30 -31 0 -50 11 -50 30 0 19 19 30 50 30 31 0 50 -11 50 -30z
m-370 -50 c7 -11 33 -20 58 -20 162 0 341 -234 185 -242 -24 -1 -72 -5 -108
-8 -45 -4 -65 3 -65 22 0 20 28 28 100 28 55 0 100 9 100 20 0 11 -14 20 -32
20 -17 0 -36 18 -42 40 -11 41 -46 56 -46 20 0 -11 -32 -20 -72 -20 -39 0 -96
-16 -125 -37 -29 -20 -84 -48 -123 -63 -68 -27 -99 -54 -100 -85 0 -27 153
-16 217 16 79 40 88 34 156 -111 65 -137 78 -141 223 -68 137 68 137 69 62
219 -36 71 -61 133 -56 138 26 26 97 -20 118 -76 54 -149 67 -163 157 -169 74
-6 93 2 135 50 100 117 19 266 -146 266 -51 0 -51 1 -16 40 62 69 140 47 390
-110 526 -331 472 -1059 -102 -1386 -145 -82 -158 -81 -158 14 0 54 -10 82
-33 90 -47 18 -55 3 -50 -98 3 -52 -4 -90 -16 -90 -12 0 -21 43 -21 97 l0 97
-75 -5 -75 -4 -6 -123 -6 -122 -76 0 -77 0 -10 175 c-10 189 -4 225 34 225 18
0 22 -29 15 -102 -8 -92 -6 -101 28 -95 39 8 44 25 86 313 20 140 47 184 109
184 97 -1 133 -23 133 -82 0 -32 10 -100 22 -153 61 -260 63 -265 101 -265 42
0 49 60 18 178 -10 39 -30 138 -43 219 -22 126 -32 149 -74 165 -47 18 -48 21
-14 58 63 70 12 176 -94 193 -122 20 -184 -84 -128 -215 10 -23 2 -36 -27 -43
-28 -8 -41 -28 -41 -62 0 -94 -38 -75 -44 22 -5 83 -14 99 -66 125 -53 27 -60
40 -60 118 0 117 -74 182 -166 144 -72 -30 -113 -108 -84 -162 31 -58 24 -74
-38 -87 -96 -19 -114 -402 -22 -467 33 -24 40 -51 40 -167 0 -165 -5 -166
-170 -67 -605 365 -628 1022 -50 1405 199 131 242 148 270 103z m524 -84 c79
-29 82 -42 18 -71 -50 -23 -112 17 -112 72 0 29 11 29 94 -1z m106 -137 c0
-29 -11 -40 -35 -35 -52 10 -58 76 -6 76 28 0 41 -13 41 -41z m-272 -104 c22
-81 -151 -183 -181 -106 -6 17 3 44 21 62 18 17 32 40 32 49 0 16 40 32 93 38
12 1 28 -18 35 -43z m-212 -370 c-10 -52 -76 -58 -76 -6 0 28 13 41 41 41 29
0 40 -11 35 -35z m450 -73 c13 -33 -2 -52 -39 -52 -15 0 -27 18 -27 40 0 45
50 54 66 12z m-330 -167 c5 -34 -3 -45 -35 -45 -40 0 -41 -10 -41 -330 0 -354
-34 -466 -44 -145 -8 263 -63 271 -72 10 -10 -307 -44 -195 -44 145 0 307 -2
320 -40 320 -40 0 -56 57 -26 87 39 40 296 4 302 -42z"/>
</g>
</svg>
