 <svg  version="1.0" xmlns="http://www.w3.org/2000/svg"  width="900.000000pt" height="231.000000pt" viewBox="0 0 900.000000 231.000000"  preserveAspectRatio="xMidYMid meet">  <g transform="translate(0.000000,231.000000) scale(0.100000,-0.100000)" fill="#646cff" stroke="none"> <path d="M625 1986 c-27 -18 -70 -44 -95 -57 -25 -13 -55 -32 -67 -43 l-23 -19 0 -369 0 -368 26 -10 c32 -13 94 -13 114 0 9 5 17 31 20 66 3 40 10 60 23 68 25 16 37 -7 37 -70 0 -32 5 -56 14 -63 20 -17 350 -9 371 9 9 8 15 30 15 60 0 51 16 75 44 64 11 -4 16 -19 16 -49 0 -24 5 -56 10 -70 l10 -27 182 6 c134 3 183 8 189 18 5 7 9 37 9 66 0 38 4 54 15 58 27 11 45 -16 45 -67 0 -73 11 -79 143 -79 86 0 118 4 135 16 l22 15 0 363 0 363 -23 21 c-13 12 -27 22 -31 22 -4 0 -49 25 -100 55 -100 60 -121 65 -157 37 -13 -10 -56 -38 -96 -61 -76 -45 -116 -49 -144 -15 -6 8 -15 14 -20 14 -4 0 -35 18 -68 40 -33 22 -69 40 -80 40 -11 0 -63 -27 -116 -60 -53 -33 -105 -60 -115 -60 -18 0 -124 61 -179 102 -35 26 -70 22 -126 -16z m175 -95 c46 -28 86 -55 90 -62 4 -6 7 -154 6 -328 l-1 -316 -79 -3 c-46 -2 -84 2 -90 8 -5 5 -9 28 -7 51 3 63 -19 89 -75 89 -71 0 -84 -11 -84 -74 0 -60 -19 -88 -47 -70 -14 9 -16 46 -14 315 2 240 5 309 16 326 12 18 54 47 148 100 35 20 49 16 137 -36z m454 2 c45 -26 86 -54 92 -61 7 -10 10 -120 9 -331 l-1 -316 -69 -3 c-110 -5 -115 -2 -115 66 0 32 -5 63 -12 70 -7 7 -35 12 -64 12 -64 0 -77 -14 -84 -89 -5 -52 -7 -56 -30 -56 l-25 0 4 315 c2 173 6 320 10 327 10 18 163 111 185 112 11 1 56 -20 100 -46z m445 8 c37 -22 78 -48 91 -59 l24 -20 -2 -313 c-1 -172 -6 -317 -10 -321 -5 -5 -42 -8 -83 -6 l-74 3 -5 56 c-7 75 -20 89 -85 89 -65 0 -78 -14 -81 -82 -3 -58 -25 -91 -46 -70 -10 10 -12 83 -10 320 2 169 6 315 8 325 3 9 22 26 42 37 45 25 70 40 101 63 35 25 55 22 130 -22z"/> <path d="M586 1768 c-19 -27 -20 -48 -4 -83 13 -30 33 -32 48 -6 19 36 6 111 -20 111 -5 0 -16 -10 -24 -22z"/> <path d="M767 1773 c-12 -12 -7 -90 6 -101 20 -17 57 13 57 44 0 49 -38 83 -63 57z"/> <path d="M580 1551 c-23 -55 10 -120 46 -90 26 22 10 119 -20 119 -7 0 -19 -13 -26 -29z"/> <path d="M771 1567 c-15 -15 -14 -92 2 -105 7 -6 21 -6 35 -1 16 6 22 16 22 39 0 54 -34 92 -59 67z"/> <path d="M1057 1779 c-48 -28 -38 -113 12 -107 24 3 26 6 26 57 0 57 -8 67 -38 50z"/> <path d="M1220 1761 c-5 -11 -10 -29 -10 -40 0 -27 35 -62 54 -55 18 7 29 53 20 88 -8 32 -48 36 -64 7z"/> <path d="M1232 1568 c-29 -37 -24 -103 9 -111 32 -8 52 21 46 66 -7 50 -33 71 -55 45z"/> <path d="M1042 1558 c-6 -6 -12 -29 -12 -50 0 -31 5 -40 23 -47 38 -14 48 -3 45 53 -2 42 -6 51 -23 54 -11 1 -26 -3 -33 -10z"/> <path d="M1692 1767 c-29 -30 -28 -71 1 -92 21 -15 23 -14 40 7 20 24 17 72 -6 96 -11 10 -17 8 -35 -11z"/> <path d="M1501 1766 c-7 -8 -11 -32 -9 -53 3 -33 7 -38 30 -41 22 -3 29 2 33 21 11 44 2 82 -21 85 -11 2 -26 -4 -33 -12z"/> <path d="M1691 1559 c-12 -13 -21 -35 -21 -49 0 -27 27 -60 48 -60 33 0 39 93 8 120 -11 8 -19 6 -35 -11z"/> <path d="M1494 1556 c-3 -8 -4 -31 -2 -52 3 -36 5 -39 33 -39 26 0 30 4 33 29 6 50 -6 76 -34 76 -13 0 -27 -6 -30 -14z"/> <path d="M4425 1960 c-44 -27 -85 -50 -90 -50 -6 0 -25 -13 -43 -29 l-32 -30 0 -360 c0 -409 -4 -391 81 -391 68 0 89 22 89 96 0 52 1 55 23 52 19 -3 22 -10 25 -60 2 -35 9 -61 18 -69 22 -18 358 -19 376 -1 7 7 14 36 15 65 0 29 2 56 2 60 1 5 11 7 24 5 19 -3 22 -10 25 -60 2 -34 9 -61 17 -68 16 -13 284 -23 342 -14 38 7 57 45 48 97 -6 30 -4 36 14 42 32 10 41 -2 41 -54 0 -74 8 -79 140 -87 102 -6 118 -5 133 10 15 16 17 51 17 375 0 351 0 359 -21 385 -12 15 -31 32 -43 37 -36 16 -130 70 -147 85 -8 8 -24 14 -33 14 -17 0 -174 -88 -207 -117 -10 -8 -23 -11 -35 -6 -32 13 -183 104 -190 114 -15 25 -62 7 -174 -71 -14 -9 -39 -24 -57 -34 -32 -16 -33 -16 -85 15 -29 18 -76 47 -105 66 -28 18 -60 33 -70 33 -10 0 -54 -23 -98 -50z m205 -84 l85 -52 0 -325 0 -324 -87 -3 c-86 -3 -88 -2 -94 23 -3 14 -4 35 -1 47 3 11 -1 34 -9 50 -13 25 -20 28 -64 28 -63 0 -80 -17 -80 -78 0 -54 -11 -77 -33 -69 -12 4 -14 53 -13 326 1 199 5 324 11 330 24 23 162 100 180 100 11 0 58 -24 105 -53z m453 3 c45 -29 85 -57 89 -63 5 -6 7 -153 5 -326 l-2 -315 -87 -3 c-86 -3 -88 -2 -94 23 -3 14 -4 35 -1 47 6 22 -8 57 -27 70 -6 4 -32 8 -59 8 -42 0 -49 -3 -57 -25 -5 -14 -9 -44 -8 -67 1 -30 -4 -45 -17 -54 -16 -12 -21 -12 -33 0 -11 11 -14 35 -11 93 1 43 2 182 1 309 -2 216 -1 232 17 248 32 29 165 105 184 105 9 1 54 -22 100 -50z m440 12 c34 -22 72 -47 85 -56 l22 -16 -2 -322 -3 -322 -75 -6 c-44 -4 -80 -2 -87 4 -8 5 -13 32 -13 63 0 66 -16 84 -75 84 -59 0 -75 -18 -75 -84 0 -61 -19 -88 -45 -66 -13 11 -15 59 -15 324 0 171 4 316 8 322 14 23 168 111 195 113 10 0 46 -17 80 -38z"/> <path d="M4402 1758 c-23 -23 -6 -108 21 -108 42 0 65 90 28 110 -25 13 -34 13 -49 -2z"/> <path d="M4584 1756 c-3 -8 -4 -31 -2 -52 2 -33 7 -40 27 -42 44 -7 69 59 35 92 -19 20 -53 21 -60 2z"/> <path d="M4396 1544 c-17 -44 -2 -94 28 -94 31 0 46 19 46 55 0 17 -5 36 -12 43 -17 17 -55 15 -62 -4z"/> <path d="M4584 1546 c-3 -8 -4 -31 -2 -52 2 -31 7 -40 24 -42 45 -6 72 59 38 92 -19 20 -53 21 -60 2z"/> <path d="M4868 1759 c-34 -19 -11 -109 27 -109 19 0 36 65 25 96 -10 26 -25 29 -52 13z"/> <path d="M5054 1757 c-3 -8 -4 -34 -2 -58 2 -36 7 -44 22 -44 28 0 49 54 33 86 -14 28 -45 37 -53 16z"/> <path d="M4872 1554 c-15 -10 -22 -25 -22 -49 0 -44 36 -74 59 -50 8 8 15 31 15 50 0 19 -7 42 -15 50 -13 13 -17 13 -37 -1z"/> <path d="M5063 1559 c-15 -15 -17 -88 -3 -109 9 -13 14 -11 35 13 31 35 31 49 3 82 -19 21 -25 24 -35 14z"/> <path d="M5322 1758 c-18 -18 -14 -73 6 -91 10 -10 21 -17 25 -17 16 0 37 35 37 64 0 35 -15 56 -40 56 -9 0 -21 -5 -28 -12z"/> <path d="M5510 1755 c-8 -9 -10 -28 -7 -52 8 -47 22 -61 45 -47 12 8 17 25 17 60 0 42 -3 49 -21 52 -11 2 -27 -4 -34 -13z"/> <path d="M5321 1546 c-17 -20 -10 -77 12 -90 25 -16 51 4 55 43 4 36 -12 61 -38 61 -10 0 -23 -6 -29 -14z"/> <path d="M5506 1534 c-4 -15 -4 -40 -1 -56 6 -24 11 -29 33 -26 51 6 49 108 -2 108 -17 0 -26 -7 -30 -26z"/> <path d="M5905 1965 c-38 -24 -83 -51 -100 -58 -60 -28 -59 -15 -57 -418 1 -203 4 -374 7 -379 3 -6 28 -10 56 -10 65 0 91 24 89 83 -3 66 -2 69 23 65 19 -3 23 -10 27 -60 3 -31 10 -62 17 -69 16 -16 357 -18 373 -2 7 6 13 37 14 70 1 55 2 58 26 58 23 0 25 -4 30 -58 3 -35 11 -61 20 -67 38 -23 345 -25 374 -1 9 8 16 33 18 69 3 49 6 57 23 57 17 0 20 -7 21 -45 1 -76 12 -86 100 -93 127 -11 181 -9 198 9 14 13 16 61 16 374 l0 358 -32 27 c-18 15 -41 31 -52 36 -12 5 -33 17 -48 27 -61 40 -122 72 -136 72 -16 0 -45 -17 -154 -87 l-68 -44 -37 20 c-21 11 -69 40 -108 65 -38 25 -79 46 -90 46 -18 0 -46 -15 -141 -77 -10 -7 -36 -22 -57 -33 l-38 -21 -45 31 c-25 16 -47 30 -49 30 -2 0 -27 16 -56 35 -30 19 -63 35 -74 35 -11 0 -51 -21 -90 -45z m182 -81 c43 -25 85 -52 94 -60 14 -13 16 -51 13 -327 -1 -171 -3 -316 -3 -320 -1 -4 -43 -6 -93 -5 l-93 3 -3 50 c-4 92 -6 95 -60 95 -69 0 -88 -18 -94 -85 -5 -63 -19 -85 -41 -67 -12 10 -14 68 -13 327 1 221 4 317 12 325 22 22 169 108 186 109 9 1 52 -20 95 -45z m460 0 c43 -26 84 -52 91 -59 10 -9 13 -81 13 -325 1 -172 -3 -316 -8 -320 -4 -4 -43 -10 -86 -12 -91 -6 -98 0 -94 81 2 62 -7 71 -81 71 -47 0 -53 -3 -62 -26 -6 -14 -10 -45 -10 -69 0 -33 -5 -47 -19 -54 -13 -8 -22 -7 -28 2 -5 7 -9 148 -8 325 2 255 4 316 16 327 24 23 163 104 181 104 10 1 52 -20 95 -45z m451 4 c122 -75 110 -33 106 -390 -2 -171 -7 -315 -11 -319 -10 -10 -147 -14 -162 -5 -6 4 -11 33 -11 65 0 31 -5 62 -12 69 -18 18 -103 15 -122 -4 -10 -10 -16 -33 -16 -64 0 -49 -20 -85 -44 -77 -8 3 -11 95 -12 325 -2 299 0 322 17 338 29 26 162 102 182 103 10 1 48 -18 85 -41z"/> <path d="M5877 1763 c-4 -3 -7 -25 -7 -48 0 -45 19 -71 44 -62 20 8 31 70 17 96 -11 20 -41 28 -54 14z"/> <path d="M6057 1763 c-9 -8 -9 -66 -1 -87 11 -28 50 -19 64 14 17 41 0 80 -33 80 -13 0 -27 -3 -30 -7z"/> <path d="M5874 1546 c-3 -8 -4 -31 -2 -52 3 -34 6 -39 28 -39 32 0 49 42 32 80 -13 27 -49 34 -58 11z"/> <path d="M6062 1548 c-7 -7 -12 -26 -12 -43 0 -35 15 -55 42 -55 35 0 51 66 22 94 -19 19 -36 20 -52 4z"/> <path d="M6520 1751 c-9 -23 -9 -38 0 -65 20 -61 60 -36 60 36 0 60 -39 78 -60 29z"/> <path d="M6336 1755 c-20 -20 -20 -38 -1 -75 29 -57 61 -26 53 51 -3 39 -26 49 -52 24z"/> <path d="M6526 1549 c-21 -30 -20 -61 2 -89 l17 -22 19 21 c24 27 24 68 -2 93 l-20 20 -16 -23z"/> <path d="M6334 1534 c-23 -35 -9 -79 26 -79 28 0 44 43 30 81 -12 31 -35 31 -56 -2z"/> <path d="M6792 1758 c-26 -26 -7 -98 26 -98 27 0 42 20 42 57 0 43 -41 68 -68 41z"/> <path d="M6983 1763 c-7 -2 -13 -22 -13 -43 0 -29 6 -43 22 -54 32 -22 48 -4 48 55 0 44 -2 49 -22 48 -13 0 -29 -3 -35 -6z"/> <path d="M6796 1547 c-12 -9 -17 -23 -14 -46 6 -66 70 -67 76 -2 5 52 -25 75 -62 48z"/> <path d="M6988 1549 c-11 -6 -18 -22 -18 -42 0 -43 12 -59 41 -55 22 3 24 8 24 53 0 53 -13 65 -47 44z"/> <path d="M3074 1456 c-3 -8 0 -33 6 -55 6 -23 8 -51 5 -61 -7 -23 -14 -24 -175 -10 -87 7 -116 6 -122 -3 -13 -21 -10 -177 5 -182 6 -3 71 -1 142 4 158 11 164 9 145 -69 -10 -43 -10 -54 1 -66 12 -12 20 -9 51 19 66 58 245 177 268 177 4 0 13 6 19 13 13 17 -11 41 -89 86 -58 33 -127 81 -190 131 -42 33 -58 37 -66 16z m109 -191 c23 -16 15 -51 -13 -60 -22 -7 -70 21 -70 41 0 14 32 32 55 33 6 0 18 -6 28 -14z"/> <path d="M8512 1403 c-8 -3 -37 -20 -65 -39 -59 -39 -84 -42 -120 -14 -14 11 -30 20 -35 20 -5 0 -15 7 -22 15 -20 24 -57 18 -116 -20 -30 -19 -62 -35 -72 -35 -10 0 -41 16 -71 35 -29 19 -62 35 -74 35 -12 0 -41 -15 -64 -33 -23 -17 -54 -40 -68 -50 l-25 -18 0 -239 c0 -131 3 -245 6 -254 5 -14 55 -16 454 -16 399 0 449 2 454 16 9 22 7 477 -2 489 -8 12 -114 85 -147 102 -11 6 -26 8 -33 6z m97 -129 l31 -26 -2 -192 -3 -191 -392 -3 c-366 -2 -393 -1 -400 15 -7 15 -9 104 -4 160 1 8 13 10 36 6 33 -5 35 -4 35 24 0 38 -5 43 -41 33 -25 -8 -30 -6 -35 15 -3 12 -4 34 -2 46 2 20 9 24 35 24 39 0 47 7 38 35 -4 13 -12 19 -21 16 -8 -3 -21 -9 -29 -12 -24 -10 -18 29 8 53 54 49 88 54 137 18 54 -40 88 -41 152 -6 31 17 67 31 80 31 12 0 49 -16 81 -35 l58 -35 76 39 c85 44 93 43 162 -15z"/> <path d="M7976 1243 c-13 -13 -6 -64 10 -70 25 -9 48 20 35 45 -11 21 -35 34 -45 25z"/> <path d="M8149 1229 c-14 -28 3 -71 25 -63 21 8 29 39 16 64 -14 26 -26 25 -41 -1z"/> <path d="M8439 1229 c-12 -23 1 -69 20 -69 20 0 34 41 22 66 -13 30 -27 30 -42 3z"/> <path d="M8257 1221 c-6 -23 9 -51 28 -51 20 0 28 17 21 46 -8 29 -41 33 -49 5z"/> <path d="M8557 1223 c-12 -12 -7 -31 10 -37 19 -8 48 17 39 33 -8 12 -39 15 -49 4z"/> <path d="M8151 1106 c-7 -8 -11 -27 -9 -43 2 -22 8 -28 28 -28 20 0 26 6 28 28 3 27 -12 57 -28 57 -4 0 -13 -6 -19 -14z"/> <path d="M8441 1106 c-7 -8 -11 -27 -9 -43 2 -22 8 -28 28 -28 20 0 26 6 28 28 3 27 -12 57 -28 57 -4 0 -13 -6 -19 -14z"/> <path d="M7967 1088 c-7 -25 8 -58 26 -58 34 0 52 62 21 74 -28 11 -42 6 -47 -16z"/> <path d="M8261 1096 c-16 -19 -11 -46 12 -60 15 -9 21 -7 33 9 8 11 13 29 12 40 -4 25 -40 32 -57 11z"/> <path d="M8550 1070 c0 -25 4 -30 24 -30 33 0 53 25 36 45 -7 8 -23 15 -36 15 -20 0 -24 -5 -24 -30z"/> <path d="M7473 1192 c-15 -2 -25 -13 -29 -30 -10 -48 -13 -52 -37 -52 -59 0 -62 -60 -4 -74 28 -7 37 -15 37 -31 0 -37 22 -57 60 -53 32 3 35 6 38 38 4 38 15 50 49 50 27 0 37 14 29 45 -5 18 -14 25 -39 27 -28 3 -33 7 -37 37 -5 36 -27 50 -67 43z"/> <path d="M430 1050 c-8 -5 -54 -32 -103 -60 -48 -28 -94 -62 -103 -75 -14 -21 -15 -69 -12 -380 3 -302 5 -357 18 -366 21 -14 131 -4 141 13 5 7 9 36 9 65 0 55 12 72 35 53 10 -8 15 -31 15 -66 0 -76 4 -77 221 -69 l179 8 0 64 c0 48 4 65 15 69 28 11 45 -16 45 -72 0 -50 2 -55 28 -65 18 -7 84 -8 195 -4 153 7 169 9 178 27 6 11 9 34 6 52 -5 36 7 66 28 66 11 0 15 -14 15 -57 0 -91 -7 -88 197 -86 98 1 184 2 191 3 8 0 12 20 12 65 0 52 4 67 16 72 32 12 49 -11 52 -73 2 -32 9 -62 15 -66 17 -11 249 -10 266 1 11 7 14 79 16 374 3 363 3 365 -18 385 -49 44 -211 132 -244 132 -11 0 -65 -27 -121 -61 l-102 -61 -93 55 c-50 31 -104 58 -118 62 -29 7 -118 -33 -191 -86 -23 -16 -47 -29 -55 -29 -8 0 -34 13 -57 29 -50 35 -159 91 -175 91 -17 0 -129 -59 -175 -92 -49 -35 -57 -35 -109 0 -121 82 -180 104 -217 82z m146 -116 l94 -55 -2 -322 -3 -322 -90 0 -90 0 -5 60 c-4 51 -9 61 -30 72 -27 14 -86 9 -107 -9 -7 -6 -13 -31 -13 -57 0 -55 -11 -74 -36 -69 -18 3 -19 19 -22 320 l-2 318 42 26 c24 15 66 42 93 60 28 19 56 34 63 34 7 0 56 -25 108 -56z m413 28 c25 -16 67 -41 94 -56 l47 -27 -2 -322 -3 -322 -84 -3 c-97 -3 -104 2 -96 64 7 53 -19 79 -80 79 -58 0 -75 -17 -75 -74 0 -26 -6 -56 -14 -67 -13 -17 -16 -17 -29 -4 -12 13 -14 66 -9 337 l5 322 27 11 c15 6 54 29 86 50 33 22 65 40 73 40 8 0 35 -13 60 -28z m466 -4 c28 -17 68 -41 90 -53 l40 -22 5 -314 c3 -173 4 -319 2 -326 -5 -18 -21 -20 -107 -14 l-80 6 -3 57 c-4 69 -31 94 -91 83 -51 -10 -61 -21 -61 -70 0 -58 -8 -75 -34 -75 l-22 0 0 320 c1 358 -5 329 81 376 28 15 61 35 74 46 32 25 48 23 106 -14z m448 4 c23 -16 61 -39 85 -52 23 -13 45 -33 48 -45 2 -11 3 -157 2 -325 l-3 -305 -85 0 -85 0 -3 57 c-4 71 -25 91 -86 81 -69 -10 -76 -17 -76 -78 0 -54 -13 -76 -32 -57 -7 7 -10 117 -9 324 2 353 -3 328 87 374 30 15 59 33 65 41 18 20 47 16 92 -15z"/> <path d="M363 822 c-18 -11 -25 -55 -14 -85 15 -40 57 -38 66 3 14 64 -13 107 -52 82z"/> <path d="M542 818 c-7 -7 -12 -28 -12 -48 0 -39 14 -60 41 -60 19 0 29 20 29 60 0 56 -27 79 -58 48z"/> <path d="M547 612 c-20 -22 -22 -83 -5 -100 17 -17 45 -15 52 4 15 38 0 114 -23 114 -4 0 -15 -8 -24 -18z"/> <path d="M350 601 c-14 -28 -13 -53 6 -79 35 -51 75 -5 59 68 -5 23 -12 30 -30 30 -14 0 -29 -9 -35 -19z"/> <path d="M811 816 c-7 -8 -11 -31 -9 -52 6 -72 70 -72 76 0 4 41 -11 66 -38 66 -10 0 -23 -6 -29 -14z"/> <path d="M994 805 c-27 -41 8 -108 50 -92 23 9 23 102 0 111 -26 10 -33 7 -50 -19z"/> <path d="M812 608 c-7 -7 -12 -28 -12 -48 0 -56 47 -84 70 -41 23 44 7 101 -30 101 -9 0 -21 -5 -28 -12z"/> <path d="M997 602 c-21 -23 -22 -51 -1 -80 23 -33 56 -25 66 15 17 65 -26 108 -65 65z"/> <path d="M1270 804 c-13 -32 -13 -51 0 -75 24 -43 70 -12 70 48 0 54 -52 74 -70 27z"/> <path d="M1454 816 c-3 -7 -4 -33 -2 -57 3 -41 5 -44 33 -44 28 0 30 3 33 43 2 24 -2 50 -9 58 -15 18 -48 18 -55 0z"/> <path d="M1269 599 c-14 -26 -3 -88 17 -96 38 -14 74 73 42 105 -19 19 -46 14 -59 -9z"/> <path d="M1449 593 c-16 -43 0 -87 33 -91 31 -4 42 20 36 79 -2 29 -7 34 -30 37 -23 3 -30 -2 -39 -25z"/> <path d="M1732 818 c-16 -16 -15 -70 2 -94 22 -28 50 -7 54 40 5 54 -26 84 -56 54z"/> <path d="M1906 815 c-17 -46 2 -105 34 -105 23 0 33 30 28 81 -2 28 -7 35 -29 37 -17 2 -29 -3 -33 -13z"/> <path d="M1733 608 c-18 -24 -22 -48 -13 -73 21 -56 70 -35 70 30 0 47 -34 72 -57 43z"/> <path d="M1912 608 c-14 -14 -16 -76 -3 -96 4 -8 19 -12 32 -10 20 3 24 9 27 46 4 60 -25 91 -56 60z"/> <path d="M4490 1048 c-14 -6 -71 -38 -127 -71 l-103 -60 0 -369 0 -368 23 -9 c12 -4 49 -5 82 -2 l60 6 3 68 c3 64 4 68 25 65 19 -3 23 -10 27 -68 l5 -65 197 -3 198 -2 5 22 c2 13 6 43 7 68 3 37 6 45 23 45 17 0 21 -8 25 -65 l5 -65 200 0 200 0 1 58 c0 60 12 84 38 74 11 -4 16 -24 18 -69 l3 -63 67 -5 c36 -3 99 -3 140 0 l73 5 3 372 2 372 -58 38 c-32 21 -87 54 -124 73 l-66 34 -58 -29 c-32 -16 -80 -44 -106 -62 -57 -40 -72 -41 -122 -7 -21 14 -67 42 -102 61 -77 41 -85 40 -203 -35 -41 -26 -82 -50 -91 -53 -9 -4 -33 6 -60 25 -48 34 -164 96 -177 95 -4 0 -19 -5 -33 -11z m89 -86 c25 -16 67 -41 94 -56 l47 -27 -2 -322 -3 -322 -78 -3 c-97 -4 -112 5 -103 61 9 54 -12 77 -71 77 -68 0 -83 -12 -83 -68 0 -54 -11 -77 -32 -69 -23 8 -20 643 2 657 8 6 43 26 77 45 34 20 65 40 68 45 10 17 36 11 84 -18z m458 0 c22 -15 64 -39 92 -55 l51 -27 -2 -323 -3 -322 -78 -3 c-97 -4 -111 5 -103 64 7 54 -13 74 -77 74 -60 0 -77 -18 -77 -80 0 -38 -4 -52 -19 -59 -23 -13 -44 7 -42 41 0 13 1 153 2 311 l1 288 41 26 c23 14 65 41 92 59 28 18 57 33 65 33 8 0 34 -12 57 -27z m475 -10 c31 -20 70 -45 87 -54 l31 -17 -2 -323 -3 -323 -79 -3 c-92 -3 -96 0 -96 74 0 58 -6 64 -74 64 -60 0 -75 -15 -78 -80 -3 -51 -5 -55 -28 -55 l-25 0 -3 305 c-1 168 0 314 2 326 3 12 22 28 46 39 22 10 61 33 87 51 27 18 55 33 63 33 8 0 41 -16 72 -37z"/> <path d="M4402 818 c-25 -25 -8 -108 22 -108 7 0 20 8 29 18 42 46 -8 133 -51 90z"/> <path d="M4591 816 c-18 -22 -10 -100 11 -104 23 -4 58 33 58 62 0 45 -45 71 -69 42z"/> <path d="M4399 596 c-7 -14 -9 -40 -5 -60 6 -30 11 -36 31 -36 43 0 62 72 27 103 -26 23 -41 21 -53 -7z"/> <path d="M4584 596 c-10 -26 1 -79 18 -90 37 -23 79 59 46 92 -16 16 -57 15 -64 -2z"/> <path d="M4858 805 c-14 -30 -2 -72 25 -89 14 -8 20 -8 27 4 11 17 13 70 4 94 -9 25 -43 19 -56 -9z"/> <path d="M5057 823 c-4 -3 -7 -28 -7 -55 0 -36 4 -50 16 -55 22 -8 44 22 44 62 0 42 -31 70 -53 48z"/> <path d="M4867 602 c-22 -24 -21 -65 1 -85 27 -25 39 -21 52 17 8 25 8 40 -1 60 -14 31 -30 33 -52 8z"/> <path d="M5054 607 c-3 -8 -4 -34 -2 -58 2 -36 7 -44 23 -44 31 0 50 48 33 82 -15 31 -45 42 -54 20z"/> <path d="M5322 818 c-19 -19 -14 -73 7 -92 29 -26 61 -6 61 39 0 51 -39 82 -68 53z"/> <path d="M5509 806 c-17 -36 0 -90 28 -94 26 -4 36 24 31 79 -4 45 -42 54 -59 15z"/> <path d="M5326 601 c-26 -28 -18 -85 12 -89 31 -5 52 15 52 49 0 26 -22 59 -39 59 -4 0 -16 -9 -25 -19z"/> <path d="M5508 595 c-17 -38 1 -90 32 -90 22 0 25 5 28 43 5 67 -36 99 -60 47z"/> <path d="M5912 1022 c-40 -20 -94 -53 -119 -72 l-46 -35 1 -360 c1 -198 2 -366 2 -372 0 -18 124 -18 138 0 6 7 12 37 14 67 3 47 6 55 23 55 17 0 21 -8 25 -65 l5 -65 196 -3 197 -2 6 23 c3 12 3 33 0 45 -10 35 4 72 26 72 22 0 36 -36 26 -68 -4 -11 -2 -31 4 -46 l10 -26 197 2 198 3 3 63 c2 46 7 65 18 69 24 9 35 -17 29 -62 -10 -71 0 -77 158 -78 113 -2 139 1 147 13 6 9 10 164 10 372 l0 356 -41 31 c-23 16 -83 51 -134 77 l-93 47 -45 -22 c-25 -12 -73 -40 -107 -62 -33 -21 -69 -39 -78 -39 -10 0 -34 12 -53 26 -19 14 -66 41 -105 61 l-72 36 -45 -22 c-25 -12 -73 -40 -107 -62 -33 -21 -68 -39 -76 -39 -8 0 -35 13 -58 29 -47 33 -159 91 -172 91 -5 0 -42 -17 -82 -38z m188 -90 l95 -57 0 -314 c0 -172 -3 -317 -6 -322 -3 -6 -46 -9 -95 -7 l-89 3 -3 55 c-2 30 -8 60 -14 67 -14 17 -99 17 -123 -1 -14 -10 -19 -24 -17 -49 1 -19 -2 -46 -8 -61 -8 -22 -13 -25 -29 -17 -18 10 -19 26 -18 313 0 167 3 311 7 322 6 17 174 125 195 125 6 0 53 -25 105 -57z m391 40 c13 -10 45 -29 72 -42 96 -50 87 -14 88 -367 0 -172 -2 -317 -6 -323 -3 -5 -43 -10 -90 -10 -79 0 -83 1 -89 24 -3 13 -3 37 0 53 9 44 -16 63 -81 63 -32 0 -57 -5 -62 -12 -4 -7 -10 -38 -13 -68 -5 -50 -7 -55 -30 -55 l-24 0 0 320 0 320 94 57 c52 32 100 58 106 58 6 0 22 -8 35 -18z m486 -17 c29 -19 55 -35 59 -35 4 0 22 -11 40 -25 l33 -25 -4 -311 c-2 -170 -7 -314 -10 -319 -4 -6 -42 -10 -85 -10 -88 0 -93 4 -88 75 3 46 -19 65 -75 65 -62 0 -77 -13 -77 -68 0 -56 -10 -75 -36 -70 -18 3 -19 19 -21 308 -3 306 -1 350 17 350 5 0 47 22 92 50 46 27 88 49 93 50 6 0 34 -16 62 -35z"/> <path d="M5874 816 c-3 -7 -4 -33 -2 -57 3 -39 6 -44 30 -47 24 -3 28 1 34 33 8 46 -8 85 -36 85 -11 0 -23 -6 -26 -14z"/> <path d="M6054 806 c-3 -13 -4 -38 -2 -57 2 -29 7 -35 30 -37 23 -3 29 2 34 25 4 15 7 36 6 46 -3 47 -57 65 -68 23z"/> <path d="M5874 607 c-3 -8 -4 -34 -2 -58 3 -39 6 -44 28 -44 51 0 53 106 2 113 -12 2 -24 -3 -28 -11z"/> <path d="M6062 608 c-13 -13 -16 -66 -6 -92 11 -28 50 -19 64 14 23 56 -21 115 -58 78z"/> <path d="M6342 818 c-14 -14 -16 -76 -3 -96 5 -8 17 -12 27 -10 16 3 19 12 19 58 0 57 -16 75 -43 48z"/> <path d="M6520 804 c-13 -34 1 -88 24 -92 24 -5 36 14 36 59 0 58 -42 82 -60 33z"/> <path d="M6525 606 c-20 -30 -13 -93 11 -103 41 -16 62 77 25 111 -19 17 -20 17 -36 -8z"/> <path d="M6336 598 c-21 -29 -20 -51 2 -79 13 -15 25 -20 36 -16 14 5 16 17 14 59 -3 60 -25 75 -52 36z"/> <path d="M6796 814 c-35 -35 -10 -109 35 -102 21 3 24 9 27 46 5 64 -27 92 -62 56z"/> <path d="M6982 818 c-15 -15 -16 -62 -2 -89 6 -11 21 -19 36 -19 24 0 25 2 22 58 -3 48 -6 57 -23 60 -11 1 -26 -3 -33 -10z"/> <path d="M6790 601 c-25 -48 10 -118 48 -95 21 13 28 80 11 100 -16 20 -46 17 -59 -5z"/> <path d="M6982 608 c-16 -16 -15 -69 1 -92 7 -10 22 -16 33 -14 16 3 19 12 19 58 0 47 -3 55 -20 58 -11 1 -26 -3 -33 -10z"/> </g> </svg> 