 <svg  version="1.0" xmlns="http://www.w3.org/2000/svg"  width="900.000000pt" height="231.000000pt" viewBox="0 0 900.000000 231.000000"  preserveAspectRatio="xMidYMid meet">  <g transform="translate(0.000000,231.000000) scale(0.100000,-0.100000)" fill="#646cff" stroke="none"> <path d="M1153 1883 c-19 -7 -16 -37 5 -63 14 -18 25 -21 45 -16 36 9 64 51 47 71 -12 14 -70 19 -97 8z"/> <path d="M1334 1875 c-10 -25 5 -65 28 -74 44 -16 86 17 73 58 -10 31 -91 43 -101 16z"/> <path d="M988 1849 c-24 -13 -25 -77 -2 -86 27 -10 84 26 84 53 0 36 -46 55 -82 33z"/> <path d="M1514 1813 c-4 -14 -2 -33 3 -42 19 -31 103 -22 103 11 0 19 -50 58 -74 58 -19 0 -27 -7 -32 -27z"/> <path d="M835 1772 c-5 -4 -18 -17 -29 -29 -24 -29 -7 -53 38 -53 38 0 51 8 60 37 10 32 -41 66 -69 45z"/> <path d="M7388 1735 c-36 -32 -38 -38 -38 -93 0 -50 4 -62 25 -82 14 -13 25 -26 25 -30 0 -3 -25 -17 -56 -29 -39 -17 -62 -34 -80 -61 -25 -38 -25 -39 -21 -226 2 -104 7 -200 11 -214 5 -16 2 -32 -7 -44 -12 -16 -29 -18 -144 -19 -71 0 -136 4 -143 8 -10 6 -11 32 -7 106 8 146 -4 155 -147 117 -38 -10 -65 -27 -112 -73 -53 -52 -65 -69 -83 -130 l-22 -70 23 -68 c17 -52 34 -80 69 -116 35 -36 45 -51 36 -60 -6 -6 -16 -11 -21 -11 -6 0 -24 -10 -40 -23 -23 -19 -29 -31 -29 -65 0 -47 10 -62 60 -93 43 -27 80 -27 124 0 31 19 34 26 39 78 5 55 6 58 30 54 14 -2 62 -3 108 -3 l82 0 0 -43 c0 -38 5 -47 37 -74 45 -37 86 -40 136 -11 26 15 37 30 42 56 8 45 -20 104 -57 122 -35 16 -35 35 -2 57 14 9 35 36 45 60 11 24 24 47 30 50 5 4 9 33 8 66 -2 70 11 93 35 57 13 -20 14 -40 5 -148 -6 -69 -9 -162 -7 -207 4 -70 8 -87 28 -108 27 -29 65 -32 92 -8 19 17 21 17 50 0 40 -23 57 -21 80 8 24 31 33 31 72 2 39 -30 126 -31 169 -3 28 19 29 19 57 -3 35 -25 57 -27 81 -5 17 15 20 15 43 0 36 -23 70 -20 107 11 l32 27 -5 163 c-5 161 -1 187 28 182 36 -6 40 16 23 116 -3 17 2 20 34 20 27 1 45 8 63 27 31 30 34 63 11 128 -9 25 -20 64 -26 88 -6 23 -15 59 -21 80 -5 20 -12 49 -15 63 -6 36 -67 95 -112 109 -57 19 -61 26 -26 62 41 44 48 70 27 113 -27 58 -77 95 -129 95 -63 0 -90 -14 -126 -62 -26 -36 -30 -49 -25 -83 3 -26 14 -48 30 -62 14 -12 26 -27 26 -32 0 -6 -24 -22 -54 -36 -38 -18 -57 -34 -66 -55 -20 -49 -53 -41 -78 20 -21 50 -24 53 -117 90 -25 10 -28 13 -14 23 67 51 64 150 -7 206 -21 16 -41 21 -88 21 -56 0 -64 -3 -98 -35z m155 -72 c20 -35 13 -61 -26 -95 -27 -24 -37 -23 -71 8 -24 23 -27 32 -22 63 11 69 84 84 119 24z m494 -15 c23 -21 30 -62 15 -85 -13 -21 -61 -34 -82 -23 -44 24 -51 70 -15 105 30 31 52 31 82 3z m-424 -209 c33 -18 55 -50 71 -102 8 -26 22 -57 30 -69 19 -27 21 -89 4 -106 -21 -21 -47 -14 -53 16 -3 15 -10 43 -16 62 -5 19 -13 55 -17 80 -7 39 -11 45 -32 45 l-25 0 0 -145 c1 -80 3 -187 5 -238 5 -84 3 -95 -15 -108 -28 -21 -38 -13 -50 42 -7 33 -16 50 -28 52 -20 4 -19 22 -21 -225 -1 -220 -7 -243 -47 -207 l-22 19 7 396 c6 359 5 397 -9 409 -12 10 -21 11 -33 3 -15 -9 -17 -29 -14 -155 2 -117 0 -147 -12 -157 -11 -9 -16 -9 -22 1 -13 20 -4 331 9 347 33 40 71 51 170 51 55 0 108 -5 120 -11z m447 -20 c56 -12 120 -63 120 -96 0 -10 9 -36 20 -58 11 -22 20 -56 20 -77 0 -20 8 -53 17 -73 13 -27 15 -40 7 -53 -16 -24 -27 -18 -37 19 -5 18 -15 42 -23 53 -8 12 -14 44 -14 78 0 31 -4 59 -9 62 -5 3 -12 21 -15 40 -6 33 -8 34 -35 25 -35 -12 -41 -31 -41 -124 0 -46 7 -84 19 -110 10 -23 21 -63 26 -90 4 -28 11 -57 16 -66 17 -33 -11 -46 -108 -52 -88 -5 -94 -5 -104 16 -6 12 -25 36 -42 54 -25 27 -27 33 -15 38 9 4 19 22 23 42 3 20 14 47 23 62 20 29 21 175 2 210 -29 55 -80 0 -80 -87 0 -62 -20 -84 -50 -57 -28 25 -26 76 3 112 13 15 27 39 30 53 9 33 50 61 111 76 66 16 75 16 136 3z m-264 -314 c11 -43 -3 -75 -32 -75 -43 0 -64 17 -64 54 0 42 5 46 51 46 33 0 40 -4 45 -25z m-911 -28 c4 -13 5 -48 3 -78 l-3 -54 -80 -7 c-44 -4 -88 -5 -97 -2 -63 19 71 160 154 163 10 1 20 -9 23 -22z m803 -59 c2 -19 -3 -30 -17 -38 -18 -9 -23 -7 -31 15 -13 33 -2 57 24 53 14 -2 22 -11 24 -30z m130 -97 c2 -13 -1 -28 -7 -34 -16 -16 -13 -102 4 -167 28 -104 14 -205 -25 -180 -16 10 -21 85 -7 132 6 22 3 28 -13 33 -32 10 -63 -4 -54 -23 5 -10 8 -44 9 -77 0 -51 -3 -60 -19 -63 -11 -2 -26 4 -33 14 -18 24 -17 123 2 167 18 43 20 150 3 176 -6 10 -8 26 -5 35 6 14 19 16 74 14 63 -3 68 -5 71 -27z m-570 -79 c4 -28 -118 -158 -156 -165 -15 -3 -45 -10 -67 -16 -83 -22 -210 13 -270 75 -49 51 -84 113 -68 122 6 4 134 7 285 6 268 -1 273 -1 276 -22z m816 -8 c23 -9 24 -285 1 -304 -27 -22 -38 3 -36 85 1 63 -2 81 -19 102 -48 62 -11 142 54 117z m-429 -131 c-7 -17 -8 -17 -15 2 -9 24 -2 41 12 27 6 -6 7 -19 3 -29z m322 14 c19 -19 28 -133 14 -169 -23 -61 -71 -15 -71 69 0 48 -3 55 -25 63 -24 9 -33 38 -17 54 11 12 83 -1 99 -17z m-377 -6 c11 -21 12 -107 1 -156 -7 -35 -38 -46 -58 -19 -17 23 -18 165 -1 182 18 18 46 14 58 -7z m-802 -147 c2 -11 -4 -27 -13 -34 -13 -11 -19 -10 -35 5 -15 14 -17 22 -9 37 14 26 53 20 57 -8z m440 -6 c2 -19 -2 -28 -18 -33 -24 -8 -50 10 -50 35 0 24 10 31 40 28 19 -2 26 -10 28 -30z"/> <path d="M1673 1733 c-38 -15 10 -86 54 -81 38 4 49 29 28 61 -17 26 -49 34 -82 20z"/> <path d="M4236 1695 c-20 -14 -39 -25 -41 -25 -2 0 -39 -22 -82 -50 -43 -27 -92 -56 -110 -64 -17 -8 -36 -23 -42 -34 -8 -14 -11 -177 -11 -504 0 -398 2 -488 14 -503 20 -27 145 -35 181 -11 23 15 25 22 25 96 0 58 4 83 16 94 19 20 29 20 48 0 12 -12 16 -36 16 -100 0 -82 1 -85 27 -95 39 -15 504 -3 515 14 4 6 5 46 2 88 -6 63 -4 78 10 92 22 21 40 22 60 1 12 -12 16 -36 16 -100 0 -81 1 -85 25 -94 39 -15 506 -4 517 12 5 7 7 48 6 91 -2 62 1 81 15 94 13 14 21 15 35 7 13 -9 18 -30 22 -97 3 -50 11 -92 18 -99 17 -17 325 -24 365 -9 l27 11 0 503 c0 468 -1 505 -17 519 -23 19 -258 158 -298 176 -24 11 -37 11 -63 2 -35 -12 -48 -20 -181 -106 -85 -55 -128 -67 -150 -40 -7 8 -44 34 -84 57 -40 23 -92 55 -116 71 -51 32 -73 34 -118 10 -56 -30 -223 -134 -229 -143 -8 -14 -56 -11 -73 5 -43 37 -257 156 -281 156 -15 0 -44 -11 -64 -25z m142 -102 c30 -20 87 -52 126 -72 l71 -37 0 -454 0 -455 -119 -3 c-74 -2 -123 1 -130 8 -6 6 -9 41 -7 81 3 97 -8 109 -106 109 -61 0 -76 -3 -94 -21 -19 -19 -21 -30 -16 -85 5 -65 -9 -104 -37 -104 -34 0 -37 25 -35 312 1 156 1 353 -1 439 -2 172 -1 176 65 206 45 20 116 63 150 89 41 33 69 30 133 -13z m689 -35 c68 -39 128 -79 132 -87 5 -9 8 -214 6 -456 l-1 -440 -119 -3 c-76 -2 -122 1 -129 8 -6 6 -11 47 -11 91 0 60 -4 82 -15 89 -8 5 -50 10 -92 10 -101 0 -108 -7 -108 -110 0 -69 -3 -81 -20 -90 -14 -7 -26 -7 -39 -1 -18 10 -19 29 -17 456 l1 446 24 18 c13 10 47 30 75 44 28 15 76 42 106 61 30 20 61 36 69 36 7 0 69 -32 138 -72z m570 35 c32 -20 83 -50 113 -66 97 -51 90 -11 90 -497 0 -236 -3 -435 -6 -444 -5 -13 -26 -16 -123 -16 -78 0 -121 4 -129 12 -7 7 -12 43 -12 90 0 93 -6 98 -109 98 -92 0 -103 -11 -101 -99 3 -89 3 -89 -21 -101 -15 -9 -25 -8 -41 2 -20 13 -20 22 -19 453 2 500 -7 450 96 505 33 17 85 47 115 66 30 19 63 34 72 34 10 0 44 -17 75 -37z"/> <path d="M4142 1388 c-18 -18 -15 -113 4 -132 19 -20 24 -20 52 0 17 12 22 25 22 63 0 66 -43 104 -78 69z"/> <path d="M4402 1388 c-18 -18 -15 -113 4 -132 18 -19 20 -19 45 -6 15 9 19 22 19 68 0 59 -11 82 -40 82 -9 0 -21 -5 -28 -12z"/> <path d="M4147 1102 c-11 -12 -17 -36 -17 -70 0 -42 4 -53 21 -63 16 -8 28 -8 45 0 21 9 24 17 24 65 0 77 -36 110 -73 68z"/> <path d="M4396 1104 c-3 -9 -6 -40 -6 -69 0 -63 18 -89 53 -76 18 7 23 17 25 62 5 79 -3 99 -37 99 -17 0 -31 -6 -35 -16z"/> <path d="M4776 1381 c-25 -28 -18 -109 11 -128 19 -13 24 -12 42 6 15 15 21 34 21 64 -1 69 -38 98 -74 58z"/> <path d="M5022 1375 c-35 -76 19 -164 69 -114 23 23 25 85 3 117 -21 30 -58 29 -72 -3z"/> <path d="M4775 1104 c-25 -25 -17 -122 12 -141 49 -33 83 59 48 127 -17 34 -36 38 -60 14z"/> <path d="M5025 1090 c-30 -58 -10 -130 37 -130 39 0 60 78 34 128 -21 41 -50 42 -71 2z"/> <path d="M5412 1394 c-30 -21 -32 -112 -2 -139 18 -17 21 -17 45 -1 35 23 36 102 2 134 -21 20 -25 21 -45 6z"/> <path d="M5656 1384 c-3 -9 -6 -35 -6 -59 0 -58 8 -75 34 -75 34 0 46 20 46 75 0 28 -5 56 -12 63 -17 17 -55 15 -62 -4z"/> <path d="M5400 1101 c-14 -27 -13 -114 2 -129 33 -33 78 4 78 64 0 69 -54 113 -80 65z"/> <path d="M5656 1098 c-9 -35 -7 -111 4 -128 7 -11 15 -12 37 -4 22 7 29 17 34 49 7 42 -4 84 -24 97 -23 14 -45 8 -51 -14z"/> <path d="M700 1653 c-45 -17 -38 -103 7 -103 19 0 63 45 63 64 0 32 -36 52 -70 39z"/> <path d="M1806 1604 c-9 -8 -16 -23 -16 -33 0 -26 37 -61 65 -61 46 0 46 77 0 98 -32 15 -30 15 -49 -4z"/> <path d="M602 1500 c-49 -20 -48 -100 2 -100 44 0 75 67 44 98 -14 14 -15 14 -46 2z"/> <path d="M1906 1444 c-29 -29 -10 -94 27 -94 7 0 22 7 34 15 19 13 21 20 12 42 -9 25 -36 52 -51 53 -4 0 -14 -7 -22 -16z"/> <path d="M1194 1436 c-9 -23 2 -292 15 -371 6 -38 17 -73 24 -77 20 -13 46 -9 66 11 24 24 44 203 39 346 l-3 100 -68 3 c-53 2 -69 0 -73 -12z"/> <path d="M527 1323 c-42 -47 -23 -107 31 -101 36 4 52 56 28 93 -19 29 -37 32 -59 8z"/> <path d="M2990 1301 c0 -15 5 -43 11 -60 19 -53 7 -56 -157 -52 l-145 3 3 -93 3 -94 40 1 c22 0 86 2 143 4 117 4 125 0 111 -59 -12 -52 -11 -91 3 -91 6 0 32 17 57 38 49 41 136 104 161 115 144 68 150 89 43 147 -43 23 -102 60 -132 83 -124 97 -141 104 -141 58z m128 -192 c1 -9 -5 -25 -15 -37 -17 -21 -19 -21 -50 -6 -31 15 -42 41 -26 58 14 14 88 2 91 -15z"/> <path d="M6233 1315 c-3 -9 -3 -36 0 -60 7 -68 -6 -79 -87 -72 -59 6 -69 4 -87 -14 -19 -19 -21 -31 -17 -115 2 -68 7 -97 17 -103 8 -5 47 -7 86 -4 86 7 90 3 87 -84 -2 -55 0 -63 15 -63 18 0 263 244 263 262 0 18 -241 268 -259 268 -6 0 -14 -7 -18 -15z m135 -179 c34 -35 62 -68 62 -73 0 -15 -121 -134 -133 -130 -7 2 -13 13 -15 25 -5 34 -31 47 -106 52 l-71 5 -3 44 c-2 24 1 48 7 54 5 5 38 10 73 9 66 0 98 15 98 48 0 17 8 30 20 30 4 0 35 -29 68 -64z"/> <path d="M1941 1258 c-14 -37 2 -73 33 -76 54 -7 74 38 33 76 -30 28 -55 28 -66 0z"/> <path d="M1956 1154 c-19 -18 -21 -75 -4 -92 7 -7 21 -12 33 -12 44 0 60 54 29 98 -18 26 -37 28 -58 6z"/> <path d="M507 1143 c-6 -9 -10 -48 -8 -80 1 -19 7 -23 34 -23 18 0 38 5 45 12 16 16 15 63 -1 76 -18 15 -64 25 -70 15z"/> <path d="M1926 958 c-30 -43 -15 -88 30 -88 31 0 46 23 42 67 -3 33 -7 38 -30 41 -18 2 -31 -4 -42 -20z"/> <path d="M542 961 c-9 -5 -12 -24 -10 -52 l3 -44 40 0 c37 0 40 2 43 29 2 19 -4 36 -19 52 -24 26 -36 29 -57 15z"/> <path d="M1196 902 c-8 -14 -11 -127 -3 -139 8 -13 102 -18 131 -7 25 9 23 141 -1 148 -29 7 -122 6 -127 -2z"/> <path d="M1855 785 c-40 -39 -28 -85 21 -85 40 0 67 66 38 94 -21 22 -31 20 -59 -9z"/> <path d="M609 777 c-14 -32 4 -75 35 -83 34 -8 46 2 46 40 0 57 -60 89 -81 43z"/> <path d="M1741 636 c-25 -27 -25 -63 0 -79 38 -24 98 53 69 88 -18 22 -43 18 -69 -9z"/> <path d="M714 626 c-11 -47 50 -102 83 -74 19 15 16 62 -5 81 -29 26 -70 22 -78 -7z"/> <path d="M1603 540 c-27 -11 -40 -54 -23 -75 15 -18 31 -19 65 -3 31 14 35 62 6 78 -22 11 -19 11 -48 0z"/> <path d="M867 533 c-4 -3 -7 -19 -7 -35 0 -23 7 -32 35 -45 33 -16 36 -15 55 2 27 24 25 39 -6 64 -26 21 -64 28 -77 14z"/> <path d="M1039 449 c-8 -16 -8 -28 0 -45 9 -19 18 -24 51 -24 35 0 40 3 46 27 13 51 -72 88 -97 42z"/> <path d="M1405 446 c-24 -36 -6 -66 39 -66 40 0 59 19 54 57 -3 24 -8 28 -40 31 -30 3 -40 -1 -53 -22z"/> <path d="M1244 443 c-27 -5 -36 -34 -20 -65 14 -27 33 -32 69 -19 22 9 27 17 27 46 0 24 -5 35 -14 35 -8 0 -20 2 -28 4 -7 2 -23 1 -34 -1z"/> </g> </svg> 