<?xml version="1.0" standalone="no"?>
<!DOCTYPE svg PUBLIC "-//W3C//DTD SVG 20010904//EN"
 "http://www.w3.org/TR/2001/REC-SVG-20010904/DTD/svg10.dtd">
<svg version="1.0" xmlns="http://www.w3.org/2000/svg"
 width="900.000000pt" height="207.000000pt" viewBox="0 0 900.000000 207.000000"
 preserveAspectRatio="xMidYMid meet">
<metadata>
Created by potrace 1.10, written by Peter Selinger 2001-2011
</metadata>
<g transform="translate(0.000000,207.000000) scale(0.100000,-0.100000)"
fill="#646cff" stroke="none">
<path d="M5145 1671 c-13 -15 -19 -47 -25 -130 -5 -60 -13 -143 -19 -183 -18
-126 -34 -280 -39 -363 -4 -77 1 -110 44 -292 8 -34 14 -75 14 -91 0 -17 5
-43 10 -58 6 -15 15 -52 20 -83 18 -107 36 -172 50 -181 19 -12 1380 -13 1399
-1 7 5 19 42 27 82 8 41 21 107 30 146 8 40 21 106 29 145 19 98 35 173 50
236 8 35 9 70 3 105 -12 76 -38 305 -49 437 -12 139 -25 218 -40 236 -9 11
-144 14 -748 14 -719 0 -738 0 -756 -19z m484 -45 c11 -13 11 -19 1 -31 -10
-12 -39 -15 -141 -15 -125 0 -130 -1 -139 -22 -14 -35 -32 -53 -67 -72 -54
-28 -62 -48 -65 -185 l-3 -124 40 -21 c24 -13 47 -35 57 -56 23 -44 49 -52
163 -44 78 6 93 4 108 -10 22 -22 21 -32 -4 -57 -14 -14 -28 -19 -42 -15 -12
3 -111 6 -221 6 l-198 0 6 68 c13 139 37 349 46 402 5 30 12 83 16 117 5 45
11 63 22 65 9 2 104 5 212 6 170 3 198 2 209 -12z m497 5 c13 -1 55 -486 56
-656 1 -65 -25 -305 -36 -343 -3 -9 -10 -73 -16 -141 -6 -68 -14 -129 -19
-135 -10 -12 -369 -15 -387 -3 -6 3 -16 55 -23 114 -14 128 -37 307 -52 415
-6 43 -8 97 -5 120 4 24 11 122 16 218 15 249 26 396 33 406 4 7 332 10 433 5z
m480 -3 c2 -3 8 -42 13 -89 17 -153 31 -282 48 -417 9 -73 14 -135 11 -138 -8
-8 -424 -8 -437 0 -16 10 -14 51 3 65 10 8 42 10 103 6 107 -7 147 2 151 36 5
31 40 69 64 69 29 0 34 31 26 149 -9 134 -18 158 -63 177 -21 8 -45 31 -60 54
l-25 40 -120 0 c-126 0 -142 6 -126 46 6 15 27 16 207 11 110 -3 202 -7 205
-9z m-997 -107 c17 -17 18 -25 9 -63 -5 -23 -12 -110 -16 -193 l-7 -150 -110
-3 -110 -2 -17 30 c-10 17 -31 38 -48 48 -16 9 -32 24 -35 32 -4 8 -3 54 1
103 l7 88 37 24 c21 13 47 40 59 59 l22 35 87 4 c48 1 90 4 95 5 4 1 16 -7 26
-17z m726 9 c62 0 64 -1 85 -35 12 -20 39 -44 60 -55 39 -20 50 -41 50 -100 0
-19 4 -50 10 -68 11 -40 -2 -66 -40 -82 -14 -6 -34 -26 -44 -44 l-18 -34 -91
-4 c-51 -3 -97 -1 -104 4 -6 5 -14 42 -16 81 -3 40 -10 123 -17 185 -7 62 -9
124 -6 138 6 23 11 26 38 20 17 -3 59 -6 93 -6z m-742 -690 c14 -145 49 -405
57 -439 6 -21 6 -39 0 -46 -7 -8 -276 -12 -402 -5 -3 0 -9 15 -13 33 -8 39
-41 199 -60 287 -14 64 -27 119 -46 193 -5 21 -7 43 -3 48 3 6 96 8 232 7
l227 -3 8 -75z m1083 66 c3 -8 0 -25 -7 -38 -7 -13 -19 -56 -26 -95 -7 -40
-19 -106 -27 -145 -8 -40 -22 -110 -30 -156 -15 -81 -30 -122 -44 -122 -4 -1
-87 -2 -186 -4 -140 -2 -179 0 -183 11 -3 7 2 57 11 110 17 108 35 263 43 363
2 36 6 71 8 78 7 19 434 17 441 -2z"/>
<path d="M5782 1437 c-6 -6 -12 -28 -14 -47 -2 -27 -7 -35 -23 -35 -13 0 -21
-8 -23 -22 -3 -20 1 -23 32 -23 42 0 45 -5 53 -70 6 -55 13 -64 42 -55 14 4
21 20 27 63 8 51 11 57 33 57 21 0 26 -7 36 -53 15 -64 26 -78 52 -64 11 7 22
30 28 64 10 50 12 53 43 56 37 4 44 30 12 50 -13 8 -20 23 -20 43 0 26 -3 30
-22 27 -14 -2 -24 -13 -29 -31 -18 -66 -48 -67 -69 -1 -16 47 -37 43 -60 -11
-18 -41 -22 -45 -40 -35 -12 7 -22 25 -26 51 -7 44 -17 55 -32 36z"/>
<path d="M6947 1672 c-12 -13 -20 -51 -27 -128 -6 -60 -15 -143 -20 -184 -6
-41 -14 -118 -20 -170 -5 -52 -14 -132 -19 -178 -7 -57 -7 -91 0 -110 6 -15
17 -62 25 -104 22 -123 43 -227 59 -303 8 -38 20 -97 26 -130 6 -33 18 -66 27
-72 20 -17 1373 -19 1403 -3 13 7 19 21 19 44 0 19 6 56 14 82 8 27 20 78 26
114 13 73 33 175 58 295 24 117 20 222 -18 490 -6 39 -14 125 -19 192 -6 67
-16 135 -23 150 l-13 28 -741 3 c-707 2 -742 1 -757 -16z m478 -62 l0 -25
-133 -3 -132 -3 -25 -39 c-14 -23 -40 -46 -59 -54 -46 -19 -57 -58 -59 -202
l-2 -116 35 -12 c25 -8 40 -21 52 -48 10 -20 23 -40 30 -45 7 -4 67 -8 133 -8
l120 0 3 -29 c2 -16 -1 -33 -6 -38 -10 -10 -450 -13 -460 -3 -3 3 0 52 6 108
7 56 17 156 23 222 5 66 14 136 19 155 6 19 10 53 10 75 0 78 5 84 74 88 33 2
131 3 216 3 l155 -1 0 -25z m498 17 c10 -4 17 -58 26 -203 6 -110 17 -244 23
-299 16 -136 15 -193 -4 -310 -10 -55 -27 -181 -39 -280 -11 -99 -23 -182 -24
-185 -5 -8 -379 -5 -391 3 -6 3 -14 48 -17 99 -3 51 -11 125 -16 163 -6 39
-18 120 -27 180 -15 103 -20 278 -10 314 3 9 12 128 21 266 9 137 20 252 24
255 11 6 416 4 434 -3z m474 -1 c10 -9 29 -133 43 -276 6 -58 18 -161 26 -229
8 -68 12 -127 7 -132 -10 -10 -415 -15 -431 -5 -16 10 -15 51 2 65 8 7 47 10
112 7 105 -5 144 6 144 41 0 23 39 63 61 63 32 0 37 29 27 155 -10 126 -21
159 -60 170 -30 9 -68 44 -79 73 -8 21 -13 22 -129 22 -126 0 -142 6 -126 46
5 14 29 16 201 12 107 -2 198 -8 202 -12z m-988 -95 c12 -8 13 -28 3 -133 -7
-67 -12 -157 -12 -199 0 -50 -4 -80 -12 -86 -8 -6 -57 -8 -113 -5 -99 4 -101
5 -118 33 -9 16 -30 37 -47 47 -39 22 -44 38 -35 139 7 84 7 84 46 110 21 14
48 41 60 59 20 33 21 33 107 37 48 1 92 4 97 5 6 1 16 -2 24 -7z m801 -25 c19
-27 49 -56 84 -81 25 -18 29 -29 37 -104 11 -98 7 -117 -26 -125 -14 -4 -34
-24 -48 -47 l-25 -41 -98 -1 -99 -1 -6 110 c-4 60 -12 136 -18 168 -12 63 -15
139 -6 148 3 3 47 3 98 1 80 -4 94 -8 107 -27z m-817 -676 c4 -47 12 -112 18
-145 10 -63 30 -246 33 -305 l1 -35 -198 2 c-109 1 -202 5 -207 8 -5 3 -12 22
-15 43 -6 42 -29 155 -50 252 -8 36 -17 85 -21 110 -3 25 -12 62 -20 83 -31
82 -44 78 219 75 l232 -3 8 -85z m1083 76 c3 -7 -2 -31 -11 -52 -9 -21 -20
-63 -25 -94 -5 -30 -14 -77 -20 -105 -6 -27 -23 -104 -37 -170 -14 -66 -29
-124 -33 -128 -4 -5 -89 -9 -190 -11 -141 -1 -183 1 -187 11 -3 7 2 55 11 105
19 115 37 270 43 363 2 39 6 76 8 83 7 19 434 17 441 -2z"/>
<path d="M7564 1427 c-3 -8 -5 -21 -3 -28 3 -29 -2 -37 -32 -48 -42 -15 -32
-35 22 -41 l44 -5 3 -52 c2 -28 9 -57 17 -63 22 -18 55 -3 55 25 0 29 29 105
40 105 15 0 29 -27 36 -68 9 -59 25 -78 52 -63 17 9 22 21 22 51 0 53 8 70 35
70 31 0 41 17 22 38 -9 9 -17 33 -19 52 -4 44 -28 47 -46 5 -33 -75 -39 -76
-67 -17 -11 23 -25 42 -31 42 -6 0 -19 -18 -29 -40 -27 -60 -69 -51 -77 15 -3
32 -34 47 -44 22z"/>
<path d="M460 1523 c-7 -16 -18 -89 -26 -163 -15 -157 -38 -371 -53 -484 -9
-64 -8 -84 2 -100 8 -12 17 -32 20 -46 5 -25 64 -190 85 -243 7 -16 12 -32 12
-37 0 -5 13 -16 28 -24 23 -12 134 -14 692 -14 704 0 719 1 720 46 1 9 9 35
20 57 11 22 19 48 20 57 0 9 4 19 9 22 5 3 12 22 16 42 3 20 10 44 16 53 29
52 45 128 37 181 -7 53 -24 205 -53 475 -14 135 -21 171 -38 193 -7 9 -170 12
-752 12 l-742 0 -13 -27z m485 -58 l0 -30 -118 3 c-127 3 -158 -5 -172 -47 -3
-11 -28 -33 -54 -50 -54 -33 -54 -33 -67 -193 -9 -103 -2 -124 42 -138 26 -9
40 -21 50 -46 20 -47 49 -56 174 -52 l105 3 3 -29 c2 -16 -1 -33 -7 -39 -6 -6
-94 -10 -233 -9 l-223 1 -3 27 c-2 14 3 83 12 153 9 69 20 169 26 221 16 157
28 232 37 241 7 7 292 17 408 14 15 0 20 -7 20 -30z m979 15 c4 -5 12 -37 16
-72 4 -35 13 -101 18 -148 24 -192 44 -398 40 -410 -3 -9 -56 -12 -217 -12
-230 -1 -234 0 -229 52 l3 25 106 -4 c117 -3 140 3 161 46 7 15 29 38 48 51
19 13 38 29 42 36 4 7 3 67 -3 132 -9 97 -15 123 -32 142 -11 12 -25 22 -31
22 -6 0 -31 22 -56 49 l-46 50 -106 -6 c-102 -5 -106 -5 -118 16 -22 43 -6 46
202 43 106 -2 197 -7 202 -12z m-476 -2 c10 -13 14 -54 31 -313 5 -82 15 -194
22 -247 10 -83 10 -105 -3 -150 -9 -29 -26 -98 -38 -153 -29 -131 -30 -135
-38 -135 -102 -5 -376 0 -382 6 -5 5 -18 54 -30 109 -12 55 -28 121 -36 147
-16 50 -16 95 5 368 5 74 13 180 17 235 11 160 -12 145 233 145 155 0 211 -3
219 -12z m296 -134 c16 -19 46 -44 67 -55 l39 -19 0 -65 c0 -35 5 -76 11 -92
9 -24 8 -30 -8 -38 -10 -5 -39 -32 -64 -58 l-46 -48 -94 3 -94 3 -3 50 c-1 28
-9 114 -17 192 -8 78 -12 148 -10 155 4 11 26 13 98 10 91 -4 92 -4 121 -38z
m-800 21 c3 -8 1 -27 -5 -42 -6 -15 -13 -91 -15 -168 -8 -204 5 -185 -120
-185 l-105 0 -19 33 c-11 19 -36 42 -55 53 -39 21 -40 26 -29 145 6 64 8 68
44 90 21 13 48 39 60 57 l23 32 107 0 c87 0 109 -3 114 -15z m-43 -591 c7 -9
16 -39 20 -68 4 -28 15 -80 24 -116 9 -36 19 -74 21 -86 4 -13 0 -23 -8 -25
-7 -3 -100 -2 -207 1 -158 4 -195 8 -202 20 -4 8 -24 62 -45 120 -20 58 -41
109 -46 115 -4 5 -8 19 -8 31 0 22 1 22 219 23 188 1 221 -2 232 -15z m1089
-8 c0 -12 -4 -26 -8 -31 -4 -6 -18 -37 -31 -70 -29 -76 -51 -134 -62 -162 -8
-22 -12 -23 -161 -23 -84 0 -169 -3 -189 -6 -45 -8 -54 9 -34 68 18 55 45 177
45 204 0 41 14 44 232 43 l208 -1 0 -22z"/>
<path d="M1090 1260 c0 -16 -4 -30 -9 -30 -5 0 -22 -5 -37 -10 -34 -13 -21
-31 27 -36 39 -5 49 -17 49 -64 1 -63 10 -81 39 -78 19 2 27 9 29 28 5 43 33
110 46 110 8 0 21 -30 32 -72 10 -39 24 -73 29 -75 26 -8 46 24 52 80 6 55 8
59 42 73 l36 15 -22 18 c-11 10 -23 29 -25 42 -4 32 -42 34 -46 2 -8 -52 -56
-54 -73 -3 -15 40 -37 38 -55 -6 -19 -46 -54 -45 -66 4 -12 44 -48 46 -48 2z"/>
<path d="M2278 1533 c-9 -10 -18 -45 -21 -78 -14 -142 -39 -358 -52 -458 -20
-143 -19 -204 4 -263 11 -27 38 -101 61 -164 23 -63 48 -124 56 -135 15 -20
28 -20 687 -22 416 -1 682 2 697 8 23 9 60 58 60 81 0 5 6 24 13 41 16 37 29
73 64 180 25 76 25 81 14 210 -6 73 -15 173 -21 222 -6 50 -17 151 -26 225 -8
74 -19 142 -23 150 -7 13 -103 15 -753 18 -700 2 -746 1 -760 -15z m477 -47
c19 -14 19 -14 0 -36 -19 -21 -25 -22 -132 -15 l-112 7 -31 -33 c-16 -19 -30
-37 -30 -41 0 -4 -18 -17 -39 -28 -22 -11 -42 -23 -44 -27 -3 -5 -8 -70 -12
-145 l-7 -137 39 -18 c23 -11 44 -31 55 -52 9 -19 23 -38 30 -43 7 -5 65 -8
128 -6 l115 3 3 -37 c2 -26 -1 -38 -10 -39 -12 0 -432 0 -452 1 -4 0 -5 17 -2
38 3 20 10 87 15 147 6 61 14 140 20 175 6 36 13 104 16 151 10 141 -1 133
210 139 99 3 189 7 201 8 11 1 29 -4 39 -12z m972 -1 c7 -2 14 -19 17 -37 16
-98 45 -345 51 -423 3 -49 11 -110 16 -134 5 -24 8 -46 5 -48 -10 -10 -428 -5
-438 5 -5 5 -8 22 -6 38 l3 29 80 -3 c114 -5 162 4 171 31 9 31 42 64 70 71
33 9 42 37 32 99 -4 29 -10 83 -14 120 -6 60 -11 71 -37 90 -16 12 -51 43 -77
70 l-49 47 -93 -6 c-65 -5 -101 -3 -116 5 -25 13 -29 36 -8 48 14 8 369 6 393
-2z m-463 -17 c8 -39 25 -248 31 -383 3 -71 10 -160 16 -198 9 -54 8 -78 -4
-120 -27 -96 -40 -152 -47 -211 -5 -32 -13 -63 -18 -68 -6 -6 -87 -10 -198
-10 -213 0 -208 -2 -220 81 -3 25 -10 64 -16 86 -25 105 -29 136 -29 210 0 44
5 154 11 245 7 91 14 206 16 255 7 151 -21 135 234 135 l220 0 4 -22z m-514
-125 c0 -52 -20 -325 -25 -350 -5 -22 -10 -23 -108 -23 l-102 0 -43 50 c-24
28 -50 50 -58 50 -13 0 -15 14 -9 93 7 96 10 102 80 156 6 4 17 18 26 32 15
22 24 24 115 29 55 3 105 3 112 1 6 -2 12 -19 12 -38z m710 37 c52 0 72 -4 82
-16 15 -18 62 -65 94 -92 16 -14 22 -35 28 -87 3 -39 8 -77 9 -87 1 -9 -13
-27 -33 -40 -19 -13 -41 -36 -48 -51 -16 -34 -36 -39 -142 -35 l-85 3 -11 170
c-6 94 -15 178 -19 188 -9 22 22 60 43 52 7 -3 45 -5 82 -5z m-739 -618 c6
-15 15 -54 20 -87 5 -33 17 -81 25 -107 9 -26 14 -58 12 -70 l-3 -23 -200 4
c-137 2 -202 7 -207 14 -4 7 -15 32 -24 57 -9 25 -23 59 -30 77 -8 17 -14 35
-14 41 0 5 -7 23 -15 38 -8 16 -15 41 -15 55 l0 26 221 1 220 0 10 -26z m1076
12 c3 -8 -11 -51 -30 -96 -19 -46 -41 -101 -48 -123 -24 -74 -23 -73 -224 -76
-209 -4 -197 -11 -167 103 11 40 23 91 26 113 4 22 12 52 17 67 l11 27 205 -1
c161 -1 206 -4 210 -14z"/>
<path d="M2897 1276 c-4 -9 -4 -22 -1 -30 3 -9 -6 -18 -26 -25 -32 -11 -33
-31 -2 -31 39 0 59 -27 64 -85 9 -103 53 -101 77 4 14 58 17 62 40 59 23 -3
27 -8 31 -54 5 -53 22 -84 46 -84 8 0 16 10 18 23 26 126 30 133 60 128 4 -1
14 4 22 10 17 14 1 39 -23 39 -10 0 -14 7 -10 20 6 23 -16 45 -37 37 -8 -3
-16 -18 -18 -34 -5 -42 -45 -45 -59 -4 -15 43 -50 43 -66 0 -16 -42 -55 -38
-63 6 -6 34 -43 48 -53 21z"/>
<path d="M4415 1131 c5 -48 4 -61 -9 -68 -9 -5 -63 -5 -126 0 -60 5 -117 7
-125 3 -13 -5 -15 -21 -13 -88 l3 -83 127 4 c143 4 164 -2 147 -45 -5 -14 -9
-37 -9 -50 0 -22 3 -24 23 -18 12 4 40 21 62 39 46 38 171 119 198 128 38 14
15 48 -67 99 -43 26 -104 69 -135 93 -77 61 -85 59 -76 -14z"/>
</g>
</svg>
