<?xml version="1.0" standalone="no"?>
<!DOCTYPE svg PUBLIC "-//W3C//DTD SVG 20010904//EN"
 "http://www.w3.org/TR/2001/REC-SVG-20010904/DTD/svg10.dtd">
<svg version="1.0" xmlns="http://www.w3.org/2000/svg"
 width="522.000000pt" height="516.000000pt" viewBox="0 0 522.000000 516.000000"
 preserveAspectRatio="xMidYMid meet">
<metadata>
Created by potrace 1.10, written by Peter Selinger 2001-2011
</metadata>
<g transform="translate(0.000000,516.000000) scale(0.100000,-0.100000)"
fill="#000000" stroke="none">
<path d="M2715 4396 c-39 -9 -53 -18 -63 -40 -8 -15 -29 -34 -48 -42 -18 -8
-41 -25 -50 -39 -9 -13 -40 -35 -69 -49 -29 -13 -58 -34 -65 -45 -6 -12 -28
-29 -50 -37 -25 -10 -40 -24 -44 -39 -4 -16 -18 -27 -41 -35 -20 -7 -45 -25
-57 -41 -13 -17 -39 -34 -60 -41 -22 -6 -48 -25 -63 -43 -13 -18 -35 -35 -48
-39 -14 -3 -36 -22 -51 -41 -15 -19 -34 -35 -42 -35 -8 0 -33 -17 -57 -39 -23
-21 -57 -46 -74 -55 -18 -9 -40 -27 -49 -41 -8 -13 -29 -27 -45 -30 -19 -4
-38 -19 -49 -37 -10 -17 -36 -38 -58 -48 -22 -10 -43 -27 -46 -38 -4 -11 -26
-27 -52 -37 -25 -9 -54 -30 -66 -46 -12 -16 -36 -34 -55 -40 -18 -6 -39 -22
-47 -36 -8 -16 -30 -33 -57 -42 -43 -16 -44 -18 -52 -71 -4 -30 -6 -472 -5
-982 3 -827 5 -929 19 -943 14 -14 72 -16 488 -16 301 -1 477 3 483 9 6 6 7
34 3 71 -8 74 -23 86 -87 72 -24 -5 -104 -12 -178 -16 l-135 -7 2 489 2 488
26 18 c14 11 32 34 39 52 10 24 23 35 45 40 16 3 42 16 57 27 24 20 40 21 188
22 91 1 170 -3 181 -9 11 -5 51 -21 90 -35 78 -28 88 -41 106 -135 14 -71 61
-125 109 -125 34 0 40 14 40 88 0 76 -15 127 -44 145 -13 9 -27 28 -31 44 -7
31 -32 63 -48 63 -6 0 -25 16 -43 35 l-32 36 -312 -3 -312 -3 -32 -38 c-17
-20 -46 -45 -65 -55 -61 -30 -62 -43 -59 -622 l2 -515 -188 0 c-180 -1 -189 0
-200 20 -8 15 -10 244 -6 872 l5 851 24 26 c13 14 43 33 67 42 24 9 46 25 50
36 3 10 23 26 44 34 27 11 42 25 49 45 7 21 18 31 41 36 19 3 41 19 56 39 15
18 45 40 69 50 25 9 51 27 60 40 8 13 31 30 50 38 19 8 40 26 46 40 7 15 26
30 45 36 19 6 43 24 54 39 10 16 41 38 67 49 26 11 54 30 61 41 6 12 28 27 47
35 19 8 40 26 46 40 7 15 26 30 45 36 18 6 40 22 49 36 9 14 39 36 67 49 27
13 57 33 65 45 9 12 31 29 50 36 18 8 39 26 45 39 6 14 25 29 44 35 20 7 40
24 52 44 14 23 33 38 63 48 62 20 111 7 151 -43 17 -21 43 -42 59 -48 16 -5
34 -21 40 -35 7 -15 26 -30 45 -36 19 -6 43 -24 53 -39 11 -15 40 -36 65 -45
25 -10 55 -31 70 -50 14 -19 37 -36 54 -39 17 -4 33 -16 40 -32 7 -14 28 -33
47 -41 19 -7 39 -23 45 -35 7 -11 35 -31 63 -44 29 -12 62 -36 74 -52 12 -17
35 -33 50 -36 18 -4 34 -16 41 -32 7 -14 28 -33 47 -41 19 -8 42 -25 50 -38 9
-13 35 -31 60 -40 25 -10 54 -32 69 -51 15 -19 39 -36 56 -40 18 -4 34 -17 42
-33 7 -15 29 -35 49 -44 20 -9 43 -28 53 -42 9 -14 23 -26 32 -26 24 0 91 -38
97 -55 4 -8 7 -403 7 -877 1 -699 -1 -863 -12 -873 -10 -10 -110 -11 -433 -6
-286 5 -426 4 -438 -4 -17 -10 -37 -62 -37 -98 0 -39 43 -42 533 -39 l468 3
19 32 c10 18 26 39 34 48 14 13 16 41 14 170 -1 85 -1 494 0 909 l3 754 -21
16 c-12 9 -27 27 -33 40 -7 14 -29 33 -50 43 -21 9 -43 28 -49 42 -6 14 -25
29 -44 35 -19 6 -43 24 -53 39 -11 15 -40 36 -65 45 -24 9 -52 28 -61 42 -9
14 -32 32 -50 40 -18 7 -43 27 -55 44 -12 16 -28 30 -37 30 -9 0 -30 16 -48
35 -18 19 -51 41 -73 50 -21 9 -48 29 -60 45 -12 15 -37 33 -55 39 -19 7 -39
22 -45 36 -6 13 -27 31 -46 39 -19 8 -42 26 -51 40 -9 14 -37 33 -61 42 -25 9
-54 30 -65 45 -10 15 -35 33 -55 39 -22 8 -39 21 -45 36 -5 14 -24 31 -44 40
-19 8 -42 25 -50 38 -9 13 -37 33 -63 44 -26 11 -57 34 -69 50 -12 16 -35 32
-52 35 -22 5 -34 15 -45 40 -11 28 -20 35 -52 40 -22 3 -46 7 -54 10 -8 2 -37
-1 -65 -7z"/>
<path d="M3059 3014 c-16 -19 -14 -691 2 -710 11 -13 41 -15 188 -11 154 5
176 7 188 23 9 12 11 30 7 49 -9 38 -8 553 0 591 13 58 0 63 -197 67 -134 3
-180 1 -188 -9z m226 -99 c14 -13 25 -34 26 -47 1 -25 0 -380 0 -415 -1 -12
-11 -34 -23 -48 -21 -23 -28 -25 -71 -19 -74 10 -79 26 -79 258 0 247 0 239
15 260 11 16 56 32 95 35 7 1 24 -10 37 -24z"/>
<path d="M3711 3020 c-174 -6 -176 -7 -159 -84 7 -30 5 -476 -2 -600 -1 -10 3
-23 8 -28 5 -5 88 -11 185 -13 135 -4 177 -1 186 9 16 19 16 693 0 712 -6 8
-23 13 -38 12 -14 -1 -95 -5 -180 -8z m73 -95 c23 -10 41 -26 47 -43 14 -36
15 -423 1 -449 -16 -29 -75 -57 -104 -50 -44 11 -50 47 -50 281 0 211 5 248
36 268 16 11 29 10 70 -7z"/>
<path d="M2750 2230 c-8 -5 -27 -10 -41 -10 -15 0 -47 -9 -73 -21 -55 -24 -76
-64 -76 -143 0 -65 35 -150 67 -165 19 -9 24 -17 21 -43 -5 -47 -30 -58 -77
-31 l-39 22 -55 -30 c-80 -43 -82 -51 -78 -359 2 -144 7 -260 13 -267 5 -6 22
-15 38 -18 22 -5 32 -15 41 -43 15 -47 27 -62 50 -62 26 0 25 -46 -1 -60 -19
-10 -20 -21 -21 -188 0 -97 -4 -213 -9 -257 -10 -91 -7 -95 59 -114 49 -14 73
-2 71 35 -8 203 -9 690 -1 854 9 206 9 216 -9 235 -20 19 -20 19 -47 -2 -16
-12 -27 -29 -26 -39 1 -11 7 -68 12 -127 12 -123 5 -157 -33 -157 -43 0 -47
18 -47 187 0 257 1 277 14 289 25 23 110 34 267 34 118 0 177 -4 216 -16 63
-18 69 -30 60 -126 -3 -35 -6 -70 -7 -78 0 -8 2 -69 6 -135 7 -111 6 -122 -13
-145 -16 -20 -22 -22 -35 -12 -23 19 -26 57 -16 187 9 109 8 121 -7 132 -26
19 -72 16 -82 -4 -5 -10 -5 -105 0 -218 4 -110 7 -348 5 -530 -2 -181 -2 -338
1 -348 7 -27 45 -31 91 -8 39 20 52 43 32 55 -14 9 -30 187 -35 378 -4 175 -3
177 19 192 13 8 31 32 41 53 12 24 27 39 40 41 46 7 53 29 43 132 -7 69 -6
136 4 245 13 142 13 151 -5 195 -16 39 -28 51 -73 73 l-54 26 -40 -22 c-49
-27 -74 -17 -79 31 -3 24 4 37 28 59 47 42 60 74 60 150 -1 80 -11 101 -65
141 -44 31 -129 49 -155 32z m50 -98 c14 -11 29 -41 37 -72 12 -47 11 -56 -2
-77 -27 -40 -58 -48 -108 -29 -25 9 -52 25 -61 35 -15 17 -15 21 8 68 25 49
48 76 76 86 24 9 27 8 50 -11z"/>
<path d="M2740 1086 c-16 -20 -17 -615 0 -645 13 -26 32 -27 51 -3 13 14 15
68 13 324 -1 312 -4 338 -39 338 -7 0 -18 -6 -25 -14z"/>
</g>
</svg>
