<?xml version="1.0" standalone="no"?>
<!DOCTYPE svg PUBLIC "-//W3C//DTD SVG 20010904//EN"
 "http://www.w3.org/TR/2001/REC-SVG-20010904/DTD/svg10.dtd">
<svg version="1.0" xmlns="http://www.w3.org/2000/svg"
 width="900.000000pt" height="276.000000pt" viewBox="0 0 900.000000 276.000000"
 preserveAspectRatio="xMidYMid meet">
<metadata>
Created by potrace 1.10, written by Peter Selinger 2001-2011
</metadata>
<g transform="translate(0.000000,276.000000) scale(0.100000,-0.100000)"
fill="#646cff" stroke="none">
<path d="M5513 2411 c-10 -10 -164 -127 -343 -261 -179 -133 -335 -251 -347
-263 l-23 -20 0 -468 0 -467 36 -12 c23 -8 62 -10 114 -5 83 7 99 19 80 55 -8
15 -24 20 -78 22 l-67 3 -3 417 -2 416 27 22 c39 31 361 272 387 290 11 8 62
46 111 85 123 97 148 113 165 107 8 -3 74 -51 145 -106 136 -106 275 -211 311
-236 44 -30 158 -116 190 -144 l34 -28 0 -409 0 -409 -22 -5 c-13 -2 -54 -6
-93 -8 -38 -1 -76 -5 -84 -7 -10 -3 -17 6 -22 28 -4 19 -22 49 -40 68 -33 34
-33 35 -16 63 24 41 21 85 -7 118 -21 24 -31 28 -79 28 -45 0 -60 -5 -81 -24
-30 -28 -34 -76 -11 -121 14 -28 14 -29 -19 -48 -26 -16 -36 -30 -49 -78 -8
-33 -18 -95 -22 -139 -7 -97 -13 -125 -24 -125 -5 0 -12 11 -15 24 -3 14 -15
28 -26 31 -28 9 -43 42 -36 78 5 25 1 36 -21 59 -35 36 -46 35 -79 -7 -20 -27
-24 -38 -15 -49 17 -21 2 -76 -24 -86 -28 -11 -35 -29 -35 -93 0 -35 7 -63 20
-86 16 -25 20 -43 15 -75 -4 -28 -2 -47 8 -60 13 -18 18 -18 46 -7 25 11 37
11 60 1 17 -6 35 -9 40 -5 6 3 11 34 11 69 0 55 3 65 28 88 15 14 37 29 49 32
23 7 43 56 43 107 0 14 7 48 15 74 8 27 17 80 21 118 6 62 9 70 33 79 28 11
129 4 142 -9 5 -5 15 -56 24 -113 15 -110 32 -210 40 -246 6 -26 38 -36 61
-20 19 14 18 17 -15 160 -11 49 -18 93 -15 98 3 5 59 8 126 6 109 -3 121 -1
134 16 12 16 14 95 14 457 0 247 -4 448 -9 462 -5 14 -41 49 -79 78 -78 61
-339 256 -410 308 -26 18 -67 50 -93 71 -82 68 -162 120 -185 120 -13 0 -31
-8 -41 -19z m396 -1208 c10 -22 9 -29 -4 -42 -30 -30 -72 21 -45 54 18 22 35
18 49 -12z m-320 -427 c17 -20 4 -146 -18 -175 l-17 -22 -21 23 c-17 18 -23
42 -28 106 l-8 82 40 0 c23 0 46 -6 52 -14z"/>
<path d="M7590 2315 c-85 -64 -165 -125 -179 -135 -107 -82 -170 -129 -207
-155 -64 -45 -143 -107 -175 -137 l-29 -26 0 -459 c0 -252 4 -464 8 -471 7
-10 165 -12 758 -10 l749 3 3 455 c1 250 0 465 -3 477 -3 14 -48 54 -113 103
-206 153 -262 195 -276 207 -59 52 -353 263 -366 263 -9 0 -86 -52 -170 -115z
m238 -25 c55 -43 204 -156 238 -180 88 -63 351 -265 362 -278 9 -12 12 -108
10 -427 l-3 -410 -343 -3 c-297 -2 -343 0 -348 13 -3 8 -7 122 -8 253 -1 232
-1 238 -24 267 -43 54 -74 64 -209 65 -142 0 -188 -13 -227 -65 l-26 -33 -2
-249 -3 -248 -70 -3 c-73 -2 -92 3 -95 28 -1 8 -2 192 -1 408 l1 394 29 26
c16 15 64 53 108 85 327 243 490 366 502 380 22 27 56 20 109 -23z m-219 -783
c54 -27 60 -54 62 -284 0 -116 -2 -216 -6 -222 -10 -16 -329 -15 -343 2 -6 8
-8 90 -3 235 l6 224 33 29 c31 28 36 29 130 29 57 0 107 -5 121 -13z"/>
<path d="M7896 1734 c-13 -13 -16 -43 -16 -168 0 -106 4 -157 13 -169 9 -12
31 -17 87 -19 42 -1 81 1 88 6 17 10 17 337 0 354 -19 19 -153 16 -172 -4z
m132 -154 c4 -118 -1 -140 -31 -140 -40 0 -47 18 -47 120 0 104 8 123 50 118
24 -3 25 -5 28 -98z"/>
<path d="M8166 1734 c-13 -13 -16 -43 -16 -174 0 -192 -1 -190 97 -183 37 3
74 10 81 16 9 7 12 53 12 168 0 152 -1 158 -22 173 -30 22 -131 22 -152 0z
m98 -60 c12 -12 15 -37 15 -112 -1 -103 -8 -122 -44 -122 -31 0 -35 16 -35
125 0 72 4 97 16 109 19 20 29 20 48 0z"/>
<path d="M1465 2122 c-11 -4 -31 -17 -45 -30 -14 -12 -72 -57 -130 -100 -328
-243 -548 -413 -554 -427 -3 -9 -6 -215 -6 -458 0 -336 3 -448 13 -467 l13
-25 239 0 240 0 3 23 c6 43 -15 55 -89 48 -37 -3 -75 -3 -83 0 -24 9 -24 430
0 475 21 42 68 59 161 59 106 -1 159 -24 169 -74 4 -22 17 -45 32 -57 25 -19
27 -19 39 -3 27 38 1 125 -51 174 -27 24 -31 25 -184 25 -157 0 -157 0 -194
-28 -56 -43 -60 -68 -57 -325 2 -125 0 -233 -4 -240 -9 -13 -121 -17 -151 -6
-14 5 -16 52 -16 420 0 393 1 415 19 432 29 26 221 175 275 212 56 38 266 198
312 237 57 48 89 54 125 22 22 -19 221 -172 273 -209 140 -100 352 -265 358
-278 12 -30 9 -817 -3 -829 -7 -7 -68 -9 -194 -6 -100 3 -194 3 -208 -1 -31
-7 -48 -53 -26 -67 8 -5 120 -9 250 -9 214 0 237 2 252 18 14 16 16 68 17 467
1 248 -2 458 -6 468 -5 15 -206 173 -300 237 -13 8 -51 37 -86 63 -35 26 -100
76 -146 110 -45 34 -106 81 -136 104 -56 44 -88 56 -121 45z"/>
<path d="M5700 1731 c-5 -11 -10 -87 -10 -174 0 -187 0 -188 102 -180 37 3 72
11 77 17 5 6 11 83 12 170 3 188 4 186 -103 186 -56 0 -69 -3 -78 -19z m118
-63 c8 -8 12 -47 12 -108 0 -61 -4 -100 -12 -108 -18 -18 -46 -14 -58 7 -12
24 -11 179 2 204 10 20 39 22 56 5z"/>
<path d="M5953 1723 c-11 -35 -7 -323 5 -335 4 -4 43 -9 86 -11 59 -1 79 1 86
13 5 8 10 86 10 172 0 190 1 188 -105 188 -71 0 -73 -1 -82 -27z m114 -51 c7
-4 12 -44 14 -104 3 -100 -6 -128 -40 -128 -34 0 -41 22 -41 120 0 97 8 120
40 120 8 0 20 -4 27 -8z"/>
<path d="M6625 1602 c-3 -3 -5 -31 -5 -63 0 -32 -4 -61 -10 -64 -5 -3 -35 -1
-65 4 -78 15 -83 11 -87 -66 -4 -90 1 -97 70 -88 30 4 61 9 68 12 23 8 33 -30
25 -93 -5 -32 -6 -65 -3 -72 3 -9 25 -12 81 -10 l76 3 -4 83 -3 84 58 -4 59
-3 3 74 c3 85 -2 92 -60 80 -53 -13 -61 -5 -56 52 3 26 1 53 -3 60 -7 13 -133
22 -144 11z m102 -192 c2 -8 -4 -24 -12 -34 -12 -16 -19 -18 -40 -8 -14 6 -25
18 -25 26 0 33 72 47 77 16z"/>
<path d="M5150 1583 c-32 -12 -71 -46 -85 -74 -11 -20 -16 -65 -18 -141 -2
-93 0 -115 15 -132 15 -19 18 -20 33 -5 11 11 17 44 22 119 6 94 9 106 34 134
l27 31 114 0 114 0 32 -35 c31 -34 31 -37 32 -133 0 -104 9 -137 39 -137 37 0
43 24 40 147 -4 103 -7 123 -28 156 -39 64 -80 77 -228 76 -70 0 -135 -3 -143
-6z"/>
<path d="M3565 1500 c-4 -6 -5 -38 -3 -73 l3 -62 -165 0 -165 0 -1 -98 c-2
-87 0 -99 17 -105 10 -4 80 -4 156 0 76 4 144 6 151 3 10 -4 12 -21 6 -75 -7
-75 -3 -81 39 -59 12 7 38 26 58 44 36 32 132 96 222 149 58 33 58 51 0 82
-56 29 -117 66 -123 75 -3 3 -18 13 -35 22 -16 8 -54 36 -83 61 -56 48 -67 53
-77 36z m97 -190 c48 -14 58 -43 27 -76 -56 -59 -151 8 -100 70 16 19 24 19
73 6z"/>
<path d="M1634 1439 c-8 -13 -6 -323 3 -345 7 -18 153 -20 171 -2 8 8 12 62
12 175 l0 163 -26 10 c-35 14 -151 13 -160 -1z m124 -171 c2 -99 1 -108 -18
-118 -14 -8 -26 -8 -40 0 -18 10 -20 21 -20 108 0 106 8 125 50 120 25 -3 25
-4 28 -110z"/>
<path d="M1910 1441 l-25 -7 -3 -163 c-2 -112 1 -168 9 -177 17 -21 165 -20
173 2 12 31 7 329 -6 342 -13 13 -106 15 -148 3z m94 -77 c3 -9 6 -55 6 -104
0 -67 -4 -92 -16 -104 -19 -19 -53 -5 -55 22 -4 50 0 183 6 192 10 16 52 12
59 -6z"/>
<path d="M5190 1340 c-40 -43 -45 -74 -20 -123 23 -42 17 -57 -23 -57 -10 0
-34 -12 -53 -26 l-35 -27 5 -101 c3 -56 5 -110 5 -121 1 -11 15 -36 32 -55
l31 -35 -5 -147 c-3 -134 -2 -149 14 -164 15 -14 21 -14 34 -4 13 11 15 52 15
269 0 268 -3 291 -41 271 -22 -12 -33 15 -23 54 9 38 32 46 133 46 79 0 94 -3
112 -21 17 -17 20 -28 14 -57 -8 -44 -13 -51 -24 -33 -5 7 -17 11 -27 9 -16
-3 -19 -12 -18 -58 5 -283 4 -362 -4 -404 -9 -42 -7 -51 9 -67 21 -21 45 -16
54 9 2 10 0 44 -5 77 -5 33 -10 90 -10 128 0 60 4 73 33 116 29 41 35 62 42
132 15 142 13 157 -21 184 -16 13 -44 26 -61 30 -38 7 -40 13 -13 48 50 63 2
157 -80 157 -34 0 -47 -6 -70 -30z m90 -55 c10 -12 10 -21 2 -40 -13 -29 -28
-31 -54 -8 -23 20 -23 32 0 49 23 18 37 17 52 -1z m100 -357 c0 -31 -3 -39
-11 -31 -7 7 -8 24 -4 42 9 43 15 39 15 -11z"/>
<path d="M1445 1050 c-55 -34 -58 -39 -52 -94 3 -28 8 -58 12 -68 5 -12 -1
-18 -24 -23 -16 -3 -41 -17 -56 -31 l-26 -24 7 -133 c7 -128 8 -133 37 -167
l30 -34 -6 -143 c-6 -137 -6 -143 14 -154 48 -25 49 -18 49 270 0 271 -3 297
-35 271 -11 -9 -16 -7 -25 10 -17 31 -8 63 20 77 14 7 61 13 108 13 75 0 85
-2 107 -25 37 -36 30 -61 -20 -67 l-30 -3 -3 -273 c-2 -246 -1 -273 14 -279 9
-3 24 -2 33 4 14 9 16 31 13 156 l-3 145 32 36 c31 36 32 40 34 134 1 54 5
107 9 118 10 33 -32 87 -76 97 -35 8 -36 9 -26 43 16 58 7 114 -22 135 -39 27
-81 31 -115 9z m73 -92 c3 -34 1 -38 -21 -38 -36 0 -53 24 -38 56 8 18 18 24
34 22 18 -2 23 -10 25 -40z"/>
<path d="M5247 793 c-11 -18 -11 -313 0 -324 22 -22 28 17 25 166 -3 136 -10
182 -25 158z"/>
<path d="M5785 680 c-4 -6 -9 -50 -12 -98 -4 -67 -2 -91 10 -106 14 -19 14
-19 34 1 18 18 20 32 19 107 -1 65 -5 89 -16 96 -19 12 -27 12 -35 0z"/>
<path d="M5865 678 c-8 -21 0 -196 9 -205 19 -20 32 29 30 114 -1 48 -2 91 -3
96 -2 12 -31 8 -36 -5z"/>
<path d="M5943 683 c-9 -3 -13 -33 -13 -97 0 -81 3 -95 20 -111 33 -30 41 -8
38 106 -3 106 -8 118 -45 102z"/>
<path d="M1476 481 c-4 -5 -8 -73 -9 -151 -3 -146 3 -170 38 -156 13 5 15 28
13 158 -3 133 -5 153 -20 156 -9 2 -19 -1 -22 -7z"/>
</g>
</svg>
