<?xml version="1.0" standalone="no"?>
<!DOCTYPE svg PUBLIC "-//W3C//DTD SVG 20010904//EN"
 "http://www.w3.org/TR/2001/REC-SVG-20010904/DTD/svg10.dtd">
<svg version="1.0" xmlns="http://www.w3.org/2000/svg"
 width="300.000000pt" height="150.000000pt" viewBox="0 0 300.000000 150.000000"
 preserveAspectRatio="xMidYMid meet">
<metadata>
Created by potrace 1.10, written by Peter Selinger 2001-2011
</metadata>
<g transform="translate(0.000000,150.000000) scale(0.050000,-0.050000)"
fill="#646cff" stroke="none">
<path d="M4300 2848 c-49 -39 -108 -86 -130 -104 -22 -19 -143 -110 -270 -203
-126 -93 -239 -177 -250 -185 -11 -9 -90 -71 -175 -137 l-155 -120 0 -741 c0
-472 8 -755 21 -779 27 -52 333 -59 352 -9 21 56 -34 95 -120 84 -130 -18
-123 -56 -123 708 l0 702 150 108 c83 59 159 115 170 123 11 8 124 91 250 185
127 93 235 174 240 180 6 6 46 39 90 73 l81 63 49 -40 c28 -21 68 -54 90 -73
22 -19 144 -110 270 -203 127 -93 235 -174 240 -181 6 -7 78 -63 162 -124
l152 -112 11 -296 c6 -164 5 -481 -2 -707 l-13 -410 -123 7 c-130 7 -159 -9
-137 -78 12 -37 27 -40 197 -35 l183 6 5 783 5 784 -395 296 c-217 163 -399
301 -405 308 -33 41 -270 199 -297 198 -18 -1 -73 -33 -123 -71z"/>
<path d="M1010 2238 c-187 -143 -361 -275 -387 -294 -26 -19 -69 -50 -95 -70
l-48 -37 1 -533 c0 -630 -5 -611 177 -601 171 10 222 -60 222 -307 1 -165 24
-251 55 -202 32 48 9 655 -24 662 -34 7 -38 23 -19 72 20 53 240 45 269 -9 19
-35 16 -44 -19 -53 -44 -11 -75 -584 -34 -642 41 -58 62 18 55 197 -5 121 0
179 15 179 12 0 22 10 22 21 0 12 14 35 30 52 79 79 23 347 -73 347 -50 0 -59
24 -25 63 89 97 -64 226 -169 143 -62 -48 -82 -112 -43 -136 30 -19 24 -70 -9
-70 -52 0 -134 -99 -120 -144 18 -54 -10 -68 -120 -59 l-91 7 0 474 c0 451 2
475 41 508 22 19 159 122 305 229 145 106 269 199 274 206 6 7 49 41 97 75
l86 62 194 -142 c106 -79 198 -148 203 -155 6 -6 92 -72 192 -146 l182 -134
11 -246 c6 -135 7 -353 3 -485 l-8 -240 -95 -13 c-75 -10 -99 -5 -115 19 -11
18 -39 50 -63 72 -40 38 -41 43 -11 106 66 138 -127 231 -217 104 -37 -52 -40
-69 -21 -112 20 -44 17 -56 -27 -97 -42 -39 -51 -66 -51 -149 0 -200 -109
-242 -130 -51 -3 23 -6 48 -7 56 -12 67 -123 -11 -123 -86 0 -29 -18 -69 -40
-89 -42 -38 -55 -147 -21 -181 10 -10 21 -59 25 -108 l6 -90 100 0 100 0 6 95
c5 75 13 94 42 94 41 0 122 214 122 322 0 102 31 138 121 138 95 0 119 -41
119 -206 1 -110 61 -274 101 -274 24 0 17 167 -12 282 l-13 53 140 -10 c185
-13 192 0 173 297 l-14 219 297 -5 c282 -6 298 -8 298 -46 0 -55 58 -60 115
-10 27 23 79 58 117 78 86 47 86 78 -2 125 -38 20 -93 57 -121 82 -63 55 -120
49 -114 -11 5 -43 1 -44 -285 -44 l-290 0 0 210 c-1 116 -3 221 -5 234 -3 14
-75 76 -160 139 -85 63 -172 131 -194 151 -21 20 -45 36 -53 36 -8 0 -27 12
-42 26 -14 15 -98 80 -186 144 -88 65 -172 130 -186 144 -49 48 -92 24 -434
-236z m43 -1127 c-6 -17 -21 -31 -32 -31 -23 0 -29 66 -7 87 22 22 52 -21 39
-56z m367 -608 c-1 -125 -19 -165 -62 -142 -45 24 -56 209 -13 224 50 18 75
-10 75 -82z"/>
<path d="M4034 2067 c-6 -5 -107 -10 -226 -9 -255 0 -268 -8 -268 -148 0 -134
27 -158 155 -142 115 15 143 15 286 0 142 -14 163 8 155 163 -6 108 -59 179
-102 136z m-326 -99 c60 -23 40 -112 -23 -104 -60 7 -87 70 -42 98 33 21 27
21 65 6z m300 0 c62 -24 39 -108 -28 -108 -63 0 -91 84 -35 107 14 5 27 11 28
11 2 1 18 -3 35 -10z"/>
<path d="M4731 1902 c-7 -11 -10 -165 -8 -342 5 -377 -31 -341 337 -334 l250
4 0 340 0 340 -99 6 c-189 12 -182 24 -174 -286 4 -149 -1 -296 -10 -326 -12
-36 -20 53 -27 276 l-10 330 -123 6 c-68 3 -129 -3 -136 -14z m191 -77 c7 -52
9 -480 2 -500 -12 -36 -77 -31 -92 7 -16 43 -15 478 1 495 19 18 87 17 89 -2z
m318 -246 c0 -218 -5 -262 -31 -272 -69 -27 -86 93 -70 508 1 14 24 25 51 25
l50 0 0 -261z"/>
<path d="M1520 1491 l0 -211 121 0 120 0 -5 205 -6 205 -115 6 -115 6 0 -211z
m160 -9 c0 -126 -12 -153 -53 -119 -33 27 -36 200 -4 232 40 40 57 7 57 -113z"/>
<path d="M1840 1492 l0 -208 90 -7 c130 -11 130 -11 130 183 0 234 -3 240
-122 240 l-98 0 0 -208z m140 -12 c0 -107 -4 -120 -40 -120 -36 0 -40 13 -40
120 0 107 4 120 40 120 36 0 40 -13 40 -120z"/>
<path d="M3842 1506 c-146 -61 -162 -106 -162 -453 0 -272 2 -291 40 -303 68
-22 73 1 64 275 l-9 267 64 64 c108 108 385 87 441 -33 14 -29 33 -69 43 -90
13 -24 11 -46 -4 -65 -14 -16 -19 -54 -12 -88 7 -35 4 -60 -8 -60 -12 0 -42
-25 -69 -55 -66 -76 -123 -44 -114 65 12 139 -125 205 -203 97 -30 -40 -33
-60 -16 -98 18 -39 13 -54 -28 -93 -29 -28 -49 -69 -49 -106 -1 -33 -8 -91
-17 -130 -14 -59 -9 -78 30 -120 41 -43 47 -69 47 -213 0 -165 20 -218 58
-152 19 33 21 33 48 -4 49 -65 73 14 57 185 -16 180 -51 188 -59 14 -10 -225
-44 -122 -44 134 0 202 -5 246 -33 266 -70 51 -18 93 108 86 116 -6 170 -56
104 -96 -36 -23 -54 -568 -19 -590 41 -25 56 27 45 163 -10 122 35 286 78 287
50 1 79 -111 73 -286 l-6 -184 130 0 130 0 -3 95 c-2 66 4 95 22 95 49 0 88
93 102 242 16 168 32 198 106 198 96 -1 103 -15 136 -296 l12 -105 -82 13 -83
13 -2 -67 -3 -68 -13 60 c-21 100 -71 76 -78 -38 -7 -104 23 -165 56 -113 15
25 23 24 57 -6 25 -23 44 -28 52 -14 7 11 31 21 52 21 33 0 39 14 39 92 0 89
2 92 50 80 61 -16 86 29 54 94 -12 24 -28 103 -35 174 -11 102 -25 140 -64
176 -44 41 -47 52 -26 103 36 84 -6 141 -103 141 -91 0 -129 -53 -100 -137 15
-43 11 -64 -16 -98 -41 -51 -60 -39 -60 37 0 34 -21 77 -54 110 -41 42 -53 71
-49 121 5 57 -3 73 -55 102 -48 27 -62 49 -62 97 0 183 -319 294 -558 194z
m695 -593 c3 -20 -8 -47 -26 -60 -48 -35 -36 -260 14 -269 21 -4 35 5 35 25 0
17 9 31 20 31 31 0 23 -92 -10 -120 -16 -14 -30 -50 -30 -80 0 -70 -50 -119
-65 -63 -5 21 -7 75 -3 120 9 90 -51 123 -83 48 -22 -53 -45 36 -47 188 -2
106 -8 124 -43 133 -37 10 -38 16 -15 53 36 58 241 53 253 -6z m-137 -483 c0
-38 -9 -70 -20 -70 -11 0 -20 32 -20 70 0 39 9 70 20 70 11 0 20 -31 20 -70z"/>
<path d="M823 1454 c-37 -40 -43 -70 -43 -209 0 -236 55 -248 82 -19 19 162
54 194 206 193 169 -1 192 -22 192 -184 0 -138 29 -191 92 -167 47 18 32 299
-20 377 -53 79 -436 86 -509 9z"/>
<path d="M1014 587 c-27 -27 -16 -391 11 -382 17 6 27 66 31 185 5 164 -9 230
-42 197z"/>
<path d="M1634 447 c-18 -17 -18 -216 -1 -233 7 -7 29 -4 48 7 24 13 41 12 49
-2 8 -11 31 -15 53 -8 21 7 52 2 67 -11 35 -29 51 28 45 160 l-5 90 -80 0
c-78 0 -80 -2 -91 -80 l-12 -80 -8 78 c-9 75 -36 108 -65 79z"/>
</g>
</svg>
