 <svg  version="1.0" xmlns="http://www.w3.org/2000/svg"  width="900.000000pt" height="276.000000pt" viewBox="0 0 900.000000 276.000000"  preserveAspectRatio="xMidYMid meet">  <g transform="translate(0.000000,276.000000) scale(0.100000,-0.100000)" fill="#646cff" stroke="none"> <path d="M7690 2289 c-25 -22 -67 -55 -95 -74 -42 -30 -75 -54 -190 -142 -5 -5 -40 -30 -77 -58 -176 -130 -314 -236 -359 -275 l-29 -25 -1 -563 c0 -499 2 -566 16 -588 15 -23 20 -24 124 -24 117 0 136 7 129 52 -3 22 -8 23 -93 28 l-90 5 -3 524 c-2 487 -1 526 15 544 10 10 58 47 108 82 134 94 524 386 550 412 7 6 27 21 46 32 l33 20 40 -33 c23 -18 129 -99 236 -179 268 -201 397 -298 431 -325 l29 -24 -2 -526 -3 -527 -90 -1 c-49 -1 -96 -2 -103 -3 -9 -1 -12 -13 -10 -38 l3 -38 126 -3 c106 -2 130 0 143 13 14 15 16 77 16 589 0 619 3 585 -57 628 -77 55 -173 127 -240 178 -39 30 -98 74 -130 98 -32 24 -82 62 -112 85 -30 23 -77 59 -105 79 -61 44 -61 44 -109 86 -53 45 -89 43 -147 -9z"/> <path d="M1027 2102 c-22 -24 -21 -35 1 -55 34 -31 112 -15 112 22 0 46 -81 69 -113 33z"/> <path d="M1232 2098 c-7 -7 -12 -22 -12 -35 0 -47 98 -55 121 -10 10 17 8 24 -11 39 -25 20 -80 24 -98 6z"/> <path d="M842 2062 c-16 -13 -23 -26 -20 -43 2 -20 10 -25 40 -27 47 -4 78 12 78 41 0 47 -54 63 -98 29z"/> <path d="M1418 2035 c-23 -50 58 -97 106 -62 14 10 15 18 7 39 -20 52 -93 67 -113 23z"/> <path d="M5341 1933 c-55 -43 -128 -99 -163 -125 -35 -26 -101 -76 -148 -112 -47 -36 -108 -81 -137 -101 -28 -19 -62 -47 -75 -63 l-23 -28 5 -408 c5 -375 6 -409 23 -421 12 -9 43 -11 105 -8 l87 5 38 -58 38 -59 -3 -127 c-2 -82 1 -131 8 -138 12 -12 40 -4 46 13 3 7 2 115 -1 242 l-6 229 -25 6 c-27 6 -37 35 -20 60 7 11 33 16 99 18 80 4 91 2 111 -18 27 -27 23 -52 -10 -60 l-25 -6 -5 -199 c-3 -110 -9 -206 -13 -213 -19 -28 -25 -6 -29 97 -3 110 -8 129 -27 116 -14 -8 -15 -281 -1 -290 5 -3 17 6 26 20 l17 26 22 -21 c24 -23 41 -26 48 -7 2 6 2 69 -1 140 -4 102 -2 131 10 145 27 33 46 87 58 166 l12 78 -33 34 c-18 19 -43 34 -55 34 -31 0 -39 29 -14 55 38 40 0 108 -68 121 -27 6 -37 1 -67 -29 -37 -37 -44 -67 -20 -87 25 -21 18 -49 -17 -64 -51 -21 -76 -55 -80 -106 l-3 -45 -54 -3 c-30 -2 -65 -1 -78 3 l-23 5 0 365 0 364 263 197 c144 108 273 207 288 220 14 13 34 24 46 24 11 0 68 -37 126 -82 58 -46 115 -90 127 -98 30 -20 289 -213 318 -236 22 -18 23 -28 29 -184 4 -91 6 -181 5 -200 -1 -19 -3 -109 -5 -199 -3 -125 -7 -165 -18 -172 -8 -5 -44 -9 -81 -9 -64 0 -68 1 -83 29 -8 16 -27 39 -42 51 -24 19 -26 24 -16 53 24 70 24 74 -3 106 -21 26 -33 31 -69 31 -36 0 -48 -5 -70 -32 -27 -32 -27 -37 -9 -110 5 -23 2 -29 -18 -38 -38 -18 -48 -43 -55 -142 -5 -70 -11 -96 -25 -110 -16 -16 -22 -17 -34 -7 -25 20 -43 64 -37 88 3 13 -1 29 -12 41 -34 37 -75 19 -75 -32 0 -32 -21 -78 -43 -97 -24 -19 -31 -95 -12 -132 10 -19 15 -46 12 -68 -8 -69 2 -78 85 -77 l73 1 5 70 c5 63 7 70 28 73 28 4 48 35 58 87 3 22 11 46 16 52 6 7 14 50 19 95 12 101 25 118 89 118 65 0 90 -27 90 -101 0 -153 55 -302 91 -248 12 18 2 113 -17 159 -8 19 -13 44 -10 55 5 20 11 21 101 17 140 -6 136 -12 134 201 0 93 3 173 8 178 5 5 103 8 219 7 l209 -3 5 -35 c4 -28 10 -36 29 -38 14 -2 30 2 35 10 16 20 98 78 111 78 14 0 45 32 45 47 0 6 -21 23 -47 39 -26 15 -67 42 -91 61 -52 40 -87 44 -79 10 13 -48 4 -51 -223 -52 -138 -1 -214 3 -218 9 -3 6 -5 84 -3 172 l3 162 -61 48 c-33 27 -89 70 -123 96 -35 26 -130 97 -213 159 -82 61 -162 121 -177 133 -96 77 -100 76 -227 -21z m-111 -938 c0 -2 -4 -15 -10 -29 -12 -33 -27 -33 -42 -1 -15 33 5 60 33 44 10 -5 19 -12 19 -14z m545 -75 c0 -18 -6 -26 -21 -28 -26 -4 -40 24 -23 45 18 21 44 11 44 -17z m-281 -356 c19 -49 -5 -174 -34 -174 -21 0 -38 32 -44 85 -9 82 -1 105 39 105 21 0 35 -6 39 -16z"/> <path d="M680 1977 c-31 -16 -36 -73 -7 -91 21 -13 41 -2 71 38 35 46 -8 82 -64 53z"/> <path d="M1613 1948 c-23 -30 -23 -49 2 -74 41 -41 85 -27 85 29 0 23 -7 31 -35 43 -42 17 -40 17 -52 2z"/> <path d="M522 1844 c-18 -12 -22 -24 -20 -52 3 -32 7 -37 30 -40 38 -5 70 30 66 71 -2 26 -8 33 -28 35 -14 1 -35 -5 -48 -14z"/> <path d="M1742 1808 c-22 -22 -14 -65 17 -87 37 -26 57 -27 71 -1 29 55 -46 130 -88 88z"/> <path d="M411 1679 c-43 -47 -34 -99 18 -99 39 0 53 20 49 72 -2 35 -7 44 -25 46 -12 2 -30 -6 -42 -19z"/> <path d="M7168 1683 c-53 -6 -68 -32 -68 -115 0 -92 10 -101 109 -94 101 8 122 8 219 0 59 -4 87 -3 97 6 19 16 21 180 3 198 -16 16 -145 15 -183 -2 -25 -11 -37 -11 -69 1 -21 7 -46 12 -55 11 -9 -1 -33 -3 -53 -5z m76 -79 c32 -31 6 -74 -44 -74 -32 0 -46 25 -36 66 5 18 13 24 35 24 16 0 37 -7 45 -16z m227 -5 c8 -16 8 -28 0 -46 -9 -19 -17 -24 -42 -21 -44 4 -64 36 -43 66 20 29 69 30 85 1z"/> <path d="M1067 1643 c-7 -12 11 -350 22 -418 13 -77 43 -103 85 -72 27 20 43 135 47 327 l4 165 -77 3 c-42 2 -78 -1 -81 -5z"/> <path d="M1863 1642 c-16 -11 -25 -50 -18 -82 12 -56 95 -49 95 9 0 36 -54 88 -77 73z"/> <path d="M8023 1580 c-23 -9 -23 -10 -23 -259 0 -218 2 -250 16 -255 29 -11 160 -6 172 6 9 9 20 9 50 -2 37 -14 171 -18 191 -6 16 10 15 488 -1 504 -17 17 -174 16 -185 0 -4 -7 -6 -103 -5 -213 3 -225 0 -255 -29 -255 -20 0 -20 7 -18 231 1 127 -2 234 -7 239 -14 12 -136 20 -161 10z m110 -63 c16 -11 17 -32 15 -201 -3 -167 -5 -190 -20 -200 -13 -8 -23 -8 -35 0 -16 10 -19 34 -23 185 -6 222 -7 218 41 228 3 0 13 -5 22 -12z m249 -10 c3 -6 6 -91 6 -189 -1 -187 -5 -208 -46 -208 -44 1 -47 11 -49 192 -3 193 -1 215 25 221 22 6 55 -3 64 -16z"/> <path d="M352 1502 c-33 -21 -22 -122 13 -122 49 0 73 86 33 114 -26 18 -28 19 -46 8z"/> <path d="M3347 1483 c-3 -5 0 -34 6 -66 8 -42 7 -61 -1 -69 -8 -8 -50 -8 -159 0 -103 7 -152 7 -160 0 -9 -7 -13 -41 -13 -104 0 -83 2 -93 20 -99 10 -3 83 -1 161 5 169 13 172 12 150 -81 -16 -69 20 -90 65 -39 29 32 193 144 262 179 65 33 59 49 -42 107 -121 69 -155 93 -206 141 -32 31 -73 43 -83 26z m133 -195 c53 -39 36 -71 -42 -83 -39 -6 -49 -4 -67 14 -26 26 -16 52 27 75 37 20 48 20 82 -6z"/> <path d="M1912 1434 c-32 -22 -29 -67 5 -94 24 -19 26 -23 12 -33 -23 -17 -37 -47 -32 -67 6 -21 47 -42 67 -34 19 7 28 47 17 77 -6 14 -7 49 -4 79 4 43 2 58 -12 71 -20 21 -25 21 -53 1z"/> <path d="M5581 1397 c-8 -10 -11 -58 -9 -153 l3 -139 37 -9 c23 -6 56 -6 85 0 l48 9 0 150 0 150 -76 3 c-56 2 -79 -1 -88 -11z m113 -63 c3 -9 6 -46 6 -84 0 -81 -6 -100 -31 -100 -27 0 -39 31 -39 100 0 34 5 70 10 81 13 23 46 25 54 3z"/> <path d="M5816 1395 c-3 -9 -6 -77 -6 -150 0 -123 2 -135 19 -145 23 -12 110 -13 129 -2 9 7 12 45 10 158 l-3 149 -71 3 c-59 2 -73 0 -78 -13z m104 -71 c6 -14 10 -47 10 -74 0 -27 -4 -60 -10 -74 -11 -29 -44 -35 -54 -10 -11 29 -6 160 6 172 19 19 38 14 48 -14z"/> <path d="M310 1276 c-12 -32 1 -71 29 -85 40 -22 67 12 59 75 -3 26 -8 29 -41 32 -32 3 -38 0 -47 -22z"/> <path d="M7315 1260 c-101 -48 -105 -61 -105 -323 0 -231 3 -242 52 -235 l23 3 -4 197 c-3 190 -2 198 19 234 37 59 72 74 173 74 67 0 97 -5 126 -19 40 -21 71 -59 71 -88 0 -9 10 -27 22 -40 l21 -23 -21 -23 c-24 -25 -28 -57 -12 -73 11 -11 4 -44 -9 -44 -5 0 -26 -18 -49 -40 -47 -47 -64 -49 -86 -15 -13 19 -15 37 -11 69 8 52 -6 83 -42 97 -40 15 -75 2 -101 -36 -22 -31 -23 -38 -12 -71 12 -36 12 -37 -25 -71 -35 -32 -37 -37 -31 -79 4 -30 1 -57 -9 -81 -20 -48 -19 -55 16 -99 30 -38 31 -40 29 -144 -3 -137 -3 -137 17 -144 33 -13 37 10 35 222 l-3 207 -26 22 c-24 19 -26 25 -15 48 12 25 14 26 99 23 l88 -3 3 -28 c2 -17 -3 -36 -13 -47 -13 -15 -16 -50 -19 -216 -1 -110 -1 -205 2 -212 6 -18 32 -15 33 6 1 9 1 65 -1 123 -2 100 0 110 24 152 33 55 53 65 66 33 5 -13 14 -27 21 -31 8 -6 10 -50 8 -159 l-4 -151 88 1 c63 1 93 6 104 16 16 17 11 51 -13 83 -12 17 -16 18 -24 5 -16 -27 -25 1 -27 88 -1 48 -2 90 -2 95 -1 12 -31 8 -33 -5 0 -7 -2 -47 -2 -90 -1 -42 -5 -80 -9 -84 -17 -17 -28 23 -25 91 1 39 -2 77 -7 85 -6 8 -12 60 -15 115 l-5 100 -27 3 c-34 4 -37 29 -8 60 18 19 32 22 95 22 85 0 111 -15 100 -59 -3 -14 -11 -30 -18 -36 -8 -6 -12 -41 -12 -94 0 -91 10 -108 42 -72 25 30 33 26 33 -19 0 -25 -9 -52 -25 -76 -14 -20 -25 -42 -25 -49 0 -16 25 -26 44 -19 29 11 55 115 56 221 0 71 0 71 31 82 71 25 129 8 129 -37 0 -15 7 -52 15 -82 8 -30 15 -83 15 -117 0 -60 1 -62 30 -68 16 -4 34 -4 40 0 14 9 12 47 -4 81 -7 16 -17 66 -20 112 -7 85 -21 120 -61 154 -18 14 -18 20 -7 50 17 47 15 61 -9 92 -16 21 -29 26 -63 26 -69 0 -89 -36 -72 -125 5 -23 1 -36 -19 -58 -32 -36 -45 -27 -45 27 0 46 -26 90 -59 101 -26 8 -33 30 -19 60 15 34 -2 70 -47 96 -31 19 -35 25 -35 63 0 58 -45 120 -106 147 -65 27 -270 27 -329 -1z m468 -283 c3 -8 2 -19 -3 -26 -11 -19 -51 4 -44 24 8 19 40 20 47 2z m-315 -51 c2 -10 -1 -23 -7 -29 -16 -16 -44 14 -35 37 8 22 38 17 42 -8z m592 -56 c0 -23 -25 -27 -33 -6 -7 16 1 26 20 26 7 0 13 -9 13 -20z"/> <path d="M5092 1260 c-12 -5 -34 -22 -47 -37 -23 -26 -24 -35 -25 -150 0 -114 1 -123 19 -123 22 0 31 26 31 97 0 29 7 70 15 91 23 56 57 72 157 72 81 0 85 -1 114 -31 27 -28 29 -36 32 -125 4 -90 5 -96 29 -107 39 -17 45 3 39 127 -6 123 -25 167 -78 185 -37 13 -254 14 -286 1z"/> <path d="M1881 1097 c-6 -8 -14 -28 -17 -45 -6 -27 -3 -33 21 -44 34 -15 57 -2 69 40 6 22 5 36 -4 47 -15 19 -54 20 -69 2z"/> <path d="M344 1073 c-11 -43 14 -78 56 -78 33 0 35 2 38 38 4 48 -11 67 -54 67 -28 0 -35 -4 -40 -27z"/> <path d="M1070 1049 c-15 -26 -12 -136 3 -146 18 -12 130 -12 145 -1 7 7 12 36 12 79 0 43 -5 71 -12 76 -7 4 -41 8 -76 9 -51 1 -65 -3 -72 -17z"/> <path d="M1808 913 c-47 -51 -45 -81 9 -97 17 -5 27 1 49 29 l27 36 -20 26 c-27 37 -35 37 -65 6z"/> <path d="M429 897 c-14 -31 2 -69 36 -87 25 -14 28 -13 46 9 22 27 18 57 -13 84 -28 24 -56 21 -69 -6z"/> <path d="M1683 750 c-23 -13 -33 -27 -33 -44 0 -56 72 -62 102 -9 19 31 19 32 -3 52 -28 26 -26 26 -66 1z"/> <path d="M553 743 c-20 -7 -15 -29 13 -62 27 -32 52 -38 85 -21 26 14 24 42 -4 68 -22 21 -64 28 -94 15z"/> <path d="M1512 628 c-19 -9 -22 -18 -20 -47 3 -32 6 -36 35 -39 57 -6 99 63 54 88 -24 12 -39 12 -69 -2z"/> <path d="M713 613 c-7 -19 14 -61 39 -77 24 -15 72 4 76 29 1 11 -7 30 -18 43 -26 27 -87 31 -97 5z"/> <path d="M906 544 c-22 -21 -20 -31 9 -59 42 -43 95 -28 95 27 0 45 -70 66 -104 32z"/> <path d="M1312 548 c-7 -7 -12 -24 -12 -38 0 -51 41 -65 91 -29 32 22 39 63 13 73 -26 10 -79 7 -92 -6z"/> <path d="M7436 542 c-2 -4 -6 -60 -8 -124 -3 -130 5 -156 41 -124 18 16 19 27 14 124 -5 100 -14 132 -34 132 -4 0 -10 -4 -13 -8z"/> <path d="M1110 510 c-49 -49 46 -98 98 -50 12 12 22 23 22 25 0 2 -10 13 -22 25 -28 25 -72 26 -98 0z"/> <path d="M5726 461 c-13 -14 -16 -28 -11 -49 3 -18 2 -33 -4 -37 -7 -4 -11 10 -11 40 0 32 -5 47 -15 52 -22 8 -24 4 -31 -64 -10 -96 9 -140 41 -96 13 17 14 17 32 0 24 -21 32 -21 55 -1 16 16 18 16 24 0 9 -22 33 -20 42 4 9 24 0 145 -11 156 -4 5 -16 3 -27 -3 -14 -10 -21 -9 -30 2 -17 20 -34 19 -54 -4z"/> <path d="M8027 463 c-4 -3 -7 -27 -7 -52 0 -33 -3 -42 -10 -31 -5 8 -10 27 -10 43 0 22 -5 27 -24 27 -21 0 -24 -5 -29 -62 -7 -79 3 -101 40 -87 20 7 30 6 43 -6 14 -12 23 -13 51 -4 54 18 59 28 52 88 -5 46 -10 56 -37 72 -32 19 -58 24 -69 12z"/> </g> </svg> 