 <svg  version="1.0" xmlns="http://www.w3.org/2000/svg"  width="284.000000pt" height="162.000000pt" viewBox="0 0 284.000000 162.000000"  preserveAspectRatio="xMidYMid meet">  <g transform="translate(0.000000,162.000000) scale(0.050000,-0.050000)" fill="#646cff" stroke="none"> <path d="M700 2402 c0 -10 65 -23 145 -30 80 -6 213 -21 295 -32 83 -11 233 -25 335 -32 102 -7 185 -21 185 -32 0 -30 -635 13 -669 46 -43 42 -375 22 -361 -22 10 -33 4 -40 -39 -40 -37 0 -51 -10 -51 -39 0 -22 -18 -49 -41 -61 -22 -12 -38 -37 -35 -55 4 -20 -12 -37 -44 -45 l-50 -12 0 -317 0 -318 240 -4 c132 -2 308 -15 390 -28 83 -14 281 -28 440 -32 l290 -7 6 -301 c3 -178 13 -301 25 -301 10 0 19 27 19 60 0 33 9 60 20 60 11 0 20 -9 20 -20 0 -11 9 -20 20 -20 13 0 20 127 20 342 l0 342 -65 -10 c-36 -6 -90 -17 -120 -25 l-55 -14 0 323 0 322 -270 0 c-167 0 -270 -8 -270 -20 0 -12 96 -20 249 -20 l250 0 5 -315 6 -315 55 -6 c84 -10 65 -44 -24 -44 l-80 0 -5 315 -6 315 -225 6 c-128 3 -225 14 -225 25 0 10 -69 19 -155 19 -85 0 -168 9 -185 20 -36 23 -34 23 175 20 105 -2 165 5 165 19 0 14 99 21 290 21 l290 0 0 -300 c0 -192 7 -300 20 -300 14 0 19 111 15 320 l-5 321 -300 8 c-291 8 -495 29 -660 66 l-80 18 77 16 c47 10 106 7 152 -6 42 -13 126 -23 187 -23 61 0 117 -8 123 -19 7 -10 131 -19 276 -18 l265 0 6 -302 c3 -178 13 -301 25 -301 10 0 19 28 19 61 0 53 6 60 40 49 39 -12 40 -4 40 314 l0 327 -315 3 c-176 1 -340 12 -371 24 -67 26 -474 30 -474 4z m1120 -382 c0 -107 -8 -180 -20 -180 -12 0 -20 73 -20 180 0 107 8 180 20 180 12 0 20 -73 20 -180z m-760 140 c0 -12 -63 -20 -150 -20 -87 0 -150 8 -150 20 0 12 63 20 150 20 87 0 150 -8 150 -20z m-450 -160 c-7 -11 -33 -20 -57 -20 -140 0 -135 -471 5 -483 18 -1 1 -8 -38 -16 -38 -7 -77 -10 -85 -6 -19 9 -20 513 -2 532 22 22 191 15 177 -7z m430 0 c0 -12 -63 -20 -149 -20 -82 0 -154 9 -161 20 -8 13 46 20 149 20 94 0 161 -8 161 -20z m438 -48 c16 -18 21 -115 18 -295 l-6 -267 -108 -6 c-59 -4 -117 3 -129 15 -15 15 -1 21 47 21 123 0 160 59 160 254 0 228 -34 266 -239 266 -81 0 -141 9 -141 20 0 33 370 26 398 -8z m-318 -52 c221 -31 240 -49 240 -222 0 -137 -52 -238 -105 -205 -11 7 -79 20 -152 30 -73 9 -191 27 -263 39 -71 12 -184 28 -250 35 l-120 13 -6 137 c-10 230 85 255 656 173z m-220 -420 c0 -11 -60 -20 -140 -20 -80 0 -140 9 -140 20 0 11 60 20 140 20 80 0 140 -9 140 -20z m230 -40 c8 -12 -23 -20 -78 -20 -49 0 -95 9 -102 20 -8 12 23 20 78 20 49 0 95 -9 102 -20z m650 -290 c0 -113 -8 -190 -20 -190 -12 0 -20 77 -20 190 0 113 8 190 20 190 12 0 20 -77 20 -190z"/> <path d="M853 1823 c-45 -49 -43 -168 4 -210 82 -75 243 -4 243 107 0 113 -173 186 -247 103z m143 -27 c52 -52 17 -176 -50 -176 -48 0 -71 99 -36 153 35 53 51 58 86 23z"/> <path d="M2340 2403 c0 -10 70 -23 155 -31 85 -8 218 -22 295 -33 77 -10 221 -24 320 -31 99 -7 189 -20 199 -30 26 -24 -332 -23 -396 1 -27 10 -101 21 -162 23 -62 3 -118 12 -123 21 -26 42 -371 19 -358 -23 10 -33 4 -40 -39 -40 -37 0 -51 -10 -51 -39 0 -22 -18 -49 -41 -61 -22 -12 -38 -37 -35 -56 4 -22 -10 -36 -39 -40 -45 -7 -45 -10 -45 -330 l0 -324 235 -2 c254 -2 441 -19 533 -49 32 -11 178 -19 325 -19 l267 0 0 -300 c0 -187 8 -300 20 -300 13 0 20 130 20 351 0 229 7 347 20 339 12 -7 20 -134 20 -311 0 -186 8 -299 20 -299 13 0 20 127 20 342 l0 342 -65 -10 c-36 -6 -90 -17 -120 -25 l-55 -14 0 323 0 322 -270 0 c-167 0 -270 8 -270 20 0 12 -67 20 -160 20 -93 0 -160 8 -160 20 0 12 67 20 160 20 93 0 160 -8 160 -20 0 -12 110 -20 290 -20 l290 0 0 -300 c0 -198 7 -300 21 -300 14 0 20 112 18 340 -3 187 4 340 13 340 10 0 20 -135 24 -300 7 -430 44 -388 44 51 0 229 7 347 20 339 12 -7 20 -134 20 -311 0 -186 8 -299 20 -299 13 0 20 125 20 336 l0 336 -295 1 c-162 1 -331 12 -375 24 -93 26 -490 31 -490 6z m360 -146 c83 -10 251 -23 375 -29 127 -7 225 -20 225 -31 0 -38 -593 -3 -930 55 -113 19 -33 52 90 36 50 -6 158 -20 240 -31z m20 -178 c0 -11 110 -19 249 -19 l250 0 5 -315 c6 -297 8 -315 46 -322 81 -14 78 -43 -6 -43 l-84 0 0 288 c0 381 20 352 -242 352 -132 0 -218 8 -218 20 0 12 -70 20 -169 20 -146 0 -210 15 -182 42 16 17 351 -6 351 -23z m-470 -79 c-7 -11 -30 -20 -53 -20 -81 0 -99 -46 -93 -242 l6 -183 66 -36 65 -35 -81 -7 c-45 -5 -86 -4 -91 1 -14 14 -10 514 4 529 22 22 191 15 177 -7z m430 0 c0 -12 -63 -20 -149 -20 -82 0 -154 9 -161 20 -8 13 46 20 149 20 94 0 161 -8 161 -20z m438 -48 c16 -18 21 -115 18 -295 l-6 -267 -108 -6 c-59 -4 -117 3 -129 15 -15 15 -1 21 47 21 122 0 160 59 160 253 0 229 -32 267 -222 267 -75 0 -141 9 -148 20 -21 33 360 26 388 -8z m-318 -52 c221 -31 240 -49 240 -222 0 -137 -52 -238 -105 -205 -11 7 -79 20 -152 30 -73 10 -187 27 -253 38 -66 11 -174 25 -240 32 -143 14 -149 22 -150 175 0 207 105 231 660 152z m-210 -420 c8 -13 -43 -20 -139 -20 -87 0 -151 8 -151 20 0 11 60 20 139 20 76 0 144 -9 151 -20z m220 -40 c8 -12 -23 -20 -78 -20 -49 0 -95 9 -102 20 -8 12 23 20 78 20 49 0 95 -9 102 -20z"/> <path d="M2493 1823 c-45 -49 -43 -168 4 -210 85 -77 243 -5 243 110 0 111 -173 182 -247 100z m143 -27 c52 -52 17 -176 -50 -176 -48 0 -71 99 -36 153 35 53 51 58 86 23z"/> <path d="M3980 2403 c0 -10 74 -23 165 -31 91 -7 228 -22 305 -33 77 -11 217 -25 310 -31 94 -7 179 -20 190 -31 25 -24 -321 -9 -520 22 -305 49 -536 50 -521 3 12 -35 5 -42 -38 -42 -37 0 -51 -10 -51 -39 0 -22 -18 -49 -41 -61 -22 -12 -38 -37 -35 -56 4 -22 -10 -36 -39 -40 -45 -7 -45 -10 -45 -330 l0 -324 235 -2 c261 -3 477 -23 529 -50 18 -10 142 -18 275 -18 155 0 241 -7 241 -21 0 -38 -761 1 -992 51 -64 14 -141 -33 -117 -72 6 -10 -7 -18 -29 -18 -22 0 -46 -10 -53 -22 -22 -35 30 -56 107 -43 50 8 66 5 56 -12 -8 -13 -65 -23 -133 -23 l-119 0 0 -325 0 -325 255 -2 c140 -1 314 -13 385 -27 72 -13 218 -29 325 -34 l195 -10 0 340 0 340 -249 2 c-148 1 -253 -7 -261 -19 -7 -12 -116 -20 -264 -20 -307 0 -304 2 -305 -238 -1 -131 7 -177 33 -206 38 -43 10 -89 -43 -69 -40 15 -46 490 -7 529 16 16 114 24 310 24 314 0 401 35 111 44 -96 3 -170 14 -165 24 13 23 328 15 337 -9 3 -11 126 -19 275 -19 l268 0 0 -320 c0 -200 8 -320 20 -320 13 0 20 127 20 340 l0 340 -290 0 c-180 0 -290 8 -290 20 0 12 -67 20 -160 20 -93 0 -160 8 -160 20 0 12 70 20 170 20 100 0 170 -8 170 -20 0 -12 113 -20 300 -20 l300 0 0 -300 c0 -199 7 -300 21 -300 15 0 20 109 15 340 -5 262 0 340 19 340 19 0 25 -73 25 -300 0 -187 8 -300 20 -300 13 0 20 130 20 351 0 229 7 347 20 339 12 -7 20 -134 20 -311 0 -186 8 -299 20 -299 13 0 20 127 20 342 l0 342 -65 -10 c-36 -6 -90 -17 -120 -25 l-55 -14 0 323 0 322 -270 0 c-167 0 -270 8 -270 20 0 12 -67 20 -160 20 -93 0 -160 8 -160 20 0 12 67 20 160 20 93 0 160 -8 160 -20 0 -12 110 -20 290 -20 l290 0 0 -300 c0 -198 7 -300 21 -300 14 0 20 112 18 340 -3 187 4 340 13 340 10 0 20 -135 24 -300 7 -430 44 -388 44 51 0 229 7 347 20 339 12 -7 20 -134 20 -311 0 -186 8 -299 20 -299 13 0 20 125 20 336 l0 336 -295 1 c-162 1 -331 12 -375 24 -93 26 -490 31 -490 6z m350 -145 c77 -10 246 -24 375 -30 130 -7 235 -21 235 -32 0 -23 -506 -8 -710 22 -283 41 -304 46 -260 65 39 16 70 14 360 -25z m27 -180 c3 -10 118 -18 254 -18 l248 0 5 -315 6 -315 55 -6 c85 -10 65 -44 -25 -44 l-80 0 0 320 0 320 -230 0 c-134 0 -230 8 -230 19 0 11 -78 22 -173 25 -96 3 -177 15 -180 26 -9 25 340 13 350 -12z m-477 -78 c-16 -11 -42 -20 -56 -20 -110 -1 -128 -388 -22 -456 l63 -39 -73 -9 c-97 -11 -92 -25 -92 264 0 289 -4 280 118 280 67 -1 84 -6 62 -20z m440 0 c0 -12 -63 -20 -149 -20 -82 0 -154 9 -161 20 -8 13 46 20 149 20 94 0 161 -8 161 -20z m456 -325 l5 -295 -119 0 c-66 0 -125 9 -132 20 -7 12 16 20 59 20 121 0 151 50 151 254 0 233 -28 266 -222 266 -75 0 -141 9 -148 21 -9 14 55 19 193 15 l207 -6 6 -295z m-337 227 c220 -30 241 -49 241 -224 0 -183 -21 -203 -197 -187 -73 7 -146 17 -163 23 -40 14 -240 44 -390 59 -143 14 -149 22 -150 175 0 207 97 229 659 154z m-199 -422 c0 -11 44 -20 99 -20 54 0 105 -10 112 -22 10 -16 -17 -18 -94 -9 -59 7 -177 18 -262 23 -198 14 -202 48 -5 48 87 0 150 -8 150 -20z m530 -681 l0 -289 -78 -6 c-42 -4 -87 3 -99 15 -15 15 -7 21 26 21 97 0 121 50 121 246 0 237 -34 274 -255 274 -92 0 -145 8 -145 22 0 15 67 20 215 14 l215 -8 0 -289z m-502 244 c6 -9 79 -22 163 -29 221 -16 249 -40 249 -214 0 -144 -49 -242 -103 -208 -13 8 -77 21 -145 29 -67 9 -189 26 -272 40 -82 13 -194 26 -247 28 -116 7 -132 27 -133 167 0 181 29 203 274 203 112 1 208 -7 214 -16z m-108 -443 c0 -11 -26 -20 -59 -20 -32 0 -64 9 -71 20 -7 12 16 20 59 20 39 0 71 -9 71 -20z"/> <path d="M4131 1816 c-77 -110 -16 -236 113 -236 125 0 182 150 90 237 -62 58 -162 57 -203 -1z m145 -20 c52 -52 17 -176 -50 -176 -48 0 -71 99 -36 153 35 53 51 58 86 23z"/> <path d="M4131 936 c-77 -110 -16 -236 114 -236 83 0 135 55 135 141 0 119 -183 189 -249 95z m145 -20 c52 -52 17 -176 -50 -176 -48 0 -71 99 -36 153 35 53 51 58 86 23z"/> <path d="M573 1350 c-18 -18 -33 -41 -33 -51 0 -11 -13 -19 -29 -19 -41 0 -61 -41 -30 -61 15 -9 52 -11 83 -5 34 7 56 2 56 -11 0 -12 -53 -24 -125 -27 l-125 -6 0 -319 0 -319 260 -3 c143 -2 314 -14 380 -27 66 -14 212 -29 325 -35 l205 -11 0 317 c-1 389 19 361 -260 365 -128 2 -233 12 -237 23 -3 10 -87 19 -186 19 -127 0 -178 7 -173 23 10 28 343 24 353 -4 3 -11 126 -19 275 -19 l268 0 0 -320 c0 -200 8 -320 20 -320 13 0 20 127 20 340 l0 340 -290 0 c-180 0 -290 8 -290 20 0 12 -70 20 -171 20 -109 0 -167 7 -159 20 7 11 84 20 171 20 93 0 159 -8 159 -20 0 -12 117 -20 310 -20 l310 0 0 -300 c0 -192 7 -300 20 -300 14 0 19 111 15 321 l-5 320 -310 7 c-286 6 -560 30 -712 63 -44 9 -71 3 -95 -21z m447 -230 c0 -12 -97 -20 -251 -20 -192 0 -259 -7 -280 -29 -44 -43 -40 -365 5 -415 38 -43 10 -89 -43 -69 -32 12 -49 509 -18 540 22 22 587 15 587 -7z m375 -33 l105 -13 0 -235 c0 -302 -13 -339 -120 -339 -44 0 -80 9 -80 20 0 11 20 20 43 20 93 0 117 52 117 246 0 237 -34 274 -255 274 -83 0 -145 9 -145 20 0 22 176 26 335 7z m-407 -44 c6 -9 80 -22 165 -29 144 -11 260 -57 250 -100 -2 -8 -3 -68 -3 -133 0 -118 -55 -219 -103 -189 -9 6 -78 19 -152 29 -74 10 -193 27 -265 39 -71 12 -176 24 -233 28 -141 10 -147 16 -147 167 0 193 16 205 272 205 113 0 210 -8 216 -17z m-108 -443 c0 -11 -26 -20 -59 -20 -32 0 -64 9 -71 20 -7 12 16 20 59 20 39 0 71 -9 71 -20z"/> <path d="M853 943 c-45 -49 -43 -168 4 -210 131 -118 305 44 202 189 -50 69 -153 80 -206 21z m138 -32 c35 -34 38 -114 5 -147 -69 -69 -145 39 -88 125 38 59 45 61 83 22z"/> <path d="M2213 1350 c-18 -18 -28 -41 -22 -52 6 -10 -7 -18 -29 -18 -22 0 -46 -10 -53 -22 -22 -35 30 -56 107 -43 50 8 66 5 56 -12 -8 -13 -65 -23 -133 -23 l-119 0 0 -325 0 -325 255 -2 c140 -1 314 -13 385 -27 72 -13 218 -29 325 -34 l195 -10 0 310 c0 403 24 369 -256 372 -134 1 -237 10 -241 21 -3 11 -86 20 -186 20 -127 0 -178 7 -173 23 10 28 339 24 356 -4 7 -10 128 -20 271 -23 l259 -6 6 -315 c7 -436 44 -415 44 25 l0 340 -292 0 c-199 0 -289 7 -284 22 4 11 14 20 22 20 7 -1 145 -2 304 -2 l290 0 0 -314 c0 -215 6 -308 21 -293 12 12 18 139 15 335 l-6 314 -310 7 c-290 6 -568 30 -712 61 -44 10 -71 4 -95 -20z m467 -70 c0 -12 -67 -20 -160 -20 -93 0 -160 8 -160 20 0 12 67 20 160 20 93 0 160 -8 160 -20z m-31 -161 c12 -12 -79 -19 -236 -19 -195 0 -263 -7 -284 -29 -44 -43 -40 -365 5 -415 38 -43 10 -89 -43 -69 -34 13 -47 476 -15 527 26 41 531 45 573 5z m468 -47 c29 -18 32 -446 3 -521 -20 -53 -142 -76 -170 -31 -7 11 8 20 32 20 94 0 118 51 118 246 0 237 -34 274 -255 274 -95 0 -145 8 -145 23 0 25 375 15 417 -11z m-489 -29 c6 -9 79 -22 163 -29 221 -16 249 -40 249 -214 0 -144 -49 -242 -103 -208 -13 8 -77 21 -145 29 -67 9 -189 26 -272 40 -82 13 -192 26 -242 28 -130 7 -138 17 -138 158 0 198 19 213 270 213 114 0 212 -8 218 -17z m-108 -443 c0 -11 -26 -20 -59 -20 -32 0 -64 9 -71 20 -7 12 16 20 59 20 39 0 71 -9 71 -20z"/> <path d="M2491 936 c-77 -110 -16 -236 113 -236 125 0 182 150 90 237 -62 58 -162 57 -203 -1z m140 -25 c55 -55 24 -171 -45 -171 -48 0 -71 99 -36 153 36 55 43 57 81 18z"/> </g> </svg> 