<?xml version="1.0" standalone="no"?>
<!DOCTYPE svg PUBLIC "-//W3C//DTD SVG 20010904//EN"
 "http://www.w3.org/TR/2001/REC-SVG-20010904/DTD/svg10.dtd">
<svg version="1.0" xmlns="http://www.w3.org/2000/svg"
 width="300.000000pt" height="166.000000pt" viewBox="0 0 300.000000 166.000000"
 preserveAspectRatio="xMidYMid meet">
<metadata>
Created by potrace 1.10, written by Peter Selinger 2001-2011
</metadata>
<g transform="translate(0.000000,166.000000) scale(0.050000,-0.050000)"
fill="#646cff" stroke="none">
<path d="M700 2834 c0 -22 46 -32 195 -42 107 -7 254 -21 325 -33 72 -11 216
-25 320 -31 105 -7 199 -21 210 -32 31 -31 -701 12 -740 44 -44 35 -379 33
-386 -3 -5 -29 13 -34 130 -32 146 1 446 -31 479 -51 36 -22 545 -34 558 -13
35 57 49 -36 49 -332 0 -307 18 -412 47 -268 9 44 22 59 48 55 38 -7 66 671
29 708 -9 9 -84 6 -165 -6 -125 -19 -188 -17 -389 12 -332 50 -710 62 -710 24z
m1215 -508 c-4 -75 -7 -19 -7 124 0 143 3 204 7 136 4 -68 4 -185 0 -260z"/>
<path d="M2500 2834 c0 -23 44 -32 195 -41 107 -7 258 -22 335 -34 77 -11 226
-25 330 -31 105 -7 199 -21 210 -32 32 -31 -720 12 -760 44 -17 14 -305 31
-387 23 -94 -10 9 -53 129 -55 76 -2 210 -12 298 -24 376 -52 469 -60 625 -56
l165 5 0 -326 c0 -205 7 -327 20 -327 26 0 25 -9 20 405 -3 248 3 355 18 355
15 0 22 -103 22 -330 0 -280 5 -330 30 -330 26 0 30 55 30 373 l0 372 -75 -12
c-198 -34 -290 -34 -505 -1 -321 49 -700 60 -700 22z"/>
<path d="M4291 2841 c-18 -29 11 -36 219 -50 99 -7 243 -21 320 -32 77 -11
227 -26 333 -34 107 -8 201 -23 210 -32 21 -21 -409 -2 -603 26 -207 31 -516
56 -546 46 -67 -25 0 -55 128 -57 76 -2 210 -13 298 -25 287 -42 459 -58 511
-50 28 4 86 0 130 -9 l79 -18 -73 -15 c-104 -21 -423 -3 -717 40 -357 52 -448
51 -456 -5 -4 -24 -24 -50 -46 -57 -27 -8 -38 -27 -34 -56 5 -34 -6 -44 -49
-49 l-55 -7 0 -355 0 -355 245 -1 c226 -1 310 -8 705 -64 77 -11 215 -20 306
-21 106 -1 162 -8 154 -21 -16 -26 -595 -27 -621 -1 -17 17 -191 34 -469 46
-100 5 -111 1 -116 -39 -4 -27 -23 -46 -50 -50 -87 -12 -51 -66 41 -61 47 3
85 -3 85 -14 0 -10 -61 -22 -135 -25 l-135 -6 0 -355 0 -356 310 -8 c171 -4
364 -18 430 -30 66 -13 212 -28 325 -34 l205 -11 0 357 c0 196 -7 366 -15 377
-25 34 -518 32 -547 -2 -20 -24 -68 -27 -276 -16 -329 17 -338 11 -356 -236
-11 -167 -9 -178 41 -243 53 -71 44 -93 -39 -93 -38 0 -42 569 -4 593 14 8
164 16 335 17 342 3 421 36 110 46 -129 4 -189 13 -184 28 9 27 379 22 395 -5
7 -10 137 -20 291 -23 l279 -6 5 -330 c3 -181 10 -343 17 -360 29 -80 41 55
32 385 l-9 355 -307 0 c-192 0 -308 8 -308 20 0 12 -74 20 -182 20 -133 0
-179 6 -173 24 9 29 351 24 386 -5 12 -10 161 -20 330 -23 l309 -6 -5 -325
c-4 -284 -1 -325 26 -325 28 0 31 46 27 375 -3 222 3 371 14 365 10 -5 19
-154 20 -329 1 -222 9 -321 25 -327 17 -5 23 94 23 374 0 241 7 382 20 382 13
0 20 -124 20 -332 0 -256 6 -329 25 -323 19 6 25 100 25 377 l0 368 -60 -6
c-33 -3 -86 -15 -117 -28 -85 -34 -92 -5 -93 359 l0 325 -290 0 c-185 0 -290
7 -290 21 0 13 110 18 315 15 l315 -6 0 -310 c0 -190 8 -312 20 -315 13 -3 20
129 20 365 0 283 6 370 25 370 19 0 25 -79 25 -330 0 -207 7 -330 20 -330 13
0 20 140 20 380 0 234 8 380 20 380 11 0 21 -133 25 -330 7 -454 43 -438 50
23 7 414 16 397 -187 366 -134 -19 -193 -18 -388 12 -281 43 -691 60 -709 30z
m281 -261 c72 0 128 -9 128 -20 0 -12 -70 -20 -171 -20 -109 0 -167 -7 -159
-20 7 -11 83 -20 170 -20 87 0 163 -9 170 -20 7 -12 123 -20 281 -20 l268 0 6
-345 5 -345 50 -7 c95 -12 91 -43 -6 -43 l-94 0 0 318 c0 417 24 382 -261 382
-136 0 -242 8 -249 20 -7 11 -89 20 -183 20 -205 0 -271 36 -186 102 27 20 61
33 76 28 14 -6 84 -10 155 -10z m-352 -180 c0 -11 -26 -20 -57 -20 -190 0
-203 -465 -15 -540 32 -13 20 -18 -53 -19 l-95 -1 0 288 c0 212 7 291 25 299
46 18 195 13 195 -7z m440 2 c0 -27 -95 -39 -223 -27 -175 16 -141 45 53 45
94 0 170 -8 170 -18z m516 -367 l5 -315 -155 0 c-108 1 -147 7 -126 20 17 11
56 20 88 20 111 0 132 43 132 269 0 254 -47 324 -203 302 -48 -7 -114 -4 -147
7 -45 14 -1 18 170 16 l230 -4 6 -315z m-536 265 c72 -10 181 -24 242 -31 164
-16 191 -55 178 -255 -10 -150 -30 -195 -90 -193 -48 2 -315 39 -480 67 -99
17 -214 31 -256 32 -136 0 -154 22 -154 186 0 231 95 264 560 194z m-60 -480
c0 -11 49 -20 109 -20 60 0 115 -10 122 -22 10 -16 -21 -18 -104 -9 -64 7
-189 17 -277 23 -224 15 -241 48 -24 48 103 0 174 -8 174 -20z m585 -450 c17
-24 20 -501 2 -565 -11 -41 -23 -45 -134 -43 -104 2 -113 4 -57 18 128 30 144
62 144 292 0 253 -28 287 -243 289 -70 1 -145 10 -167 20 -26 12 43 17 200 14
135 -2 246 -13 255 -25z m-557 -27 c6 -9 90 -23 186 -30 149 -12 183 -21 224
-62 93 -93 38 -460 -60 -400 -9 6 -83 19 -163 29 -80 9 -235 32 -345 49 -110
18 -224 30 -252 27 -123 -12 -177 249 -75 358 46 48 458 73 485 29z m-108
-483 c0 -11 -31 -20 -70 -20 -38 0 -70 9 -70 20 0 11 32 20 70 20 39 0 70 -9
70 -20z"/>
<path d="M4461 2182 c-115 -162 96 -354 230 -209 97 105 30 267 -111 267 -62
0 -85 -11 -119 -58z m180 -54 c19 -52 -19 -135 -66 -144 -49 -10 -85 89 -56
152 26 58 100 53 122 -8z"/>
<path d="M4461 1222 c-83 -117 -18 -262 119 -262 143 0 209 165 107 267 -74
75 -170 73 -226 -5z m179 -52 c28 -74 -8 -155 -65 -146 -66 9 -93 103 -46 155
50 55 88 52 111 -9z"/>
<path d="M535 2669 c-8 -9 -15 -32 -15 -51 0 -19 -19 -41 -42 -49 -32 -10 -39
-24 -29 -61 10 -43 5 -48 -49 -48 -34 0 -60 -11 -60 -25 -1 -14 -2 -173 -4
-355 l-4 -330 249 -3 c137 -1 321 -12 409 -24 88 -12 229 -30 313 -42 85 -11
240 -18 345 -16 l192 5 0 -324 c0 -178 8 -329 18 -335 21 -13 42 34 42 93 0
32 6 36 27 19 47 -40 53 -2 53 360 l0 357 -79 0 c-43 0 -84 -9 -91 -20 -71
-115 -110 45 -110 453 l0 227 -290 0 c-180 0 -290 -8 -290 -20 0 -12 103 -20
270 -20 l269 0 6 -343 5 -343 80 -25 80 -25 -105 -2 -105 -2 0 326 c0 397 17
374 -274 374 -137 0 -226 8 -226 20 0 12 -76 20 -188 20 -218 0 -267 26 -188
99 28 27 61 39 86 32 22 -6 97 -11 166 -11 79 0 122 -7 114 -20 -7 -11 -89
-20 -182 -20 -109 0 -166 -7 -158 -20 7 -11 88 -20 181 -20 99 0 169 8 169 20
0 13 120 20 321 20 l321 0 -4 -321 c-3 -299 6 -385 32 -316 6 16 9 176 6 357
l-6 328 -290 3 c-159 1 -389 18 -510 36 -315 48 -438 59 -455 42z m65 -269 c0
-11 -20 -20 -43 -20 -95 0 -117 -50 -117 -268 0 -215 4 -223 120 -276 17 -7
-13 -14 -65 -15 l-95 -1 0 288 c0 212 7 291 25 299 46 18 175 13 175 -7z m449
2 c6 -10 -17 -22 -51 -27 -85 -12 -258 6 -258 28 0 23 294 22 309 -1z m521
-87 c7 -25 9 -166 6 -315 l-6 -270 -150 -5 c-105 -4 -141 0 -120 14 17 11 53
21 80 21 116 0 160 76 160 274 0 243 -41 287 -269 296 -241 8 -202 30 55 30
225 0 234 -2 244 -45z m-360 -34 c239 -32 270 -59 270 -241 0 -224 -45 -244
-420 -179 -303 52 -353 59 -425 59 -133 0 -150 21 -151 174 -2 151 28 219 101
230 64 9 412 -15 625 -43z m-230 -461 c0 -12 -66 -20 -159 -20 -87 0 -164 9
-171 20 -8 13 50 20 159 20 101 0 171 -8 171 -20z m230 -40 c8 -12 -26 -20
-88 -20 -55 0 -105 9 -112 20 -8 12 26 20 88 20 55 0 105 -9 112 -20z m705
-414 c-4 -75 -7 -19 -7 124 0 143 3 204 7 136 4 -68 4 -185 0 -260z"/>
<path d="M863 2194 c-136 -146 81 -364 222 -223 66 65 70 132 14 211 -55 76
-170 82 -236 12z m177 -54 c50 -93 -54 -211 -113 -129 -32 44 -34 79 -6 130
27 50 92 50 119 -1z"/>
<path d="M2335 2669 c-8 -9 -15 -32 -15 -51 0 -19 -19 -41 -42 -49 -32 -10
-39 -24 -29 -61 10 -43 5 -48 -49 -48 l-60 0 0 -357 0 -357 235 0 c275 0 539
-23 592 -50 21 -11 178 -23 350 -27 l313 -7 5 -333 c5 -251 12 -330 30 -324
19 6 23 99 18 382 -6 261 -1 373 14 373 15 0 24 -106 28 -325 3 -204 12 -323
25 -320 12 3 20 143 20 370 l0 365 -60 -6 c-33 -3 -85 -15 -116 -27 -80 -32
-81 -29 -90 343 l-9 340 -288 0 c-183 0 -287 7 -287 21 0 13 110 18 315 15
l315 -6 -4 -315 c-3 -266 1 -315 25 -315 26 0 29 52 24 344 l-5 343 -280 2
c-154 1 -388 18 -520 37 -350 52 -438 60 -455 43z m448 -89 c93 0 135 -7 126
-21 -8 -13 -78 -20 -175 -17 -108 3 -165 -4 -170 -19 -5 -16 46 -23 174 -23
108 0 182 -8 182 -20 0 -12 103 -20 270 -20 l269 0 6 -344 5 -343 70 -21 70
-20 -80 -12 c-114 -17 -110 -29 -110 327 0 396 17 373 -273 373 -128 0 -230 9
-237 20 -7 11 -88 20 -180 20 -190 0 -230 10 -230 59 0 39 75 83 117 70 14 -5
89 -9 166 -9z m-373 -180 c7 -12 -12 -20 -46 -20 -194 0 -206 -461 -14 -541
29 -12 15 -17 -55 -18 l-95 -1 0 288 c0 212 7 291 25 299 45 18 172 13 185 -7z
m450 2 c0 -9 -29 -22 -65 -27 -88 -14 -277 6 -263 28 14 23 328 22 328 -1z
m500 -56 c6 -5 10 -146 10 -313 l0 -303 -137 -6 c-91 -4 -132 1 -124 15 8 12
39 21 69 21 125 0 162 62 162 268 0 222 -49 297 -193 295 -42 -1 -113 4 -157
12 l-80 13 70 12 c74 12 363 1 380 -14z m-350 -65 c146 -19 189 -33 225 -71
91 -97 45 -393 -61 -389 -54 2 -315 38 -484 67 -99 17 -218 31 -264 32 -120 0
-146 35 -146 198 0 229 82 247 730 163z m-230 -461 c0 -11 49 -20 109 -20 60
0 115 -10 122 -22 10 -16 -21 -18 -104 -9 -64 7 -191 17 -282 23 -211 14 -215
48 -5 48 93 0 160 -8 160 -20z"/>
<path d="M2661 2187 c-60 -77 -53 -153 21 -215 84 -71 218 -56 218 25 0 13 9
23 20 23 35 0 22 102 -21 162 -57 80 -177 83 -238 5z m177 -52 c23 -63 -13
-155 -60 -155 -51 0 -83 83 -58 150 24 64 95 67 118 5z"/>
<path d="M537 1657 c-5 -31 -23 -49 -53 -54 -90 -12 -43 -74 52 -68 47 3 84
-3 84 -15 0 -11 -55 -20 -129 -20 -71 0 -134 -9 -141 -19 -15 -25 -22 -676 -7
-691 6 -6 150 -14 319 -19 169 -4 362 -18 428 -31 66 -13 212 -28 325 -33
l205 -10 0 347 c0 190 -8 358 -18 373 -26 42 -482 51 -557 12 -43 -23 -102
-27 -279 -16 -318 18 -326 12 -326 -257 0 -179 5 -209 42 -248 l41 -44 -41
-13 c-75 -24 -82 2 -82 298 0 338 -44 302 375 302 157 -1 285 5 285 12 0 26
-67 37 -223 37 -116 0 -158 7 -152 24 9 29 378 24 396 -5 6 -10 136 -20 290
-23 l279 -6 5 -347 c5 -262 12 -344 30 -338 26 9 27 20 19 475 l-4 260 -308 0
c-179 0 -311 8 -315 19 -4 11 -96 21 -205 23 -153 2 -190 8 -160 25 44 25 329
18 357 -9 10 -10 171 -18 357 -18 l338 0 -7 -324 c-4 -245 0 -325 19 -331 19
-7 24 70 19 346 l-5 355 -316 -4 c-184 -3 -327 4 -340 15 -13 11 -96 25 -184
31 -88 6 -216 16 -283 23 -119 12 -124 10 -130 -34z m1022 -286 c23 -14 25
-438 4 -541 -13 -58 -17 -60 -133 -64 -98 -2 -108 0 -54 13 135 33 164 85 164
293 l0 186 -67 51 c-58 44 -87 51 -219 51 -93 0 -157 9 -166 23 -15 25 430 13
471 -12z m-354 -55 c248 -35 275 -59 275 -246 0 -135 -65 -254 -121 -219 -11
7 -86 20 -165 29 -79 8 -238 31 -353 49 -115 19 -230 30 -255 25 -99 -19 -151
246 -70 359 40 56 317 57 689 3z m-305 -456 c0 -11 -31 -20 -70 -20 -38 0 -70
9 -70 20 0 11 32 20 70 20 39 0 70 -9 70 -20z"/>
<path d="M861 1227 c-89 -113 -20 -267 119 -267 121 0 193 120 137 226 -58
108 -187 129 -256 41z m169 -54 c40 -62 10 -153 -50 -153 -56 0 -88 75 -62
146 26 67 71 69 112 7z"/>
<path d="M2353 1687 c-7 -8 -13 -30 -13 -49 0 -21 -18 -38 -45 -42 -88 -12
-52 -66 40 -61 47 3 85 -3 85 -14 0 -10 -61 -22 -135 -25 l-135 -6 0 -355 0
-356 310 -8 c171 -4 364 -18 430 -30 227 -44 525 -50 533 -10 12 57 -12 685
-26 699 -7 7 -124 17 -260 23 -136 5 -256 18 -266 28 -10 10 -103 19 -205 19
-198 0 -217 12 -151 91 33 39 46 40 215 24 99 -10 324 -24 500 -31 l320 -14
-4 -325 c-3 -274 1 -325 26 -325 24 0 28 54 23 353 l-5 353 -323 -4 c-210 -3
-328 3 -336 17 -8 12 -84 21 -181 21 -92 0 -173 9 -180 20 -14 22 -196 28
-217 7z m477 -245 c131 -16 -69 -37 -270 -28 -310 15 -327 2 -337 -244 -6
-154 -2 -181 36 -233 47 -63 40 -97 -20 -97 -66 0 -60 594 6 604 52 7 525 6
585 -2z m532 -84 c20 -32 21 -366 2 -498 l-14 -90 -120 -4 c-98 -2 -108 0 -54
13 135 33 164 85 164 293 l0 186 -66 50 c-56 43 -89 51 -220 54 -85 2 -161 13
-167 24 -9 13 67 16 222 9 169 -7 240 -18 253 -37z m-538 -17 c25 -10 116 -25
202 -32 215 -18 254 -54 254 -237 0 -136 -65 -256 -120 -222 -10 6 -85 20
-165 30 -80 9 -235 32 -345 49 -110 18 -224 30 -252 27 -117 -11 -173 231 -83
355 38 52 403 74 509 30z m-114 -481 c7 -12 -20 -20 -69 -20 -44 0 -81 9 -81
20 0 11 31 20 69 20 38 0 74 -9 81 -20z"/>
<path d="M2669 1227 c-99 -107 -32 -267 111 -267 143 0 209 165 107 267 -69
70 -153 70 -218 0z m161 -54 c40 -61 10 -153 -49 -153 -60 0 -90 70 -60 142
29 70 67 74 109 11z"/>
<path d="M2520 1560 c0 -12 73 -20 180 -20 107 0 180 -8 180 -20 0 -12 99 -20
258 -20 355 0 322 37 322 -364 0 -263 6 -337 25 -331 26 9 27 18 19 475 l-4
260 -310 0 c-193 0 -310 8 -310 20 0 12 -73 20 -180 20 -107 0 -180 -8 -180
-20z"/>
<path d="M5590 29 c-55 -25 -40 -27 175 -28 134 -1 235 7 235 18 0 34 -41 45
-71 20 -22 -18 -42 -19 -77 -3 -34 15 -53 15 -70 -2 -17 -17 -33 -17 -62 2
-47 29 -53 29 -130 -7z"/>
</g>
</svg>
